<?xml version="1.0" encoding="utf-8"?>
<!-- Generator: Adobe Illustrator 19.2.1, SVG Export Plug-In . SVG Version: 6.00 Build 0)  -->
<!DOCTYPE svg PUBLIC "-//W3C//DTD SVG 1.1//EN" "http://www.w3.org/Graphics/SVG/1.1/DTD/svg11.dtd">
<svg version="1.1" id="Layer_1" xmlns="http://www.w3.org/2000/svg" xmlns:xlink="http://www.w3.org/1999/xlink" x="0px" y="0px"
	 viewBox="0 0 556.2 338.9" enable-background="new 0 0 556.2 338.9" xml:space="preserve">
<g>
	<g>
		<g>
			<path d="M151.5,110.1l1.7,0.6c0,0,0.1,0,0.1,0c0.3-1.8,0.6-3.7,0.9-5.5l-1.1-0.3c-0.5-0.2-1-0.3-1.4-0.5
				c-0.6-0.2-1.3-0.4-1.9-0.6c-0.7-0.3-1.4-0.6-2.1-0.8c-1.5-0.6-3-1.1-4.3-1.8c0,0-0.1,0-0.1,0l-1.7-0.8c-0.5-0.2-1-0.4-1.4-0.7
				l-3.1-1.7c-0.6-0.3-1.1-0.7-1.8-1.1c-0.4-0.3-0.8-0.5-1.2-0.7l-0.6-0.4c-0.3-0.2-0.6-0.3-0.8-0.5l-2.9-2.1
				c-0.5-0.3-0.9-0.6-1.2-1l-2.7-2.3c-0.3-0.3-0.7-0.7-1-1c-1.4-1.3-2.7-2.5-3.9-3.9c-3.4-3.7-6.2-7.4-8.5-11.1c0,0,0-0.1-0.1-0.1
				c-0.5-0.7-0.9-1.5-1.4-2.4c-0.3-0.5-0.6-1.1-0.9-1.6c-0.4-0.8-0.8-1.6-1.2-2.4l-0.1-0.1l-4.9,2.4l0.1,0.1
				c0.4,0.9,0.9,1.8,1.3,2.6c0,0,0,0.1,0.1,0.1c0.3,0.5,0.6,1,0.9,1.5c0.5,0.9,1,1.8,1.6,2.7c2.4,4,5.4,7.9,9,11.9
				c1.3,1.5,2.8,2.9,4.2,4.2l1.1,1c0,0,0.1,0.1,0.1,0.1l2.7,2.3c0.5,0.4,1,0.8,1.6,1.3l2.9,2.1c0,0,0.1,0,0.1,0.1
				c0.3,0.2,0.7,0.4,1,0.7l0.6,0.4c0.4,0.2,0.7,0.5,1.1,0.7c0.6,0.4,1.3,0.9,2.1,1.3l3.1,1.7c0.6,0.3,1.2,0.6,1.9,0.9l1.6,0.7
				c1.6,0.8,3.2,1.4,4.8,2c0.7,0.3,1.4,0.5,2.1,0.8c0.1,0,0.1,0,0.2,0.1c0.7,0.2,1.4,0.5,2.1,0.7
				C150.6,109.8,151.1,109.9,151.5,110.1z"/>
			<path d="M150.1,122.6l1.4,0.4c0.1-0.6,0.1-1.1,0.2-1.7c0.2-1.3,0.4-2.5,0.5-3.8l-0.8-0.2l-1.9-0.6c-0.5-0.2-1-0.3-1.4-0.5
				c-0.8-0.3-1.6-0.5-2.5-0.8c-0.7-0.3-1.5-0.6-2.2-0.9c-1.9-0.7-3.6-1.4-5.4-2.3l-2-0.9c-0.6-0.3-1.2-0.5-1.7-0.8l-3.7-2
				c-0.7-0.4-1.4-0.9-2.2-1.4c-0.4-0.3-0.9-0.6-1.3-0.8l-0.7-0.4c-0.4-0.2-0.7-0.5-1-0.6l-3.4-2.5c-0.6-0.4-1.1-0.8-1.5-1.2
				l-3.2-2.7l-0.9-0.9c-1.7-1.6-3.4-3.2-4.9-4.9c-3.9-4.3-7.3-8.6-9.9-13.1c-0.6-0.9-1.1-1.9-1.7-2.9c-0.3-0.6-0.6-1.1-1-1.7
				c-0.5-1-1-2-1.5-3c-0.3-0.6-0.6-1.2-0.9-1.8l-4.9,2.5c0.3,0.6,0.6,1.1,0.9,1.7c0.5,1.1,1.1,2.2,1.6,3.3c0,0,0,0.1,0,0.1
				c0.3,0.5,0.6,1.1,0.9,1.6c0.6,1.1,1.2,2.2,1.8,3.1c2.8,4.6,6.4,9.3,10.5,13.8c1.7,1.9,3.5,3.6,5.2,5.2l1,0.9c0,0,0.1,0.1,0.1,0.1
				l3.2,2.7c0.5,0.5,1.1,0.9,1.8,1.5l3.5,2.6c0.4,0.3,0.8,0.5,1.2,0.8l0.6,0.4c0.4,0.3,0.8,0.5,1.2,0.8c0.8,0.5,1.6,1,2.5,1.5l3.6,2
				c0.6,0.4,1.3,0.7,2.1,1.1l1.8,0.9c1.9,1,3.9,1.7,5.8,2.5c0.7,0.3,1.5,0.6,2.2,0.9c0,0,0.1,0,0.1,0.1c0.9,0.3,1.8,0.6,2.7,0.9
				c0.5,0.1,0.9,0.3,1.4,0.4l2,0.6C150,122.6,150.1,122.6,150.1,122.6z"/>
			<path d="M150.8,129.8l-2.6-0.6l-3.6-1.1c-1-0.3-2-0.6-3-1c-0.7-0.3-1.5-0.6-2.2-0.9c-2.2-0.9-4.3-1.7-6.4-2.7l-2.2-1
				c-0.7-0.3-1.4-0.6-2-1l-4.2-2.3c-0.9-0.5-1.7-1-2.6-1.6c-0.5-0.3-0.9-0.6-1.3-0.9l-0.7-0.5c-0.4-0.3-0.9-0.5-1.2-0.8l-3.9-2.9
				c-0.7-0.5-1.2-0.9-1.7-1.4l-3.6-3.1l-0.7-0.6c-2.1-2-4.1-3.9-6-6c-4.5-4.9-8.3-9.9-11.4-14.9c-0.7-1.1-1.4-2.2-2-3.5
				c-0.3-0.6-0.7-1.2-1-1.8c-0.6-1.1-1.2-2.3-1.8-3.5l-4.9,2.4c0.6,1.3,1.2,2.5,1.9,3.8c0.3,0.6,0.7,1.2,1,1.8
				c0.7,1.2,1.4,2.5,2.2,3.7c3.2,5.3,7.3,10.6,11.9,15.7c2,2.3,4.2,4.3,6.3,6.3l0.7,0.7c0,0,0.1,0.1,0.1,0.1l3.7,3.1
				c0.6,0.5,1.3,1,2.1,1.6l4,2.9c0.5,0.3,0.9,0.6,1.4,0.9l0.7,0.5c0.4,0.3,0.9,0.6,1.3,0.8c0.9,0.6,1.9,1.2,2.9,1.8l4.2,2.3
				c0.7,0.4,1.5,0.8,2.4,1.2l2.1,1c2.3,1.1,4.6,2,6.9,2.9c0.7,0.3,1.5,0.6,2.2,0.9c0,0,0.1,0,0.1,0c1.1,0.4,2.2,0.7,3.2,1l3.7,1.1
				c0.1,0,0.1,0,0.2,0l3.5,0.9C150.5,133.6,150.6,131.7,150.8,129.8z"/>
		</g>
		<g>
			<path d="M206.2,64.4l-0.1-0.2c-0.3-0.8-0.6-1.5-0.8-2.3c-0.2-0.7-0.5-1.3-0.7-2c-2.2,0.2-4.2,0.3-6.3,0.3c-7,0.2-13.1-0.1-18.7-1
				c-6.1-0.9-12-2.4-17.5-4.4c-5.3-2-10.6-4.8-15.6-8.3l-2.9-2c-0.2-0.1-0.3-0.2-0.5-0.4l-2.8-2.3l-3.5,4.3l2.7,2.2
				c0.2,0.2,0.4,0.4,0.7,0.6c0,0,0.1,0,0.1,0.1l2.9,2.1c5.4,3.7,11.1,6.7,16.8,8.9c5.8,2.2,12.1,3.8,18.6,4.7
				c4.7,0.7,9.8,1.1,15.5,1.1c1.3,0,2.7,0,4.1-0.1c2.6,0,5.1-0.2,7.6-0.4c0.2,0,0.4,0,0.6,0C206.4,65.1,206.3,64.8,206.2,64.4z"/>
			<path d="M209.2,72.1c-0.1,0-0.1,0-0.2,0c-0.8,0.1-1.5,0.1-2.3,0.2c-2.7,0.2-5.4,0.4-8.2,0.5c-7.7,0.2-14.5-0.1-20.8-1.1
				c-7-1-13.8-2.8-20.1-5.1c-6.2-2.4-12.4-5.6-18.2-9.6l-3.3-2.3c-0.2-0.2-0.4-0.3-0.6-0.5l-4.6-3.8l-3.5,4.3l4.6,3.8
				c0.3,0.2,0.5,0.4,0.8,0.6c0,0,0.1,0,0.1,0.1l3.4,2.4c6.2,4.3,12.8,7.7,19.4,10.3c6.6,2.5,13.8,4.3,21.2,5.4
				c5.3,0.8,11,1.2,17.2,1.2c1.5,0,3,0,4.5-0.1c2.9,0,5.7-0.3,8.5-0.5c0.8-0.1,1.5-0.1,2.3-0.2c0,0,0.1,0,0.1,0
				c0.6-0.1,1.3-0.2,1.9-0.2C210.8,75.6,210,73.8,209.2,72.1z"/>
			<path d="M214.7,83.9c-0.7,0.1-1.4,0.2-2.1,0.3l-2.3,0.3l-2.2,0.2c-3,0.2-6,0.5-9.1,0.5c-8.5,0.2-16-0.2-23-1.2
				c-7.9-1.2-15.6-3.1-22.7-5.8c-7.2-2.7-14.2-6.4-20.8-11l-3.7-2.6c-0.2-0.2-0.5-0.4-0.7-0.6l-2.7-2.2l-3.5,4.3l2.7,2.2
				c0.3,0.2,0.6,0.5,0.9,0.8l3.9,2.7c7,4.8,14.5,8.7,22,11.6c7.5,2.8,15.5,4.9,23.8,6.1c5.9,0.9,12.2,1.4,19,1.4
				c1.6,0,3.2,0,4.9-0.1c3.2,0,6.4-0.3,9.4-0.5l2.3-0.2c0,0,0.1,0,0.1,0l2.3-0.3c1.4-0.2,2.7-0.3,4.1-0.5
				C216.4,87.3,215.5,85.5,214.7,83.9z"/>
		</g>
		<g>
			<path d="M549.1,209.8l-6.6-1.5l-4.2-1.3c-0.3-0.1-0.6-0.2-0.9-0.3c-0.4-0.1-0.8-0.2-1.2-0.4l-4.1-1.7c-0.2-0.1-0.5-0.2-0.7-0.3
				c-0.4-0.2-0.8-0.3-1.1-0.5c0,0-0.1,0-0.1-0.1l-4-2c0,0-0.1,0-0.1-0.1c-0.4-0.2-0.9-0.5-1.4-0.8l-3.9-2.4l-4.2-3.1l-3.9-3.5
				l-2.9-3.1c0,0-0.1-0.1-0.1-0.1c-0.4-0.3-0.7-0.8-1.1-1.3l-1.4-1.7c-0.2-0.2-0.4-0.5-0.6-0.7c-0.2-0.3-0.5-0.5-0.6-0.8
				c0,0,0-0.1-0.1-0.1l-1.2-1.8c-3.1-4.6-5.5-9.6-7-14.7l-0.9-3.4c-0.3,0.1-0.5,0.2-0.8,0.3c-1.4,0.5-2.9,0.9-4.4,1.4l0.8,3.2
				c0,0,0,0.1,0,0.1c1.7,5.7,4.4,11.2,7.7,16.2l1.2,1.8c0.3,0.5,0.7,1,1,1.4c0.1,0.2,0.3,0.3,0.5,0.6l1.4,1.8
				c0.4,0.6,0.9,1.2,1.6,1.8l3,3.1c0.1,0.1,0.1,0.1,0.2,0.2l4.1,3.6c0.1,0.1,0.1,0.1,0.2,0.2l4.4,3.3c0.1,0.1,0.1,0.1,0.2,0.1
				l3.9,2.4c0.6,0.4,1.2,0.8,2,1.1l3.9,2c0.6,0.3,1.2,0.6,1.7,0.8c0.2,0.1,0.4,0.1,0.6,0.2l4.2,1.7c0,0,0.1,0,0.1,0
				c0.5,0.2,1,0.3,1.5,0.5c0.3,0.1,0.5,0.2,0.8,0.2l4.3,1.4c0.1,0,0.1,0,0.2,0.1l6.8,1.6c0.1,0,0.1,0,0.2,0l7.2,1.1l0.8-5.4
				L549.1,209.8z"/>
			<path d="M546.8,221.9l-7.6-1.8l-4.9-1.5c-0.3-0.1-0.6-0.2-0.9-0.3c-0.5-0.2-1-0.3-1.4-0.4l-4.8-2c-0.3-0.1-0.5-0.2-0.8-0.3
				c-0.5-0.2-1-0.4-1.3-0.6c0,0-0.1,0-0.1,0l-4.7-2.4c-0.6-0.3-1.2-0.6-1.8-1l-4.5-2.8l-5.1-3.8l-1-0.8c-10.3-8.6-18.1-20.3-22-33
				c-0.2-0.6-0.3-1.3-0.5-1.9c-0.1-0.4-0.2-0.8-0.3-1.3c-0.4,0.1-0.9,0.3-1.3,0.4c-1.3,0.4-2.6,0.9-3.9,1.3c0.1,0.3,0.2,0.6,0.2,0.9
				c0.2,0.6,0.3,1.3,0.5,1.9c0,0,0,0.1,0,0.1c4.2,13.7,12.7,26.4,23.7,35.6l1,0.9c0.1,0,0.1,0.1,0.2,0.1l5.3,3.9
				c0.1,0,0.1,0.1,0.2,0.1l4.6,2.9c0.7,0.5,1.5,0.9,2.3,1.3l4.6,2.3c0.7,0.4,1.3,0.6,1.9,0.9c0.2,0.1,0.4,0.2,0.7,0.3l4.9,2
				c0.6,0.2,1.2,0.4,1.7,0.6c0.3,0.1,0.6,0.2,0.9,0.3l5,1.6c0.1,0,0.1,0,0.2,0.1l7.8,1.8c0.1,0,0.1,0,0.2,0l5.9,0.9l0.8-5.4
				L546.8,221.9z"/>
			<path d="M544.5,234.1l-8.5-2l-5.5-1.7c-0.3-0.1-0.7-0.2-1-0.3c-0.6-0.2-1.2-0.4-1.7-0.5l-5.5-2.2c-0.3-0.1-0.6-0.2-0.9-0.4
				c-0.6-0.2-1.2-0.5-1.7-0.8l-5.4-2.7c-0.7-0.3-1.4-0.8-2.2-1.2L507,219l-5.9-4.4l-1.1-1c-12.1-10.1-21.3-23.9-25.9-38.9l-0.3-1.2
				c-0.1-0.5-0.3-1.1-0.4-1.6c-0.1,0-0.3,0.1-0.4,0.1c-1.5,0.5-3.1,1-4.8,1.6c0.1,0.4,0.2,0.9,0.3,1.3l0.3,1.3c0,0,0,0.1,0,0.1
				c4.9,16,14.7,30.8,27.6,41.5l1.1,1c0,0,0.1,0.1,0.2,0.1l6.1,4.5c0.1,0,0.1,0.1,0.2,0.1l5.3,3.3c0.8,0.5,1.7,1.1,2.6,1.5l5.3,2.7
				c0.8,0.4,1.5,0.7,2.2,1c0.3,0.1,0.5,0.2,0.8,0.3l5.6,2.3c0.7,0.2,1.3,0.4,2,0.7c0.3,0.1,0.6,0.2,1,0.3l5.6,1.8
				c0.1,0,0.1,0,0.2,0.1l8.7,2c0.1,0,0.1,0,0.2,0l5.4,0.8l0.8-5.4L544.5,234.1z"/>
		</g>
		<g>
			<g>
				<path d="M382.7,149.2c-4.1-0.9-8.3-2.2-12.4-3.8c-0.1,0.8-0.3,1.6-0.5,2.6l-0.2,1c-0.1,0.6-0.3,1.3-0.5,1.9
					c4.1,1.6,8.3,2.9,12.5,3.8c5,1.1,10.3,1.7,15.6,1.9c0.7-1.7,1.3-3.5,2-5.4C393.5,150.9,387.9,150.3,382.7,149.2z"/>
				<path d="M524.5,121.3c-1.3,0.2-2.7,0.4-4.1,0.6c-0.6,0.1-1.3,0.2-2,0.3c-1.3,0.2-2.7,0.5-4,0.8c-13.7,2.8-26.2,7-38.4,11
					l-4.1,1.4c-10.1,3.4-19.7,6.6-29.3,9.2c-0.3,0.9-0.5,1.8-0.8,2.6c-0.3,1.2-0.7,2.4-1,3.5c10.8-2.8,21.6-6.4,32.9-10.2l4-1.3
					c12-4,24.4-8.1,37.8-10.9c1.2-0.3,2.5-0.5,3.8-0.7c0.7-0.1,1.3-0.2,1.9-0.3c1.3-0.2,2.6-0.4,3.8-0.5L524.5,121.3z"/>
			</g>
			<g>
				<path d="M528,133.3c-0.6,0.1-1.3,0.2-1.9,0.3c-1.2,0.2-2.4,0.3-3.7,0.5c-0.6,0.1-1.3,0.2-1.9,0.3c-1.2,0.2-2.4,0.4-3.6,0.7
					c-12.9,2.6-25.6,6.9-37.8,10.9l-3.7,1.2c-11.8,4-24.1,8.1-36.4,11.1c-0.2,0-0.3,0.1-0.5,0.1c-0.5,1.7-1.1,3.3-1.6,5
					c-0.1,0.4-0.2,0.7-0.4,1.1c1.2-0.3,2.5-0.6,3.8-0.9c12.5-3.1,24.8-7.2,36.8-11.2l3.7-1.2c12.1-4,24.6-8.2,37.2-10.8
					c1.1-0.2,2.2-0.4,3.4-0.6c0.7-0.1,1.3-0.2,1.9-0.3c1.1-0.2,2.3-0.3,3.4-0.5c0.6-0.1,1.3-0.2,1.9-0.3L528,133.3z"/>
				<path d="M380,161.3c-4.4-1-8.7-2.3-13-3.9c-0.6,1.7-1.3,3.4-2.1,5.1c4.6,1.8,9.3,3.2,13.9,4.2c4.1,0.9,8.4,1.5,12.7,1.9
					c0.2-0.3,0.4-0.6,0.5-1c0.7-1.3,1.4-2.7,2.2-4.3C389.4,162.9,384.6,162.2,380,161.3z"/>
			</g>
			<g>
				<path d="M526.5,146c-0.7,0.1-1.4,0.2-2.2,0.3c-0.6,0.1-1.2,0.2-1.8,0.3c-1,0.2-2.1,0.4-3.2,0.6c-12.2,2.5-24.4,6.6-37.4,10.9
					l-3.1,1c-11.9,4-24.1,8.1-36.9,11.2c-2.8,0.7-5.6,1.3-8.3,1.9c-0.4,1-0.9,2.1-1.3,3.3l-0.1,0.1c-0.4,0.9-0.8,1.9-1.2,2.7
					c3.9-0.7,8-1.6,12.2-2.7c13-3.2,25.4-7.3,37.3-11.3l3.1-1c12.8-4.3,24.9-8.3,36.8-10.7c1-0.2,1.9-0.4,3-0.6
					c0.6-0.1,1.2-0.2,1.8-0.3c0.6-0.1,1.3-0.2,1.9-0.3L526.5,146z"/>
				<path d="M377.4,173.3c-5.2-1.1-10.4-2.7-15.5-4.7c-0.9,1.6-1.9,3.2-2.9,4.8c5.7,2.3,11.5,4.1,17.3,5.3c2.5,0.5,5,1,7.6,1.4
					c0.2-0.2,0.4-0.5,0.6-0.7c0.3-0.4,0.7-0.9,1.1-1.5l0.1-0.1c0.5-0.7,1.1-1.6,1.9-2.7c0,0,0-0.1,0.1-0.1
					C384.1,174.6,380.7,174.1,377.4,173.3z"/>
			</g>
		</g>
		<g>
			<g>
				<path d="M459.5,93.9c0.4-0.1,0.7-0.2,1.1-0.3c3.1-4.2,6.4-8.4,10.1-12.6c1.5-1.8,3.2-3.5,4.8-5.2l0.6-0.6l-4-3.8l-0.6,0.6
					c-1.7,1.7-3.4,3.6-5,5.4c-5.2,5.8-9.8,11.7-13.8,17.8C455.1,94.9,457.3,94.4,459.5,93.9z"/>
				<path d="M434.5,135.8c0,0.1-0.1,0.2-0.1,0.3c-0.8,2.6-1.5,5.3-2.3,8c-0.9,3-1.8,6.1-2.7,9.3c-2.1,7-4.1,12.7-6.3,17.9
					c-2.6,6.1-5.6,11.9-9,17.3c-1.8,2.8-3.8,5.7-6,8.5c1.9,0.5,3.8,1,5.7,1.5c1.7-2.3,3.4-4.7,4.9-7c3.6-5.6,6.8-11.7,9.5-18.1
					c2.3-5.3,4.3-11.2,6.5-18.4c1-3.2,1.9-6.3,2.7-9.4c0.8-2.7,1.5-5.3,2.3-7.9c0.2-0.6,0.3-1.2,0.5-1.7
					C438.3,136,436.4,135.9,434.5,135.8z"/>
			</g>
			<g>
				<path d="M444,96.1c0,0,0.1,0,0.1,0c2-3.3,4.1-6.5,6.2-9.4c4-5.5,7.5-9.8,11.1-13.8c1.6-1.9,3.5-3.8,5.2-5.6
					c0.7-0.8,1.5-1.5,2.2-2.3l-4-3.8c-0.7,0.8-1.4,1.5-2.2,2.3c-1.8,1.9-3.7,3.8-5.4,5.8c-3.7,4.1-7.3,8.6-11.4,14.2
					c-2.8,3.9-5.5,8.2-8.1,12.6C439.9,96.1,442,96.2,444,96.1z"/>
				<path d="M422.2,134.6c-0.1,0-0.1,0-0.2,0c-0.6,2-1.2,4-1.8,6.1c-2.5,8.6-5,17.5-8.5,25.8c-2.3,5.5-5,10.7-8.1,15.5
					c-2.7,4.2-5.9,8.4-9.4,12.6c2.1,0.3,4.2,0.6,6.4,1c2.8-3.5,5.4-7.1,7.7-10.6c3.2-5,6.1-10.5,8.5-16.3c3.7-8.6,6.3-17.6,8.8-26.4
					c0.7-2.3,1.3-4.6,2-6.9C425.7,135.1,423.9,134.9,422.2,134.6z"/>
			</g>
			<g>
				<path d="M428.1,95.2c0.7,0.1,1.4,0.2,2.1,0.3c3.2-5.7,6.6-11.1,10.1-16c4.2-5.7,8.1-10.5,11.9-14.8c1.8-2.1,3.7-4.1,5.6-6.1
					l0.2-0.2l-4-3.8l-0.2,0.2c-1.9,2-3.9,4.1-5.8,6.3c-3.9,4.3-7.9,9.3-12.2,15.2c-3.7,5.1-7.2,10.7-10.5,16.7
					c-0.3,0.5-0.6,1.1-0.9,1.7C425.6,94.8,426.9,95,428.1,95.2z"/>
				<path d="M409.8,132.1c-0.5,1.7-1,3.3-1.4,5c-2.5,8.8-4.9,17-8.1,24.5c-2.1,4.9-4.4,9.4-7.1,13.7c-2.7,4.2-5.7,8.2-9.3,12.3
					c-0.4,0.5-0.9,0.9-1.3,1.4c-0.7,0.7-1.3,1.5-2,2.2l-2.3,2.3c1.1,0,2.2,0,3.2,0c0.4,0,0.8,0,1.2,0l0.1,0c0.4,0,0.9,0,1.3,0
					c0.6,0,1.1,0,1.7,0.1c0.3-0.3,0.6-0.6,0.9-1c0.4-0.5,0.8-0.9,1.3-1.4c3.8-4.3,7.1-8.7,9.9-13.1c2.9-4.5,5.4-9.3,7.6-14.5
					c3.3-7.8,5.7-16.2,8.3-25.1c0.5-1.7,1-3.5,1.5-5.3C413.4,133,411.6,132.6,409.8,132.1z"/>
			</g>
		</g>
		<g>
			<path d="M496,79.4c-0.5,0.4-1,0.9-1.4,1.3c-0.7,0.6-1.4,1.3-2.1,1.8l-2.7,2.2l-0.9,0.7c-12.6,9.4-28.4,14.9-44.6,15.5
				c-7.8,0.3-16-0.5-24.2-2.4c-2.7-0.6-5.3-1.4-7.8-2.2c-1.6,1.4-3.2,2.7-4.9,4.1c3.7,1.4,7.6,2.6,11.5,3.5
				c7.4,1.7,14.8,2.6,21.9,2.6c1.3,0,2.5,0,3.8-0.1c17.3-0.6,34.2-6.5,47.7-16.6l1-0.7c0,0,0.1-0.1,0.1-0.1l2.8-2.3
				c0.8-0.6,1.5-1.3,2.3-2c0.5-0.4,0.9-0.8,1.4-1.2L496,79.4z"/>
			<path d="M503.3,89.4l-0.3,0.3c-0.9,0.8-1.7,1.6-2.6,2.3l-3.2,2.6l-1.1,0.8c-14.6,10.9-32.9,17.3-51.5,18
				c-8.9,0.4-18.2-0.5-27.6-2.7c-5.7-1.3-11.1-3.1-16.4-5.4c-1.8,1.2-3.6,2.4-5.4,3.6c6.5,3,13.4,5.4,20.6,7.1
				c8.4,1.9,16.7,2.9,24.8,2.9c1.4,0,2.8,0,4.2-0.1c19.7-0.7,39.1-7.5,54.6-19l1.1-0.8c0,0,0.1-0.1,0.1-0.1l3.2-2.6
				c1-0.8,1.9-1.6,2.8-2.4l0.3-0.3L503.3,89.4z"/>
			<path d="M510.4,99.7c-0.7,0.6-1.4,1.2-2,1.8l-3.6,2.9l-1.2,0.9c-3.9,3-8.2,5.7-13.3,8.4c-2.1,1.1-4.2,2.1-6.4,3.1l-1.1,0.5
				c-2.3,1-4.5,1.9-6.8,2.6c-5.1,1.8-10.2,3.1-15.2,4c-5.1,0.9-10.3,1.5-15.5,1.7c-19.8,0.7-39.4-3.6-56.9-12.6
				c-1.9,1.1-3.8,2.1-5.8,3.2c0,0,0.1,0,0.1,0.1c17.8,9.8,37.8,14.9,58.2,14.9c1.5,0,3.1,0,4.6-0.1c5.5-0.2,11-0.8,16.3-1.8
				c5.2-1,10.6-2.4,15.9-4.2c2.5-0.8,4.9-1.8,7.2-2.8l0.5-0.2c0,0,0.1,0,0.1,0l0.7-0.3c2.2-1,4.6-2.1,6.8-3.3
				c5.3-2.8,9.9-5.7,14-8.8l1.3-0.9c0,0,0.1,0,0.1-0.1l3.7-3c0.7-0.6,1.5-1.3,2.2-1.9L510.4,99.7z"/>
		</g>
		<g>
			<path d="M273.9,83.6c4.1,4.8,8,9.4,11.5,14.1c2.8,3.7,5.4,7.4,7.8,11.2c1.4,2.2,2.8,4.7,4.2,7.2c1.4-1.1,2.9-2.2,4.5-3.3
				c-1.3-2.4-2.7-4.7-4-6.9c-2.5-3.9-5.2-7.8-8-11.6c-3.6-4.8-7.6-9.4-11.7-14.3c-2.3-2.8-4.8-5.6-7.2-8.5
				c-3.9-4.8-6.9-8.9-9.6-12.9c-3.1-4.8-5.8-9.7-7.9-14.6c-2.1-4.9-3.9-10.2-5.2-15.8c-1.1-4.7-2-9.6-2.7-16l-0.2-1.9
				c-0.1-1.3-0.2-2.7-0.3-4l-0.2-3.8l-5.5,0.3l0.2,3.9c0.1,1.4,0.2,2.8,0.3,4.1l0.2,1.9c0.8,6.7,1.6,11.9,2.8,16.8
				c1.4,5.9,3.3,11.5,5.5,16.7c2.2,5.2,5.1,10.4,8.3,15.5c2.7,4.2,5.9,8.4,9.9,13.4C269.1,77.9,271.6,80.8,273.9,83.6z"/>
			<path d="M276.2,67.1c2.3,2.8,4.7,5.6,7,8.3c4.1,4.8,8.3,9.7,12.1,14.7c3,4,5.8,8.1,8.4,12.1c1.3,2.1,2.6,4.3,3.9,6.7
				c1.5-1,3.1-1.9,4.7-2.8c-1.3-2.4-2.6-4.6-4-6.8c-2.6-4.2-5.6-8.4-8.7-12.5c-3.9-5.2-8.2-10.2-12.3-15c-2.3-2.7-4.7-5.5-6.9-8.2
				c-3.6-4.4-6.4-8.2-8.8-11.8c-2.7-4.2-5-8.5-6.9-12.8c-1.8-4.3-3.4-8.9-4.6-13.8c-1-4.1-1.8-8.6-2.4-14.4c-0.1-0.7-0.1-1.3-0.2-2
				c-0.1-1.2-0.2-2.3-0.3-3.4L257.1,0l-5.5,0.3l0.3,5.5c0.1,1.2,0.2,2.4,0.3,3.6c0.1,0.6,0.1,1.3,0.2,2c0.7,6.1,1.5,10.8,2.5,15.1
				c1.3,5.2,2.9,10.1,4.9,14.7c2,4.6,4.4,9.2,7.3,13.6C269.6,58.6,272.5,62.5,276.2,67.1z"/>
			<path d="M271.1,36.3c3.1,7.4,7.7,14.4,14.7,23c2.1,2.6,4.4,5.2,6.7,8c4.2,4.9,8.5,10,12.6,15.4c3.2,4.3,6.3,8.7,9,13.1
				c1.4,2.2,2.8,4.6,4.2,7.1c1.6-0.9,3.2-1.7,4.9-2.5c-1.4-2.6-2.9-5.1-4.4-7.5c-2.8-4.5-6-9.1-9.3-13.5
				c-4.2-5.6-8.6-10.7-12.8-15.7c-2.3-2.7-4.5-5.3-6.7-7.9c-6.7-8.1-11-14.8-13.9-21.6c-1.6-3.6-2.9-7.6-3.9-11.8
				c-0.9-3.6-1.5-7.5-2.1-12.7c-0.1-0.7-0.1-1.3-0.2-2c-0.1-1-0.2-2-0.2-2.9l-0.1-2.6l-5.5,0.3l0.1,2.6c0.1,1,0.2,2.1,0.3,3.1
				c0.1,0.6,0.1,1.3,0.2,2c0.6,5.5,1.3,9.7,2.3,13.5C268,28.2,269.5,32.4,271.1,36.3z"/>
		</g>
		<g>
			<path d="M371.5,18.2c-0.6,1.8-1.4,4.1-2.5,6.3c-3.4,7.4-8.1,13.6-13.7,18.5c-0.1,2.4-0.1,4.7,0,7c7.8-5.6,14.3-13.5,18.7-23.1
				c1.2-2.4,2.1-4.9,2.7-6.8L371.5,18.2z"/>
			<path d="M384,19.7c-1,3.1-2.2,6.6-3.8,9.9c0,0,0,0.1-0.1,0.1c-0.5,1.2-1.1,2.3-1.8,3.5c-0.3,0.5-0.6,1.1-0.8,1.6
				c-0.3,0.5-0.6,1-0.9,1.6c-0.7,1.2-1.4,2.3-2.1,3.3c0,0-0.1,0.1-0.1,0.1c-1.9,2.9-4.3,5.8-7.3,8.9l-2.1,2.1
				c-0.4,0.4-0.9,0.8-1.4,1.2c-0.3,0.2-0.6,0.5-0.8,0.7l-1.1,0.9c-0.2,0.2-0.5,0.3-0.7,0.5l-2.8,2.1l-2.6,1.7c0.2,2,0.4,4,0.8,5.9
				l0.9-0.5c0,0,0.1,0,0.1-0.1c0.3-0.2,0.6-0.4,0.9-0.6l3-1.9c0.1,0,0.1-0.1,0.2-0.1l2.9-2.1c0.3-0.2,0.6-0.4,0.9-0.7l1.2-1
				c0.3-0.2,0.5-0.4,0.8-0.7c0.5-0.4,1.1-0.9,1.6-1.4l2.2-2.2c3.2-3.3,5.8-6.5,7.9-9.7c0.9-1.2,1.6-2.5,2.3-3.7
				c0.3-0.5,0.6-1,0.9-1.6c0-0.1,0.1-0.1,0.1-0.2c0.3-0.5,0.6-1.1,0.8-1.6c0.7-1.2,1.4-2.5,1.9-3.9c1.7-3.6,3-7.3,4.1-10.5L384,19.7
				z"/>
			<path d="M394.9,26.1c-1.2,3.5-2.3,6.3-3.5,8.7c0,0,0,0.1,0,0.1c-0.6,1.5-1.4,2.9-2.2,4.4c-0.3,0.5-0.6,1.1-0.9,1.6
				c-0.3,0.5-0.6,1.1-1,1.6c-0.9,1.5-1.7,2.8-2.6,4.1c0,0,0,0.1-0.1,0.1c-2.3,3.5-5.2,7-8.7,10.6l-2.5,2.5c-0.6,0.5-1.2,1-1.8,1.6
				c-0.3,0.2-0.6,0.5-0.9,0.7l-1.3,1.1c-0.3,0.2-0.6,0.5-0.9,0.7l-3.3,2.4l-3.5,2.2c-0.3,0.2-0.6,0.4-0.9,0.6l-2.3,1.3
				c-0.3,0.1-0.5,0.3-0.8,0.4c0.4,1.8,0.8,3.6,1.4,5.5c0.7-0.4,1.4-0.7,2-1.1l2.4-1.3c0,0,0.1,0,0.1-0.1c0.4-0.2,0.7-0.5,1.1-0.7
				l3.6-2.3c0.1,0,0.1-0.1,0.2-0.1l3.4-2.5c0.4-0.3,0.7-0.5,1.1-0.9l1.4-1.2c0.3-0.2,0.6-0.5,0.8-0.7c0.7-0.6,1.3-1.1,2-1.8l2.6-2.6
				c3.8-3.9,6.8-7.6,9.3-11.4c1.1-1.5,2-3,2.9-4.5c0.3-0.5,0.6-1.1,1-1.6c0-0.1,0.1-0.1,0.1-0.2c0.3-0.5,0.6-1.1,0.9-1.6
				c0.8-1.5,1.7-3.1,2.4-4.7c1.3-2.7,2.4-5.6,3.7-9.3L394.9,26.1z"/>
		</g>
		<g>
			<path d="M20.2,170.5l3.3,1.5c0.8,0.3,1.5,0.7,2.3,1.1l3.4,1.8c0.7,0.4,1.4,0.8,2.2,1.3c0.4,0.2,0.7,0.4,1.1,0.6l1.6,1l1.5,1
				c0.3,0.2,0.7,0.5,1,0.7c0.7,0.5,1.4,1,2.1,1.5c4,3,7.8,6.5,11.4,10.4c3.2,3.7,6.2,7.9,8.9,12.5c1.8,3.3,3.4,6.6,4.7,9.9
				c2.3,0.6,4.5,1.1,6.5,1.7c-1.7-4.7-3.8-9.5-6.5-14.3c-2.9-5-6.1-9.5-9.6-13.4c-3.8-4.2-7.9-8-12.2-11.2c-0.8-0.6-1.5-1.1-2.3-1.6
				c-0.3-0.2-0.7-0.5-1-0.7l-1.6-1.1c0,0-0.1-0.1-0.1-0.1l-1.7-1c-0.4-0.2-0.7-0.4-1.1-0.6c-0.8-0.5-1.6-0.9-2.5-1.4l-3.4-1.7
				c-0.9-0.5-1.8-0.9-2.6-1.2l-3.4-1.5c-1.4-0.6-2.8-1.1-4.2-1.6c-0.6-0.2-1.2-0.4-1.7-0.6l-1.9,5.2c0.6,0.2,1.2,0.4,1.8,0.7
				C17.6,169.5,19,170,20.2,170.5z"/>
			<path d="M17.3,182.7c1.1,0.5,2.1,0.9,3.1,1.4c3.5,1.7,7.2,3.9,11,6.6c3.3,2.5,6.5,5.4,9.5,8.7c2.7,3.1,5.2,6.6,7.4,10.4
				c0.1,0.1,0.1,0.2,0.2,0.4c1.5,0.3,3,0.6,4.6,0.9c0.8,0.2,1.5,0.3,2.3,0.5c-0.7-1.5-1.5-3-2.3-4.5c-2.5-4.2-5.2-8-8.1-11.4
				c-3.2-3.6-6.7-6.7-10.3-9.4c-4.2-3-8.1-5.3-11.8-7.1c-1.1-0.6-2.3-1.1-3.4-1.6c-0.6-0.2-1.2-0.5-1.7-0.8c0,0-0.1,0-0.1,0
				c-1.1-0.5-2.3-0.9-3.4-1.3c-0.6-0.2-1.2-0.4-1.8-0.7l-1.9,5.1c0.6,0.2,1.2,0.5,1.9,0.7c1.1,0.4,2.1,0.8,3.2,1.2
				C16.2,182.2,16.7,182.5,17.3,182.7z"/>
			<path d="M15,195.2l2.5,1.3c0.5,0.2,0.9,0.5,1.4,0.8c0.3,0.2,0.6,0.4,1,0.6l1.1,0.7l1,0.7c0.3,0.2,0.6,0.4,0.9,0.6
				c0.4,0.3,0.8,0.6,1.2,0.9c2.7,2,5.1,4.3,7.6,6.9c0.1,0.1,0.1,0.2,0.2,0.2c1.3,0.1,2.7,0.3,4.1,0.4c1.1,0.1,2.3,0.3,3.5,0.5
				c-1.2-1.7-2.4-3.3-3.7-4.8c-2.7-3-5.4-5.5-8.4-7.7c-0.5-0.4-1-0.7-1.5-1c-0.3-0.2-0.6-0.4-0.9-0.6l-1.1-0.8
				c-0.1,0-0.1-0.1-0.2-0.1l-1.2-0.7c-0.3-0.2-0.6-0.3-0.9-0.5c-0.5-0.3-1.1-0.6-1.7-1l-2.4-1.2c-0.7-0.4-1.3-0.6-1.9-0.9l-2.6-1.1
				l-2.2,5l2.6,1.1C14,194.7,14.5,195,15,195.2z"/>
		</g>
		<g>
			<path d="M131,189.9c-1.3,0.2-2.5,0.3-3.8,0.5c-4.7,7-8.9,15.2-13.2,23.7l-0.8,1.5c-5.6,11-11.5,22.4-19.8,33.2
				c-4.5,5.8-9.4,10.8-14.6,14.9c-5.8,4.6-12,8.2-18.3,10.8c-6.2,2.5-12.8,4.3-20.3,5.5l-5.2,0.6c-0.3,0-0.6,0.1-1,0.1
				c-0.5,0.1-1,0.1-1.5,0.1l-4.1,0.2c-1.2,0.1-2.4,0.1-3.6,0.1l-8-0.2l-2.9-0.2l-0.4,5.5l3,0.2c0.1,0,0.1,0,0.2,0l8.2,0.2
				c0,0,0,0,0.1,0c0,0,0,0,0.1,0c1.3,0,2.5-0.1,3.8-0.1l4.1-0.2c0.6,0,1.3-0.1,1.9-0.2c0.3,0,0.6-0.1,0.9-0.1l5.3-0.6
				c0,0,0.1,0,0.1,0c7.9-1.3,15-3.2,21.5-5.9c6.9-2.8,13.5-6.7,19.7-11.6c5.5-4.4,10.7-9.7,15.5-15.8c8.7-11.1,14.7-22.8,20.4-34.1
				l0.8-1.5c5.2-10.1,10.1-19.7,15.9-27.3C133.6,189.5,132.3,189.7,131,189.9z"/>
			<path d="M112.1,191.3c-0.3,0.5-0.6,1-0.9,1.5c-2.9,5.1-5.6,10.4-8.2,15.5l-0.6,1.2c-5.2,10.2-11.1,21.8-18.8,31.6
				c-3.9,5-8.2,9.3-12.6,12.9c-4.9,3.9-10,6.9-15.4,9.1c-5.2,2.1-10.9,3.7-17.3,4.7l-4.5,0.5c-0.3,0-0.6,0.1-0.9,0.1
				c-0.4,0.1-0.9,0.1-1.3,0.1l-6.9,0.3l-7.3-0.2l-8.1-0.7l-0.4,5.5l8.2,0.7c0.1,0,0.1,0,0.2,0l7.4,0.2c0,0,0,0,0.1,0
				c0,0,0.1,0,0.1,0l7-0.3c0.6,0,1.1-0.1,1.7-0.2c0.3,0,0.5-0.1,0.8-0.1l4.6-0.5c0,0,0.1,0,0.1,0c6.9-1.1,13-2.8,18.6-5
				c5.8-2.4,11.4-5.7,16.7-9.9c4.8-3.8,9.3-8.4,13.5-13.8c8-10.3,14.1-22.1,19.4-32.5l0.6-1.2c2.6-5.1,5.2-10.3,8.1-15.3
				c0.9-1.5,1.7-3,2.6-4.4C116.4,191.3,114.2,191.3,112.1,191.3z"/>
			<path d="M100.1,190.8c-0.6-0.1-1.2-0.1-1.8-0.2c-2.2,4-4.2,8-6.2,11.8l-0.7,1.4c-5.7,11.3-11,21.4-17.5,29.6
				c-6.7,8.6-14.2,14.6-22.9,18.1c-4.3,1.7-9,3-14.4,3.9l-3.9,0.4c-0.3,0-0.5,0.1-0.8,0.1c-0.4,0-0.7,0.1-1.1,0.1l-6.1,0.2l-6.5-0.2
				l-7.4-0.6l-0.4,5.5l7.5,0.6c0.1,0,0.1,0,0.2,0l6.7,0.2c0,0,0,0,0.1,0c0,0,0.1,0,0.1,0l6.2-0.2c0.5,0,1-0.1,1.5-0.1
				c0.2,0,0.4-0.1,0.7-0.1l4-0.4c0,0,0.1,0,0.1,0c5.9-1,11-2.3,15.7-4.2c9.5-3.9,17.9-10.6,25.2-19.8c6.8-8.6,12.2-18.9,18.1-30.5
				L97,205c2.3-4.5,4.7-9.2,7.3-13.8C102.9,191.1,101.5,191,100.1,190.8z"/>
		</g>
		<g>
			<path d="M93.9,121.4c4.1,5,7.6,9.7,10.5,14.6c3.2,5.2,5.6,10.3,7.4,15.5c1.9,0,3.8-0.1,5.7-0.2c-2-6.1-4.7-12-8.4-18.1
				c-3.1-5.1-6.7-10.1-11-15.3c-8-9.5-17.1-17.9-27.2-25c-2.8-1.9-5.5-3.7-8.3-5.3l-2.8,4.8c2.6,1.5,5.3,3.2,7.9,5.1
				C77.5,104.2,86.3,112.3,93.9,121.4z"/>
			<path d="M84.4,129.3c3.7,4.5,6.8,8.7,9.4,13c1.6,2.7,3,5.3,4.2,8c2,0.4,3.9,0.6,5.9,0.8c0.2,0,0.3,0,0.5,0
				c-1.5-3.9-3.5-7.8-5.8-11.7c-2.7-4.6-6-9-9.9-13.7c-7.3-8.7-15.6-16.3-24.7-22.8c-3.2-2.2-6.4-4.2-9.6-6l-2.6,4.8
				c3,1.6,6.1,3.6,9.1,5.7C69.5,113.7,77.5,121,84.4,129.3z"/>
			<path d="M75,137.3c2.2,2.6,4.1,5.2,5.9,7.7c0.2,0.1,0.4,0.2,0.6,0.3c0.6,0.3,1.3,0.6,1.8,0.8l3.8,1.4c0.8,0.3,1.5,0.5,2.3,0.7
				c-0.4-0.8-0.9-1.5-1.3-2.3c-2.4-4-5.3-8.1-8.8-12.2c-6.5-7.7-14.2-14.8-22.3-20.6c-2.8-2-5.7-3.7-8.4-5.3l-2.7,4.8
				c2.6,1.4,5.3,3.1,7.9,5C61.4,123.1,68.8,129.9,75,137.3z"/>
		</g>
		<g>
			<path d="M409.2,38.9l-0.5,1.4c-0.7,2.1-1.4,4-2.2,5.8c0,0,0,0.1-0.1,0.1c-2.7,6.2-5.9,11.3-9.6,15.8c-3.8,4.6-8.5,8.9-13.9,12.9
				c-10.5,7.8-23,13.7-37.1,20.1l-1.8,0.8c-6.3,2.9-12.8,5.9-19.3,9.2c-8.5,4.3-15.4,8.4-21.5,12.7c-6.8,4.8-12.8,10.2-17.8,16
				c0.1,0.3,0.2,0.6,0.3,0.9c0.6,1.7,1.2,3.4,1.8,5.1c0.1-0.1,0.2-0.2,0.3-0.4c5-6.2,11.3-12,18.5-17.1c5.9-4.2,12.5-8.1,20.8-12.3
				c6.4-3.3,12.9-6.2,19.1-9.1l1.8-0.8c14.4-6.5,27.2-12.6,38.1-20.7c5.7-4.2,10.7-8.9,14.8-13.8c4.1-4.8,7.5-10.4,10.4-17
				c1-2.1,1.8-4.3,2.5-6.4l0.5-1.3L409.2,38.9z"/>
			<path d="M421.4,41.6c-0.3,0.8-0.5,1.6-0.8,2.3c-0.8,2.5-1.7,4.9-2.7,7.1c0,0,0,0.1,0,0.1c-3.1,7.1-7,13.4-11.4,18.7
				c-4.5,5.4-9.9,10.4-16.1,15c-12.4,9.1-26.7,15.7-39.3,21.4l-2.7,1.2c-12.8,5.9-26,11.9-37.8,20.3c-6.7,4.8-12.5,10.1-17.2,15.9
				c-1.1,1.3-2.1,2.7-3,4c0.7,2.4,1.3,4.7,1.9,7.1c1.6-2.7,3.4-5.3,5.4-7.7c4.3-5.4,9.8-10.4,16.1-14.9c11.4-8.1,24.3-14,36.9-19.8
				l2.7-1.2c12.9-5.9,27.5-12.6,40.3-22c6.6-4.8,12.3-10.2,17-15.9c4.8-5.6,8.9-12.3,12.2-19.9c1.2-2.5,2.1-5.1,3-7.7
				c0.3-0.8,0.5-1.5,0.8-2.3L421.4,41.6z"/>
			<path d="M433.4,44.6c-0.3,1-0.7,1.9-1,2.9c-1,3-2,5.8-3.3,8.6c-3.6,8.2-8,15.4-13.2,21.6c-5.1,6.2-11.3,11.9-18.3,17.1
				c-5.9,4.3-12.6,8.5-20.6,12.7c-6.7,3.5-13.5,6.7-20.1,9.7l-2.2,1c-13.5,6.2-26.3,12-37.1,19.7c-5.8,4.1-10.8,8.7-14.8,13.6
				c-3.3,4.1-6.1,8.7-8.5,13.5c0.7,3.7,1.3,6.9,1.7,10.4c3.7-9.8,6.6-15,11-20.4c3.6-4.5,8.2-8.7,13.7-12.6
				c10.4-7.4,22.9-13.1,36.2-19.2l2.2-1c6.6-3,13.5-6.2,20.3-9.8c8.2-4.3,15.2-8.6,21.3-13.1c7.4-5.4,13.9-11.5,19.2-18
				c5.5-6.5,10.2-14.2,14-22.8c1.4-3,2.5-6.1,3.5-9.1c0.3-1,0.6-1.9,1-2.9L433.4,44.6z"/>
		</g>
		<g>
			<g>
				<path d="M523.3,194.3c0.9,0.6,1.7,1.1,2.6,1.6c0.7,0.4,1.3,0.8,1.9,1.2l1.1,0.6c0.7-0.2,1.5-0.4,2.2-0.6c3.6-0.9,7-1.7,10.2-2.3
					c2.7-0.5,5.1-0.9,7.3-1.1l-0.6-5.5c-2.4,0.3-4.9,0.6-7.7,1.2c-3.3,0.6-6.9,1.4-10.6,2.4c-2.3,0.6-4.7,1.3-7.1,2L523.3,194.3z"/>
				<path d="M483.5,212.1c-0.6-0.7-1.1-1.3-1.6-1.9c-1.1,0.6-2.3,1.2-3.4,1.8c-5.7,3.1-10.4,6-14.3,8.9c1.6,0.9,3.2,1.7,4.7,2.6
					c0.2,0.1,0.4,0.2,0.7,0.4c3.3-2.2,7.1-4.5,11.5-7c1.5-0.8,3-1.6,4.6-2.4L483.5,212.1z"/>
			</g>
			<g>
				<path d="M475.5,201.6c-0.2-0.3-0.4-0.6-0.6-0.9c-0.1-0.2-0.2-0.4-0.4-0.5c-0.6,0.3-1.2,0.7-1.8,1c-5.6,3.1-13,7.3-19.7,12.8
					c-0.2,0.2-0.4,0.4-0.7,0.6c1.8,0.9,3.6,1.9,5.3,2.8c6-4.8,12.6-8.6,17.7-11.4c0.8-0.4,1.5-0.8,2.3-1.2L475.5,201.6z"/>
				<path d="M512.3,184.3c0.3,0.3,0.5,0.7,0.7,0.8l3.1,3.3c0.1,0.1,0.1,0.1,0.2,0.2c0.3-0.1,0.6-0.2,0.9-0.3
					c3.6-1.2,7.3-2.2,10.9-3.2c3.9-1,7.5-1.8,11-2.5c3.9-0.7,7.4-1.2,10.6-1.5l-0.4-5.5c-3.4,0.3-7,0.8-11.2,1.5
					c-3.7,0.7-7.4,1.5-11.4,2.6c-3.7,1-7.5,2-11.2,3.2c-1.1,0.4-2.2,0.7-3.3,1.1C512.2,184.2,512.2,184.3,512.3,184.3z"/>
			</g>
			<g>
				<path d="M505.6,174.4l2,3.5c0,0.1,0.1,0.2,0.3,0.4c1.8-0.6,3.7-1.2,5.5-1.8c3.9-1.2,7.7-2.4,11.5-3.3c4.2-1.1,8.1-2,11.9-2.7
					c3.5-0.6,6.5-1.1,9.5-1.4l-0.6-5.5c-3.1,0.3-6.3,0.8-9.9,1.5c-4,0.7-8,1.6-12.3,2.8c-3.9,1-7.9,2.2-11.8,3.4
					c-2.2,0.7-4.3,1.4-6.5,2.2L505.6,174.4z"/>
				<path d="M469.8,191.9l-1.2-2.6c0,0,0,0,0-0.1c-0.6,0.3-1.2,0.7-1.8,1c-6.5,3.6-14.2,8.1-21.7,14.2c-1.5,1.3-3.1,2.7-4.7,4.2
					c1.8,0.8,3.5,1.6,5.3,2.5c0.9-0.8,1.9-1.7,2.9-2.5c7.1-5.8,14.2-10,20.8-13.6c0.6-0.3,1.1-0.6,1.7-0.9L469.8,191.9z"/>
			</g>
		</g>
		<g>
			<g>
				<path d="M181.4,26.9c0.1,0.3,0.2,0.6,0.3,0.8l1.2,2.9c3,7.7,4.9,16,5.6,24.8c0,0,0,0,0,0c1.9,0.1,3.8,0.2,5.5,0.2
					c0-0.2,0-0.4,0-0.6c-0.7-9.3-2.7-18.1-5.9-26.4l-1.2-3c-0.1-0.3-0.2-0.5-0.3-0.8c-0.3-0.8-0.7-1.6-1.1-2.3l-1-1.9l-4.9,2.5
					l1,1.9C180.9,25.6,181.2,26.2,181.4,26.9z"/>
				<path d="M186.5,125.9c0.8-6,1.8-12,2.9-18.4c0.7-4,1.4-8,2-12.1c-1.8,0-3.6-0.1-5.5-0.2c-0.6,3.8-1.3,7.6-1.9,11.4
					c-1.1,6.4-2.2,12.5-3,18.6c-2.3,16.7-2.1,30,0.5,41.9c2.2,10.6,6.9,20.9,13.8,30.8l1.7-0.1c1.2-0.1,2.4,0,3.5,0
					c0.4,0,0.8,0,1.3,0l0.3,0c0,0,0.1,0,0.1,0c-7.8-10.3-12.9-21-15.2-32C184.5,154.6,184.3,141.9,186.5,125.9z"/>
			</g>
			<g>
				<path d="M169.4,30.4c0.2,0.4,0.4,0.9,0.7,1.5c0.1,0.3,0.2,0.5,0.3,0.7l1,2.5c2.3,5.8,3.8,12.2,4.5,18.8l2.8,0.5l1.5,0.2
					c0.4,0.1,0.9,0.1,1.3,0.2c-0.7-7.7-2.4-15-5-21.8l-1.1-2.6c-0.1-0.2-0.2-0.4-0.3-0.7c-0.3-0.6-0.5-1.3-0.9-2.1l-1.5-3l-4.9,2.5
					L169.4,30.4C169.4,30.3,169.4,30.3,169.4,30.4z"/>
				<path d="M172.6,146.5c0-6.7,0.5-14,1.6-22.3c0.9-6.4,2-12.9,3.1-19.1c0.6-3.4,1.2-6.9,1.8-10.5c-1.5-0.2-3-0.4-4.6-0.6l-0.9-0.1
					c-0.6,3.4-1.1,6.9-1.7,10.2c-1.1,6.3-2.2,12.8-3.1,19.3c-1.2,8.5-1.7,16-1.7,23c0,8.1,0.8,15.9,2.4,23.1
					c2.1,10.1,6.3,20.2,12.2,29.8c0.4-0.1,0.8-0.2,1.2-0.3l0.3-0.1c1.1-0.2,2.2-0.3,3.3-0.5l1.1-0.2c-6.2-9.6-10.5-19.8-12.7-30
					C173.4,161.7,172.6,154.3,172.6,146.5z"/>
			</g>
			<g>
				<path d="M173.3,198.7c-0.7-1.3-1.5-2.5-2-3.8c0,0,0-0.1-0.1-0.1c-3.7-7.1-6.5-15-8.4-23.6c-1.7-7.7-2.6-16-2.6-24.6
					c0-7.3,0.6-15.1,1.8-24c0.9-6.8,2.1-13.5,3.2-19.9c0.6-3.4,1.1-6.7,1.7-10l-1.2-0.2c-1.4-0.3-2.8-0.7-4.2-1
					c-0.5,3.4-1.1,6.8-1.7,10.3c-1.1,6.5-2.3,13.2-3.2,20.1c-1.2,9.1-1.8,17.1-1.8,24.7c0,9,0.9,17.7,2.7,25.8c2,9,5,17.3,8.8,24.8
					c0.7,1.5,1.5,2.9,2.3,4.2c0.2,0.4,0.5,0.8,0.7,1.3c1.7-0.6,3.5-1.1,5.4-1.6l-0.5-0.8C173.9,199.8,173.6,199.3,173.3,198.7z"/>
				<path d="M158.3,35.7c0.2,0.3,0.3,0.7,0.5,1.1c0.1,0.2,0.2,0.5,0.3,0.7l0.9,2.1c1.3,3.3,2.3,6.8,3,10.5l0.9,0.4
					c0.9,0.3,1.8,0.6,2.8,1c0.7,0.2,1.4,0.5,2.1,0.7c0,0,0,0,0,0c-0.8-5.1-2-10-3.8-14.6l-0.9-2.2c-0.1-0.2-0.2-0.4-0.2-0.6
					c-0.2-0.5-0.5-1.1-0.8-1.8l-2.1-4l-4.9,2.5l2.1,4.1C158.2,35.6,158.2,35.7,158.3,35.7z"/>
			</g>
		</g>
		<g>
			<g>
				<path d="M225.2,20.1c1.7,12.4,4.9,24.6,9.5,36.3c2.2,5.8,4.9,11.4,7.7,16.8c1.5-1.2,3-2.4,4.4-3.5c-2.5-5-4.9-10.1-6.9-15.3
					c-4.5-11.2-7.6-23-9.2-35.1c-0.4-2.2-0.6-4.4-0.8-6.7c-0.1-1.1-0.2-2.3-0.3-3.4l-5.5,0.6c0.1,1.1,0.2,2.2,0.3,3.3
					C224.6,15.5,224.8,17.9,225.2,20.1z"/>
			</g>
			<g>
				<path d="M213,21.9c1.8,13.4,5.3,26.6,10.3,39.1c2.7,7,5.9,13.7,9.3,20.2c1.5-1.2,2.9-2.4,4.4-3.5c-3.1-6-6-12.2-8.6-18.7
					c-4.8-12.1-8.2-24.9-10-37.9c-0.4-2.4-0.6-4.8-0.9-7.3c-0.1-1.2-0.2-2.3-0.4-3.5l-5.5,0.6c0.1,1.1,0.2,2.3,0.3,3.4
					C212.3,16.8,212.6,19.4,213,21.9z"/>
			</g>
			<g>
				<path d="M200.7,23.6c2,14.4,5.7,28.5,11,41.9c3.3,8.4,7.2,16.4,11.2,23.9c1.4-1.3,2.8-2.5,4.2-3.8c-3.7-7-7.3-14.4-10.3-22.2
					c-5.2-13.1-8.8-26.7-10.7-40.7c-0.4-2.6-0.7-5.3-0.9-8l-0.2-1.7l-5.5,0.5l0.2,1.7C200,18,200.3,20.8,200.7,23.6z"/>
			</g>
		</g>
		<g>
			<g>
				<path d="M283.8,38.6c0.1,0.1,0.2,0.3,0.3,0.4c1.1-3,1.9-6,2.5-9.1c0.2-0.6,0.3-1.2,0.3-1.8c0-0.2,0.1-0.4,0.1-0.6l0.7-4.4
					c0-0.1,0-0.2,0-0.2l0.2-2.3c0-0.6,0.1-1.2,0.1-1.8c0.1-0.9,0.1-1.9,0.2-2.8c0,0,0-0.1,0-0.1l0-4.6c0-0.3,0-0.6,0-0.8
					c0-0.6,0-1.1,0-1.8l-0.5-7.5l-5.5,0.4l0.5,7.4c0,0.5,0,1,0,1.4c0,0.3,0,0.6,0,0.9l0,4.5c0,0.9-0.1,1.7-0.2,2.6
					c0,0.6-0.1,1.2-0.1,1.8l-0.1,2.1l-0.6,4.3c0,0.2-0.1,0.5-0.1,0.7c-0.1,0.4-0.1,0.8-0.2,1.1c0,0.1,0,0.2-0.1,0.2
					c-0.2,1-0.4,2-0.7,3C281.4,34.1,282.5,36.4,283.8,38.6z"/>
				<path d="M204.5,137.3c1.4-5.6,3.4-11.1,6-16c3.4-6.4,8-12.7,13.7-18.8c5.4-5.6,11-10.4,16.3-14.6c2.1-1.7,4.2-3.4,6.2-5
					c3.4-2.7,6.6-5.2,9.7-7.9c0.9-0.7,1.7-1.4,2.5-2.1c-1.2-1.5-2.3-3-3.3-4.4c-0.9,0.8-1.8,1.5-2.7,2.3c-3.1,2.6-6.3,5.1-9.6,7.8
					c-2.1,1.6-4.2,3.3-6.3,5c-5.4,4.4-11.2,9.3-16.8,15.1c-6.1,6.4-11,13.1-14.6,20c-2.9,5.6-5.2,11.8-6.7,18.2
					C200.8,137,202.7,137.1,204.5,137.3z"/>
			</g>
			<g>
				<path d="M292.4,51c2.9-6,5-12.3,6.2-18.7c0.2-0.7,0.3-1.4,0.4-2c0-0.2,0.1-0.5,0.1-0.7l0.8-5.1c0-0.1,0-0.1,0-0.2l0.2-2.6
					c0-0.6,0.1-1.2,0.1-1.8c0.1-1.1,0.2-2.3,0.2-3.4c0,0,0-0.1,0-0.1l0-5.2c0-0.3,0-0.6,0-0.9c0-0.6,0-1.3,0-2l-0.3-4.7l-5.5,0.4
					l0.3,4.7c0,0.5,0,1.1,0,1.6c0,0.3,0,0.7,0,1l0,5.1c0,1.1-0.1,2.1-0.2,3.2c0,0.6-0.1,1.2-0.1,1.8l-0.2,2.5l-0.7,5
					c0,0.3-0.1,0.5-0.1,0.8c-0.1,0.5-0.1,1-0.3,1.5c0,0.1,0,0.1,0,0.2c-1,5-2.5,10-4.6,14.8C289.8,47.6,291,49.3,292.4,51z"/>
				<path d="M215.2,139.1l1.4,0.3c0,0,0.1,0,0.1,0c1.1-4.4,2.7-8.5,4.8-12.4c2.8-5.4,6.8-10.8,11.7-16c6.4-6.7,13.9-12.7,21.2-18.4
					c3.3-2.6,6.7-5.4,10.1-8.1c0.8-0.7,1.6-1.3,2.3-2c-1.2-1.4-2.3-2.8-3.5-4.2c-0.8,0.7-1.5,1.3-2.3,2c-3.2,2.7-6.6,5.4-9.9,8
					c-7.4,5.9-15,11.9-21.7,18.9c-5.3,5.6-9.6,11.4-12.6,17.2c-2.3,4.3-4,8.9-5.3,13.7C212.6,138.5,213.9,138.8,215.2,139.1z"/>
			</g>
			<g>
				<path d="M300.4,60.5c0.2,0.3,0.4,0.5,0.7,0.8c0.6-1.1,1.2-2.2,1.7-3.2c3.8-7.5,6.5-15.3,8-23.3c0.2-0.8,0.3-1.6,0.4-2.3
					c0-0.3,0.1-0.5,0.1-0.8l0.9-5.8c0-0.1,0-0.1,0-0.2l0.2-2.9c0-0.6,0.1-1.2,0.1-1.8c0.1-1.4,0.2-2.7,0.3-4.1c0,0,0-0.1,0-0.1V11
					c0-0.3,0-0.7,0-1c0-0.7,0-1.4,0-2.2l-0.2-3l-5.5,0.4l0.2,2.9c0,0.6,0,1.2,0,1.9c0,0.4,0,0.7,0,1v5.7c-0.1,1.3-0.1,2.6-0.2,3.8
					c0,0.6-0.1,1.2-0.1,1.8l-0.2,2.8l-0.8,5.7c0,0.3-0.1,0.6-0.1,0.9c-0.1,0.6-0.2,1.2-0.3,1.8c0,0.1,0,0.1,0,0.2
					c-1.5,7.5-4,14.9-7.6,21.9c-0.2,0.4-0.4,0.8-0.6,1.2C298.2,58,299.3,59.3,300.4,60.5z"/>
				<path d="M226.1,142.4c0.8,0.3,1.6,0.6,2.4,0.9c0.9-3.8,2.2-7.3,4-10.6c2.3-4.4,5.5-8.8,9.7-13.2c5.6-5.9,12.5-11.4,19.8-17.2
					c3.4-2.7,6.9-5.5,10.4-8.4c0.8-0.7,1.6-1.4,2.4-2c-1.1-1.4-2.3-2.8-3.5-4.2c-0.8,0.7-1.6,1.3-2.4,2c-3.4,2.9-6.9,5.6-10.3,8.3
					c-7.5,5.9-14.5,11.6-20.4,17.7c-4.6,4.8-8.1,9.5-10.6,14.4c-1.8,3.5-3.2,7.2-4.3,11.2C224.2,141.8,225.1,142.1,226.1,142.4z"/>
			</g>
		</g>
		<g>
			<path d="M75.3,221.7c-6.5-1.8-13.2-3.6-20.1-5.1c-8.5-1.9-15.6-3.1-22.4-3.8c-8.1-0.8-16.2-0.9-23.9-0.1
				c-2.6,0.3-5.4,0.7-8.2,1.2l1,5.4c2.7-0.5,5.3-0.9,7.7-1.1c7.4-0.7,15-0.7,22.8,0.1c6.6,0.6,13.5,1.8,21.8,3.7
				c6.5,1.5,12.8,3.2,18.9,4.8l0.5-0.7c0.6-0.8,1.2-1.8,1.8-2.8c0.3-0.4,0.6-0.9,0.8-1.3c0,0,0,0,0,0L75.3,221.7z"/>
			<path d="M149.3,221.5l0.8-0.4c6.1-2.6,12.5-5.2,19.2-7.6c8.4-2.9,15.5-4.5,22.5-5.2l6.2-0.3c2.2,0,4.1,0.1,5.9,0.2
				c4.2,0.3,8.2,1,12.1,2c9.8,2.6,16.2,6.7,23.4,13.4c0.8,0.7,1.5,1.5,2.3,2.2c-0.6-3.3-1.3-6.3-2-9.3c-6.5-5.6-13-9.3-22.3-11.8
				c-4.1-1.1-8.5-1.8-13-2.2c-1.9-0.2-3.8-0.2-6.1-0.2c-0.2,0-0.3,0-0.5,0l-6.3,0.3c0,0-0.1,0-0.1,0c-7.4,0.7-15,2.5-23.8,5.5
				c-6.9,2.4-13.4,5.1-19.6,7.7l-0.8,0.4c-5.6,2.4-12.2,5.1-18.4,7.1c-3.5,1.2-6.6,2-9.5,2.7c-0.7,1.4-1.4,2.7-2.2,4.1
				c-0.4,0.7-0.8,1.4-1.1,2.1c4.2-0.7,8.8-1.9,14.5-3.7C136.9,226.7,143.6,223.9,149.3,221.5z"/>
			<path d="M52.5,228.6c-16.5-3.7-29.9-4.9-42.4-3.6c-3.2,0.3-6.5,0.9-10.1,1.6l1.2,5.4c3.4-0.7,6.5-1.2,9.5-1.5
				c11.8-1.2,24.7-0.1,40.6,3.5c4.3,1,8.6,2.1,12.9,3.2c1.5-1.4,2.9-2.9,4.3-4.6C63.2,231.2,57.8,229.8,52.5,228.6z"/>
			<path d="M243.7,239.1c0-0.1,0-0.3,0-0.4c-8-11.8-17-18.5-29.4-21.8c-6.9-1.8-14.2-2.4-21.7-1.7c-6.4,0.6-13.1,2.2-20.9,4.9
				c-6.4,2.2-12.7,4.8-18.8,7.4c-6.5,2.7-13.3,5.6-20.1,7.8c-7.9,2.6-14,4-19.7,4.5c-0.1,0-0.1,0-0.2,0c-0.3,0.1-0.6,0.1-1,0.1
				c-0.5,0.8-1,1.7-1.5,2.5l-0.1,0.2c-0.4,0.6-0.8,1.2-1.2,1.8c-0.2,0.4-0.5,0.8-0.7,1.1l2.7-0.1c0.8,0,1.7-0.1,2.6-0.2
				c6.2-0.6,12.6-2,20.9-4.7c7-2.3,13.9-5.2,20.5-8c6-2.5,12.2-5.1,18.5-7.3c7.4-2.5,13.7-4,19.7-4.6c6.9-0.6,13.5-0.1,19.8,1.5
				c9.9,2.6,22.2,9.2,31.2,27.1c0.3,0.5,0.5,1.1,0.7,1.6C244.5,246.8,244.1,242.9,243.7,239.1z"/>
			<path d="M11.4,237.3c-3,0.3-6.1,0.8-9.6,1.6l1.2,5.4c3.3-0.7,6.2-1.2,8.9-1.5c10.4-1.1,22.1,0,36.6,3.3c0.7,0.2,1.4,0.3,2,0.5
				c2-0.9,3.9-1.9,5.7-3.1c0.4-0.3,0.9-0.6,1.3-0.9c-2.6-0.7-5.2-1.3-7.8-1.9C34.6,237.3,22.4,236.2,11.4,237.3z"/>
			<path d="M198.3,227.3c-0.1,0-0.3,0-0.4,0c-1.4,0.1-2.7,0.1-4.1,0.2c-0.1,0-0.1,0-0.2,0c-5.4,0.5-11.3,1.9-18.1,4.2
				c-5.7,1.9-11.5,4.4-17.6,6.9c-6.8,2.9-13.9,5.8-21.5,8.4c-3,1-6.4,2-10.8,3.1l-5.7,1.2l-6,0.8c-0.8,0.1-1.6,0.2-2.6,0.2l-3.2,0.1
				c-0.4,0-0.7,0-1.1,0c-0.6,0-1.2,0.1-1.8,0c-0.4,0-0.7,0-1.1,0c-0.3,0-0.5,0-0.8,0l-1.9,2.5c-0.7,0.9-1.4,1.8-2.2,2.7
				c0.8,0.1,1.6,0.1,2.4,0.2c0.8,0.1,1.6,0.1,2.4,0.1c0.3,0,0.7,0,1,0c0.9,0,1.6,0,2.3,0c0.3,0,0.6,0,1,0l3.3-0.1
				c1,0,2.1-0.1,3.1-0.3l6-0.8c0.1,0,0.1,0,0.2,0l5.8-1.2c0,0,0.1,0,0.1,0c4.6-1.1,8.2-2.2,11.3-3.2c7.8-2.6,14.9-5.6,21.9-8.5
				c6-2.5,11.7-4.9,17.2-6.8c6.4-2.2,11.8-3.5,16.8-4c1.3-0.1,2.7-0.1,4-0.2c23.3-0.1,40.1,17.2,40.1,49v7.1v50h5.5v-50v-7.1
				C243.8,246.9,225,227.3,198.3,227.3z"/>
		</g>
		<g>
			<path d="M46.9,135.1c0.9,0.8,1.9,1.7,2.8,2.4l5.2,4.1c0,0,0.1,0.1,0.1,0.1l3.2,2.2c2.1,1.6,4.4,3,6.5,4.3c0.8,0.5,1.6,1,2.4,1.5
				c0,0,0.1,0,0.1,0.1c6.5,3.6,12.9,6.4,19.1,8.3c6.6,2.1,13.4,3.3,20.3,3.6c6.6,0.4,13.4,0,21-1.2c7.7-1.2,15.2-3,21.6-4.6
				c0.4-0.1,0.7-0.2,1.1-0.3c-0.1-1.8-0.2-3.7-0.3-5.6c-0.7,0.2-1.5,0.4-2.2,0.6c-6.2,1.6-13.6,3.4-21,4.5
				c-7.2,1.1-13.7,1.5-19.9,1.1c-6.4-0.3-12.8-1.5-18.9-3.4c-5.8-1.8-11.9-4.5-18-7.9c-0.8-0.5-1.6-1-2.4-1.5
				c-2.1-1.3-4.2-2.5-6.2-4l-3.2-2.2l-5.2-4.1c-0.8-0.6-1.7-1.3-2.5-2.1c-0.4-0.4-0.8-0.7-1.2-1.1l-1.3-1.1l-3.6,4.1l1.3,1.2
				C46.1,134.4,46.5,134.8,46.9,135.1z"/>
			<path d="M196.7,147.2l1.7,0c0.3,0,0.6,0,1,0l4.1,0.3c0.6,0,1.3,0.1,2.1,0.2c0.4,0.1,0.8,0.1,1.1,0.2c0.4,0.1,0.8,0.1,1.2,0.2
				c0.7,0.1,1.4,0.2,2.1,0.3l5.1,1.2l1.5,0.4c1.2,0.4,2.1,0.6,3,0.9c1,0.3,2,0.7,3,1.1c4.3,1.6,8.3,3.5,11.9,5.7
				c3.9,2.3,7.6,5.2,10.8,8.4c3.9,3.8,8,9.4,11.6,15.6c-0.4-3.2-0.9-6.4-1.5-9.5c-0.2-1.2-0.5-2.4-0.8-3.7c-1.7-2.2-3.5-4.3-5.6-6.4
				c-3.6-3.5-7.5-6.7-11.8-9.2c-3.9-2.3-8.2-4.4-12.8-6.1c-1.1-0.4-2.2-0.8-3.2-1.1c-1-0.3-2-0.6-3.2-1l-1.6-0.5c0,0-0.1,0-0.1,0
				l-5.2-1.2c-0.9-0.2-1.7-0.3-2.5-0.4c-0.4-0.1-0.7-0.1-1.2-0.2c-0.4,0-0.7-0.1-1.1-0.2c-0.8-0.1-1.7-0.3-2.5-0.3l-4-0.3
				c-0.4,0-0.9-0.1-1.3-0.1l-1.7,0c0,0-0.1,0-0.1,0c-2.2,0-4.4,0.1-6.6,0.2c-0.1,1.9-0.1,3.8-0.1,5.5
				C192.1,147.3,194.4,147.2,196.7,147.2C196.6,147.2,196.6,147.2,196.7,147.2z"/>
			<path d="M38.8,144.5c1,0.9,2,1.8,3.1,2.6l5.7,4.5c0,0,0.1,0.1,0.1,0.1l3.5,2.4c2.4,1.8,5,3.4,7.5,4.9c0.8,0.5,1.6,1,2.4,1.5
				c0,0,0.1,0,0.1,0.1c7.3,4.1,14.5,7.2,21.6,9.4c7.5,2.4,15.4,3.8,23.3,4.2c7.4,0.4,15.1,0,23.5-1.3c7.5-1.1,15-2.9,22.3-4.7
				c-0.3-1.8-0.6-3.6-0.8-5.5c-7.3,1.9-14.8,3.6-22.3,4.8c-8,1.2-15.3,1.6-22.4,1.2c-7.4-0.4-14.8-1.7-21.9-3.9
				c-6.7-2.1-13.6-5.1-20.5-8.9c-0.8-0.5-1.6-1-2.4-1.5c-2.5-1.5-4.8-2.9-7.1-4.6l-3.5-2.4l-5.6-4.4c-0.9-0.7-1.8-1.5-2.8-2.3
				c-0.4-0.4-0.8-0.8-1.3-1.1l-4.1-3.6l-3.6,4.1l4.2,3.6C38,143.8,38.4,144.2,38.8,144.5z"/>
			<path d="M258.2,207.4l-0.1-5.1c-3.2-12-9.9-24.2-17.6-31.4c-5.6-5.3-12.5-9.4-20.4-12.4c-0.9-0.4-1.9-0.7-2.8-1
				c-0.8-0.3-1.7-0.6-2.9-0.9l-1.4-0.4c-0.1,0-0.1,0-0.2,0l-4.2-1c-0.7-0.2-1.4-0.3-2.1-0.4c-0.3,0-0.6-0.1-0.9-0.1c0,0-0.1,0-0.1,0
				c-0.3,0-0.6-0.1-0.9-0.1c-0.7-0.1-1.4-0.2-2.1-0.2l-3.4-0.2c-0.4,0-0.7-0.1-1.1-0.1l-1.4,0c-2.1,0-4.3,0.1-6.5,0.3
				c0.2,1.8,0.4,3.7,0.7,5.5c2-0.1,3.9-0.2,5.7-0.2c0,0,0.1,0,0.1,0l1.4,0c0.2,0,0.5,0,0.7,0c0.2,0,0.4,0,0.5,0l2.9,0.2
				c0.5,0,1,0.1,1.6,0.2c0.3,0.1,0.7,0.1,1,0.2c0.3,0.1,0.7,0.1,1,0.1c0.6,0.1,1.1,0.1,1.6,0.3l4.1,1l1.3,0.4
				c1.1,0.3,1.9,0.6,2.6,0.8c0,0,0.1,0,0.1,0c0.9,0.3,1.7,0.6,2.6,0.9c7.3,2.7,13.6,6.5,18.6,11.2c11,10.4,17.2,28.3,21.5,45.6v-6.5
				c0-0.8,0-1.6,0-2.4C258.2,210.2,258.2,208.8,258.2,207.4z"/>
			<path d="M130.4,179.6c-8.7,1.3-17.1,1.8-24.9,1.4c-8.5-0.4-16.8-1.9-24.9-4.5c-7.5-2.3-15.3-5.7-23-10c-0.8-0.5-1.5-0.9-2.3-1.4
				c-2.7-1.7-5.5-3.4-8.1-5.3l-3.8-2.7l-6.1-4.8c-1-0.8-2-1.6-3-2.5c-0.4-0.4-0.9-0.8-1.3-1.1l-2.4-2.1l-3.6,4.1l2.5,2.2
				c0.4,0.4,0.9,0.7,1.3,1.1c1.1,0.9,2.1,1.9,3.3,2.8l6.1,4.8c0,0,0.1,0.1,0.1,0.1l3.8,2.7c2.7,2,5.6,3.8,8.5,5.5
				c0.8,0.5,1.6,0.9,2.3,1.4c0,0,0.1,0,0.1,0.1c8,4.5,16.1,8.1,24.1,10.5c8.5,2.7,17.3,4.2,26.3,4.7c8.1,0.4,16.9,0,26-1.4
				c8.1-1.2,15.8-3,23.2-4.9c-0.5-1.8-1-3.5-1.4-5.3C145.8,176.6,138.3,178.4,130.4,179.6z"/>
			<path d="M250,215.5c-0.1-0.5-0.2-0.9-0.4-1.4c-0.3-1.2-0.6-2.5-1-3.7l-0.7-2.5c0,0,0-0.1,0-0.1l-0.8-2.4
				c-0.4-1.2-0.8-2.3-1.2-3.4c-0.2-0.5-0.4-1-0.6-1.6c-0.2-0.5-0.4-1-0.6-1.5c-0.1-0.3-0.2-0.6-0.4-0.8c-0.4-0.9-0.8-1.7-1.1-2.4
				c-3-6.3-6.8-11.7-11.2-15.8c-4.4-4.2-9.8-7.4-16.3-9.8c-0.8-0.3-1.6-0.6-2.3-0.8l-0.1,0c-0.9-0.3-1.8-0.6-2.5-0.8l-1.2-0.4
				c-0.1,0-0.1,0-0.2,0l-3.2-0.7c-0.6-0.1-1.2-0.2-1.7-0.3c-0.2,0-0.5-0.1-0.7-0.1c0,0-0.1,0-0.1,0c-0.2,0-0.5-0.1-0.7-0.1
				c-0.5-0.1-1.1-0.2-1.7-0.2l-2.7-0.2c-0.3,0-0.6,0-1,0l-1.2,0c-1.4,0-2.9,0-4.4,0.1c0.5,1.9,1,3.7,1.6,5.4c1,0,1.9-0.1,2.9-0.1
				l1.1,0c0.2,0,0.4,0,0.5,0c0.2,0,0.3,0,0.5,0l2.4,0.1c0.3,0,0.7,0.1,1.1,0.1c0.3,0,0.6,0.1,0.9,0.1c0.3,0,0.6,0.1,0.9,0.1
				c0.4,0,0.8,0.1,1.1,0.2l3.2,0.7l1.1,0.3c0.6,0.2,1.4,0.4,2.3,0.7l0.1,0c0.7,0.2,1.4,0.5,2.1,0.7c5.9,2.2,10.6,5,14.5,8.7
				c3.9,3.7,7.2,8.4,10,14.3c0.3,0.6,0.6,1.2,0.9,2c0.1,0.3,0.3,0.6,0.4,0.9c0.2,0.4,0.4,0.9,0.5,1.3c0.2,0.5,0.4,1.1,0.6,1.6
				c0.4,1,0.8,2,1.1,3.1l0.8,2.4l0.7,2.5c0.3,1.1,0.6,2.3,0.9,3.5c0.1,0.5,0.2,1,0.4,1.4c1.5,6.3,2.7,13.1,3.7,20.9
				c1.5,12.8,2.3,26.8,2.3,44.1v7v50h5.5v-50v-7c0-17.5-0.8-31.7-2.3-44.8C252.9,229.1,251.6,222,250,215.5z"/>
		</g>
		<g>
			<path d="M268.4,196.2c0,0,0-0.1,0-0.1l-0.4-7.1c-0.5-6-1.2-12.3-2.5-18.6L265,168c-0.1-0.5-0.2-1-0.3-1.5l-0.2-0.8
				c-0.1-0.5-0.3-1.1-0.4-1.6c-0.2-1-0.4-1.9-0.7-2.9l-1.2-4.4c-0.3-1-0.6-2-0.9-3c-0.2-0.5-0.3-1-0.5-1.6c-2.1-6.2-4.3-12-6.9-17.5
				c-2.1-4.5-4.3-8.9-6.7-13.3c-1.5,1.5-2.8,2.9-4,4.2c2,3.8,3.9,7.6,5.6,11.4c2.5,5.4,4.7,10.9,6.6,16.9c0.2,0.6,0.3,1.1,0.5,1.6
				c0.3,0.9,0.6,1.8,0.8,2.7l1.2,4.4c0.2,0.9,0.4,1.8,0.7,2.7c0.1,0.6,0.3,1.1,0.4,1.7l0.2,0.8c0.1,0.4,0.2,0.9,0.3,1.3l0.4,2.3
				c1.2,6.1,1.9,12.3,2.4,18l0.4,6.9l0.1,7c0,1,0,2,0,3.1c0,0.6,0,1.2,0,1.8v3.7v127h5.5v-127v-3.7c0-0.6,0-1.2,0-1.8
				c0-1.1,0-2.2,0-3.2L268.4,196.2z"/>
			<path d="M277.6,168l-0.5-2.5c-0.1-0.5-0.2-1.1-0.4-1.6l-0.2-0.9c-0.1-0.6-0.3-1.1-0.4-1.7c-0.2-1.1-0.5-2.1-0.8-3.3l-1.3-4.8
				c-0.3-1.1-0.6-2.2-1-3.2c-0.2-0.5-0.4-1.1-0.5-1.7c-2.2-6.6-4.7-12.9-7.4-18.8c-2.6-5.6-5.5-11.2-8.4-16.6
				c-1.1,0.9-2.1,1.8-3.1,2.7c-0.4,0.3-0.8,0.7-1.1,1c2.7,5,5.4,10.1,7.7,15.3c2.7,5.7,5.1,11.9,7.1,18.2c0.2,0.6,0.4,1.2,0.6,1.7
				c0.3,1,0.6,2,0.9,3l1.3,4.8c0.3,1,0.5,2,0.7,3.1c0.1,0.6,0.3,1.2,0.4,1.7l0.2,0.9c0.1,0.5,0.2,1,0.3,1.5l0.5,2.5
				c1.4,6.7,2.1,13.6,2.6,19.4c0.4,6.1,0.6,12.5,0.6,19.7v3.7v127h5.5v-127v-3.7c0-7.3-0.2-13.9-0.6-20.2
				C279.7,182,279,174.9,277.6,168z"/>
			<path d="M293.3,203.1l-0.2-7.9c0,0,0-0.1,0-0.1l-0.5-8c-0.6-6.4-1.3-13.9-2.9-21.4l-0.5-2.7c-0.1-0.6-0.3-1.2-0.4-1.8l-0.2-0.9
				c-0.1-0.6-0.3-1.1-0.4-1.7c-0.3-1.2-0.5-2.4-0.9-3.6l-1.4-5.2c-0.3-1.2-0.7-2.4-1.1-3.5c-0.2-0.6-0.4-1.2-0.6-1.8
				c-2.3-7-5-13.8-7.9-20.2c-3.1-6.7-6.4-13.1-9.9-19.3c-0.6,0.5-1.2,0.9-1.7,1.4c-0.9,0.7-1.8,1.4-2.6,2.1
				c3.2,5.9,6.4,11.9,9.3,18.2c2.8,6.1,5.4,12.7,7.7,19.5c0.2,0.6,0.4,1.2,0.6,1.8c0.4,1.1,0.7,2.2,1,3.2l1.4,5.1
				c0.3,1.1,0.6,2.3,0.8,3.4c0.1,0.6,0.3,1.2,0.4,1.7l0.2,0.9c0.1,0.6,0.3,1.1,0.4,1.6l0.5,2.7c1.5,7.3,2.2,14.6,2.8,20.8l0.5,7.9
				l0.2,7.9c0,1.1,0,2.2,0,3.2c0,0.6,0,1.2,0,1.8v3.7v127h5.5v-127v-3.7c0-0.6,0-1.2,0-1.8C293.3,205.3,293.3,204.3,293.3,203.1z"/>
		</g>
		<g>
			<path d="M348.4,75.8c0.9,3.8,2,7.5,3.2,11.2c1.7-0.8,3.4-1.6,5-2.4c-1-3.4-2-6.8-2.8-10.1c-1.6-6.4-2.5-12.3-3-18
				c-0.9-11.5-0.1-23.9,2.6-36.9c0.4-2.3,1-4.6,1.5-6.8l-5.4-1.3c-0.5,2.2-1.1,4.6-1.5,7c-2.7,13.5-3.6,26.5-2.6,38.4
				C345.7,62.9,346.7,69.1,348.4,75.8z"/>
			<path d="M336.3,78.7c1.1,4.6,2.5,9.1,3.9,13.5c1.2-0.5,2.3-1.1,3.5-1.6l0.2-0.1c0.5-0.2,0.9-0.4,1.4-0.6
				c-1.3-4.1-2.5-8.3-3.5-12.5c-1.7-7-2.8-13.5-3.3-19.9c-1-12.6-0.1-26.2,2.7-40.4c0.5-2.8,1.2-5.6,1.8-8.3l0.6-2.3l-5.4-1.3
				l-0.5,2.3c-0.7,2.8-1.3,5.6-1.9,8.5c-3,14.7-3.9,28.7-2.8,41.9C333.4,64.6,334.6,71.4,336.3,78.7z"/>
			<path d="M329.8,181.4c1.6-1.7,3.2-3.4,4.8-5.1c2.5-2.7,4.8-5.4,6.9-8.1c2.4-3.2,4.3-6.2,5.8-9c3.3-6.1,5.5-13,6.5-20.5
				c0.4-2.9,0.6-6,0.5-9.1c-1.9,0.9-3.8,1.7-5.5,2.6c-0.1,2-0.2,3.9-0.5,5.8c-1,6.8-2.9,13.1-5.9,18.7c-1.4,2.6-3.2,5.3-5.4,8.3
				c-2,2.5-4.2,5.1-6.6,7.7c-1.6,1.7-3.2,3.4-4.8,5.1c-3.1,3.3-6.4,6.6-9.3,10.2c-9,10.8-15,22.4-18.4,33.6v15.9
				c5-18.3,11.5-32.9,22.6-45.9C323.6,187.9,326.8,184.6,329.8,181.4z"/>
			<path d="M324.3,81.6c1.3,5.5,2.9,10.8,4.6,15.9c1.7-0.8,3.3-1.6,5-2.4c-1.5-4.8-3-9.7-4.2-14.8c-1.8-7.6-3.1-14.9-3.6-21.9
				c-1.1-13.8-0.2-28.5,2.9-43.8c0.5-2.7,1.1-5.4,1.8-8.1l-5.3-1.3c-0.7,2.8-1.3,5.5-1.8,8.3c-3.2,15.8-4.2,31-3,45.3
				C321.2,66.2,322.4,73.8,324.3,81.6z"/>
			<path d="M325.9,167.9c2.3-2.4,4.3-4.8,6.2-7.2c2-2.7,3.5-5,4.8-7.4c1.2-2.4,2.4-5,3.2-7.8c0.8-2.3,1.4-5,1.9-8.5
				c0.1-0.5,0.1-0.9,0.2-1.4c-2.1,1-4.1,2.1-6,3.1c-0.4,2-0.8,3.6-1.3,5.1c0,0,0,0.1,0,0.1c-0.7,2.4-1.8,4.8-2.8,6.8
				c-1.1,2-2.5,4.1-4.3,6.5c-1.8,2.3-3.7,4.5-5.8,6.8c-1.5,1.6-3,3.2-4.6,4.8c-10.6,11.1-17,20.3-19.4,26.7c0.1,2.4,0.1,8,0.2,10.8
				c5.3-12.7,10.1-20,23.2-33.7C322.8,171.1,324.4,169.5,325.9,167.9z"/>
			<path d="M366.8,127.4c-0.1-1.1-0.1-2.3-0.2-3.4c-1.8,0.8-3.6,1.7-5.3,2.5c0,0.4,0.1,0.8,0.1,1.1c0.1,4.1-0.1,8.2-0.6,12
				c-0.7,4.5-1.5,8.2-2.6,11.7c-1,3.4-2.5,7-4.6,11.1c-1.7,3.2-3.8,6.5-6.5,10c-2.2,2.8-4.7,5.7-7.3,8.5c-1.7,1.8-3.4,3.6-5,5.3
				c-3.1,3.3-6.1,6.4-8.8,9.6c-4.5,5.3-8.1,10.3-10.8,15.3c-2.9,5.2-5.4,11-7.5,17.2c-1.8,5.4-3.2,11.5-4.5,18.7c-2,12-3,25-3,39.5
				v2.3v50h5.5v-50v-2.3c0-14.2,0.9-26.9,2.9-38.6c1.2-7,2.7-12.8,4.3-18c1.9-5.9,4.3-11.3,7-16.2c2.6-4.7,5.9-9.4,10.2-14.4
				c2.6-3.1,5.5-6.1,8.6-9.3c1.6-1.7,3.3-3.5,5.1-5.3c2.8-3,5.3-6,7.6-8.9c2.8-3.8,5.1-7.3,7-10.8c2.3-4.5,4-8.4,5-12.1
				c1.2-3.7,2.1-7.7,2.8-12.6C366.7,136.2,366.9,131.9,366.8,127.4z"/>
		</g>
		<g>
			<path d="M365,204.6c1.4-0.2,2.9-0.3,4.2-0.4c0.7,0,1.3-0.1,2-0.1c1.3-0.1,2.5-0.2,3.7-0.2l2.9-0.1c1,0,1.8,0,2.8,0
				c0.6,0,1.2,0,1.8,0.1c1.3,0,2.7,0.1,4,0.2c7.1,0.5,14.7,1.7,22.5,3.8c6.8,1.8,13.6,4.2,21,7.4c11.8,5,22.8,11,33.4,16.8
				c1.6,0.9,3.2,1.7,4.8,2.6c12.3,6.7,24.4,13,36.5,17.4c13,4.8,25.6,6.9,37.5,6.4c0.6,0,1.2-0.1,1.8-0.1c1-0.1,2-0.1,3.1-0.2l3-0.4
				l-0.7-5.5l-2.9,0.4c-0.9,0.1-1.8,0.2-2.8,0.2c-0.6,0-1.3,0.1-1.8,0.1c-11,0.5-22.9-1.6-35.2-6.1c-11.8-4.3-23.6-10.5-35.8-17.1
				c-1.6-0.9-3.2-1.7-4.8-2.6c-10.7-5.9-21.8-11.9-33.9-17c-7.6-3.3-14.8-5.8-21.8-7.7c-8.1-2.2-16.1-3.5-23.6-4
				c-1.4-0.1-2.8-0.1-4.2-0.2c-0.6,0-1.2,0-1.8-0.1c-1.1,0-2,0-3.1,0l-2.9,0.1c-1.3,0-2.7,0.1-4,0.2c-0.6,0-1.3,0.1-2,0.1
				c-1.5,0.1-2.9,0.3-4.4,0.4l-1.5,0.2c-16.9,2.2-28.9,7.8-36.7,13.3l0,0l-0.6,1c-0.8,1.3-1.5,2.5-2.1,3.7l-0.2,0.3
				c-0.6,1-1.1,2.1-1.7,3.3c-0.3,0.5-0.5,1.1-0.8,1.6c-0.2,0.4-0.3,0.8-0.5,1.2c10.1-9.1,23.2-16.4,43.2-19L365,204.6z"/>
			<path d="M365.2,217c6.7-0.8,13.5-1.1,20.4-0.7c12.3,0.8,25.2,4.2,39.5,10.3c11.2,4.8,22.1,10.7,32.7,16.5l4.4,2.4
				c13.2,7.2,25.2,13.5,38.2,18.2c7.1,2.6,14,4.5,20.6,5.6c7.2,1.3,14.4,1.8,21.5,1.5c0.6,0,1.3-0.1,1.9-0.1
				c1.2-0.1,2.4-0.1,3.7-0.3l5.5-0.7l-0.7-5.5l-5.4,0.7c-1.1,0.1-2.2,0.2-3.4,0.3c-0.7,0-1.3,0.1-1.9,0.1
				c-6.7,0.3-13.5-0.2-20.3-1.4c-6.3-1.1-12.9-2.9-19.7-5.4c-12.6-4.6-24.4-10.8-37.4-17.9l-4.4-2.4c-10.7-5.8-21.7-11.9-33.2-16.7
				c-14.9-6.4-28.4-9.9-41.3-10.7c-7.2-0.4-14.4-0.2-21.4,0.7c-24.1,3.2-38.8,13.1-48.9,26.4c-0.9,3.6-1.7,7.3-2.4,11.3
				c-0.1,0.7-0.2,1.4-0.3,2.1c0,0,0,0.1,0,0.1C322.8,233.5,339,220.5,365.2,217z"/>
			<path d="M548.8,277.3c-1.3,0.1-2.7,0.2-4.1,0.3c-0.7,0-1.4,0.1-2,0.1c-7.6,0.3-15.3-0.2-23-1.6c-7-1.2-14.3-3.2-21.8-6
				c-14.4-5.3-27.5-12.4-39.1-18.6l-4-2.2c-11.2-6.1-21.7-11.8-32.5-16.5c-13.6-5.8-25.7-9-37.2-9.7c-0.9-0.1-1.9-0.1-2.8-0.1
				c-0.6,0-1.2,0-1.7-0.1c-0.9,0-1.8,0-2.5,0l-2.3,0c-1,0-2.1,0.1-3.1,0.2c-0.6,0-1.1,0.1-1.8,0.1c-1,0.1-2,0.2-3,0.3
				c-0.5,0.1-1.1,0.1-1.7,0.2c-6.4,0.9-12.4,2.4-18,4.5c-22.9,9.2-35.5,28.6-35.5,52.2v8.3v50h5.5v-50v-8.3
				c0-21.1,10.5-38.4,32.1-47.1c5.1-2,10.7-3.4,16.6-4.2c0.6-0.1,1.1-0.1,1.7-0.2c1-0.1,1.9-0.2,2.8-0.3c0.6,0,1.2-0.1,1.8-0.1
				c1-0.1,1.9-0.1,2.8-0.1l2.4,0c0.7,0,1.4,0,2.1,0c0.6,0,1.2,0,1.9,0.1c0.9,0,1.8,0,2.6,0.1c10.9,0.7,22.4,3.8,35.4,9.3
				c10.6,4.5,21,10.2,32.1,16.2l4,2.2c11.7,6.4,25,13.5,39.8,18.9c7.8,2.8,15.4,4.9,22.7,6.2c8.1,1.4,16.2,2,24.2,1.7
				c0.7,0,1.3-0.1,2-0.1c1.4-0.1,2.9-0.2,4.4-0.3l3.8-0.5l-0.7-5.5L548.8,277.3z"/>
		</g>
	</g>
</g>
</svg>
