<?xml version="1.0" encoding="utf-8"?>
<!-- Generator: Adobe Illustrator 19.2.1, SVG Export Plug-In . SVG Version: 6.00 Build 0)  -->
<!DOCTYPE svg PUBLIC "-//W3C//DTD SVG 1.1//EN" "http://www.w3.org/Graphics/SVG/1.1/DTD/svg11.dtd">
<svg version="1.1" id="Layer_1" xmlns="http://www.w3.org/2000/svg" xmlns:xlink="http://www.w3.org/1999/xlink" x="0px" y="0px"
	 viewBox="0 0 556.2 338.9" enable-background="new 0 0 556.2 338.9" xml:space="preserve">
<g>
	<g>
		<path fill="none" stroke="#000000" stroke-width="3.6651" stroke-linecap="round" d="M367.9,198.2c0,0,20.1-30.4,20.5-53
			c0.6-31.5-10.4-51.2-30.4-75.4c-1.7-2-3.2-4.1-4.5-6.2"/>
		<path fill="none" stroke="#000000" stroke-width="3.6651" stroke-linecap="round" d="M161.9,35.4c0,0,1.1,52.5,7.1,67.3"/>
		<path fill="none" stroke="#000000" stroke-width="3.6651" stroke-linecap="round" d="M356.3,200.9c0,0,24.8-7.4,46.9-4.6
			c24.5,3.1,49,18.6,76.2,35.9c27.2,17.3,66.3,18,66.3,18"/>
		<path fill="none" stroke="#000000" stroke-width="3.6651" stroke-linecap="round" d="M119.9,209.5c0,0-17.8,82.4-100.3,73.8"/>
		<path fill="none" stroke="#000000" stroke-width="3.6651" stroke-linecap="round" d="M109.5,211c0,0-9.5,66.6-89.7,63.3"/>
		<path fill="none" stroke="#000000" stroke-width="3.6651" stroke-linecap="round" d="M100.8,210.9c0,0-7.2,55.7-80.7,53.9"/>
		<path fill="none" stroke="#000000" stroke-width="3.6651" stroke-linecap="round" d="M91.8,210.2c0,0-6.9,49.6-72.2,46.3"/>
		<path fill="none" stroke="#000000" stroke-width="3.6651" stroke-linecap="round" d="M16.4,247.2c0,0,21.7-7.6,44.1,2.4"/>
		<path fill="none" stroke="#000000" stroke-width="3.6651" stroke-linecap="round" d="M12.1,239.3c0,0,29.2-8.8,56.8,5.5"/>
		<path fill="none" stroke="#000000" stroke-width="3.6651" stroke-linecap="round" d="M8.7,231.7c0,0,31.3-10.5,68.5,6.1"/>
		<path fill="none" stroke="#000000" stroke-width="3.6651" stroke-linecap="round" d="M6.8,223.8c0,0,44.1-10.8,77,5.7"/>
		<path fill="none" stroke="#000000" stroke-width="3.6651" stroke-linecap="round" d="M9.2,206.4c0,0,13.5,5.8,17.7,14.4"/>
		<path fill="none" stroke="#000000" stroke-width="3.6651" stroke-linecap="round" d="M14.8,201.9c0,0,16.4,8.3,21.7,18.5"/>
		<path fill="none" stroke="#000000" stroke-width="3.6651" stroke-linecap="round" d="M19.8,197c0,0,19.8,9.2,25.3,23.5"/>
		<path fill="none" stroke="#000000" stroke-width="3.6651" stroke-linecap="round" d="M26.2,193.2c0,0,21.4,9.4,27.8,28"/>
		<path fill="none" stroke="#000000" stroke-width="3.6651" stroke-linecap="round" d="M54.6,105.5c0,0,16.5,14.8,29.2,20.6"/>
		<path fill="none" stroke="#000000" stroke-width="3.6651" stroke-linecap="round" d="M59.1,97.9c0,0,23.4,22.1,43.5,27"/>
		<path fill="none" stroke="#000000" stroke-width="3.6651" stroke-linecap="round" d="M64.2,91c0,0,20.9,21.8,49,31.2"/>
		<path fill="none" stroke="#000000" stroke-width="3.6651" stroke-linecap="round" d="M71.3,86.1c0,0,19.5,20.9,37.7,21.9"/>
		<path fill="none" stroke="#000000" stroke-width="3.6651" stroke-linecap="round" d="M124.2,55.3c0,0,7.7,33.1,42.2,37.7"/>
		<path fill="none" stroke="#000000" stroke-width="3.6651" stroke-linecap="round" d="M132.1,52.5c0,0,6.4,25.9,33,31.1"/>
		<path fill="none" stroke="#000000" stroke-width="3.6651" stroke-linecap="round" d="M138.5,48.4c0,0,7.2,21.4,25.6,25.5"/>
		<path fill="none" stroke="#000000" stroke-width="3.6651" stroke-linecap="round" d="M145.4,45.1c0,0,7.5,15.8,17.9,19.4"/>
		<path fill="none" stroke="#000000" stroke-width="3.6651" stroke-linecap="round" d="M244.4,5.6c0,0,6.2,24.1-5.1,37.8"/>
		<path fill="none" stroke="#000000" stroke-width="3.6651" stroke-linecap="round" d="M254,4.1c0,0,5.8,21.4-7.4,46.6"/>
		<path fill="none" stroke="#000000" stroke-width="3.6651" stroke-linecap="round" d="M264.3,2.5c0,0,3.2,25.3-2.9,43.9"/>
		<path fill="none" stroke="#000000" stroke-width="3.6651" stroke-linecap="round" d="M409.8,32.1c0,0-24.8,8.1-44.4,46.8"/>
		<path fill="none" stroke="#000000" stroke-width="3.6651" stroke-linecap="round" d="M414.1,38.7c0,0-29.5,11.7-43.3,47.7"/>
		<path fill="none" stroke="#000000" stroke-width="3.6651" stroke-linecap="round" d="M417,46.9c0,0-33.2,15.6-41.2,47.9"/>
		<path fill="none" stroke="#000000" stroke-width="3.6651" stroke-linecap="round" d="M420.2,53.3c0,0-31,16.5-40.3,48.9"/>
		<path fill="none" stroke="#000000" stroke-width="3.6651" stroke-linecap="round" d="M509.9,103.2c0,0-52.7,13.1-74.1-9.4"/>
		<path fill="none" stroke="#000000" stroke-width="3.6651" stroke-linecap="round" d="M511.7,110.9c0,0-52.3,15.6-81-8.7"/>
		<path fill="none" stroke="#000000" stroke-width="3.6651" stroke-linecap="round" d="M514.4,117.5c0,0-53.1,19.7-89.2-8.9"/>
		<path fill="none" stroke="#000000" stroke-width="3.6651" stroke-linecap="round" d="M517.1,124.6c0,0-60.2,23.2-98.4-11.2"/>
		<path fill="none" stroke="#000000" stroke-width="3.6651" stroke-linecap="round" d="M315.8,337.1c0,0-1.3-63.2,7.7-78.6
			c7.4-12.6,34.5-35.9,65-34.9c26.8,0.9,42.7,8.5,75.4,32.5C499.7,282.3,544,276,544,276"/>
		<path fill="none" stroke="#000000" stroke-width="3.6651" stroke-linecap="round" d="M388.4,147.3c0,0,14.7-9.2,36-8.4
			c23.6,0.9,25.5,7.9,50,10.5c24.6,2.6,41.4-5.2,41.4-5.2"/>
		<path fill="none" stroke="#000000" stroke-width="3.6651" stroke-linecap="round" d="M387.1,155.5c0,0,12.6-7.9,34-7.9
			c21.4,0,24.1,4.4,48.6,9.7c24.6,5.2,49.3-5.8,49.3-5.8"/>
		<path fill="none" stroke="#000000" stroke-width="3.6651" stroke-linecap="round" d="M384.1,165.7c0,0,12.2-7.7,32.8-8.9
			c26.9-1.5,28.9,5.8,51.4,9.7c26.6,4.6,53.6-7,53.6-7"/>
		<path fill="none" stroke="#000000" stroke-width="3.6651" stroke-linecap="round" d="M380,175.8c0,0,12.5-8.9,40.3-9.4
			c27.7-0.4,26.4,6.6,48.7,8.7c22.3,2.2,47.8-4.4,47.8-4.4"/>
		<path fill="none" stroke="#000000" stroke-width="3.6651" stroke-linecap="round" d="M171.2,32.5c0,0,2.1,6.6,2.6,34.2
			c0.5,27.6,5,37.6,5,37.6"/>
		<path fill="none" stroke="#000000" stroke-width="3.6651" stroke-linecap="round" d="M180,31.2c0,0,2,3.1,4,38.3
			c2,35.2,3.9,38.2,3.9,38.2"/>
		<path fill="none" stroke="#000000" stroke-width="3.6651" stroke-linecap="round" d="M189.8,31c0,0,4.3,6.6,4.1,40.7
			c-0.1,34.2,5.5,41.9,5.5,41.9"/>
		<path fill="none" stroke="#000000" stroke-width="3.6651" stroke-linecap="round" d="M368.1,20c0,0-27.1,22.7-46.7,29.3
			c-19.6,6.6-44,30.1-44,30.1"/>
		<path fill="none" stroke="#000000" stroke-width="3.6651" stroke-linecap="round" d="M282.8,88.3c0,0,11.5-17,46.5-32.7
			c35-15.7,47.1-33.1,47.1-33.1"/>
		<path fill="none" stroke="#000000" stroke-width="3.6651" stroke-linecap="round" d="M384.5,28.3c0,0-11.7,17.3-48.9,34.9
			c-37.2,17.6-48.4,34.3-48.4,34.3"/>
		<path fill="none" stroke="#000000" stroke-width="3.6651" stroke-linecap="round" d="M392.6,31.6c0,0-14.1,21-50.7,37.9
			c-36.6,16.9-51.6,38.4-51.6,38.4"/>
		<path fill="none" stroke="#000000" stroke-width="3.6651" stroke-linecap="round" d="M241.7,337.1c0,0,1.2-54.3-0.8-66.6
			c-2.1-12.2-11.9-38.3-39.1-37.5c-27.1,0.8-72.8,32-106.5,23.3"/>
		<path fill="none" stroke="#000000" stroke-width="3.6651" stroke-linecap="round" d="M250,337.1c0,0,0.8-50.4-0.4-65
			c-1.2-14.6-12.8-43.4-41.5-47c-29.1-3.6-72.3,30.9-106,22.6"/>
		<path fill="none" stroke="#000000" stroke-width="3.6651" stroke-linecap="round" d="M258.2,337.1V274c0-10.6-9.9-51.2-44.4-56.3
			c-34.5-5.1-84.9,31.1-107.1,23.2"/>
		<path fill="none" stroke="#000000" stroke-width="3.6651" stroke-linecap="round" d="M266.4,337.1v-59.6
			c0-12.2-6.2-58.9-48.1-67.6c-41.9-8.7-81.3,28-107.2,22.9"/>
		<path fill="none" stroke="#000000" stroke-width="3.6651" stroke-linecap="round" d="M307.3,337.1c0,0,0.6-37.4,0.9-53.7
			c0.5-29.2,21-51.7,52.6-64.3c30-11.9,61.1-6.1,98.4,22.5c40.6,31.1,83.6,25.7,83.6,25.7"/>
		<path fill="none" stroke="#000000" stroke-width="3.6651" stroke-linecap="round" d="M299.5,337.1v-57.8
			c0-33.2,32.5-54.8,51.4-66.6c14.8-9.2,60.8-17.5,101.3,13.6c48.3,37.1,91.4,32,91.4,32"/>
		<path fill="none" stroke="#000000" stroke-width="3.6651" stroke-linecap="round" d="M130.1,176.4c-6.9,3.1-14.1,5.5-21.7,6.9
			c-33.7,5.9-62.1-19.1-75-27.4"/>
		<path fill="none" stroke="#000000" stroke-width="3.6651" stroke-linecap="round" d="M282.1,337.1c0,0,0.3-17.2,0.9-87.8
			c0.5-54.2-26.6-82.5-58.4-93.9c-28.7-10.3-50-1.6-70.5,8.9"/>
		<path fill="none" stroke="#000000" stroke-width="3.6651" stroke-linecap="round" d="M142.8,199.2c-11.2,6.1-21.8,11.3-31.7,11.7
			c-56.5,2.3-93.5-35.4-93.5-35.4"/>
		<path fill="none" stroke="#000000" stroke-width="3.6651" stroke-linecap="round" d="M257.4,241.1c0,0-1.9-48.7-43.7-61.5
			c-16.4-5.1-32.2-0.3-47.2,6.9"/>
		<path fill="none" stroke="#000000" stroke-width="3.6651" stroke-linecap="round" d="M162.2,179.5c12.1-5.9,25.1-11.4,41.1-10.4
			c72.2,4.5,62.6,100.5,62.6,100.5"/>
		<path fill="none" stroke="#000000" stroke-width="3.6651" stroke-linecap="round" d="M22.4,168.2c0,0,36.9,34.6,78.7,34.1
			c15.6-0.2,25.8-5.3,37.2-10.7"/>
		<path fill="none" stroke="#000000" stroke-width="3.6651" stroke-linecap="round" d="M133.8,184c-7.2,3-14.3,6.2-23,8
			c-40,8.4-83.2-29.7-83.2-29.7"/>
		<path fill="none" stroke="#000000" stroke-width="3.6651" stroke-linecap="round" d="M274.5,337.1v-91.6
			c0-31.6-15.9-74.2-62.2-84.2c-21.7-4.7-37.5,2.2-54.4,10.9"/>
		<path fill="none" stroke="#000000" stroke-width="3.6651" stroke-linecap="round" d="M234.6,6.9c0,0,3.1,25.1-3,27.9"/>
		<path fill="none" stroke="#000000" stroke-width="3.6651" stroke-linecap="round" d="M121.2,146.8c0.2,1.2,0.5,2.4,0.6,3.6
			c5.8,35,36.8,69.9,36.8,69.9"/>
		<path fill="none" stroke="#000000" stroke-width="3.6651" stroke-linecap="round" d="M93.9,76.4c0,0,11.7,20.6,20.4,45.4"/>
		<path fill="none" stroke="#000000" stroke-width="3.6651" stroke-linecap="round" d="M128.9,143c0,0.2,0.1,0.3,0.1,0.5
			c10.4,45.6,38.5,73.4,38.5,73.4"/>
		<path fill="none" stroke="#000000" stroke-width="3.6651" stroke-linecap="round" d="M102.4,71.5c0,0,9.9,18,19.5,47.3"/>
		<path fill="none" stroke="#000000" stroke-width="3.6651" stroke-linecap="round" d="M136.3,139.3c0.5,2,0.9,3.9,1.2,5.9
			c6.8,35,37.6,69,37.6,69"/>
		<path fill="none" stroke="#000000" stroke-width="3.6651" stroke-linecap="round" d="M110.6,67.5c0,0,10.4,22.1,18.8,47.5"/>
		<path fill="none" stroke="#000000" stroke-width="3.6651" stroke-linecap="round" d="M144,135.3c0.1,0.5,0.2,0.9,0.3,1.4
			c10.9,45.9,42.5,74.3,42.5,74.3"/>
		<path fill="none" stroke="#000000" stroke-width="3.6651" stroke-linecap="round" d="M117.4,62.9c0,0,10.2,17.7,19.9,48.1"/>
		<path fill="none" stroke="#000000" stroke-width="3.6651" stroke-linecap="round" d="M213.4,152.3c0,0-2.3-35.6,8.1-57.9
			c10.5-22.3,9.1-19.2,35.9-44.1c26.8-24.9,22.7-45.9,22.7-45.9"/>
		<path fill="none" stroke="#000000" stroke-width="3.6651" stroke-linecap="round" d="M222.1,154.6c0,0-6.3-58.7,31.6-89.1
			c39.8-31.8,36.6-60.6,36.6-60.6"/>
		<path fill="none" stroke="#000000" stroke-width="3.6651" stroke-linecap="round" d="M300.4,4.5c0,0,0,35.2-38.7,65.5
			c-38.7,30.3-31.2,87.8-31.2,87.8"/>
		<path fill="none" stroke="#000000" stroke-width="3.6651" stroke-linecap="round" d="M309.7,5.7c0,0-5.1,45.7-40.8,71.2
			c-35.8,25.5-29.5,85.4-29.5,85.4"/>
		<path fill="none" stroke="#000000" stroke-width="3.6651" stroke-linecap="round" d="M238.9,149.6c12.1,0.4,22.9-0.4,32.4,5.9
			c14.2,9.4,9.3,64.3,9.3,64.3"/>
		<path fill="none" stroke="#000000" stroke-width="3.6651" stroke-linecap="round" d="M40.1,143.5c0,0,25.7,14.5,55,11.1
			c29.3-3.4,53.3-26.8,71.5-26.4c16.9,0.4,25.8,11.1,46.5,17.4"/>
		<path fill="none" stroke="#000000" stroke-width="3.6651" stroke-linecap="round" d="M239.4,140.7c16.2,1.6,23.5-0.5,38.2,7.5
			c19.5,10.7,11.1,74.9,12.4,96.2"/>
		<path fill="none" stroke="#000000" stroke-width="3.6651" stroke-linecap="round" d="M46.4,136.7c0,0,15.4,11.5,46.9,9.3
			c27.1-1.8,55.8-25.8,71.7-26.6c14.8-0.8,23.6,10.5,48.2,17.5"/>
		<path fill="none" stroke="#000000" stroke-width="3.6651" stroke-linecap="round" d="M240.2,132.6c12.8,0.3,15.8-2,38.3,5.8
			c30.6,10.6,19.9,77.6,21.3,94.2"/>
		<path fill="none" stroke="#000000" stroke-width="3.6651" stroke-linecap="round" d="M51.4,129c0,0,19.1,10.9,46.9,6.8
			c24.9-3.7,47.5-25.1,71-24.6c16.3,0.3,21.8,11.8,44.4,17.8"/>
		<path fill="none" stroke="#000000" stroke-width="3.6651" stroke-linecap="round" d="M241.4,125.3c13.9-0.6,25.9-2.5,45.1,8
			c32,17.5,19.1,63.3,22.2,90.5"/>
		<path fill="none" stroke="#000000" stroke-width="3.6651" stroke-linecap="round" d="M54.3,120.9c0,0,20.9,8.1,46.6,4.3
			c25.8-3.8,40-21.3,63.9-22.6c18.5-1,34.1,12,49.6,18.7"/>
		<path fill="none" stroke="#000000" stroke-width="3.6651" stroke-linecap="round" d="M272.8,73.8c24.6,26,18.6,62.7,18.6,62.7"/>
		<path fill="none" stroke="#000000" stroke-width="3.6651" stroke-linecap="round" d="M219.9,17.6c0,0,5.7,14.3,32,38"/>
		<path fill="none" stroke="#000000" stroke-width="3.6651" stroke-linecap="round" d="M254.7,91.2c13.5,19.2,11,34.7,11,34.7"/>
		<path fill="none" stroke="#000000" stroke-width="3.6651" stroke-linecap="round" d="M198.4,26.3c0,0,4.5,21.8,32.7,41.9
			c1.4,1,2.8,2,4.1,3"/>
		<path fill="none" stroke="#000000" stroke-width="3.6651" stroke-linecap="round" d="M260.4,84.3c17.2,19.6,14.4,43.7,14.4,43.7"
			/>
		<path fill="none" stroke="#000000" stroke-width="3.6651" stroke-linecap="round" d="M203.8,21c0,0,8.3,22.7,36.2,45.4"/>
		<path fill="none" stroke="#000000" stroke-width="3.6651" stroke-linecap="round" d="M265.9,79c20.2,21.2,16.7,52.3,16.7,52.3"/>
		<path fill="none" stroke="#000000" stroke-width="3.6651" stroke-linecap="round" d="M212.5,19.1c0,0,7.1,20.1,33.2,42"/>
		<path fill="none" stroke="#000000" stroke-width="3.6651" stroke-linecap="round" d="M343.2,38.1c-2.8-12.9-1.7-22.6-1.7-22.6"/>
		<path fill="none" stroke="#000000" stroke-width="3.6651" stroke-linecap="round" d="M335.2,42.9c-3-14.8-1.7-27-1.7-27"/>
		<path fill="none" stroke="#000000" stroke-width="3.6651" stroke-linecap="round" d="M342.9,217.5c0,0,33.1-34.4,36.1-74.9
			c2.5-32.9-14.6-50.5-31.3-72.6c-0.6-0.8-1.2-1.7-1.7-2.6"/>
		<path fill="none" stroke="#000000" stroke-width="3.6651" stroke-linecap="round" d="M327.8,46.7c-3.8-16.5-2.9-30.7-2.9-30.7"/>
		<path fill="none" stroke="#000000" stroke-width="3.6651" stroke-linecap="round" d="M290.7,337.1c0,0-0.6-42.8,0.6-70.1
			c1.7-38.2,64.9-51,76.8-112.9c6.5-33.9-8.5-54.3-27.1-78c-1.1-1.4-2.2-3-3.2-4.5"/>
		<path fill="none" stroke="#000000" stroke-width="3.6651" stroke-linecap="round" d="M330.2,75.4c1.1,1.7,2.3,3.5,3.6,5.2
			c20.9,27.8,30.1,48.3,23.3,79.3c-9.8,44.5-72.1,70.1-74.2,102.4"/>
		<path fill="none" stroke="#000000" stroke-width="3.6651" stroke-linecap="round" d="M316.8,15c0,0-3,15.5,2.3,35.2"/>
		<path fill="none" stroke="#000000" stroke-width="3.6651" stroke-linecap="round" d="M387.3,127.2c10.4-3.9,20.4-7.7,28.5-12
			c21-11.2,22.5-34.7,43.1-57.5"/>
		<path fill="none" stroke="#000000" stroke-width="3.6651" stroke-linecap="round" d="M308.7,185c0,0,14.2-21.7,33.2-36.2
			c5-3.8,10.9-7.1,17.4-10.2"/>
		<path fill="none" stroke="#000000" stroke-width="3.6651" stroke-linecap="round" d="M381.1,105c7.3-3.3,14.9-7.3,20.6-11.7
			c18.3-14.2,16.3-30,31.1-46.8"/>
		<path fill="none" stroke="#000000" stroke-width="3.6651" stroke-linecap="round" d="M303.3,151.5c0,0,9.1-17.3,29.3-27
			c6.6-3.1,14.1-6,22-9"/>
		<path fill="none" stroke="#000000" stroke-width="3.6651" stroke-linecap="round" d="M383.7,111.9c8.2-3,16.3-6,22.7-10.6
			c17.2-12.2,19.4-35.1,36.1-52.2"/>
		<path fill="none" stroke="#000000" stroke-width="3.6651" stroke-linecap="round" d="M306.2,161c0,0,12.1-18.3,28.8-29.8
			c5.7-3.9,13.2-7.1,21.6-10"/>
		<path fill="none" stroke="#000000" stroke-width="3.6651" stroke-linecap="round" d="M385.8,119.4c9-3.5,17.4-7,24.1-10.6
			c17.9-9.7,25.3-38.8,39.6-55.6"/>
		<path fill="none" stroke="#000000" stroke-width="3.6651" stroke-linecap="round" d="M307.7,170.7c0,0,14.8-22.8,34.6-33.2
			c4.9-2.6,10.4-5,16.2-7.4"/>
		<path fill="none" stroke="#000000" stroke-width="3.6651" stroke-linecap="round" d="M453.4,104c5.7-19.9,15.1-31.4,15.1-31.4"/>
		<path fill="none" stroke="#000000" stroke-width="3.6651" stroke-linecap="round" d="M461.3,105.7c3.9-13.5,9.8-24.2,14.9-29.7"/>
		<path fill="none" stroke="#000000" stroke-width="3.6651" stroke-linecap="round" d="M485.3,77c0,0-8.9,11.3-14.2,29.8"/>
		<path fill="none" stroke="#000000" stroke-width="3.6651" stroke-linecap="round" d="M492.4,81.3c0,0-7.5,10-12.7,25.7"/>
		<path fill="none" stroke="#000000" stroke-width="3.6651" stroke-linecap="round" d="M449.3,143.4c-0.4-4.9-0.4-9.6-0.1-14"/>
		<path fill="none" stroke="#000000" stroke-width="3.6651" stroke-linecap="round" d="M547.2,240.3c-16.1,3-71.2-6.8-91-63.8
			c-0.5-1.3-0.9-2.6-1.3-3.9"/>
		<path fill="none" stroke="#000000" stroke-width="3.6651" stroke-linecap="round" d="M457.6,146.1c-0.5-5.1-0.6-10.1-0.4-15"/>
		<path fill="none" stroke="#000000" stroke-width="3.6651" stroke-linecap="round" d="M548.6,232.4c-15,0.6-67-7.4-83.5-57.6"/>
		<path fill="none" stroke="#000000" stroke-width="3.6651" stroke-linecap="round" d="M475.5,175.6c14.8,45.6,75.1,47.6,75.1,47.6"
			/>
		<path fill="none" stroke="#000000" stroke-width="3.6651" stroke-linecap="round" d="M466.7,132.1c-0.1,5.2,0.3,10.8,1.2,16.5"/>
		<path fill="none" stroke="#000000" stroke-width="3.6651" stroke-linecap="round" d="M484.8,175.4c20.3,37.7,61.8,39.2,61.8,39.2"
			/>
		<path fill="none" stroke="#000000" stroke-width="3.6651" stroke-linecap="round" d="M475.1,132.1c-0.2,5.5,0,11.4,1,17.4"/>
		<path fill="none" stroke="#000000" stroke-width="3.6651" stroke-linecap="round" d="M493.9,188.7c17.4-16.6,41.6-27.7,41.6-27.7"
			/>
		<path fill="none" stroke="#000000" stroke-width="3.6651" stroke-linecap="round" d="M456.3,217.6c0,0,7.1-3.4,16.8-10.5"/>
		<path fill="none" stroke="#000000" stroke-width="3.6651" stroke-linecap="round" d="M500.6,195.4c17.2-21.7,41.6-27.4,41.6-27.4"
			/>
		<path fill="none" stroke="#000000" stroke-width="3.6651" stroke-linecap="round" d="M466.5,224c0,0,6-2.9,14-9"/>
		<path fill="none" stroke="#000000" stroke-width="3.6651" stroke-linecap="round" d="M508,201.3c17-19.9,35.4-25.3,35.4-25.3"/>
		<path fill="none" stroke="#000000" stroke-width="3.6651" stroke-linecap="round" d="M475.2,229.5c0,0,5-1.7,12.9-7.9"/>
		<path fill="none" stroke="#000000" stroke-width="3.6651" stroke-linecap="round" d="M516.9,206.2c16-19.6,30.3-22.4,30.3-22.4"/>
		<path fill="none" stroke="#000000" stroke-width="3.6651" stroke-linecap="round" d="M484.4,235c0,0,4.9-2.2,12.2-7.9"/>
	</g>
</g>
</svg>
