<svg xmlns="http://www.w3.org/2000/svg" viewBox="0 0 537 480"><defs><style>.cls-1{fill:#231f20;}.cls-2{fill:#fff;}</style></defs><title>Artboard 10</title><g id="Content"><rect class="cls-1" width="537" height="480"/><path class="cls-2" d="M-19.86,635.18c.05-1.71.09-3.42.13-5.13l.36-14.7L-18.8,592l.75-30.77c.31-12.48.95-25.29.88-37.45A150.72,150.72,0,0,0-24.79,477c-5.38-16.2-15.62-34.33-17.25-49.66-1.82-17.08,8.11-30.62,20-45.89,11.37-14.64,23.92-30.8,26.53-48.83,2.73-18.9-.56-36-9.11-52.63-6.11-11.92-16.14-23.93-19.21-36.12-4.81-19,4.77-45.34,9.19-66.45C-10.52,157.63-7,137.18-7,116.91-7,100-7.13,83.14-8.46,66.3c-1.19-15-1.4-30,1.16-45.08A254.25,254.25,0,0,0-3.92-16.51l.84-34,.66-27q.22-9.5.46-19c.08-3.32.16-6.63.25-10l0-1.22c0-1.36-2.15,0-2.18,1.09L-4-101.5l-.36,14.7-.57,23.37q-.37,15.38-.76,30.76c-.3,12.39-.07,25.38-1,37.14-1,12.7-4,26.74-4.34,39.57-.4,16.11,2.29,33.81,2.25,50.23C-8.82,110.94-9,128.51-11,145.14c-2.82,24.37-11,50-14.21,73.57C-27.26,234.08-27,248.25-17.6,262c9.69,14.11,17.58,30,20,45.47C5.3,325.66.69,343.68-8.9,360.14c-8.66,14.87-24.74,30.25-31.25,44.92-6.94,15.65-2.24,31.52,4.67,49.26,6.3,16.16,12.84,32.64,15,49.13,1.75,13.28,1,27.5.68,41.61q-.42,17-.83,34l-.66,27q-.24,9.49-.47,19l-.24,9.95,0,1.22c0,1.36,2.15,0,2.17-1.09Z"/><path class="cls-2" d="M-12.93,634.58l.12-5.13.36-14.7.57-23.37.75-30.77c.31-12.59,1-25.53.72-37.76a158.56,158.56,0,0,0-8.22-47.34c-5.4-16-15.69-34-17.25-49.07-1.76-17,9-30.6,21.07-45.69C-3.29,366.31,9.55,350.2,12,332c2.6-19-.89-36-9.61-52.46-6.24-11.8-16.38-23.64-19.72-35.79-5.25-19.13,5.36-46.94,9.87-68.07,4.2-19.63,8-39.94,7.64-60.13C-.13,98.26-1.46,81.11-3.32,64-5,49.08-5.58,34-2.14,19,.72,6.51,2.62-4.31,3-17.11c.34-11.27.55-22.68.83-34l.66-27q.23-9.5.46-19c.09-3.32.17-6.63.25-9.95l0-1.22c0-1.36-2.15,0-2.17,1.09,0,1.71-.09,3.42-.13,5.13L2.58-87.4,2-64,1.26-33.26C1-21,1.29-8.13-.34,3.32-2.11,15.64-5.83,29-6.15,41.52c-.43,16.56,3.56,35.39,4.16,52A335.63,335.63,0,0,1-3.7,143.41C-6.62,168.25-15,194.32-18.61,218.46c-2.35,15.79-2.2,29.58,7.8,43.46S7.25,291.47,10,306.9c3.2,18.2-1.45,36.13-11.22,52.46-8.95,14.95-25.42,30.16-32.63,44.93-7.59,15.56-2.72,30.94,4.27,48.55,6.44,16.21,12.6,32.38,15.51,49.32,2.34,13.65,1.6,28.19,1.22,42.3-.3,11.31-.55,22.68-.83,34l-.66,27q-.22,9.51-.46,19-.13,5-.25,10l0,1.22c0,1.36,2.15,0,2.18-1.09Z"/><path class="cls-2" d="M-6,634l.12-5.13.36-14.7L-5,590.78q.39-15.37.76-30.77c.31-12.69.84-25.66.48-38A168.7,168.7,0,0,0-12,474.11c-5.24-15.79-15.32-33.62-16.61-48.4-1.47-16.8,9.76-30.64,21.61-45.62C4.41,365.66,17.44,349.18,19.24,331a91.2,91.2,0,0,0-10-52.14c-6.15-11.87-15.88-23.61-19.39-36-5.58-19.69,5.89-48.6,10.41-69.68C4.39,153.92,8.12,133.6,7.51,114,7,96.56,3.75,78.55,1.39,61.36c-2-14.87-3.24-30.52,1.2-45C6.1,4.83,9.26-5.77,9.93-17.71c.61-11,.55-22.68.83-34l.66-27q.24-9.49.47-19l.24-10,0-1.22c0-1.36-2.15,0-2.17,1.09,0,1.71-.09,3.42-.13,5.13L9.5-88,8.93-64.63,8.18-33.86C7.89-22.22,8.64-9.48,5.54,1.75,2.05,14.35-1.4,26.16-1.73,38.58c-.45,17,4.47,36.52,6.06,53.8a242.11,242.11,0,0,1-.46,48.72C1,166.22-7.6,192.62-11.39,217.06c-2.49,16.1-2.65,30,7.52,44.21,10,13.87,18,29.55,20.7,45,3.22,18.16-.72,35.68-10.32,52.12-8.87,15.2-25.82,30-33.11,45.41-7.55,16-3.27,30.19,3.59,47.66,6.38,16.24,12.81,32.72,15.43,49.43,2.15,13.71,2,28.51,1.63,42.94-.3,11.32-.56,22.68-.84,34l-.66,27q-.22,9.5-.46,19c-.08,3.32-.16,6.63-.25,10l0,1.22c0,1.36,2.14,0,2.17-1.09Z"/><path class="cls-2" d="M.91,633.38c0-1.71.08-3.42.13-5.13l.36-14.7L2,590.18l.75-30.77c.3-12.73.55-25.67.19-38.17a179.38,179.38,0,0,0-7.78-48.33C-9.76,457.36-19,440.4-19.52,425.3c-.58-17.49,9.28-30.55,20.86-45.84,11-14.57,24-31.64,24.72-49.93.74-18-2.49-35.62-10.23-51.65C10,265.72.36,253.49-2.39,241.11c-4.57-20.57,6-48.71,10.78-71.22,4-18.67,7.9-38.54,6.52-57.64-1.3-18-6.26-36.32-9.14-53.86C3.34,43.62,1.63,27.52,7,13.36c4-10.48,8.36-21,9.65-31.82C17.89-29,17.41-41,17.68-52.33l.66-27q.24-9.51.47-19l.24-10,0-1.22c0-1.36-2.14,0-2.17,1.09,0,1.71-.08,3.42-.13,5.13l-.36,14.7-.57,23.37L15.1-34.46c-.28,11.39-.07,23.58-4,34.29-4.58,12.36-8.38,23-8.73,35.47-.47,17.38,4.95,37.05,8,55.07a176.83,176.83,0,0,1,1.4,47.92C9.08,163.47.17,190.16-3.53,214.58-6,230.7-6.64,245.52,3.22,260.09,12.81,274.27,20.27,289.93,23,305.7a76,76,0,0,1-8.61,51.58c-8.58,15.55-26,31-32.75,46.4-6.64,15.17-3.71,29.6,2.71,46.67C-9.52,466.6-3.35,483.12-.87,499.82c2.07,13.88,2,28.95,1.8,43.45-.16,11.27-.52,22.68-.79,34l-.66,27q-.24,9.5-.47,19l-.24,10,0,1.22c0,1.36,2.14,0,2.17-1.09Z"/><path class="cls-2" d="M7.83,632.78c0-1.71.09-3.42.13-5.13L8.32,613l.57-23.37c.25-10.25.56-20.56.75-30.76.24-12.76.11-25.66-.19-38.42C9.06,503.76,7.21,487.6,2.77,472c-4.21-14.76-13.14-31.4-12.39-46.9.89-18.5,8.91-30.75,19.78-46.28,10.1-14.42,22.71-32,22.05-50.7-.65-18.13-3.29-35.46-10-51.46-5-11.92-14.79-24.79-16.13-38.54-2.3-23.7,6.08-49.28,10.82-72.12,3.86-18.62,6.65-37.22,5.87-56.31C22,91.48,13.22,72.64,10,55.23c-2.75-14.68-5-31.25,1.23-45C15.57.57,20.65-9.39,22.9-19.7s1.44-22.24,1.71-33.23l.66-27q.23-9.49.46-19,.12-5,.25-10l0-1.22c0-1.36-2.15,0-2.18,1.09l-.12,5.13-.36,14.7-.57,23.37c-.26,10.25-.4,20.63-.76,30.77-.39,11.11-.92,22.8-5.91,32.59-5.62,11-9.19,22.16-10,34.27C5,49.45,11.66,70.23,16.35,87.41c4.24,15.48,4.9,31.63,3.45,47.69-2.26,24.92-11,51.17-14.63,75.69-2.41,16.34-3.87,32.53,5.29,47.64C19.32,273,25.77,288.7,28.55,304.92c3.14,18.29,2,34.53-6.16,51-8,16-25.21,32.1-31.41,47.93-5.68,14.49-4.12,29.39,1.54,45.69S3.89,482.32,6.05,499c1.82,13.94,1.68,29.14,1.66,43.65,0,11.29-.37,22.71-.65,34.07l-.66,27q-.24,9.49-.47,19l-.24,9.95,0,1.22c0,1.36,2.15,0,2.17-1.09Z"/><path class="cls-2" d="M14.76,632.18l.12-5.13.36-14.7L15.81,589c.25-10.25.62-20.59.72-30.75.14-12.77-.24-25.78-.51-38.62-.35-16.45-1.33-32.52-5.14-48.09C7.18,456.42.21,440,.5,425c.33-17.24,9.29-31.35,18.9-46.87C29.73,361.48,38.34,345.72,38,326.72c-.32-16.8-4.08-35.31-9.64-51.37-4.46-12.87-12.61-26.41-13.74-40.86-1.9-24.09,6.42-49.65,11-72.74a283.52,283.52,0,0,0,5.53-55.55c-.16-16.64-13.1-36.84-17-54.13C10.9,37.8,8.3,20.64,15.37,7.06c4.51-8.64,11-18.44,13.59-28.4,2.68-10.3,2.31-21.62,2.57-32.19l.66-27q.23-9.49.46-19,.14-5,.25-10l0-1.22c0-1.36-2.15,0-2.18,1.09l-.12,5.13-.36,14.7L29.7-66.43c-.25,10.26-.14,20.91-.76,30.77C28.29-25.23,26.67-14.16,21.06-5,14.5,5.68,10.72,16.17,9.88,28.22,8.61,46.47,16.57,66.5,22.71,84.14,28.32,100.28,29.15,115,28,131.73c-1.69,24.44-10.19,50.43-13.93,74.61-2.58,16.72-4.27,33.94,3.79,50A172.28,172.28,0,0,1,33.8,303.94c3.13,17.95,3.59,34-3.34,50.22-7,16.41-22.81,32.84-29,49.7-5.53,15-4.43,29.41,0,45.17,4.49,16,10.12,33,11.7,49.42,1.34,13.84,1.15,29,1.27,43.44.1,11.35-.16,22.79-.44,34.19l-.66,27q-.23,9.5-.46,19c-.09,3.32-.17,6.63-.25,9.95l0,1.22c0,1.36,2.15,0,2.18-1.09Z"/><path class="cls-2" d="M21.68,631.58l.12-5.13.36-14.7.57-23.36c.26-10.26.64-20.57.63-30.78,0-12.86-.42-25.87-.72-38.73-.36-16-.27-31.9-3.23-47.33-2.89-15-9.17-32.19-9.06-46.57.12-16.92,10.14-31.68,18.61-47.59,9.29-17.43,15.59-32.83,14.52-52-.93-16.68-4.89-34.95-9.2-51.31-3.74-14.21-9.71-29-11.35-43.5-2.64-23.29,7.18-49.85,11.54-73.15,3.36-17.92,6.85-38.08,5.31-54.61-1.59-17-16.29-37-21.12-53.73C14.75,35.5,11.8,17.52,19.81,4.11c5-8.4,11.92-17.69,15.19-27.39s3.2-20.63,3.45-30.85l.66-27q.24-9.5.47-19l.24-9.95,0-1.22c0-1.36-2.15,0-2.17,1.1,0,1.71-.09,3.41-.13,5.12l-.36,14.7L36.62-67c-.25,10.17-.43,20.38-.9,30.51C35.27-27,31.54-15.3,26.18-7.68,18.8,2.83,14.66,12.62,13.75,24.77c-1.4,18.74,8.3,38.42,15.8,56.19,7.18,17,7.25,29.91,6.65,47.48-.81,23.75-9.51,49.64-13.42,73.25-2.93,17.74-3.87,34.7,2.67,52.33a291.39,291.39,0,0,1,13.43,48.9C42,320,43.61,336.58,38.54,352,33,369,18.44,386.85,11.71,403.7c-6,14.89-4.25,29.32-.61,45.37s8.6,33.23,9.29,49.35c.57,13.48.51,28.56.74,42.73.18,11.4.05,22.88-.23,34.33q-.31,13.51-.66,27-.22,9.5-.46,19-.12,5-.25,10l0,1.22c0,1.37,2.15,0,2.18-1.09Z"/><path class="cls-2" d="M28.6,631c0-1.71.08-3.42.13-5.13l.36-14.7c.19-7.79.37-15.59.57-23.36.26-10.27.59-20.61.52-30.86-.09-12.85-.54-25.86-.82-38.69-.34-15.33.79-31.1-1.11-46-2-15.56-8.33-33.19-8.68-47.35-.42-16.65,11.58-32.43,19.17-48.41,8.17-17.19,11.72-33.26,10.07-52.33-1.45-16.64-5.6-34.23-8.77-51.19-2.9-15.42-7.59-31.28-9.2-46.34-2.52-23.51,8.05-50.37,12.42-73.27,3.19-16.76,7.87-38,5.45-53.57-2.64-17-18.21-36.48-24.3-53.29-4.88-13.5-8.81-31.1.45-45C30.52-7,37.31-15.86,41.14-25.44c3.5-8.73,4.29-20.27,4.23-29.29,0-8.73.44-18,.66-27q.24-9.5.47-19l.24-10,0-1.22c0-1.36-2.14,0-2.17,1.1,0,1.71-.08,3.42-.13,5.13L44.11-91q-.28,11.69-.57,23.37c-.25,9.9-.18,20-1.17,29.83-.93,9.19-5.5,20-10.76,27.45C23.61,1,19.19,8.3,18,21.67c-1.69,19,10.55,39.12,19,56.5,8.28,17,9,29.27,7.25,47.4-2.22,23-9.15,48.57-13.18,71.58-3.24,18.51-2.81,36,2.17,54.42,4.36,16.1,7.6,33.7,10.68,50.34,2.94,16,5.57,33.28,2.63,47.51C42.91,367,28.62,386,21.37,403.31c-6.44,15.32-3.36,29.45.17,46.29,3.29,15.73,5.7,32.1,5.59,48.53-.09,14,.44,28.25.73,42.27.23,11.46.21,23,0,34.49-.19,9-.44,18-.66,27q-.24,9.5-.47,19l-.24,10,0,1.22c0,1.37,2.14,0,2.17-1.09Z"/><path class="cls-2" d="M35.52,630.38c0-1.71.09-3.42.13-5.13l.36-14.7c.19-7.79.36-15.59.57-23.36.27-10.28.54-20.67.44-30.94-.13-12.82-.49-25.72-.85-38.56-.41-14.73,1.5-29.85,1.12-44-.44-16.39-8.85-34.26-9.39-49-.62-17.07,13.23-33.71,20.39-49.65S56.11,341.6,54,323.06c-1.85-16.57-6.19-34.24-8.22-50.82-2-16.28-6-33.28-7.65-49.36-2.48-23.44,8.35-50,13-72.51,3.15-15.18,11-37.67,6.77-53-5-18-19.5-35.94-26.7-52.77C25.16,30.37,20.65,14,30.59-.91,36.37-9.56,43.24-18.18,47.5-27.74c3.64-8.15,4.88-19,4.87-27.71,0-8.4.37-17.89.59-26.9q.23-9.5.46-19l.24-10,0-1.21c0-1.37-2.14,0-2.17,1.09l-.12,5.13L51-91.59c-.19,7.78-.4,15.58-.57,23.36-.22,9.5-.09,19.49-1.45,28.81C47.72-30.5,42.73-20.13,37.47-13,29.28-1.8,24.43,5.94,22.91,19.2,20.8,37.75,36.28,59.56,45.11,76c9.22,17.15,11,28.43,7.6,46.91-4.1,22.3-9.64,47.18-14,70.07C35,212.41,37.07,230.6,41,249.4c3.31,16,4.93,34.52,8,51.57,2.81,15.63,4.86,31.35,4.25,46.82-.78,19.8-15.69,38.3-23,54.88-7,15.72-3.18,30.27,1,47.55C34.91,465.56,34.6,482,34,498c-.48,13.52.3,27.85.62,41.71.26,11.49.29,23.09.1,34.61-.15,9-.43,18-.65,27q-.24,9.5-.47,19l-.24,10,0,1.22c0,1.37,2.15,0,2.17-1.09Z"/><path class="cls-2" d="M42.44,629.78c.05-1.71.09-3.42.13-5.13l.36-14.7c.19-7.79.37-15.59.57-23.36.27-10.31.51-20.71.4-31-.14-12.75-.65-25.73-.8-38.37-.16-14.36,2.7-28.73,3.5-41.3,1-15.72-9.6-35-11.38-51.65-1.92-17.79,15.27-36.4,21.6-51.31,6.46-15.22,4.77-32.73,2.44-50.76-2.15-16.6-6.26-34.31-7.38-50.62-1.18-17.16-5.19-34.9-7-52-2.5-23.19,8.27-49.14,13.46-71.31,3.65-15.62,14.22-36.4,9.19-52.49-5.61-17.93-20.33-35.5-28.28-52.22C32.06,28.47,26.94,13,37.06-2.9c5.6-8.78,12.71-17.63,17.07-27.2,3.52-7.71,4.82-16.34,5.15-26.49.26-8.06.38-17.35.6-26.36q.23-9.49.46-19c.08-3.32.17-6.64.25-10l0-1.21c0-1.37-2.15,0-2.18,1.09l-.12,5.13L58-92.19l-.57,23.36c-.25,10.26-.27,19.64-1.65,27.53C54.21-32.53,49-22.47,43.83-15.43c-8.25,11.26-14,20.35-15,33.08C27.36,35.59,44.37,58,53.93,74.58c9.35,16.28,14,27.39,9,45-6.11,21.29-12.79,47.52-17.2,69.82-4,20-1.11,39,2.4,58.17,3,16.12,3.06,35.07,6,52.6,2.62,15.58,3.91,31.67,5.25,46.66,1.74,19.52-14.18,39.14-21.36,55-7.43,16.38-3.51,31,1.86,49.06,4.88,16.44,1.76,30.26,1.22,47.13-.44,13.48.1,27.38.42,41,.26,11.53.32,23.15.15,34.68-.13,9-.41,18-.63,27q-.24,9.49-.46,19l-.25,10,0,1.21c0,1.37,2.15,0,2.17-1.09Z"/><path class="cls-2" d="M49.37,629.18l.12-5.13.36-14.7c.19-7.78.36-15.59.57-23.36.28-10.31.52-20.73.41-31-.13-12.67-.63-25.59-.69-38.12-.06-14.34,3.25-28.24,4.29-40.68,1.32-15.9-11-35.53-13-52.45-2.16-18.33,16.92-38.12,22.91-53.1,5.57-13.92,2.54-31.93.13-49C62.16,304.81,59,287.6,58.28,270.9c-.81-18.26-5.41-36.32-7.43-54.16-2.59-22.8,6.66-48,13.73-69.68,5-15.18,17.94-35.92,12.64-52.08C71.38,77.15,56.7,59.83,48.29,43.27c-7.58-14.93-13.94-31.3-4-47.73,5.53-9.15,12.37-18.27,16.78-28,3.47-7.65,4.71-16,5-25.64.24-7.65.49-16.44.71-25.45q.24-9.49.47-19l.24-10,0-1.21c0-1.37-2.15,0-2.17,1.09-.05,1.71-.09,3.42-.13,5.13l-.36,14.7C64.69-85,64.52-77,64.3-69.54,64-59.69,64-51,62.56-43.38,61-34.64,55.7-24.78,50.72-17.69c-8.42,12-14,21.56-14.39,34.92C35.79,35.19,53.48,57.31,63.4,74c8,13.48,15.58,27,9.39,43.05-8.51,22-16.22,46.54-20.91,69.39C47.7,206.8,51,226.2,54.62,245.9c3,16.39,2.12,35.82,4.78,53.5,2.33,15.45,4.13,31.71,6,46.72,2.51,20.49-12.9,37.94-20.57,54.48-7.93,17.08-3.87,31.8,2.63,50.71,6.16,17.92,1.36,28.63.84,46.71-.39,13.47-.13,26.89.15,40.34.25,11.55.31,23.16.15,34.7-.12,9-.41,18-.63,27.05q-.23,9.5-.46,19l-.25,10,0,1.21c0,1.37,2.15,0,2.18-1.09Z"/><path class="cls-2" d="M56.29,628.58c0-1.71.08-3.42.13-5.13q.16-7.35.35-14.7c.2-7.78.37-15.59.58-23.36.27-10.32.56-20.71.47-31-.12-12.61-.58-25.46-.53-37.88.06-13.7,3.22-28.18,3.65-40.71.58-16.87-12.06-35.86-14.16-52.86-2.31-18.6,17-38.16,23.08-53.85,5.49-14.2,2.49-30.91,0-48A445.23,445.23,0,0,1,65,270.29c-.56-19-7.46-38.2-8.74-55.79-1.62-22.29,5.53-47,13.95-67.73,5.67-14,22-35.33,16.84-51.73-5.56-17.7-20.2-35-28.6-51.31C50.89,29.12,43.31,11.08,52.24-5.53c5.18-9.61,11.76-19.2,16-29.24,3.28-7.72,4.1-15.86,4.55-25.17.36-7.4.68-15.2.9-24.21q.24-9.5.47-19l.24-10,0-1.22c0-1.37-2.14,0-2.17,1.09,0,1.71-.08,3.42-.13,5.13l-.36,14.7c-.19,7.79-.37,15.69-.62,22.72-.34,9.27-.39,17.61-1.69,25.06C68-36.82,62.85-27,58.15-19.69c-8.54,13.17-13,22.07-12.51,37.16.62,18.89,17.84,40,27.81,56.74,7.65,12.86,15.42,26.14,8.72,41.41-9.72,22.18-19.87,45.32-24.8,68.64-4.36,20.62-.63,40.26,3.25,60.34,3.21,16.6,2.07,36.45,4.3,54.19,2,15.43,4.39,31.51,6.38,47,2.63,20.38-13.09,37.57-20.66,53.45C42.18,417,46.52,432,53.91,451.63c6.56,17.4,3.05,29.08,1.68,46.55-1,12.72-.41,26.36-.17,39.61.2,11.55.26,23.16.09,34.7-.13,9-.44,18-.66,27q-.23,9.5-.46,19l-.24,10,0,1.21c0,1.37,2.14,0,2.17-1.09Z"/><path class="cls-2" d="M63.21,628c0-1.71.09-3.42.13-5.13l.36-14.69.57-23.37c.25-10.31.64-20.65.58-31-.08-12.53-.5-25.34-.32-37.64.2-13.59,3.38-28.38,2.19-41-1.6-17.08-13.29-36.33-15.42-53.29-2.47-19.67,16.17-34.83,22.5-53.39,5.68-16.68,4.07-30.16,1.57-47.71-2.43-17-2.87-34.68-3.82-51.22-1.06-18.54-8.9-38.89-10.4-56.8-1.88-22.57,5.46-46.14,15.89-67.16,6.54-13.17,23.8-34.22,19.68-49.81C92.09,78.32,77.62,60.79,69.5,44.76,61,27.89,55.06,10.81,60.9-6.07,64.2-15.62,71.76-26.48,75.71-37c3-7.9,3.42-16.18,3.91-25,.4-7,.75-14.48,1-23,.18-6,.33-12.46.48-18.79l.24-10,0-1.22c0-1.37-2.14,0-2.17,1.09l-.12,5.13L78.73-94c-.19,7.79-.41,15.26-.7,21.93-.37,8.78-.48,16.74-1.56,24.14C75.17-39,70.41-29,66.06-21.38,57.91-7.19,53.72,3.26,56,18.1c2.9,18.88,17.37,38.6,27.93,57,8.83,15.42,13.19,24.86,6.27,41-9.3,21.66-22.91,43.54-28,66.75-4.54,20.9-.74,39.64,3.63,60.87,3.64,17.7,3.1,36.58,4.83,54.55,1.48,15.52,4.89,32.06,6.27,47.47,1.71,19.1-11.55,36.06-21.22,51.89-10.87,17.8-2.5,37.22,3.69,54.08C64.89,466.54,65.19,483,63,498.38c-1.66,11.84-.71,25.84-.54,38.88.15,11.55.19,23.11-.05,34.63-.19,9-.44,18-.66,27q-.24,9.5-.47,19l-.24,10,0,1.21c0,1.37,2.15,0,2.17-1.09Z"/><path class="cls-2" d="M70.13,627.38c.05-1.71.09-3.42.13-5.13l.36-14.69.57-23.37c.25-10.27.64-20.65.71-30.82.1-12.35-.43-25.29-.07-37.46.41-14.1,2.63-27.7.32-41.19-2.93-17.14-15.8-36-16.78-54-1.08-19.76,15.16-35.6,22.26-52.54,6.78-16.17,5.77-29.79,3.4-47.49-2.3-17.19-1.54-35.58-2.8-52.19-1.4-18.52-10.69-38.89-12.45-56.92-2.24-22.93,5.66-44.89,17.39-65.94,7.45-13.37,25-33.33,22.88-48.48C103.73,80.49,89.35,62,81.29,46.14c-8.92-17.56-15.73-34.6-11-52.24,2.7-10.15,9.61-21.85,13-33,2.52-8.22,2.62-16.49,3.15-24.88.42-6.66.8-13.81,1.09-22,.2-5.75.36-12.08.51-18.41.08-3.32.17-6.64.25-10l0-1.22c0-1.37-2.15,0-2.18,1.09L86-109.29c-.12,4.9-.24,9.85-.36,14.69q-.3,11.52-.77,21c-.41,8.37-.72,15.81-1.45,23.26-.9,9.17-4.85,19.46-9.05,27.57C67-8.52,63.64,4.69,66.77,18.9c4.22,19.17,18.11,39,27.92,57.67,8.52,16.22,11.06,24.54,2.61,40.91-10.84,21-25.54,41.94-30.61,64.7-4.59,20.65-.66,39.37,4.67,60.41,4.61,18.17,4.31,36.8,5.42,55.25.94,15.62,5.91,33.77,5.38,48-.64,17.36-13.28,34.14-21.72,50.06-9.79,18.47-4.29,34.89,3.17,55.07,5.48,14.82,9.27,31.17,7.23,47.29-1.58,12.51-1.33,25.46-1.22,38.5.08,11.52,0,23-.26,34.5l-.66,27q-.24,9.5-.47,19l-.24,10,0,1.22c0,1.36,2.15,0,2.17-1.1Z"/><path class="cls-2" d="M77.06,626.79l.12-5.13.36-14.7.57-23.37c.25-10.26.58-20.59.76-30.77.21-12.31-.34-25.28.28-37.2.76-14.61,1.85-27.08-1.6-41.18-4.23-17.31-18.23-37.63-18.15-55,.09-18.57,14.29-34.39,22.24-51.35,7.42-15.81,7.33-29.65,5.25-47.34s-.16-36.84-1.62-53.75c-1.59-18.47-12.64-38.43-14.89-56.18-2.9-22.85,6-43.4,18.4-64.24,8.57-14.4,25.38-32.55,26-47.69.6-15.61-14-36.14-22.15-51.51C84.25,31.68,74.34,12,79.69-6c3.36-11.29,8.53-23.22,11.16-35,2-8.67,1.84-16.68,2.4-24.75.44-6.41.84-13.31,1.16-21.23.22-5.56.39-11.6.55-18,.08-3.34.16-6.65.24-10l0-1.22c0-1.37-2.15,0-2.17,1.09l-.13,5.13c-.12,4.9-.23,9.87-.37,14.56Q92.23-84.17,91.73-75c-.44,8-1.12,15-1.47,22.37-.45,9.39-3.6,20.27-7.26,29C76.61-8.52,73.69,5.08,77.4,19.7,82.28,39,96.79,59.11,105.45,78.27c7.7,17,7.63,24.89-1.83,41.18-11,18.91-28.73,40.19-32.68,62.67-3.81,21.72,0,38.38,6.44,58.91,5.84,18.5,5.31,37.18,5.79,56.39.39,15.79,5.34,34.18,4,48.62-1.57,16.54-13.76,32.66-22,48.11-10.29,19.25-5.87,34.6,2.25,55.71,6,15.5,12.36,31.6,11,48.16-1,12.63-1.64,25.33-1.62,38.33,0,11.45-.2,22.88-.48,34.34l-.66,27q-.23,9.49-.46,19c-.08,3.31-.17,6.63-.25,9.95l0,1.22c0,1.36,2.15,0,2.18-1.09Z"/><path class="cls-2" d="M84,626.19l.12-5.13.36-14.7q.29-11.68.58-23.37l.75-30.77c.3-12.31,0-25,.7-37,.86-15,.93-26.61-3.33-40.77-5.48-18.2-19-39.76-19.23-56.53-.23-16.51,13.71-33.55,22.12-49.92,7.85-15.29,8.48-29.55,6.9-47.28-1.64-18.32,1.39-38.46-.13-55.88-1.61-18.4-14.25-38-17.5-54.75-4.06-20.95,6.33-42.22,18.73-62.1,9.26-14.83,24.6-31.19,28.08-47.41C125.7,84,111.18,63.3,103,48.23,94.27,32.31,84,12.52,88.74-5.88c3.08-12.06,7.63-24.49,9.53-36.82,1.39-9,1.25-16.68,1.83-24.52.45-6.23.87-13,1.2-20.7.23-5.44.42-11.35.58-17.6.09-3.27.16-6.65.24-10l0-1.22c0-1.36-2.14,0-2.17,1.09,0,1.71-.09,3.41-.13,5.14-.11,5-.24,9.8-.38,14.37-.24,7.27-.53,13.86-.88,19.81-.46,7.83-1.26,14.69-1.52,21.68a115.12,115.12,0,0,1-5.32,30.4c-5,15-8.38,29.82-4.3,44.58,5.42,19.58,21.43,39.71,28.5,59.52,6.13,17.15,3.26,26.26-6.62,41.92-12.26,19.44-28.43,40.19-34,60.69-5.24,19.22,1.51,36.63,8.78,56.51,6.86,18.73,6.16,38.09,5.79,58-.3,15.89,4.34,34.63,2.26,49.27-2.28,16-14.07,31.52-22.23,46.57-10.69,19.72-6.65,34.93,1.88,56.32,6.27,15.74,14,32.3,13.67,48.86-.23,12.18-1.46,25.24-1.58,37.94-.1,11.37-.41,22.78-.68,34.17q-.34,13.51-.67,27-.23,9.5-.46,19l-.24,9.95,0,1.22c0,1.36,2.14,0,2.17-1.09Z"/><path class="cls-2" d="M90.9,625.59c0-1.71.09-3.42.13-5.13l.36-14.7L92,582.39l.75-30.77c.3-12.22.56-24.4,1.26-36.57.88-15.14-.24-26.1-4.79-40C83,456.08,69.6,433.68,69.66,416.48c0-15.83,13-32.4,21.34-48.33,8-15.24,9.68-29.67,8.32-47.45-1.47-19.21,3.22-40.27,1.64-58.41-1.64-18.81-13.69-35.54-19.32-53.4-6.34-20.11,6.71-42,17.54-59,9.43-14.8,23.93-30.32,29.31-47.6,6-19.14-7.63-37.74-16.39-53.61-8.88-16.08-19.22-35.84-15-54.54,2.91-12.83,7.3-25.06,8.17-38.3.63-9.39,1.09-16.47,1.67-24.19.47-6.13.89-12.75,1.23-20.39.24-5.36.43-11.21.6-17.38.09-3.23.17-6.55.25-9.9l0-1.23c0-1.38-2.15,0-2.18,1.08l-.12,5.16c-.12,4.9-.25,9.66-.4,14.16-.25,7.17-.55,13.65-.91,19.49-.47,7.68-1.12,14.25-1.56,21.26-.68,10.78-1.1,21.86-4,31.55-4.41,15-7.65,30.49-3.33,45.33,5.76,19.82,23.79,41.09,29.22,60.19,4.53,15.94-1.33,28.29-11.28,43.36-12.3,18.65-27.93,38.39-33.86,58.22-5.76,19.3,3.09,34.72,11,54,7.75,19,6.75,38.78,5.45,59.6-1,16.41,2.91,35.33.27,50.34-2.78,15.82-13.44,30.88-22.53,46-11.49,19.15-5.29,37.29,2.25,56.39,6.25,15.85,14.76,32.76,15.26,49.4.35,11.86-1.15,24.82-1.4,37.21-.23,11.29-.56,22.68-.83,34l-.66,27q-.24,9.51-.47,19l-.24,10,0,1.22c0,1.36,2.15,0,2.17-1.09Z"/><path class="cls-2" d="M97.82,625c.05-1.71.09-3.42.13-5.13l.36-14.7.57-23.37L99.63,551c.3-11.93.56-24.36,1.45-35.91,1.11-14.37-.78-25.43-5.36-39.17-6.56-19.64-18.43-41.47-18.45-60.52,0-16.53,11.25-31.48,19.35-47.11,7.94-15.3,9.95-30.12,9.15-47.84-.91-20.08,5.34-42.31,4-61.27s-12.84-34.45-20.62-52C81,189,94.63,167.1,104.32,151.88s23.72-30.72,29.9-48.25c7.36-20.89-4.6-37.28-14.38-55C110.92,32.46,100.67,12.8,104.69-6c2.81-13.14,6.79-25.27,7.52-39,.5-9.5,1.09-16.41,1.67-24.1.47-6.11.9-12.7,1.24-20.32.24-5.35.43-11.18.6-17.33.09-3.22.17-6.53.25-9.87l0-1.23c0-1.37-2.14,0-2.17,1.1,0,1.72-.08,3.44-.12,5.14-.13,4.87-.26,9.6-.42,14.08-.24,7.12-.55,13.56-.91,19.36-.47,7.63-1,14.1-1.58,21.09-.86,11.08-.63,22.1-3.34,32.13-4.13,15.24-7.16,30.86-2.74,45.8,5.87,19.8,25.17,42,29.33,60.1,3.53,15.41-4.33,30.55-14.57,45.87-12,17.89-27.33,36.9-32.7,55.88-5.28,18.68,5.24,32.84,13.3,50.81,8.54,19,7,39.44,4.65,61.12-1.84,17.1,1.28,36.39-1.76,52s-13.48,30.67-22.25,45.74c-10.65,18.3-4.09,38.86,2.64,56.8,6,15.93,14.92,33.15,15.86,49.76.65,11.43-1,24-1.34,36-.33,11.29-.55,22.68-.83,34l-.66,27q-.24,9.51-.47,19l-.24,10,0,1.22c0,1.36,2.15,0,2.17-1.09Z"/><path class="cls-2" d="M104.75,624.39l.12-5.13.36-14.7.57-23.37.76-30.77c.28-11.65-.1-23.92,1.4-35,1.72-12.72-1.23-26.11-5.12-38.09-6.56-20.21-16.37-41.24-16.73-61.93-.31-17.59,9-31.08,16.84-46.86,7.72-15.51,9-30.86,9.38-48.46.43-21.14,8-44.6,6.74-64.36-1.15-18.6-14.2-34.66-21.39-50.42-7.57-16.6,1.59-34.45,11.93-51.42,9.54-15.64,23-31.68,29.77-49.3,8.13-21.09-3.46-38.6-13.23-56.52-8.81-16.15-18.78-35.67-14.77-54.42,2.74-12.83,6.54-25.51,7.79-38.75.92-9.76,1.08-16.54,1.66-24.29.46-6.16.88-12.81,1.22-20.47.23-5.39.43-11.26.6-17.44.08-3.25.16-6.57.24-9.93l0-1.24c0-1.38-2.14,0-2.17,1.13,0,1.73-.08,3.45-.12,5.15-.12,4.88-.26,9.63-.41,14.13q-.37,10.71-.91,19.43c-.47,7.66-1.08,14.17-1.57,21.19-.75,10.91-.89,22.23-3.42,32.09-3.91,15.25-7.06,31-2.67,46,5.75,19.62,25,41.78,28.76,59.61,3.4,16-5.67,32.88-16.24,49-11.35,17.28-26.51,35.94-30.82,53.95-4.11,17.18,8.21,30.78,16,47,9.13,19.08,6.59,40.33,3.32,62.53-2.62,17.79-.41,37.73-3.69,54-3.13,15.54-13,30.82-21.38,45.66-9.52,16.93-2.6,41.21,3,57.56,5.49,16,13.95,32.93,15.57,49.94,1,11-1.07,23.18-1.39,34.39s-.55,22.68-.83,34l-.66,27q-.23,9.49-.46,19c-.08,3.32-.17,6.63-.25,10l0,1.22c0,1.36,2.15,0,2.18-1.09Z"/><path class="cls-2" d="M111.67,623.79l.12-5.13.36-14.7q.28-11.69.58-23.37.38-15.37.75-30.76c.28-11.26,0-23.33,1.35-33.78,1.61-12-.77-25.28-4.31-37-6.14-20.38-14.31-41.8-15.2-62.17-.77-17.79,7.05-31.68,14.66-48.12,7.32-15.82,8.14-32.12,9.27-49.41,1.43-21.76,10.32-46.78,9.62-67.43-.64-18.65-10.88-32.73-21.51-48.86-10.12-15.35-.23-33.19,7.84-47.37,9.4-16.5,22.18-33.21,28.82-50.66,7.73-20.31-3.14-39.61-13-58.06-8.54-16.06-18-35.36-13.81-53.87,2.81-12.33,6.52-25.14,8.54-37.72,1.47-9.16,1.44-16.82,2-24.73.45-6.29.86-13.06,1.19-20.85.22-5.48.41-11.43.57-17.71.08-3.29.16-6.66.24-10l0-1.22c0-1.36-2.15,0-2.17,1.09,0,1.71-.08,3.44-.12,5.17-.12,4.94-.25,9.74-.4,14.29-.24,7.24-.53,13.79-.88,19.7-.46,7.78-1.21,14.55-1.54,21.55-.48,10.33-1.71,22-4.17,31.46-4,15.22-7.34,30.84-3.12,45.8,5.42,19.28,23.1,40.18,27.08,59,3.77,17.81-4.69,35.18-15.78,52.31-10.69,16.51-25.92,35.33-28.08,52.32-2,15.59,11.47,28.53,18.7,43,9.56,19.09,5.54,41.43,1.47,63.85-3.32,18.31-1.55,38.95-5.4,56.39-3.49,15.79-13.15,30.81-20,45.8-7.83,17.27-1.82,41.55,3.36,58.67,4.8,15.91,13.36,33.33,14.48,49.91.7,10.41-1.18,22-1.57,32.74-.4,11.19-.58,22.54-.86,33.81l-.66,27q-.23,9.49-.46,19l-.24,9.95,0,1.22c0,1.36,2.14,0,2.17-1.09Z"/><path class="cls-2" d="M118.59,623.19c0-1.71.08-3.42.13-5.13l.36-14.7.57-23.37c.25-10.25.47-20.54.75-30.76.3-10.72.23-22.07,1.56-32.21,1.56-12-.14-24.25-3.26-36-5.39-20.27-12.68-42.34-13.8-62.36-1-17.84,5.75-32.79,12.75-49.69,6.73-16.25,7.48-33,8.92-50.78,1.9-23.27,12.46-48.51,12.36-70.18-.09-18.73-8.92-31.51-20.9-47.3-10.65-14-3.72-29.87,3.17-43.48,8.6-17,22-35,26.65-52.23,5.49-20.26-3-39.66-13-59.58-9-17.74-15.56-34.63-12.3-53,2-11.3,7.25-24.38,9.88-36.36,1.91-8.65,1.89-16.84,2.44-25,.43-6.49.83-13.47,1.13-21.46.22-5.62.39-11.8.54-18.13l.24-9.95,0-1.22c0-1.36-2.14,0-2.17,1.09l-.12,5.13c-.12,4.9-.24,9.86-.38,14.51-.23,7.39-.51,14.1-.85,20.17-.44,8-1.1,14.89-1.48,22.16-.54,10.23-3,20.69-5.8,30.42-4.51,15.78-7.63,30.3-3.73,45.22,5,19,21.24,39.52,25.29,58.5,4.17,19.56-3.47,36.82-14.24,55.43-8.91,15.39-22.44,33-23.88,50.36-1.23,14.81,13.34,27.53,20.55,39.46,11.24,18.61,3.82,44.48-.44,64.79-4.12,19.6-3.53,40.48-7.23,59.17-3.11,15.7-12.23,31.08-17.86,46.19-6.83,18.31-1.1,41.77,3.49,60,4,15.77,12.42,33.68,12.69,49.68.16,9.81-1.36,20.88-1.86,31.24-.52,11-.65,22.18-.92,33.27l-.66,27q-.24,9.5-.47,19l-.24,9.95,0,1.22c0,1.36,2.14,0,2.17-1.09Z"/><path class="cls-2" d="M125.51,622.59c0-1.71.09-3.42.13-5.13l.36-14.7.57-23.36c.25-10.24.44-20.53.76-30.71s.53-20.89,1.74-30.8a101,101,0,0,0-1.86-34.83c-4.41-20.26-11.52-42.78-12.78-62.59-1.15-18,5.25-33.88,11.41-51.33,5.92-16.77,5.91-34.79,8-52.28,2.79-23.73,14.35-50.26,15.18-72.7.68-18.17-6.91-31-19.81-45.63-10.8-12.26-7-26.8-1.49-40.13,7.23-17.63,19.64-36.19,23.45-53.87,4.52-21-3.82-40.62-13.53-61C129.28,25.94,123.39,9.33,127.4-8.3c2.44-10.74,8.9-23.13,11.8-34.84,2.1-8.47,2.13-16.62,2.65-25.14.41-6.77.78-14,1.06-22.31.2-5.82.35-12.21.5-18.55q.12-5,.25-10l0-1.22c0-1.36-2.15,0-2.18,1.09l-.12,5.13c-.12,4.9-.24,9.88-.37,14.66-.2,7.62-.46,14.55-.78,20.83-.42,8.28-1,15.57-1.43,23-.6,9.54-3.54,20.38-7.09,29.25-6.06,15.12-8.8,29.52-5.45,44.08,4.33,18.79,19.56,39.29,23.78,58.09,4.55,20.27-2.07,38.44-12.2,58.31-7.53,14.75-19.73,32-18.82,48.58.76,13.79,15.06,25.24,21.85,36.25,11.37,18.44,1.86,45.69-2.95,65.78-4.93,20.57-5.33,41.86-8.5,61.73-2.51,15.75-10.54,31.56-15.68,47-6.42,19.31-.36,41.88,3.93,61.24,3.51,15.86,10.64,33.41,10.26,49.23-.23,9.5-1.68,19.91-2.19,29.87-.55,10.84-.74,21.74-1,32.6l-.66,27q-.24,9.5-.47,19l-.24,10,0,1.22c0,1.37,2.15,0,2.17-1.09Z"/><path class="cls-2" d="M132.44,622l.12-5.13.36-14.7.57-23.36c.25-10.18.48-20.37.79-30.53.29-9.89.75-20,1.87-29.74,1.36-11.8,1.56-22-.29-33.6-3.25-20.5-10.92-42.95-12.31-62.83-1.27-18.37,5.47-35,10.82-52.86,5.08-16.95,4.15-36.14,6.41-53.69,3.15-24.56,15.87-51.87,18-74.93,1.62-17.83-7.07-30.08-18.15-44-9.69-12.16-10-21.75-5.8-37.5,4.72-17.76,16.56-37.58,19.65-55.54C158.15,82,149.89,62,140.26,41.32c-8-17.15-12.94-33.38-7.63-50.24,3.22-10.22,10.66-22,13.82-33.42,2.29-8.23,2-16.16,2.44-25.13.38-7.13.72-14.75,1-23.38.18-6.06.32-12.55.47-18.89q.13-5,.25-10l0-1.22c0-1.36-2.15,0-2.17,1.1l-.13,5.13L148-100c-.19,7.79-.42,15.11-.71,21.69-.39,8.66-.81,16.52-1.21,23.85-.51,9.21-4,20-8,28.28C131-11.63,127.18,1.76,130,16.4c3.53,18.65,18.33,39,22.66,57.62,4.81,20.81-1.14,39.83-10.1,60.91-6.17,14.54-17.07,33.21-13.21,47.16,3.34,12.06,15.39,22.26,22.55,33.45,11.38,17.78-.72,47-6,66.78-5.63,21.21-6.94,43.09-9.14,63.86-1.69,16-8.93,32.34-13.89,48.15-6.23,19.82.45,42.76,4.78,62.47,3.36,15.28,8.74,32.7,7.57,48.48-.69,9.35-1.88,19.11-2.43,28.67-.61,10.62-.84,21.3-1.1,31.94l-.66,27q-.23,9.5-.46,19l-.25,10,0,1.22c0,1.37,2.15,0,2.18-1.09Z"/><path class="cls-2" d="M139.36,621.39l.12-5.13.36-14.7.57-23.36c.25-10.12.47-20.27.81-30.35.33-9.64.9-19.45,2-29,1.26-11.21,1.95-21.25,1.18-32.44-1.43-21-10.86-43.09-12.33-63-1.39-18.8,6.2-36.57,11-54.16,4.42-16.32,2-37.28,4.31-54.82,3.32-25.22,16.73-53.15,20.38-76.7,2.66-17.09-4.23-29.13-15.65-42.62-9.65-11.41-11.35-20.53-9.45-35.7,2.29-18.22,13-39,15.51-57.2,3-21.92-4.47-41.91-14.43-63-8.18-17.3-12-31.7-4.78-48.5,4.32-10,12.1-21.16,15.39-32.34,2.37-8.07,1.71-15.85,1.68-25.06,0-7.31.61-15.66.83-24.67q.24-9.5.47-19l.24-10,0-1.21c0-1.37-2.15,0-2.17,1.09,0,1.71-.09,3.42-.13,5.13l-.36,14.69c-.19,7.79-.38,15.6-.64,22.53-.35,9.12-.37,17.27-.6,24.53-.29,9-4.15,19.89-8.51,27.65C137.45-12.27,132.52-.29,133.74,15c1.52,19,17.65,39.22,21.83,57,5,21.18-.86,41.42-8.26,63.23C142.43,149.6,134.83,168,140,181.38c4.27,11.07,16.09,21,22.49,31.22,10.91,17.5-3.77,48.38-9.3,67.72-6.12,21.44-8.39,44.13-9.24,65.36-.67,16.62-7.57,32.87-12.53,49.38-6.1,20.29.36,43.28,5.17,63.54,3.57,15.08,7.46,31.94,5.72,47.52-1,9-1.87,17.18-2.55,27.78s-.91,20.93-1.17,31.4l-.66,27q-.22,9.49-.46,19l-.24,10,0,1.22c0,1.37,2.14,0,2.17-1.09Z"/><path class="cls-2" d="M146.28,620.79c0-1.71.08-3.42.13-5.13l.36-14.7.57-23.36c.23-10.07.46-20.19.82-30.24.34-9.51.92-19.2,2-28.64,1.23-10.57,2.5-21.48,2.23-31.63-.53-20.17-11-42.86-12.68-62.88-1.65-19.22,6.6-37.64,11.05-55.26,4.12-16.33.33-37.79,2.58-55.4C156.61,288,170,260.37,175.2,236c3.54-16.52-.54-28.83-11.87-42-9.42-11-12.08-20-12.34-34.74-.34-18.93,9.29-40.23,11.38-58.86,2.48-22-4.7-42.06-14.33-63.12-8.12-17.76-10.5-29.9-1.88-46.63,5-9.71,13.32-20.47,16.59-31.6,2.35-8,1.36-15.89.7-25.32-.52-7.48,0-16.62.27-25.63q.22-9.5.46-19l.24-10,0-1.21c0-1.37-2.14,0-2.17,1.09l-.13,5.13q-.18,7.35-.35,14.7c-.2,7.78-.37,15.79-.6,23.14-.3,9.68.47,17.91.5,25.19,0,8.87-4,19.93-8.69,27.32-7.27,11.58-16,24.72-14.77,39.28,1.53,18.93,17,38.92,21,56,5.08,21.53-1.06,43.18-6.69,65.21-3.64,14.24-7.86,32.63-1.64,45.72,4.85,10.22,15.71,20,21.26,30,9.91,17.75-6.67,49.08-12.42,68.21a216.56,216.56,0,0,0-9.24,66.32c.32,18-7.19,33.79-11.24,50.39-5,20.55-.08,42.16,5.43,64.1,4,15.75,6.38,30.55,4.64,46.69-1,8.9-1.92,16.83-2.62,27.26s-1,20.68-1.22,31c-.19,9-.43,18.09-.65,27.1q-.24,9.49-.47,19l-.24,9.95,0,1.22c0,1.37,2.14,0,2.17-1.09Z"/><path class="cls-2" d="M153.2,620.19c0-1.71.09-3.42.13-5.13l.36-14.7c.19-7.78.39-15.58.57-23.36.23-10.06.46-20.18.82-30.23.34-9.49.93-19.17,2-28.59,1.23-10.49,2.65-21.56,2.39-31.49-.53-19.73-11.24-42.36-13-62.19-1.71-19.4,6.75-38.13,11.17-55.88,4.08-16.36-.9-38,1.18-55.62,3-25.63,16.43-53,22.77-77.72,4-15.44,3.41-28.89-7.33-42-8.93-10.91-12.35-20.26-14.56-34.6-3-19.61,5.92-41.48,7.7-60.54,2.05-21.92-4.78-41.86-13.91-62.73-7.75-17.75-8.6-28.5.93-44.73,5.58-9.49,14.3-20,17.4-31.22,2.23-8.07.81-16.12-.6-25.86-1.11-7.74-.84-17.12-.62-26.13q.23-9.49.46-19,.12-5,.25-10l0-1.21c0-1.37-2.15,0-2.18,1.09l-.12,5.13-.36,14.7-.57,23.36c-.25,10.26,1.72,18.58,2.12,26,.48,8.81-3.66,20.14-8.51,27.31-7.63,11.28-17.68,24.46-17.6,38,.1,17.37,15.8,37.88,19.67,54.51,5.06,21.76-1.3,44.56-5.34,66.65-2.66,14.56-3.72,32.73,3.37,46,5.28,9.89,15.23,19.64,19.32,29.63,7.53,18.4-9.55,48.86-15.63,68.44-6.74,21.7-10.29,43.65-8.71,66.57,1.29,18.72-6.42,34.16-10.54,51.18-5,20.64-.08,42.18,5.6,64.18,4.15,16,6,29.6,4.39,46-.89,8.93-1.92,16.72-2.63,27.09s-1,20.59-1.24,30.84c-.2,9-.43,18.11-.65,27.12q-.24,9.5-.47,19l-.24,10,0,1.21c0,1.37,2.15,0,2.17-1.09Z"/><path class="cls-2" d="M160.13,619.59l.12-5.13.36-14.7.57-23.36c.25-10.1.46-20.24.81-30.32.34-9.59.91-19.37,2-28.89,1.23-10.89,2.26-21.43,1.59-32-1.25-19.84-11.42-41.48-13.16-60.94s7-38.33,11.39-56c4-16.29-1.67-37.88.09-55.45,2.54-25.45,15.77-52.39,23.16-77.18,4.26-14.32,7.44-29.24-2.24-42.57-8.16-11.24-12.65-21.66-16.1-35.29-5.05-20,3.08-42.49,4.68-62.18,1.75-21.57-4.68-41.29-13.16-61.81-7-17-6.28-27.74,3.5-42.88,6.05-9.37,15.05-19.76,17.82-31.18,2-8.22,0-16.54-2.21-26.7-1.79-8.06-2-17.12-1.78-26.13q.23-9.49.46-19,.14-5,.25-10l0-1.22c0-1.37-2.15,0-2.18,1.09l-.12,5.13-.36,14.7c-.19,7.79-.65,15.67-.29,23.26.48,10,3.08,19.15,3.94,26.7,1,8.82-3,20.53-8,27.64-7.74,11-19.59,24.5-19.26,37.07.42,16.41,13.44,35.74,17.38,52.6,5.06,21.67-1.66,45.66-4.32,67.53-1.84,15.17-.17,33,7.61,47,5.7,10.24,14.41,19.69,16.67,30.09,4.21,19.37-12.2,47.61-18.79,68.42-6.83,21.53-9.9,43.67-7.65,66.14,1.86,18.65-6.27,34.45-10.46,51.69-5,20.54-.16,41.87,5.67,63.76,4.12,15.47,6.74,29.71,5,45.58-1,8.9-1.91,16.85-2.61,27.3s-1,20.7-1.22,31c-.19,9.07-.43,18.08-.65,27.09q-.23,9.5-.46,19-.14,5-.25,10l0,1.21c0,1.37,2.15,0,2.18-1.09Z"/><path class="cls-2" d="M167.05,619l.12-5.13.36-14.7.57-23.36c.25-10.16.48-20.34.79-30.48.31-9.82.82-19.84,1.91-29.54,1.29-11.56,1.92-21.72.28-33-2.85-19.38-11.84-40.29-13.56-59.4-1.77-19.58,7.09-37.37,11.35-55.83,3.95-17.14-1.64-37.28-.33-54.76,1.87-24.94,14.43-51,22.92-75.76,4.69-13.67,11.56-29.86,3.28-43.86-7.11-12-13-23.85-16.88-36.79-6.06-20.14.8-43.2,2.32-63.69,1.56-21-5-40.66-12.07-60.35-5.72-15.85-3.69-27.15,5.71-41.2,6.23-9.31,15.54-19.71,17.88-31.48,1.73-8.71-1.71-19.88-3.93-27.81a99.91,99.91,0,0,1-3.25-25.64c-.05-6.26.27-12.65.43-19l.24-10,0-1.22c0-1.37-2.15,0-2.17,1.09,0,1.71-.09,3.42-.13,5.13l-.36,14.7c-.19,7.79-.39,15.58.48,23,1.14,9.77,4.19,19.45,5.62,27.26,1.62,8.86-1.86,21-7.1,28.28-8.85,12.18-17.45,22.87-20.11,36.37-2.93,14.82,11.28,35.55,14.61,50.46,4.83,21.62-2,46-3.34,67.79a91,91,0,0,0,10.63,48.73c6.14,11.33,13,20,13.32,31.44.64,20.29-14.78,46.45-21.7,68.09-6.76,21.16-8.36,43.89-6.06,65,1.92,17.58-6.76,34.77-11,51.94-5,20.28-.18,41.31,5.65,62.87,4,14.64,8.11,30.13,6.43,45.3-1,9-1.86,17.24-2.53,27.88-.67,10.47-.91,21-1.17,31.46l-.66,27q-.23,9.5-.46,19-.12,5-.25,10c0,.4,0,.81,0,1.21,0,1.37,2.14,0,2.17-1.09Z"/><path class="cls-2" d="M174,618.39c0-1.71.08-3.42.13-5.13l.36-14.69L175,575.2c.25-10.22.43-20.51.76-30.67s.6-20.64,1.78-30.51a101.88,101.88,0,0,0-1.29-34.16c-4-18.78-12.59-39.07-14.28-57.72-1.76-19.44,7.2-36.76,11.67-55.28,4.18-17.32-1.39-36.5-.69-53.79,1-24.17,12.91-49.6,22.32-73.74,5.28-13.53,14.8-30.78,8.7-45.56-5.42-13.11-13-26.37-16.77-39.24-5.94-20.5-1.09-43.29.48-64.8,1.46-19.88-3.11-39.38-10.61-58.35-5.8-14.66-.55-27.85,7.45-39.78,6.28-9.38,15.89-20,17.54-32.13,1.26-9.24-3-20.36-5.66-28.79a104.07,104.07,0,0,1-4.65-25.15c-.37-6.15-.07-12.53.09-18.86l.24-10,0-1.22c0-1.37-2.14,0-2.17,1.09,0,1.71-.08,3.42-.13,5.13l-.36,14.7A112.14,112.14,0,0,0,191-80.95c1.67,9.3,4.55,18.47,7.2,27.52s-.45,21.73-5.87,29.24c-8.65,12-17.4,22.89-20.54,36-3.42,14.28,8.83,33.72,11.85,48.14,4.48,21.4-2.13,45.64-2.49,67.43-.3,17.61,4.16,34.29,12.52,51,6.55,13.1,11,20.67,9.31,33.76-2.75,21-17.19,45.46-24.14,67.32-6.77,21.28-6.53,42.32-4.6,63.45,1.58,17.38-7.24,34.92-11.6,51.83-5.11,19.84-.37,40.35,5.56,61.5,4.09,14.61,9.63,30.14,8.51,45.23-.7,9.4-1.87,19.21-2.42,28.81-.6,10.65-.82,21.35-1.08,32l-.66,27q-.24,9.49-.47,19l-.24,9.95,0,1.22c0,1.36,2.14,0,2.17-1.1Z"/><path class="cls-2" d="M180.89,617.79c0-1.7.09-3.41.13-5.12l.36-14.7L182,574.6c.25-10.26.46-20.56.75-30.77.3-10.58.34-21.72,1.61-31.83,1.49-11.87.09-24-2.9-35.5-4.79-18.31-13.63-37.73-15.29-56-1.76-19.47,7.79-35.89,12.52-54.42,4.43-17.37-.45-35-1.2-52.72-1-23.5,11.94-49.29,21.45-71.48,6-14,17.09-31.71,13.63-47.24-3.19-14.28-12-29-16.05-42.51-6.29-20.82-2.41-43.56-.69-65.45,1.5-19.08-4.59-38.78-8.83-55.94-3.71-15-.29-24.7,8.77-38.65,6.22-9.57,16-20.56,16.74-33.09.61-9.72-4.28-20.71-7.49-29.49a104.1,104.1,0,0,1-5.77-24.76,148.19,148.19,0,0,1-.41-18.68q.12-5,.25-9.95l0-1.22c0-1.37-2.15,0-2.18,1.09l-.12,5.13c-.12,4.9-.33,9.83-.31,14.68A100.26,100.26,0,0,0,199-81.93c2.15,9.3,5.48,18.58,8.63,27.43,3.26,9.15,1.28,22.53-4.27,30.52C195-12,186.16-.9,182.56,11.91c-3.82,13.63,6.79,31.91,9.41,45.72,4,21-2.4,45.29-2.28,66.55.11,18.63,6.23,35.58,13.88,53.62,6.25,14.73,8.78,22.07,5,36.56-5.63,21.29-19.29,44.56-26.15,66.54-6.65,21.3-4.33,40.24-2.87,61.37,1.22,17.56-6.81,34.22-12.54,51.61-6.27,19.05-.43,40.71,5.35,59.48,4.51,14.65,11.11,30.41,10.9,45.45-.14,9.66-1.59,20.12-2.09,30.19-.54,10.88-.73,21.8-1,32.7l-.66,27q-.24,9.49-.47,19l-.24,9.95,0,1.22c0,1.36,2.15,0,2.17-1.1Z"/><path class="cls-2" d="M187.82,617.2l.12-5.13.36-14.7.57-23.37q.38-15.39.75-30.77c.29-11.12.22-22.76,1.41-33.39,1.38-12.28-.89-25.21-4.37-36.9-5.28-17.77-15-36.66-16.44-54.29-1.5-18.84,8.5-35.61,13.82-53.42,5-16.76,0-34.15-1.85-51.72-2.41-22.35,10.69-48.22,20.17-69.06,6.7-14.75,18.72-32.4,17.9-48.71-.78-15.6-10.48-31.9-15-46.37-6.51-21.06-3.24-43.82-1.23-65.69,1.67-18.23-3.85-36.37-7.2-53.16-2.92-14.64,1-24.21,9.77-37.8,7.74-12,15-21.11,15.84-34.41.62-9.12-5.6-20.74-9.25-29.88A104.9,104.9,0,0,1,206.63-96a116.17,116.17,0,0,1-.94-18.5c.07-3.32.19-6.64.27-10l0-1.22c0-1.36-2.15,0-2.18,1.09l-.12,5.13c-.12,4.9-.31,9.82-.12,14.61a97.87,97.87,0,0,0,3.34,22c2.51,9.21,7.05,18.55,9.72,27.07,3.89,12.41,3.5,21-2.28,32-6.08,11.57-17,23.43-21,36.15-4.13,13.08,5.24,30,7.43,43.29,3.39,20.54-3,44.32-2.72,65.17.28,19.6,8.38,37.57,14.95,56.3,5.57,15.89,6.2,24,.43,39.66-7.84,21.23-21,43.89-27.6,65.84-6.33,21-1.92,38.24-.8,59,1,17.83-7.59,34.39-13.88,51.45-6.61,17.94-.7,39.25,5.52,57.2,5.11,14.74,12,30.3,12.77,45.64.49,10.22-1,21.38-1.51,31.91-.51,11-.65,22.24-.92,33.36l-.66,27q-.23,9.5-.46,19-.13,5-.25,10l0,1.22c0,1.36,2.15,0,2.18-1.09Z"/><path class="cls-2" d="M194.74,616.6l.12-5.13.36-14.7.57-23.37.76-30.77c.28-11.61.81-23.55,1.26-34.85.55-13.84-1.32-25.34-5.61-38.44-5.59-17-15.78-36-17.48-52.54-1.82-17.67,9.95-35.22,15.32-52.46,5.25-16.8-.29-34.26-2.33-51.09-2.57-21.34,8.34-45.42,18.11-66.45,7.25-15.58,19.71-33,21.43-50s-8.83-34.71-13.73-50.43c-6.58-21.1-4.49-43-1.81-65.41,2.17-18-2.57-34-5.15-50.25C204.3,16.49,208.69,7,217-6.51c7.91-12.86,15.14-22.5,14.77-36.07-.25-9.11-6.64-20.58-10.63-29.92A104.5,104.5,0,0,1,214-96.76a114,114,0,0,1-1.34-18.36c0-3.29.12-6.62.26-10,0-.41,0-.81,0-1.22,0-1.36-2.15,0-2.17,1.09,0,1.71-.12,3.43-.17,5.15-.17,4.91-.17,9.77.14,14.52a96.57,96.57,0,0,0,3.9,21.79c2.76,9.14,7.31,18.24,10.45,26.81,4.73,12.88,5.24,21.87-.16,33.25C219.64-12.6,206.26.62,203.87,13c-2.61,13.55,3.6,27,5.88,41,3.14,19.27-4.16,43.16-3.65,63.31.51,20.32,10.15,39.64,15.92,58.8,4.7,15.63,3,27.5-4.09,42.92-9.73,21.13-22,43.41-28.27,65.24-5.77,20.07.51,36.63,1.47,56.41.86,17.93-7,34.05-14.85,51.46-7.95,17.69-1,38.07,5.34,54.84,5.56,14.78,12.37,29.92,14,45.7,1.16,11-.46,22.86-.84,33.94s-.58,22.57-.86,33.86l-.66,27q-.23,9.51-.46,19-.12,5-.25,10l0,1.22c0,1.36,2.15,0,2.18-1.09Z"/><path class="cls-2" d="M201.66,616c0-1.71.08-3.42.13-5.13q.18-7.35.35-14.7.3-11.68.58-23.37l.75-30.77c.29-12.06,1-24.47,1.09-36.17a114.87,114.87,0,0,0-6.43-40c-5.58-16.44-16.16-35-17.86-50.67-1.83-16.82,11-35,16.48-51.79s1.69-32.73-2.4-50.86c-4.72-20.92,6.48-45.15,15.06-63.79,7.44-16.14,20.55-33.57,24.1-51.28,3.75-18.68-7.29-37.24-12.5-54.22-6.47-21.11-5.35-42.12-2.07-64.71,2.52-17.42-1.34-31.75-3.15-47.26-1.64-14,3-23.49,10.75-37,7.94-13.8,14.35-23.38,13.15-37.84-.77-9.31-7-20.45-11.15-29.79a105.07,105.07,0,0,1-7.45-24.16,111.82,111.82,0,0,1-1.53-18.29c0-3.28,0-6.59.15-9.92,0-.41,0-.81,0-1.22.05-1.37-2.12,0-2.16,1.09-.06,1.71-.12,3.43-.15,5.14-.1,4.89,0,9.72.34,14.45A96.38,96.38,0,0,0,222-84.52c2.91,9.1,7.58,18.13,10.88,26.66,5.09,13.18,6.37,22.27,1.19,34.4-4.91,11.51-17.57,25-20.25,37.45-2.83,13.13,1.81,25.1,4.47,39,3.53,18.48-5.28,42.23-4.7,60.9.64,20.8,11.48,41.66,16.56,60.88,4.36,16.53.28,29.91-8.1,46.28-10.57,20.64-22.44,42.66-27.78,64.25-4.63,18.75,2.37,36.41,3.58,54.43,1.18,17.49-8.82,34.75-15.46,51.59-7.25,18.37-2.63,33.67,4.81,52.64,5.77,14.71,13.16,30.13,14.68,45.57,1.17,11.76.18,24.08-.16,36.32-.32,11.3-.56,22.68-.83,34q-.33,13.51-.67,27-.22,9.51-.46,19l-.24,10,0,1.22c0,1.36,2.14,0,2.17-1.09Z"/><path class="cls-2" d="M208.58,615.4c0-1.71.09-3.42.13-5.13l.36-14.7.57-23.37.75-30.77c.31-12.48.54-25,.78-37.45a112.16,112.16,0,0,0-6.64-41.27c-6-16.07-15.77-33.63-17.38-48.53-1.8-16.66,11.43-35,17-51.65,5.7-17,2.2-32.53-2.44-50.84-5.24-20.65,3.3-42.95,11.51-61.43,7.54-17,20.17-34.13,25.83-52.45,6.08-19.62-6-40-11.38-57.66-6.3-20.88-5.53-41.31-2-63.59,2.57-16.07-.07-29.84-1.32-44.32-1.19-13.69,3.63-23.43,10.75-37,7.6-14.45,12.93-24.49,11.47-39.38-.92-9.45-7-20.44-11.15-29.78A104.75,104.75,0,0,1,228-98a112.93,112.93,0,0,1-1.54-18.29c0-3.28,0-6.59.15-9.92,0-.4,0-.81,0-1.22.05-1.37-2.15,0-2.19,1.1,0,1.71-.1,3.42-.13,5.13a143.52,143.52,0,0,0,.4,14.43,95.73,95.73,0,0,0,4.3,21.65c2.94,9.09,7.65,18.1,11,26.62,5.18,13.26,6.66,22.76,2.17,35.27-4.27,11.9-16.29,25.8-19.17,38.44s.87,24.16,2.78,37.51c2.57,17.89-5.91,40.06-5.35,58,.66,21.19,12.08,43,16.83,62.53,4.29,17.73-2,32-11.36,49.51-10.91,20.39-22.24,41.9-26.34,63.13-3.4,17.62,4.61,35.9,5.72,52.89,1.14,17.54-9.23,35-16.1,51.93-7.3,18-3.14,32.09,4.34,50.68,5.87,14.6,13,29.77,14.67,45.2,1.34,12.59.74,25.66.42,38.75q-.4,17-.83,34l-.66,27q-.24,9.49-.47,19l-.24,9.95,0,1.22c0,1.36,2.15,0,2.17-1.09Z"/><path class="cls-2" d="M215.5,614.8c.05-1.71.09-3.42.13-5.13L216,595l.57-23.37.75-30.77c.32-12.89.27-25.91.33-38.62.07-14.17-1.38-28.88-6.2-42.28-5.47-15.22-14.32-31.28-15.71-46-1.7-17.84,10.6-35.2,16.5-52.26s2.59-32.62-2.4-51.06c-5.5-20.35-.12-40.81,7.58-59.47,7.28-17.63,20.54-35.34,26.63-53.48,6.81-20.3-4.81-41.35-10.45-60.58-6-20.53-5-40.63-1.5-62.06,2.45-15,1.11-27.66.26-41.59-.83-13.5,3.83-24.14,10.42-37.24,6.42-12.75,11.59-26.24,9.82-40.57-1.25-10-6.67-20.6-10.67-29.95a104.88,104.88,0,0,1-7.19-24.26,113.81,113.81,0,0,1-1.35-18.35c0-3.29.11-6.62.25-10,0-.41,0-.82.05-1.23,0-1.36-2.18,0-2.22,1.11-.07,1.72-.13,3.43-.17,5.14-.11,4.9-.06,9.74.3,14.47a96.45,96.45,0,0,0,4.14,21.7c2.87,9.12,7.51,18.15,10.77,26.71,4.95,12.95,6.15,23.45,2.69,35.79S234.39,3.6,231.42,16.53c-2.75,12,.89,24.18,1.34,36.29.62,16.67-6.39,37.52-6,54.82.41,21.28,12.47,44.05,16.71,63.77,4,18.66-3.7,34-13.74,52.42-10.83,19.91-21.58,41.17-24,61.88-1.92,16.71,6.74,35.72,7.73,51.92,1.08,17.66-10.27,35.64-16.8,52.48-6.6,17-3.19,31,4.05,49.07,5.78,14.4,12.51,29.26,14,44.54,1.3,13.29,1.06,27.32.85,41-.17,11.24-.55,22.68-.83,34l-.66,27q-.24,9.49-.46,19c-.09,3.32-.17,6.63-.25,9.95l0,1.22c0,1.36,2.15,0,2.17-1.09Z"/><path class="cls-2" d="M222.43,614.2l.12-5.13.36-14.7.57-23.37q.38-15.37.76-30.76c.3-13.16.24-26.26-.06-39.43-.33-14.71-.72-29.26-5.32-43.14-4.51-13.58-13-29.24-12.84-43.54.24-20.26,8.3-35.17,14.74-53.17,6.24-17.43,3.4-32.66-2.18-51.43-5.92-19.91-3.33-39.55,3.45-58.06,6.65-18.18,21-37.24,26.1-54.59,6-20.37-3.36-41.35-9.36-62.69-5.45-19.36-4.71-40.63-.69-60.1,2.71-13.1,2-26.14,1.54-39.21-.48-13.54,3.87-24.68,9.76-37.81,5.68-12.64,9.43-27.16,8.19-41.35-.9-10.31-5.9-20.92-9.67-30.3A105.45,105.45,0,0,1,241.26-99a117.14,117.14,0,0,1-1-18.49c.07-3.31.19-6.64.27-10l0-1.22c0-1.36-2.15,0-2.17,1.09-.05,1.71-.07,3.42-.14,5.14-.2,4.93-.23,9.79,0,14.56a97,97,0,0,0,3.75,21.84c2.69,9.16,7.24,18.33,10.24,26.89,4.39,12.56,5.22,23.59,2.53,36C252-10.15,241.91,4.68,239,18c-2.5,11.38-.08,23.41-.1,35.36,0,16.53-6.62,35.36-6.49,51.59.16,21.3,12.19,44.4,15.94,64.49,3.65,19.54-4.7,35.92-14.93,55-10.35,19.31-19.92,40.05-20.61,60.49-.56,16.5,7.25,34.6,9.42,51.59,2.32,18.13-12.92,38.57-17.63,53.31-4.64,14.53-2.27,31.31,4.14,47.86,5.46,14.12,11.23,28.34,12.62,43.54,1.29,14,1.26,28.63,1.09,42.74-.15,11.31-.5,22.77-.78,34.15l-.66,27q-.23,9.5-.46,19c-.08,3.32-.16,6.63-.25,10l0,1.22c0,1.36,2.15,0,2.18-1.09Z"/><path class="cls-2" d="M229.35,613.6c0-1.71.08-3.42.13-5.13q.17-7.35.35-14.7.3-11.68.58-23.36c.25-10.26.56-20.58.75-30.77.25-13.31.08-26.74-.33-40.05-.46-14.6-.22-29.4-4.1-43.56s-8.28-26.73-9.37-41.67c-1.53-21,5.41-35.71,12.17-53.94,6.62-17.83,4.14-33.2-2.05-52.26a95.05,95.05,0,0,1-.3-56.94c5.56-18.41,19.49-37.47,24.17-55.5,5.53-21.31-2.19-42.46-8-64.23-5-19-4-38.49.11-57.73,2.64-12.45,2.88-24.65,2.84-37.34,0-13.92,4.07-25,8.76-38.66,4.62-13.44,8.79-27.34,7.29-41.86-1.07-10.34-5.39-21.06-8.88-30.61a105.43,105.43,0,0,1-5.81-24.74,142.69,142.69,0,0,1-.44-18.68l.24-10,0-1.22c0-1.36-2.14,0-2.17,1.09,0,1.71-.08,3.42-.13,5.13-.12,4.9-.32,9.83-.18,14.64a98.56,98.56,0,0,0,3.1,22.07c2.41,9.24,6.73,18.57,9.4,27.19A70.77,70.77,0,0,1,259.62-23C257-9.21,248.51,5.78,245.77,19.45c-2.19,11-.43,23-1.1,34.63-.92,15.94-6.89,33.3-7,48.54-.23,21.09,11.48,44.11,14.38,64.65s-4.76,37.56-14.81,57.23c-9.66,18.92-17.37,38.8-16.67,59.1.58,16.78,8.86,34.82,10.85,51.79,2.19,18.67-13.85,39.09-17.32,55-2.79,12.78-2.09,32.21,3.49,46.55,5.27,13.54,9.91,27.74,10.54,42.14s1.16,29.39,1.13,44c0,11.43-.35,23-.63,34.46q-.33,13.51-.67,27-.22,9.5-.46,19l-.24,10,0,1.22c0,1.36,2.14,0,2.17-1.09Z"/><path class="cls-2" d="M236.27,613c0-1.71.09-3.42.13-5.13l.36-14.7.57-23.36c.25-10.29.6-20.64.72-30.85.15-13.42-.13-27-.52-40.48-.42-14.37.54-29.67-2.56-43.41-3-13.44-3.8-26.66-5.58-40.56-2.63-20.62,1.78-36.14,8.81-54.37,7.22-18.74,4.57-33.54-1.9-53.67-6-18.59-7.28-38.11-3.35-56,4-18.38,16.9-37.8,21.23-55.95,5.15-21.59-1.33-43.64-6.54-65.48-4.51-18.93-2.82-35.86,1.24-55.34A166.54,166.54,0,0,0,252.65,38c-.22-13.89,3.25-25.95,7.43-39.79s9-27.62,7.33-42.12c-1.2-10.46-5.6-20.69-8.59-30.8a113.14,113.14,0,0,1-4.71-25.13c-.39-6.13-.09-12.51.06-18.85l.24-10,0-1.22c0-1.36-2.14,0-2.17,1.1l-.12,5.13c-.12,4.89-.31,9.82-.35,14.69A101.35,101.35,0,0,0,254-86.6c2,9.33,5.68,18.76,8.31,27.58,3.84,12.89,4.66,23.3,2.17,36.18C261.82-8.93,254.34,6.79,252,20.82c-1.83,10.69-.38,22.7-1.63,34.1-1.7,15.43-7.19,31.5-7.72,45.83-.77,20.65,10.29,43.86,12.52,64.47,2.26,20.77-4.68,39.08-14,58.9C232.35,242.85,227,262,228.57,281.91c1.37,17,10.24,35.42,12.1,52.44,2.07,19-14.31,39.28-16.26,56.79-1.53,13.86,1.06,33.22,2.72,45.95,1.56,12.06,7,26,7.7,40.29.67,14.49,1,29.86,1.14,44.68.07,11.57-.19,23.22-.47,34.84l-.66,27q-.24,9.5-.47,19l-.24,10,0,1.22c0,1.37,2.15,0,2.17-1.09Z"/><path class="cls-2" d="M243.19,612.4c.05-1.71.09-3.42.13-5.13l.36-14.7.57-23.36c.26-10.34.61-20.73.64-31,.05-13.5-.25-27.1-.59-40.65-.36-14.16.74-28.94-.83-42.67-1.61-14,.91-26.32-1.69-40.44-3.73-20.21-2.42-34.65,4.58-54.22,7.51-21,4.39-35.15-1.47-55.78-5.25-18.46-7.83-36.9-5.47-55,2.38-18.32,13.65-37.89,17.58-55.95,4.73-21.77-.5-44.57-5.16-66.56-3.9-18.4-1.6-34.27,2.54-53,2.51-11.32,4.91-23.14,4.3-34.79-.73-13.77,2.73-28,6.58-40.83,4-13.47,9.5-27.56,7.74-42.15-1.28-10.54-6.39-20.78-9-30.8a106.77,106.77,0,0,1-3.33-25.62c-.07-6.25.26-12.64.41-19,.08-3.32.17-6.64.25-10l0-1.22c0-1.36-2.15,0-2.18,1.1l-.12,5.13-.36,14.69a127.24,127.24,0,0,0,1.15,22.76c1.47,9.3,4.76,19.55,7.65,27.88,4.32,12.46,5,23.23,2.34,36.18C267-8.62,259.63,7.33,257.74,22c-1.38,10.57-.31,22.74-1.75,33.81-1.91,14.62-7.4,30.07-8.4,43.56-1.49,20.1,8.77,43.53,10.46,64.12,1.7,20.83-4.61,39.82-12.73,59.94-7.31,18.13-11.15,37.18-8.58,56.43,2.36,17.67,11,36.86,13,53.63,2.14,18.3-14.09,40.17-14.6,58.29-.39,13.67,4.94,32.25,4.19,45.87-.64,11.72,2.2,25.79,2.37,38.92.2,14.82.87,29.76,1,44.54.13,11.7,0,23.48-.3,35.23q-.31,13.5-.66,27-.24,9.49-.47,19l-.24,9.95,0,1.22c0,1.37,2.15,0,2.17-1.09Z"/><path class="cls-2" d="M250.12,611.8l.12-5.13.36-14.7c.19-7.79.37-15.59.57-23.36.27-10.39.57-20.84.56-31.21,0-13.5-.34-27.13-.57-40.61-.24-13.83-1.32-29.22.89-41.33,2.66-14.6,6-25.4,2.17-41.4-4.6-19.11-6.08-34.57-.63-53,6.26-21.24,5.3-37.11-.46-59-4.8-18.22-7.72-35.66-6.6-54,1.15-18.72,10.07-37.62,13.57-55.58,4.29-21.94.29-45-3.61-67.5-3.12-18.07-.53-33,3.63-51,2.58-11.16,5.05-22.55,4.73-34.16a115.78,115.78,0,0,1,6.38-41.83c4.64-13.62,10-27.51,8.13-42.17-1.34-10.49-6.69-21-9.86-30.71-2.54-7.83-2.17-17.1-1.95-26.11q.24-9.5.47-19l.24-10,0-1.21c0-1.37-2.15,0-2.17,1.09l-.13,5.13-.36,14.7c-.19,7.78-.27,15.84.19,23.09.57,9,4.6,20,7.57,28,4.59,12.47,5.28,23.16,2.52,36.17-3,14.23-11.46,30.17-12.46,45.63-.71,10.87,0,22.85-1.64,33.84-2.12,14-6.72,28.32-8.89,41.83-3.2,20,7,43.94,8.15,63.68,1.23,20.67-4.81,40.55-11.29,60.46-5.78,17.78-6.92,36.08-4.9,54.84,2,18.35,12.09,39,12.9,55.47.87,17.72-13.61,39.7-11.79,59.19,1.38,14.76,9,32.34,7,45.66-1.82,12.26-4,24.26-4.24,38.55s.55,29.31.74,43.88c.16,11.81.09,23.72-.16,35.55-.19,9-.44,18-.66,27q-.23,9.49-.46,19c-.08,3.32-.17,6.64-.25,9.95l0,1.22c0,1.37,2.15,0,2.18-1.09Z"/><path class="cls-2" d="M257,611.2l.12-5.13.36-14.7c.19-7.79.37-15.59.58-23.36.27-10.43.52-20.94.49-31.36,0-13.44-.38-27-.48-40.4-.1-12.87-2-29.86,2.41-39.38,6.43-14,11.3-25.92,6-43.53s-9-32.88-5.85-50.26c4-22,5.73-40.64.33-63.61-4.19-17.79-7.54-34.86-7.18-52.8.38-18.62,6.88-36.93,10-54.72,3.82-21.91.46-45.32-2.19-68-2-17.27.34-32.82,4.61-49.72,2.76-10.92,5.24-22.29,5.16-33.75-.1-15.52,1.44-28.15,6.78-42.86C283.07-16,288.6-29.8,286.63-44.54c-1.4-10.5-7-21-10.55-30.67-2.84-7.8-1.83-17.31-1.61-26.32q.24-9.5.47-19l.24-10,0-1.21c0-1.37-2.14,0-2.17,1.09,0,1.71-.09,3.42-.13,5.13l-.36,14.7c-.19,7.78-.4,15.88-.44,23.32-.06,9.16,5,20,8.05,28.07,4.8,12.58,5.58,23.1,2.69,36.16C279.7-8.93,270,7.41,269.47,23c-.4,11,.51,23.34-1.54,34.3-2.5,13.37-6.15,27-8.86,40.59-4,19.92,4.58,44.17,5.38,63.35.86,20.62-5,40.95-9.8,60.73-4.05,16.78-4.08,35.13-1.77,52.69,2.5,19,11.13,39.64,11.54,57.66.42,18.54-11.32,40-7.58,59.69,2.82,14.9,11.78,33.24,9.61,45.49-2.13,12-9.79,23.56-10.48,38.79-.64,14,.17,28.73.36,43,.16,11.88.13,23.85-.08,35.73-.16,9.07-.43,18-.65,27.06q-.22,9.5-.46,19l-.24,10,0,1.21c0,1.37,2.14,0,2.17-1.09Z"/><path class="cls-2" d="M264,610.6c0-1.71.09-3.42.13-5.13l.36-14.7c.19-7.78.36-15.59.57-23.36.27-10.45.5-21,.46-31.43-.05-13.33-.38-26.86-.33-40.06.05-16.25-.73-25.39,7.93-38.45,10.59-16,11.42-27.23,5.25-45.2-5.49-16-11.21-31.26-10.57-47.64.89-22.67,5.3-44.43.56-68-3.45-17.14-7.22-34.27-7.28-51.61-.06-17.94,4.64-35.92,7.16-53.35,3.16-21.89-.2-45.84-1.1-67.85a165.27,165.27,0,0,1,5.54-49.41c2.89-10.83,5.62-22,5.63-33.48,0-16.09,1.86-28.86,7.69-44,5.26-13.62,11-27.4,8.9-42.22-1.47-10.51-7.4-21.11-11.25-30.62-3.14-7.77-2.43-17.25-2.21-26.26q.23-9.5.46-19l.24-10,0-1.21c0-1.37-2.14,0-2.17,1.09l-.12,5.13-.36,14.7c-.19,7.79-.55,15.67-.54,23.35,0,9.48,5.71,20,8.93,28,5.05,12.6,5.89,23,2.87,36.15-3.37,14.72-13.11,31.4-14.48,46.47-1,10.65.5,24-1.82,35.29-2.69,13-6.72,26.58-8.81,39.54-3.26,20.24,2.17,43.23,2.77,63.55s-4.82,40.9-8,60.41c-2.61,16-2.17,33.72.25,50.31,2.88,19.72,10.5,41.07,9.7,59.83-.8,18.46-8.32,40.67-2.82,60,4.28,15,13,32,11.82,45.44-1.08,12.47-16.24,24.46-16.06,39.6.17,13.19-.24,28.06-.08,42,.14,11.91.14,23.89,0,35.8-.14,9.1-.41,18.07-.63,27.08q-.24,9.5-.47,19l-.24,10,0,1.21c0,1.37,2.14,0,2.17-1.09Z"/><path class="cls-2" d="M270.88,610c.05-1.71.09-3.42.13-5.13l.36-14.7c.19-7.78.36-15.59.57-23.36.28-10.43.51-20.94.48-31.4-.05-13.2-.36-26.63-.15-39.63.32-19.11.72-23.38,12.68-38.42,12.25-15.41,11.25-28.47,4.65-46.5-5.42-14.8-13.33-30.4-14.47-45.35-1.69-22,4.46-47.89.08-71.86-3-16.63-7.2-33.68-7-50.35.24-17,3.53-34.79,5.35-51.59,2.35-21.76-1.18-46.2-.38-67.1.62-16,1.69-33.68,6.36-50.15,3.2-11.27,5.79-22.06,6.18-33.29.53-15.26,2.9-30.33,9-45.15,5.57-13.6,11.46-27.34,9.28-42.24-1.54-10.52-7.76-21.2-11.94-30.58-3.44-7.74-3.94-16.92-3.72-25.93q.23-9.49.46-19c.08-3.32.17-6.64.25-9.95l0-1.22c0-1.37-2.15,0-2.18,1.09l-.12,5.13L286.4-112c-.19,7.79-.44,15.92.17,23.18.78,9.22,6.55,19.85,9.94,27.93,5.3,12.63,6.19,23,3.05,36.14C296-9.93,286.09,6.37,284.31,22c-1.28,11.15-.27,25-2.9,36.46-2.9,12.76-8,26.78-8.81,38.57-1.34,18.93,0,43.33.47,64.39.44,19.91-3.65,39.93-5.84,59.48a183.5,183.5,0,0,0,.92,47.79c3.12,20.49,8.79,41.65,7.43,61.95-1.33,19.79-4.86,40.57,2.42,60.14,5.64,15.18,14.13,31.57,13.4,45.55-.7,13.27-20.9,26.79-20.67,40.93.21,12.81-.68,27.21-.57,40.9.09,11.92.11,23.87-.07,35.76-.13,9.12-.42,18-.64,27.06q-.24,9.5-.47,19l-.24,10,0,1.21c0,1.37,2.15,0,2.17-1.09Z"/><path class="cls-2" d="M277.81,609.4l.12-5.13.36-14.69.57-23.37c.26-10.4.59-20.85.55-31.24-.06-13-.08-26.11,0-39.17.19-17.86,6.24-24.94,15.73-38.9,11.19-16.46,11.73-29.31,5-47.71-5.36-14.56-14.3-29.52-16.75-44.69-3.7-23,1.74-49.63-1.73-73.89-2.34-16.3-6.81-33.56-6.08-49.75C276.31,225,279,208,280,192c1.38-21.54-1.54-44.64,1-65.81,1.93-16.2.79-36.38,6-51.84a130.34,130.34,0,0,0,6.86-33.08A153,153,0,0,1,304.2-5.16c5.33-13.36,11.95-27.29,9.66-42.26C312.24-58,305.7-68.5,301.54-78a73.48,73.48,0,0,1-6.12-25.33c-.32-6.22.13-12.62.29-18.95l.24-10,0-1.22c0-1.37-2.15,0-2.17,1.09-.05,1.71-.09,3.42-.13,5.13l-.36,14.7c-.19,7.79-.08,15.56,1.52,22.84C296.91-80.32,302.31-70.07,306-62c5.62,12.42,6.49,22.9,3.22,36.12-3.68,14.89-13.29,31.47-16,47.13-2,11.34-1.27,25.74-4.25,37.48-3.33,13.11-7.1,25-7.91,38.3-1.29,21.12-2.88,43.43-2.43,65.29.4,19.23-1.62,38.55-3.52,57.78-1.53,15.54-2,30.13.29,45.4,3.25,21.36,6.07,42.5,5.06,64.33-1,20.84-.9,40.09,7.75,59.62,6.81,15.36,15.39,32.33,14.16,45.89-1.28,14.1-20.9,28.36-24.07,42.61-2.48,11.12-1.14,26.4-1.09,39.73,0,11.86.1,23.79-.14,35.61-.17,9-.44,18-.66,27q-.22,9.49-.46,19c-.08,3.32-.17,6.64-.25,10l0,1.22c0,1.36,2.15,0,2.18-1.1Z"/><path class="cls-2" d="M284.73,608.8l.12-5.13.36-14.69q.29-11.68.58-23.37c.25-10.33.61-20.7.65-31,.05-12.86.66-26.48.26-38.71-.47-14.74,10.56-27.63,17.33-39.72,9.75-17.41,12.29-30.13,5.85-48.85-5-14.6-14.55-29.59-18.3-44.75-5.84-23.68-1.83-50.49-3.83-75-1.32-16.13-5.52-33.38-4.36-49.53,1.07-14.86,4.13-30.2,4.25-45.55.17-21.68-1.38-43.69,2.5-64.44,2.94-15.73-.71-39.22,4.75-53.95,4-10.75,6.82-21.55,7.58-32.86,1.06-16,5.67-32.53,11.88-47.71,5.5-13.45,12.31-27.37,9.92-42.4-1.72-10.75-8.28-21-13.14-30.5A77.13,77.13,0,0,1,303-104.13c-.8-6.09-.51-12.46-.35-18.79l.24-10,0-1.22c0-1.37-2.15,0-2.17,1.09,0,1.71-.09,3.42-.13,5.13l-.36,14.7a67.38,67.38,0,0,0,3.17,22.43c3.06,9.45,8.79,19,12.61,27.43,5.77,12.75,6.8,22.85,3.4,36.12C315.56-12.13,305.6,5.1,302.27,20.75,299.85,32.1,300.45,47.1,297,59c-4.16,14.44-6.43,23.64-6.72,38.83-.42,21.85-5.84,43.64-5.28,66.05.46,18.35.65,37.14-1.72,55.08-1.89,14.25-3.51,29.11-1,43.52,3.86,22,3.52,44.62,3.55,66.56,0,19.66,2.56,40.78,12.17,58.84,7.93,14.89,15.63,33.29,13.63,46.46-2.05,13.6-20.61,32-25.47,44.44-3.64,9.32-2,25.52-2,38.64,0,11.74,0,23.53-.27,35.3q-.31,13.5-.66,27-.23,9.49-.46,19l-.24,9.95,0,1.22c0,1.36,2.14,0,2.17-1.1Z"/><path class="cls-2" d="M291.65,608.21c0-1.71.08-3.42.13-5.13l.36-14.7.57-23.37c.25-10.26.6-20.61.75-30.77.18-12.6.46-25.76.5-38.16.05-13.9,12.11-28.77,17.74-40.74,7.92-16.85,12.17-32.2,7-49.87-4.31-14.87-14.4-30.56-19.43-45.28-8-23.34-4.8-50.41-5.74-75.34-.59-15.69-4.69-33.36-2-49.5,2.38-14.08,5.27-28.06,4.83-42.14-.7-22.05-.41-41.33,3.49-63.1,3.24-18.07-1.16-40.49,3.37-56.27,3-10.38,7.32-20.74,7.67-32.43.5-16.83,6.41-33.1,13.29-48.65,6-13.67,13.05-27.57,10.6-43-1.74-11-9-20.94-14.41-30.22a78.51,78.51,0,0,1-9.75-24.44,86,86,0,0,1-1.15-18.59l.24-10,0-1.22c0-1.37-2.14,0-2.17,1.09,0,1.71-.08,3.42-.13,5.13-.11,4.9-.39,9.84-.2,14.66A66.37,66.37,0,0,0,312-91.75c3.76,9.39,10.33,18.56,14.38,27,6.05,12.62,7.11,22.79,3.57,36.1C325.86-13.19,314.81,4.61,311,20.5c-2.55,10.76-1,27.57-5.31,38.66-5.45,14.09-5.5,25.16-5.58,39.85-.12,21.26-8.66,44.67-7.74,66.88.7,16.82,2.76,35.11-.46,51.55-2.65,13.49-5.11,28.37-2.85,42.21,3.61,22.18,1.46,45.94,2.46,67.77A136.38,136.38,0,0,0,307.67,386c8.21,15.36,13.62,31.87,10.57,47-3,14.93-15.08,31.35-21.78,45.6-5.76,12.25-5.07,23.83-5.14,38.59-.06,11.59-.16,23.27-.44,34.91l-.66,27q-.24,9.5-.47,19l-.24,10,0,1.22c0,1.36,2.14,0,2.17-1.09Z"/><path class="cls-2" d="M298.57,607.61c.05-1.71.09-3.42.13-5.13l.36-14.7.57-23.37c.25-10.25.53-20.54.75-30.77.27-12.45-.72-26.28.82-37.44,1.85-13.42,11.77-28.35,17.19-41.79,6.74-16.71,11.5-33.78,8.31-50.68-3-15.75-14.13-31.16-20.4-46.16-9.55-22.85-7.12-49.91-7-75.17.05-16.26-2.54-33,1-49.61,2.76-13.07,6.48-27.15,6.17-38.95a320.6,320.6,0,0,1,3.88-61.78c3.1-18.77,1-43.61,2.48-58.33,1-10,7-18.76,6.18-31.92-1.06-17.58,6.63-33.91,14.1-49.46,6.71-13.95,15-28.12,12.17-44.06-1.93-10.84-10.08-20.78-15.93-29.86a80.27,80.27,0,0,1-10.92-24.14,74.36,74.36,0,0,1-1.94-18.4c0-3.3.2-6.64.29-10l0-1.22c0-1.36-2.15,0-2.18,1.09l-.12,5.13a128.68,128.68,0,0,0,.12,14.58,66.06,66.06,0,0,0,5.81,21.78c4.28,9.31,11.35,18.27,15.86,26.64,6.81,12.59,7.95,22.65,4.16,36-4.51,15.83-17.21,34.3-21.28,50.69-2.63,10.58.46,29.17-4.08,38.74C310,70,310.81,88.74,310.47,100.47c-.65,22-9.58,47.1-9.76,67.82-.12,14.83,3.44,31.2.25,47.4-2.74,13.94-6,28.12-5.18,41.53,1.28,21.39-.28,46.62,1.36,68.17,1.61,21.27,9.92,39.07,19.94,58.7,7.93,15.57,10.58,31.66,7.08,47.63-3.4,15.54-11.92,31.35-18.91,46.48-6.47,14-6.66,23.21-6.83,38.82-.12,11.45-.34,23-.62,34.49l-.66,27q-.24,9.5-.47,19l-.24,10,0,1.22c0,1.36,2.15,0,2.17-1.09Z"/><path class="cls-2" d="M305.5,607l.12-5.13.36-14.7.57-23.37q.38-15.37.76-30.77c.3-12.48-.29-25.72,1.7-37.09,2.39-13.71,10.41-28.65,15.31-42.49,5.9-16.67,10.58-34.59,9.46-51.12-1.15-17.2-13.95-31.67-21.4-47.36-10.59-22.32-8.59-48.72-7.47-74.21.74-16.69.14-33.55,4.33-50.15,3.08-12.18,6.49-25.33,6.85-36.79a499.8,499.8,0,0,1,5-60c2.87-19.17,2.88-41.36,3.48-58.93.39-11.5,3.22-20,1.55-32.38-2.33-17.39,6.51-34.62,14.38-50.11,7.13-14,18.08-29.79,14.32-45.41-2.51-10.38-11.12-20.37-17.35-29.5-5.15-7.56-9.35-15.58-11.66-24a74,74,0,0,1-2.46-18.26c-.06-3.29,0-6.61.2-9.94l.06-1.23c.07-1.37-2.07,0-2.13,1.08-.1,1.73-.18,3.44-.23,5.16a93.8,93.8,0,0,0,.54,14.47,66.17,66.17,0,0,0,6.56,21.59c4.64,9.26,11.82,18,16.86,26.39,7.8,12.94,9.12,22.42,4.77,35.91-5.19,16.06-19.87,35-23.78,52.36-2.88,12.76,2,28.94-1.27,38.49s-3.11,30.19-3.78,42.48c-1.22,22.61-9.54,48.91-10.65,68.58-.74,13,2.81,28.29-.21,43.18-2.77,13.69-7.15,28.22-7.59,41.18-.71,20.79-2.32,46.89-.34,68.26,2,21.63,13,39.64,23.44,58.66,8.05,14.66,7.12,32.7,3.76,48.61-3.3,15.64-10.73,31.74-16.73,47.1-5.38,13.79-7,24.1-7.34,39.18-.22,11.36-.51,22.74-.79,34.11l-.66,27q-.22,9.51-.46,19l-.25,10,0,1.22c0,1.36,2.15,0,2.18-1.09Z"/><path class="cls-2" d="M312.42,606.41l.12-5.13.36-14.7.57-23.37q.39-15.37.76-30.77c.3-12.53.08-25.24,2-37,2.35-14.08,8.94-28.85,13.39-42.87C335,435.9,339.6,418,340,401.43c.5-18.7-14.28-32.63-22.57-48.81-11.22-21.87-9.44-47.37-6.91-73,1.69-17.07,3.36-34,8-50.6a235.17,235.17,0,0,0,6.79-36c2.28-19,4.42-38.56,6.93-57.65,2.55-19.4,4.41-39.41,4.27-59-.1-12.86-1.5-21-4.15-32.76-3.8-17,6-35.22,14.16-50.59,7.09-13.41,20.81-30.89,16.17-46.81-3.1-10.62-11.41-20.29-17.76-29.4-5.25-7.53-9.55-15.53-12-23.88a73.65,73.65,0,0,1-2.68-18.21c-.1-3.27,0-6.58.09-9.91,0-.41,0-.82,0-1.22.06-1.37-2.13,0-2.17,1.09-.07,1.71-.12,3.43-.14,5.13a94,94,0,0,0,.78,14.41,66.64,66.64,0,0,0,6.95,21.5C340.69-85.09,348-76.4,353.23-68c8.44,13.52,9.88,21.95,4.43,36.35C351.36-15.07,336,4.14,332.17,22c-2.84,13.28,3.11,28.77,2.45,38.12-.59,8.46-1.61,31-2.47,43.55-1.53,22.47-7.42,47.09-9.16,68.12-1.08,13-.64,26.65-3.07,40.16s-7.73,27.88-9.53,41.23c-2.86,21.34-5.24,47.1-3.25,68.08,2.09,22,15.71,40.1,25.9,58.7,8,14.58,5.25,32.44,1.58,49.51-3.39,15.75-9.87,32-15.08,47.51a126.88,126.88,0,0,0-7.06,39.34c-.33,11.29-.56,22.68-.84,34l-.66,27q-.23,9.49-.46,19l-.24,9.95,0,1.22c0,1.36,2.14,0,2.17-1.09Z"/><path class="cls-2" d="M319.34,605.81c0-1.71.08-3.42.13-5.13l.36-14.7.57-23.37.75-30.77c.3-12.45.07-25.34,1.69-37.08,1.93-14,7.69-28.91,11.78-43.06,4.82-16.66,9.17-34.08,11.56-50.9,2.6-18.33-17-35.67-24.62-50.19-11.45-21.77-9.82-46-5.32-71.69a498.68,498.68,0,0,1,11.88-50.65c3.38-11.86,4.61-26.34,6.53-36.73,2.84-15.41,7-36.57,9-55,2.16-19.48,5.18-40.18,4.88-58.69-.21-13.07-6.89-21.06-10.83-33C332.31,28.53,343,9.2,351.18-6c7.55-14,22.24-32.18,18.1-48.35-2.66-10.39-11.3-20.32-17.6-29.43-5.21-7.55-9.48-15.55-11.85-23.91a73.36,73.36,0,0,1-2.6-18.24c-.08-3.27,0-6.59.13-9.92,0-.41,0-.81.05-1.22.06-1.37-2.17,0-2.21,1.1-.07,1.71-.12,3.43-.14,5.13a92.79,92.79,0,0,0,.79,14.41,66.66,66.66,0,0,0,7,21.5C347.63-85.7,355-77,360.19-68.66,369-54.6,370-46.6,363.68-31.55c-7.09,17-23.23,36.64-26.76,54.78-2.51,13-.33,25.32,5.93,37.74,5.84,11.6,1.5,31,.45,44.17-1.77,22.21-3.83,46.36-7.48,67.19-2.18,12.41-4,25-6.12,37.77-2.33,14.09-8.25,28.8-11.27,42.68-4.6,21.12-8.78,46.18-7.06,66.75,1.86,22.15,16.29,40.06,27.36,58.74,9,15.26,4.79,32.12.66,50.26-3.6,15.82-9.27,32.06-13.81,47.69a148.65,148.65,0,0,0-6.18,39.47c-.32,11.3-.56,22.68-.83,34l-.66,27q-.24,9.5-.47,19l-.24,9.95,0,1.22c0,1.36,2.14,0,2.17-1.09Z"/><path class="cls-2" d="M326.26,605.21c0-1.71.09-3.42.13-5.13l.36-14.7.57-23.37.75-30.76c.31-12.41-.17-25.73.92-37.23,1.29-13.71,6.58-28.85,10.37-43.08,4.45-16.73,10.81-35,12-50.55,1.34-18.18-18.21-35.64-26.58-51.37-11.46-21.53-9.33-45.3-2.82-70.26,4.4-16.91,11.22-33.84,15.91-50.3,3.54-12.42,3.71-29.6,6-39,3.44-14.06,9.53-32.55,11.24-52.05,1.68-19.22,6.86-42.36,5.33-57.94-1.1-11.27-13.18-21.77-18.32-33.11-7-15.49,4.2-35.94,12.41-50.89C362.83-19.72,376.57-37,374.1-54.31,372.62-64.68,363.65-75,357.63-84.13c-5-7.59-9.11-15.64-11.3-24.05a73.85,73.85,0,0,1-2.21-18.33c0-3.29.2-6.64.29-10l0-1.22c0-1.36-2.13,0-2.19,1.1-.1,1.72-.17,3.44-.22,5.15A93.72,93.72,0,0,0,342.6-117a66,66,0,0,0,6.6,21.58c4.65,9.25,11.84,18,16.9,26.38,8.56,14.18,8.4,23.35,2.09,38.13-7.3,17.09-24.57,37.37-27.63,55.69C338,40.42,340.65,50.24,351,62.44c9,10.63,4.64,31.05,3.48,44-1.94,21.85-1.34,48.43-5.63,65.82-2.95,12-7.3,21.93-9.28,36.18-2.12,15.17-7.92,31.09-12.79,45.68-6.68,20.07-12.81,44.43-11.65,64.11,1.31,22.19,16.73,40.1,27.86,58.71,9.71,16.23,5.87,31.15,1,50.81-3.91,15.87-8.82,32-12.79,47.68-3.41,13.44-4.55,25.53-4.9,39.62l-.83,34-.66,27-.47,19-.24,10,0,1.22c0,1.36,2.15,0,2.17-1.09Z"/><path class="cls-2" d="M333.19,604.61l.12-5.13.36-14.7.57-23.37.75-30.76c.31-12.41.65-24.86.92-37.23.3-14.55,4.69-29.13,8.12-43.14,4.1-16.72,11.42-34.7,11.15-50.26-.33-18.39-19.74-36.14-28-52.15-10.92-21.25-8.24-44.76-.27-67.67,5.75-16.55,15.84-33.08,20.62-50.36,3.8-13.72,2.66-30.78,6.92-42.77,5.6-15.74,10.79-30.33,11.95-49.28,1.13-18.49,7.39-41.2,4.79-56.68C369.14,68.75,352,60,345.82,47.86c-8.27-16.23,2.87-36,11-50.66,9.17-16.58,21.48-34.34,20.47-50.83-.66-10.78-7.7-19.85-14.35-30.69a79.44,79.44,0,0,1-10.33-24.29,75.09,75.09,0,0,1-1.52-18.5q.15-5,.27-10l0-1.22c0-1.36-2.15,0-2.18,1.09l-.12,5.13a126.33,126.33,0,0,0,.15,14.58,66,66,0,0,0,5.87,21.76c4.31,9.31,11.5,18.29,15.93,26.62,7.55,14.19,6.19,24.77-.12,39.63C363.51-12.1,346.25,7.86,343.25,26.6c-2.38,14.88,2.87,26.52,15.24,37.54,13.36,11.92,8.6,27.4,7.05,43.47-2,20.45.44,45.84-5.79,63-4.74,13.06-8.61,22-10.4,36.53a168.45,168.45,0,0,1-14.41,49.35c-8.53,17.88-16.82,42.09-16.43,61,.46,22,16.24,39.86,27.41,58.52,9.92,16.56,8,31,2.63,51.18-4.19,15.65-8.42,31.81-11.85,47.51-2.93,13.4-3.12,25.84-3.46,39.75l-.83,34-.66,27q-.22,9.5-.46,19c-.09,3.32-.17,6.63-.25,10l0,1.22c0,1.36,2.15,0,2.18-1.09Z"/><path class="cls-2" d="M340.11,604l.12-5.13.36-14.7.57-23.36q.39-15.39.76-30.77c.3-12.41.92-25.13.91-37.23,0-14.29,2.85-29.08,6-43.11,3.72-16.75,11.05-34.29,9.56-50-1.75-18.47-21.1-36.35-29.13-52.61-10.21-20.68-6.43-43.72,3-65,7.43-16.64,20.34-31.37,24.91-49.54,3.54-14.08,1.42-33.83,7.19-47.34,7.12-16.66,12.51-29.27,13.12-47.48.6-18,6.66-39.95,2.08-55.25-3.83-12.81-22.51-22.73-30.42-33.25-10.31-13.71,1.31-35.79,9.22-50.13,8.44-15.31,22.23-34.47,21.15-51.78-.77-12.15-5.69-20.33-11.91-31.74A78.22,78.22,0,0,1,358.71-109c-1-6-.86-12.37-.7-18.71l.24-9.95,0-1.22c0-1.36-2.15,0-2.17,1.1,0,1.7-.09,3.41-.13,5.12-.12,4.9-.39,9.84-.18,14.66a66.41,66.41,0,0,0,4.77,22c3.8,9.38,9.78,18.32,14.48,27,7.3,13.46,2.92,28.68-2.62,41.3C364.62-9.9,347.58,9.94,345.3,28.48c-2,16.14,7.71,25.68,19.68,36.9,13.3,12.48,13.33,23.85,11.35,43.11-1.83,17.72.92,44.51-7,60.07-7.27,14.26-9,22-10.39,37.67-1.58,18-6.06,37.08-16.29,52.78-11.27,17.29-20.28,39.5-20.88,58.29-.7,21.7,14.31,39.1,25.93,58.11,10.42,17,11,31,5.42,51.42-4.25,15.47-8.52,31.9-10.86,47.19-1.95,12.74-1.76,26.41-2.09,39.88l-.84,34-.66,27q-.23,9.49-.46,19-.12,5-.25,10l0,1.22c0,1.37,2.15,0,2.18-1.09Z"/><path class="cls-2" d="M347,603.41c0-1.71.08-3.42.13-5.13l.36-14.7.57-23.36.75-30.77q.45-18.62.91-37.23c.34-14.67,1.19-28.76,4.06-43,3.42-17,10.46-34.44,7.54-49.78-3.47-18.24-22.31-35.79-30.19-52.83-9.3-20.15-3.81-42.5,6.87-62.34,8.6-16,23.92-30.47,28.53-47.34,4.13-15.11,1.35-36.88,6.76-52.61s13.45-30.33,14.8-46.93c1.44-17.78,5.9-39.66-1.18-54.2-6.31-13-23.89-22.24-34.22-32.81-12.33-12.63-.53-35.28,7.08-49.25,8.62-15.8,21.72-34.83,21.64-52.65-.05-11.72-4-22-9.47-32.8a70.58,70.58,0,0,1-7.07-25.1c-.55-6.16-.13-12.55,0-18.89l.24-10,0-1.22c0-1.36-2.14,0-2.17,1.1,0,1.71-.08,3.42-.13,5.13l-.36,14.69a66,66,0,0,0,3.3,22.41c3.13,9.52,8.7,18.71,12.45,27.55,5.93,14,1.13,29.63-4.61,42.69-7.79,17.74-25.11,38.05-26.55,56.21-1.35,16.94,10.8,24.24,23.68,35.65,13.67,12.11,17.95,24,15.87,43.18s-.35,39.52-8.57,57.81c-6.67,14.85-8.72,22.75-10,38.87-1.51,19.76-4.9,40.15-18,55.91S327,299,325.2,317.54c-2.09,21.28,12.34,38.49,24.3,57.34,10.78,17,13.44,31.25,8.29,51.69-3.86,15.31-8.29,31.81-9.67,46.75-1.15,12.43-.71,26.65-1,40q-.42,17-.83,34l-.66,27q-.24,9.49-.47,19l-.24,9.95,0,1.22c0,1.37,2.14,0,2.17-1.09Z"/><path class="cls-2" d="M354,602.81l.13-5.13.36-14.7.57-23.36.75-30.77q.47-18.61.91-37.23c.35-14.31.05-28.86,2.52-42.87,3-17.25,9-34,5.34-49.56-4.3-18.29-23.66-36.35-31.06-53-8.42-18.95-.58-41.28,10.77-59.87,8.88-14.53,26.35-29.76,31.25-43.31,5.33-14.73.79-40.61,5.78-58.58,4.38-15.77,14.7-33.17,16.82-47.83,2.41-16.73,3.71-38.49-4.53-53.64-7.21-13.23-23.08-22.19-36.25-32.46C341.54,38.22,354.78,16,361.84,2.75c8.74-16.36,20.85-35.15,21.6-53.27.48-11.65-2.65-23-7.25-33.74a63,63,0,0,1-4.8-25.66q.23-9.49.46-19,.12-5,.25-10c0-.4,0-.81,0-1.21,0-1.37-2.14,0-2.17,1.09l-.12,5.13-.36,14.7c-.19,7.78-.05,15.52,1.63,22.81,2.24,9.73,7.35,19.06,10.21,28.24,4.59,14.73-.36,30.28-6.2,43.74-7.65,17.61-25.32,38.58-25.85,56.19-.48,16.1,14.3,23.33,27,33.85,14.15,11.7,20.87,24.91,20.11,43.83C395.62,129,393.94,146.92,386,166c-6.26,15.08-8.3,23.66-9.2,40-1.3,23.48-3.79,40.13-19.32,58.35-13.58,15.92-25.14,35.53-28.29,53.8-3.65,21.2,10.35,37.44,22.54,56.3,10.92,16.87,15.14,32.18,10.93,51.91-3.16,14.84-7,30.72-7.68,46.37-.57,13.06-.65,26.65-1,40q-.42,17-.83,34l-.66,27q-.24,9.5-.47,19l-.24,9.95,0,1.22c0,1.37,2.15,0,2.17-1.09Z"/><path class="cls-2" d="M360.88,602.21l.12-5.13.36-14.7.57-23.36.75-30.77q.46-18.61.91-37.23c.35-14.23-.23-29.17,1.48-42.73,2.11-16.72,7.23-33.89,3.12-49.32C363.33,380.68,344,362.19,337,345.65c-7.58-17.9,2.51-40.25,13.91-57.5,9.28-14,25.95-28.61,31.71-42,6.75-15.71.89-41.12,5.59-60.43,4.09-16.74,14.08-34.37,17.26-50,3.67-18,3.16-38.22-5.85-53.87-7.73-13.44-22.88-22.37-37.28-32.16C345.23,38,358.09,17,364.73,3.8c8.38-16.69,19.75-35.3,21.14-53.55A83,83,0,0,0,381-84.37c-2.81-7.87-2.87-17.14-2.65-26.15q.22-9.49.46-19,.14-5,.25-10l0-1.21c0-1.37-2.15,0-2.18,1.09l-.12,5.13-.36,14.7c-.19,7.78-.56,15.79.25,23.16,1.08,9.84,5.88,19.24,7.86,28.93,3.17,15.53-1.56,30.69-7.41,44.47-7.28,17.12-23.31,37.35-24.74,56.05-1.18,15.6,19.33,23.73,29.3,31.65,14.74,11.71,23.14,27.16,23.51,45.15.38,18.53-4.45,36.72-12.18,56.44-5.75,14.69-7.91,26.19-8.26,41.79-.58,25.52-3,39.44-20,58.78-13.68,15.55-25.88,34-30.45,52.17-5.32,21.23,8.3,36.45,20.45,55.25,10.87,16.83,16,32.57,12.85,52-2.39,14.68-5.3,30.16-5.69,46l-1,40q-.4,17-.83,34l-.66,27q-.22,9.5-.46,19-.14,5-.25,10l0,1.22c0,1.37,2.15,0,2.18-1.09Z"/><path class="cls-2" d="M367.8,601.61l.12-5.13.36-14.7.57-23.36q.38-15.39.76-30.77.45-18.61.91-37.23c.35-14.22.07-29.13,1.05-42.66,1.19-16.44,5.3-33.78,1-49-5.17-18.21-22.13-36.11-30.21-53.64s5.66-40.8,15.79-55.54c9.51-13.83,23.84-27.51,30.71-42,8.29-17.46,1.62-39.79,5.44-59.39,3.43-17.6,13.32-35.73,17.68-52.47,5-19,2.95-39.91-6.57-55.88-8.16-13.68-22.55-22.48-37.27-32-16.63-10.69-5.29-30.86.59-43.74C376.39-12.65,387.14-31.11,389-49.3c1.21-11.81,0-23.51-2.76-35.28-1.92-8.18-1.23-17.53-1-26.54q.24-9.5.47-19l.24-10,0-1.21c0-1.37-2.15,0-2.17,1.09,0,1.71-.09,3.42-.13,5.13l-.36,14.7c-.19,7.78-.73,15.74-.52,23.35.28,9.94,4,19.84,5.36,29.62,2.18,15.66-2.49,30.86-8.25,44.87-7,17.17-22.55,38.19-22.74,55.63C357,46.73,377.5,54.86,387.1,62.4c15.14,11.89,22.37,26.9,25.14,46.7C415,128.62,406,148.78,399,167.2c-5.9,15.66-7.35,28.24-7.33,44.91,0,23.59-4.1,38.44-19.74,56.41-13.38,15.39-25.89,32.81-31.41,50.8-6.44,20.93,6.35,35.75,18.19,54.47,10.64,16.84,16.12,32.54,14,52-1.57,14.64-3.56,30.13-3.94,45.7q-.48,20-1,40l-.84,34-.66,27q-.23,9.5-.46,19-.12,5-.25,10l0,1.21c0,1.37,2.15,0,2.18-1.09Z"/><path class="cls-2" d="M374.72,601l.13-5.13.35-14.7q.3-11.67.58-23.36l.75-30.77q.45-18.61.91-37.23c.35-14.23.41-28.88.93-42.69.63-16.43,3.68-33.56-.63-48.56-5.19-18.06-22.11-36.5-28.48-53.84-6.42-17.49,6.08-38.93,16.57-54.16,9.49-13.79,22.78-27.37,28.61-42.28,6.82-17.43,2.27-37.45,5.1-56.48,2.75-18.46,13.16-37.55,18-55.05,5.73-20.48,3.26-42.4-6.66-59.63-7.9-13.72-21.43-23-36.19-31.92-15-9.05-5.37-30-.76-41.41,6.78-16.79,16.84-35,19-53,1.42-11.82.61-23.7-1-35.63-1.11-8.4-.09-17.83.13-26.84l.47-19,.24-9.95,0-1.22c0-1.37-2.14,0-2.17,1.09,0,1.71-.08,3.42-.13,5.13l-.36,14.7c-.19,7.79-.24,15.72-.57,23.36-.42,9.9,1.91,20.43,2.78,30.25,1.38,15.63-3.15,30.79-8.69,45-6.5,16.61-22.3,40.12-19.52,54.55,2.39,12.44,15.48,18.21,28.59,27.27,16,11,23.58,30.76,25.65,48.39,2.44,20.72-6.88,41.2-14.23,61.55-6,16.66-6.34,30.86-6.37,48.2,0,20-5.42,36.1-18.7,52.22-12.7,15.42-23.34,31.45-31.29,49.73-8.71,20.06,6.42,38.21,16,54.05,10.21,16.86,15.73,32.51,14.45,51.9-1,14.53-2.22,30.18-2.59,45.45q-.5,20-1,40-.42,17-.83,34-.33,13.51-.67,27-.22,9.49-.46,19l-.24,10,0,1.21c0,1.37,2.14,0,2.17-1.09Z"/><path class="cls-2" d="M381.64,600.41c0-1.71.09-3.42.13-5.13l.36-14.69.57-23.37.75-30.77q.46-18.62.91-37.23c.35-14.24.43-28.65.82-42.71.46-16.44,2.7-33.3-1.42-48.15-4.95-17.83-20.69-36.29-25.73-53.91C352.81,326.19,363.4,307,374,291.06c9.28-14,20.37-27.13,25.53-43,5.58-17.11,3.37-34.36,4.66-51.77,1.39-18.72,13.33-39.7,18.29-57.64,6.07-21.93,4.1-45.7-6.11-64.91-7.29-13.71-20.34-23-34-32.09-12.18-8.15-5-29.06-1.77-39,5.39-16.67,14.54-35,17.32-52.27,1.83-11.36.76-24,.53-35.72-.18-8.6.44-18,.66-27q.23-9.5.46-19l.24-9.95,0-1.22c0-1.37-2.14,0-2.17,1.09l-.12,5.13-.36,14.7c-.19,7.79-.2,15.77-.57,23.36-.49,9.89.37,20.73.88,30.65.79,15.39-3.53,30.51-8.74,44.71-6,16.26-16.61,34.33-16,52.56.42,12.61,18,20,26.18,26C414.71,67.22,422,88.33,424,106c2.53,22.42-7.63,44.31-15.29,66.5-6.09,17.66-4.32,34.59-5.3,51.53-.91,15.77-7.17,32.28-17.06,46.39-10.84,15.47-23,31.26-30.1,49-7.76,19.29,4.76,37.66,14,54,9.58,16.91,14.87,32.48,14.13,51.66-.56,14.54-1.34,30.13-1.7,45.26q-.48,20-1,40-.42,17-.83,34l-.66,27q-.24,9.49-.47,19l-.24,10,0,1.21c0,1.37,2.15,0,2.17-1.09Z"/><path class="cls-2" d="M388.56,599.81c.05-1.71.09-3.42.13-5.13l.36-14.69.57-23.37.75-30.77q.47-18.61.91-37.23c.35-14.22.67-28.52,1-42.66.42-16.24,2-33.12-1.75-47.84C386.22,381,371.66,363,368.05,344.26c-3.88-20.09,4.45-36.91,14.42-53.19,8.77-14.32,17-27.6,22.22-43.77,4.93-15.28,3.08-30.77,3.65-45.85.75-19.74,13.22-41.8,18-60.71,5.71-22.46,6-49.47-4.73-70.71-7-13.87-18.85-23.27-30.65-32.54-9.73-7.65-5.1-26.73-2.51-36.62C392.74-15.35,401-33.49,403.7-50.27c1.79-11.32,1.41-23.62,1.64-35.62.17-9,.44-18,.66-27q.22-9.49.46-19c.08-3.32.17-6.64.25-10l0-1.22c0-1.37-2.15,0-2.18,1.09l-.12,5.13-.36,14.7c-.19,7.79-.36,15.59-.57,23.36-.28,10.22-.46,20.76-.26,30.81.31,15.08-3.66,30-8.41,44.15-5.34,15.91-13.09,33-12.71,50.12.26,11.53,16,19.19,23.3,25.1,15.39,12.39,21.72,35.05,23.29,53,2.12,24.33-8.39,48.05-16.15,72.05-5.55,17.2-4.09,34-4.93,50.94-.69,14.18-6.78,30.38-14.21,43-9.2,15.68-21.34,31.24-27.71,48.62-6.84,18.68,3.56,37.76,12,54.26,8.72,17,13.44,32.32,13.06,51.31-.29,14.67-.94,30.17-1.23,45.15-.26,13.26-.65,26.65-1,40q-.4,17-.83,34l-.66,27q-.24,9.5-.47,19l-.24,10,0,1.22c0,1.36,2.15,0,2.17-1.1Z"/><path class="cls-2" d="M395.49,599.22l.12-5.13.36-14.7.57-23.37q.38-15.39.76-30.77c.3-12.41.65-24.86.91-37.23.29-14.12,1.6-28.49,1.81-42.46.23-15.81.92-32.77-2-47.72-3.51-17.83-16.2-36.63-19.71-53.79-3.82-18.65,3.48-35.67,13-53.36,7.82-14.55,14.46-28.64,18.67-44.22,3.81-14.09,2.47-25.2,2.43-39.67-.06-20.75,12.64-43.93,16.92-64.31,5.08-24.26,7.19-53.05-2.45-76.29-5.71-13.75-14.78-23.52-25.94-33.43-9.12-8.09-5.42-24.67-3.32-34.44C401-17.55,407.88-35,410.29-51.24c1.68-11.26,1.68-23.36,2-35.25l.66-27q.24-9.49.47-19l.24-10,0-1.22c0-1.37-2.15,0-2.17,1.09-.05,1.71-.09,3.42-.13,5.13l-.36,14.7-.57,23.36c-.25,10.27-.52,20.54-.73,30.81-.3,14.94-3.55,29.21-7.71,43.26C397.52-10.19,390.87,6,392.1,22.29c.8,10.63,13.8,18.28,20.34,24.43,14.56,13.72,19.21,37.7,19.86,56.4.94,26.44-8.48,52-16.21,77.67-5,16.49-3.24,32-4.16,48.59-.74,13.35-6,28.56-11.51,40.35-7.35,15.69-18.69,31.88-24.65,48.85-6.37,18.13,3.11,37.95,10.56,54.56,7.64,17,11.3,31.92,11.3,50.85,0,15.08-.55,30.24-1.1,45.13-.49,13.16-.66,26.65-1,40l-.84,34-.66,27q-.23,9.5-.46,19-.12,5-.25,10l0,1.22c0,1.36,2.15,0,2.18-1.09Z"/><path class="cls-2" d="M402.41,598.62l.12-5.13.36-14.7q.3-11.68.58-23.37l.75-30.77c.3-12.41.75-25,.91-37.23.18-13.95,3.28-28.27,3.33-42.06.06-15.62-.46-32.81-2.64-47.87-2.59-17.87-14.05-36.77-17.52-53.71-3.8-18.55,3.72-35.53,12-53.75,6.59-14.53,10.16-29.88,15.12-44.57,3.58-10.62,1.65-23,1.18-33.57-1-21.52,11.13-46.39,14.79-68,4.47-26.46,7.68-56.74.53-81.24-3.63-12.43-10.44-25.28-20.84-34.48-8.69-7.68-5.78-23.21-4-32.74,2.83-15.25,8.39-32.13,10.42-47.76,1.45-11.19,1.43-23.05,1.71-34.74l.66-27q.24-9.5.47-19l.24-9.95,0-1.22c0-1.36-2.14,0-2.17,1.09,0,1.71-.08,3.42-.13,5.13l-.36,14.7L417.35-100q-.37,15.38-.75,30.76c-.36,14.36-3.15,28.25-6.58,42-3.61,14.52-9.51,30.29-7.73,45.34,1.1,9.27,12.26,17.53,17.6,23.9,13.21,15.74,15.15,40.36,15,60.14-.22,28-7.78,56.33-15.38,83.07-4.35,15.34-2.49,30-2.94,45.43-.35,12.08-5.47,26.69-9.35,37.88-5.57,16-15.82,32.93-21.46,49.61-6.15,18.2,3.5,37.9,10,54.84,6.41,16.78,8.7,32.46,9.38,50.52A349.33,349.33,0,0,1,404,468.66c-1.2,12.89-1.18,26.52-1.5,39.84q-.42,17-.83,34-.33,13.51-.67,27-.23,9.5-.46,19l-.24,10,0,1.22c0,1.36,2.14,0,2.17-1.09Z"/><path class="cls-2" d="M409.33,598c0-1.71.09-3.42.13-5.13l.36-14.7.57-23.37.75-30.77c.3-12.41-.07-25.6.91-37.23,1.12-13.17,5.4-28.24,5.7-41.45.34-15.21-2.67-32.67-4.06-48.31-1.64-18.44-12.46-36.64-15.94-53.64-3.84-18.77,4.82-36,11.61-54.14,5.22-13.92,7.16-30.79,11.78-45.1,2.65-8.19,1.56-20.12.19-28.05-3.57-20.73,8.55-49.17,11.45-71.33,3.6-27.46,8.43-58.68,3.89-84.86-2-11.43-6.16-27.46-15.64-35.92-8.15-7.27-6-22.1-4.51-31.54,2.26-14.67,7.16-30.76,8.4-45.93.91-11.09.91-22.81,1.19-34.24l.66-27q.23-9.5.46-19l.24-9.95,0-1.22c0-1.36-2.14,0-2.17,1.09l-.12,5.13-.36,14.7q-.28,11.68-.58,23.37c-.25,10.25-.42,20.59-.75,30.76a235.1,235.1,0,0,1-4.87,40.55c-2.86,13.78-8.31,29.19-6.2,43.44,1.38,9.27,10.95,15.69,15.29,23.54,10.51,19,9.83,43,8.86,63.78-1.34,28.85-6.48,60.42-13.46,87.82-3.65,14.31-1.42,27.59-1.52,41.84-.08,11.28-5.06,24.72-7.92,35.87-4.44,17.29-12.91,34-18.39,50.7-6,18.31,4.41,38.58,10.17,55.14,5.47,15.71,6.18,33,7.9,50.43,1.5,15.28,1.46,30.15-1.14,45.13-2.28,13.08-2.52,26-2.85,39.49q-.42,17-.83,34l-.66,27q-.24,9.51-.47,19l-.24,9.95,0,1.22c0,1.36,2.15,0,2.17-1.09Z"/><path class="cls-2" d="M416.25,597.42c.05-1.71.09-3.42.13-5.13l.36-14.7.57-23.37.75-30.77c.31-12.42-.29-25.86,1.58-37.05,2.17-12.94,8-27.57,8.27-40.78.35-15.32-5.21-32.94-6.72-49.1C419.44,377.84,410,360,406.4,342.94c-3.92-18.62,5.55-36.57,11.32-54.26,4.47-13.72,5.7-30.95,9.49-46.08,2.69-10.75,1.5-14-.19-25.46-3.17-21.66,4.59-50.11,6.67-71.89,2.74-28.84,7.64-59.14,7-86.94-.24-11.22-1.05-28.8-10.14-37.7C423,13.22,424.65-.7,425.78-10.23c1.69-14.14,5.94-29.22,6.42-44,.35-11.26.55-22.68.83-34l.66-27q.22-9.5.46-19c.08-3.32.17-6.63.25-9.95l0-1.22c0-1.36-2.15,0-2.18,1.09l-.12,5.13-.36,14.7-.57,23.37q-.37,15.38-.76,30.77c-.32,13.45-1.05,26.4-3.32,39.31C424.8-17.88,420.05-3,422.36,10.6c1.71,10,10,11.62,13.51,23.53,6.21,21.29,3.52,45.15,1.78,66.84-2.41,30.1-5.89,61-10.28,90.67-2.27,15.37-.85,25.49-.22,39.1.47,10.39-5,23.93-7,34.52-3.35,17.85-10.44,34.63-16,51.93-5.87,18.38,4.47,38.69,10.13,55.34,5.27,15.49,5.56,33.93,8.25,50.73,2.43,15.15,2.76,29.93-1.16,45.12-3.45,13.38-4.72,25-5.06,38.92q-.42,17-.83,34l-.66,27q-.24,9.51-.47,19l-.24,9.95,0,1.22c0,1.36,2.15,0,2.17-1.09Z"/><path class="cls-2" d="M423.18,596.82l.12-5.13.36-14.7.57-23.37q.38-15.37.76-30.77c.31-12.84-.22-25.27,3.08-36.66,3.83-13.21,10.52-26.67,10.83-40.12.35-15.58-7.61-34.13-10.09-50-2.76-17.66-11.17-36.71-14.72-53.79-3.86-18.59,5.78-36.75,11.07-54.25,4.21-13.93,4.95-31.8,8.49-47.37,2.44-10.73.66-13.35-.31-24.07-2.1-23.17-.43-48.12,1-71.45,1.71-29.15,6.25-58.87,9.95-87.64,1.51-11.79,4.24-29.23-4.65-39.46-6.89-7.92-5.78-20.95-4.89-30.64,1.24-13.58,4.31-28.28,4.42-42.31.08-11.16.55-22.68.83-34l.66-27q.24-9.51.47-19l.24-10,0-1.22c0-1.36-2.15,0-2.17,1.09-.05,1.71-.09,3.42-.13,5.13l-.36,14.7-.57,23.37L437.37-71c-.32,13-.46,25.78-2.18,38.38s-5.64,27.45-3.34,40.27c1.78,10,10.21,13,12,24.47,3.3,21.46-3.19,46.58-5.62,68.5-3.36,30.28-5.38,61-6.57,91.49-.53,13.7.72,25.25,1.53,37.37.67,10.22-4.8,24-6.33,34.28-2.71,18.1-9.15,35.07-14.72,52.85-5.77,18.4,4.32,38.65,10,55.43,5.35,15.81,6.73,34.68,10.4,51.44,3.3,15,4.11,29.84-1.17,45.12-4.71,13.58-7.65,23.83-8.13,38.12-.37,11.24-.55,22.68-.83,34l-.66,27q-.23,9.5-.46,19c-.08,3.32-.17,6.63-.25,10l0,1.22c0,1.36,2.15,0,2.18-1.09Z"/><path class="cls-2" d="M430.1,596.22l.12-5.13.36-14.7q.29-11.68.58-23.37l.75-30.76c.33-13.48.44-24.71,5.3-36.09,5.06-11.85,13.94-25.88,13.4-39.45-.69-17.08-8.7-34.27-13.41-50.83-5-17.59-13-37.1-16.42-54.32-3.69-18.7,5.47-36.52,10.89-54.15,4.46-14.52,5.52-32.77,8.8-48.89,2.26-11.09.37-13.48-.23-23.82-1.35-23.19-5.92-46.82-5.44-70.14a364,364,0,0,1,12.61-86.95c3.8-14.07,9.19-27.77.53-41.1-6-9.23-5.43-21-4.76-30.94.9-13.29,2.52-27.21,2.86-41q.42-17,.83-34l.66-27q.24-9.51.47-19l.24-10,0-1.22c0-1.36-2.14,0-2.17,1.09,0,1.71-.09,3.42-.13,5.13l-.36,14.7L445-102.39l-.75,30.77C444-59,444-46.11,442.93-33.95s-4.46,27-2.11,39.32c1.77,9.37,9.63,16.81,10.2,26.07,1.29,21-9.47,46.87-12.53,68.92-4.12,29.66-5.57,60.56-2.6,90.88,1.16,11.82,2.91,25.21,3.77,36.13.83,10.44-4.26,24.45-5.85,35.17-2.74,18.53-9.14,35.43-14.69,53.35-5.69,18.39,4.31,38.65,9.82,55.43,5.4,16.48,9.68,35.62,14.36,52.54,4.1,14.83,5.39,30.08-1.2,45.11-5.75,13.12-10.93,23.36-11.94,37.13-.8,10.76-.56,22.68-.83,34q-.34,13.51-.67,27-.23,9.5-.46,19l-.24,10,0,1.22c0,1.36,2.14,0,2.17-1.09Z"/><path class="cls-2" d="M437,595.62c0-1.71.09-3.42.13-5.13l.36-14.7.57-23.37c.25-10.25.43-20.58.75-30.76.44-13.93,2-24,8.22-35.34s16.48-25.11,15.79-38.82c-.88-17.71-9.44-34.44-16.74-51.67-7.55-17.79-16.43-37.71-19.58-55.13-3.36-18.54,4.49-35.6,10.65-54,5.25-15.65,7.44-33.63,10.48-50.53,2.12-11.81,1.8-13.91-.11-24.72-4-22.81-11.5-45-12.09-68-.71-28.09,4.67-57.83,15-84.88,5-13.13,12.36-28.61,5.14-42.6-5.08-9.83-4.87-21.3-4.43-31.73.55-13.08,1.45-26.8,1.78-40.28q.42-17,.83-34l.67-27q.23-9.49.46-19l.24-9.95,0-1.22c0-1.36-2.14,0-2.17,1.09l-.12,5.13-.36,14.7q-.29,11.69-.58,23.37l-.75,30.77c-.3,12.42-.29,25.18-.93,37.25-.64,12.28-3.31,26.63-1.07,38.84,1.88,10.24,7.77,18.88,7.72,28.4-.11,20.15-14.47,45.54-18.21,68-4.76,28.59-5.24,59.85,1.61,88.84,2.88,12.16,5.57,23.88,6.27,35.47.69,11.37-3.5,25.51-5.54,37.19-3.27,18.71-10.44,35.67-15.89,53.39-5.63,18.33,4,38.42,9.56,55.33,5.76,17.49,14.25,36.67,19.93,54,4.83,14.71,6.67,30.37-1.22,45.11-6.57,12.26-14,23.51-16,36.08-1.63,10-.92,22.59-1.19,33.92l-.66,27q-.24,9.5-.47,19l-.24,10,0,1.22c0,1.36,2.14,0,2.17-1.09Z"/><path class="cls-2" d="M443.94,595c.05-1.71.09-3.42.13-5.13l.36-14.7.57-23.36c.25-10.26.1-21,.75-30.77.91-13.69,4.26-23.11,11.71-34.43s18.09-23.61,17.89-38.28c-.25-18.63-11.39-36.3-20.42-52.57-10.08-18.14-20.22-37.43-23.49-56.07-3.25-18.49,3.63-35,10.79-53.77,6.49-17,10.1-34.08,12.89-52.16,2-12.92,2.89-15.71-.73-26.74-7.15-21.85-16.28-43.13-17.88-65.3-2-27.64,5-54.86,16.88-81.44,5.81-13.06,14.83-29.12,9.22-44-4-10.68-4.11-22-3.9-33,.26-13.06.85-26.62,1.18-39.94l.83-34,.66-27q.22-9.5.46-19c.08-3.31.17-6.63.25-9.95l0-1.22c0-1.36-2.15,0-2.18,1.09l-.12,5.13-.36,14.7-.57,23.37q-.37,15.39-.76,30.77c-.3,12.41-.51,24.91-.91,37.23C456.82-23,455-9.1,457,3.08c2,11.74,6.34,19.65,4.87,30.89-2.73,20.86-18.36,44-22.73,66.26a164.38,164.38,0,0,0,5.52,85.21c3.79,11.1,9.12,23.62,9.24,35.67.14,13-3,27.68-5.58,39.8-3.77,17.71-12.61,35.63-17.93,53.36-5.53,18.41,2.55,38.42,9.23,55.16,7.43,18.63,19.86,37.5,26.75,55.63,5.52,14.52,7.92,30.66-1.25,45.1-7.4,11.67-15.55,22.56-19.65,35.13-3.21,9.86-2,22.61-2.31,33.63l-.66,27q-.24,9.49-.47,19l-.24,9.95,0,1.22c0,1.37,2.15,0,2.17-1.09Z"/><path class="cls-2" d="M450.87,594.42l.12-5.13.36-14.7.57-23.36c.25-10.25-.27-21.36.87-30.74,1.59-13.18,6.5-22.58,14.89-33.6s20.38-22.57,20.11-37.71c-.34-19.51-13.56-37.3-24.24-53.49-12.18-18.48-24.38-37.09-27.76-57-3.16-18.63,3.33-34.89,11.7-53.45,7.87-17.45,13.37-34.79,15.32-53.7,1-9.48,2.47-20.36-1.85-29.43-9.67-20.31-20-41.41-22.74-62.52-3.49-26.65,5.21-51.5,18-77.06,6.78-13.49,16.48-29.33,12.73-45-2.73-11.39-3.26-23.18-3.16-34.81.12-13.12.64-26.62,1-39.93l.83-34,.66-27q.24-9.5.47-19l.24-9.95,0-1.22c0-1.36-2.15,0-2.17,1.1-.05,1.71-.09,3.42-.13,5.13l-.36,14.69-.57,23.37-.75,30.77q-.46,18.62-.91,37.23c-.33,13.15-1.36,26.84.13,39.11s4.74,21.3,2.09,33.25C461.74,57,445,79,440,100.39c-6.23,27.17-1.94,54,9.09,80.64,3.81,9.23,12.73,25.14,12.37,36.24a196.53,196.53,0,0,1-6.14,42.84c-4.7,17.41-15.16,35-20.37,53.29-5.35,18.76,2,39.27,9.76,55.1,9.25,18.92,25.22,38.22,33.4,57.22,6.9,16,7.82,30.62-1.27,45.09-6.92,11-17.32,21.85-23,34.26-4.42,9.63-3.51,22.38-3.78,33.25l-.66,27q-.23,9.49-.46,19c-.08,3.32-.17,6.64-.25,9.95l0,1.22c0,1.37,2.15,0,2.18-1.09Z"/><path class="cls-2" d="M457.79,593.82l.12-5.13.36-14.7q.28-11.68.58-23.36c.25-10.19-.53-21.42,1.22-30.65,2.48-13.1,8.24-22.34,17.34-33s22.72-21.69,22.37-37.12c-.47-20.2-16.07-38.28-27.9-54.39-12.57-17.11-29.6-36.85-32-57.94-2.27-20.19,3.82-34.53,13.2-53,8.78-17.3,16.06-35.28,17.51-55,.76-10.34,2.41-23.42-3.18-32.64-11-18.2-22.52-40-26.54-60-5.05-25.23,5.4-47.86,18.65-72.1,7.54-13.78,17.8-29.52,15.48-45.71a245.56,245.56,0,0,1-2.27-37c.15-13.15.65-26.65,1-40q.42-17,.83-34l.66-27q.24-9.5.47-19l.24-10,0-1.21c0-1.37-2.15,0-2.17,1.09l-.13,5.13-.36,14.69-.57,23.37L472-74q-.45,18.61-.91,37.23c-.33,13.41-1.05,27.16,0,40,1.13,13.28,3.31,22.84-.34,35.4-6,20.52-23.63,41.6-29.1,62.12-6.84,25.63.07,50.68,12.24,75.53,4.54,9.27,15.5,25.23,15.33,37-.23,15.5-2.39,32-6.95,46.17-5.58,17.34-17.68,34.7-23,53.12-5.56,19.19,2,39.45,11.1,55.17,11.24,19.47,29.88,38.48,39.18,58.6,7.61,16.47,8.88,30.67-1.33,45.07-7.42,10.47-19.59,20.74-26,33.5-5.06,10.13-5,21.84-5.27,32.87q-.31,13.5-.66,27l-.46,19-.24,10,0,1.22c0,1.37,2.14,0,2.17-1.09Z"/><path class="cls-2" d="M464.71,593.22c0-1.71.08-3.42.13-5.13l.36-14.7c.19-7.79.36-15.6.57-23.36.27-10.07-.75-21.33,1.62-30.55,3.4-13.22,9.44-22.17,19-32.52,9.35-10.12,24.87-21.23,24.42-36.59-.6-20.47-18.68-39.44-31-55.15-14.53-18.51-31.76-38.15-35.6-58.71C440.75,318,449.1,302.35,459.14,284c9.86-18,17.22-36,19.23-55.72,1.5-14.77,2.09-23.64-4.4-36.31-9.49-18.51-23.86-38.42-29.11-58-6.4-23.84,5.57-44.41,18.62-66.92C471.66,53,482.09,37.39,481,20.71c-.84-12.88-1.57-26-1.32-39.2s.66-26.65,1-40q.42-17,.83-34,.33-13.51.67-27,.23-9.49.46-19l.24-10,0-1.21c0-1.37-2.14,0-2.17,1.09,0,1.71-.08,3.42-.13,5.13q-.16,7.35-.35,14.7-.3,11.67-.58,23.36l-.75,30.77Q478.45-56,478-37.39c-.34,13.74-1,27.74-.33,41.1.76,14.25,2.34,24.61-2.29,37.35-7.07,19.49-25,40.8-31,60.27-7.31,23.41,2.36,47.37,14.87,70.13,6,10.92,17.57,24.54,17.77,37.81a142.46,142.46,0,0,1-7.75,49.55c-6.26,17.52-19.38,35.37-25.57,52.88-6.59,18.63,2.6,39.35,12.8,55.27,12.78,19.95,32.3,39.51,43.36,59.58,8.95,16.25,10.49,30.4-1.35,45.07-8.4,10.4-20.85,20.34-28,33-5.69,10-6.2,21.37-6.5,32.55-.25,9-.44,18-.66,27q-.24,9.5-.47,19l-.24,10,0,1.22c0,1.37,2.14,0,2.17-1.09Z"/><path class="cls-2" d="M471.63,592.62c.05-1.71.09-3.42.13-5.13l.36-14.7c.19-7.79.48-15.67.57-23.36.12-9.85-.74-21.4,1.89-30.48,3.82-13.22,10.1-22.07,19.93-32.28,9.61-10,26.21-21.64,25.87-36.21-.47-19.84-20.2-39.83-33.06-55.66-14.43-17.75-34.14-38.14-37.74-59.21-3.27-19.14,5.83-34,16.11-51.93s18.11-36.21,20.15-56c1.67-16.17,2.07-26.38-5.17-40.22-9.39-18-24.47-37.07-30.41-56.06-7-22.45,5.51-41.4,18-62.28,8.64-14.44,19.14-30.08,18.75-47-.31-13.35-.77-27.33-.43-41.18q.48-20,1-40l.84-34,.66-27q.23-9.49.46-19,.12-5,.25-10l0-1.21c0-1.37-2.15,0-2.18,1.09l-.12,5.13-.36,14.7L486.58-106q-.37,15.39-.76,30.77-.45,18.61-.91,37.23c-.34,14-1.28,28.42-.77,42.11.55,15,1.46,26-3.74,39.21-7.49,19.14-25.61,40-31.92,58.8-7.17,21.37,4.24,43.82,16.61,64.76,6.84,11.58,18.77,25.16,19.36,39.19a134.11,134.11,0,0,1-8.22,52.29c-6.63,17.57-19.5,34.93-27.08,52.7C441,330.13,452.5,351,462.88,366.3c13.68,20.19,33.78,39.8,45.89,60.18,10,16.78,11.76,30.1-1.32,45.08-9,10.27-21.62,20.12-29.26,32.64-6,9.87-7.15,21.32-7.48,32.29-.27,8.82-.29,18-.51,27.06q-.24,9.5-.47,19l-.24,10,0,1.21c0,1.37,2.15,0,2.17-1.09Z"/><path class="cls-2" d="M478.56,592l.12-5.13.36-14.7c.19-7.78.51-15.7.57-23.36.08-9.78-.72-21.42,1.94-30.46,3.89-13.22,10.22-22.06,20.1-32.25,9.69-10,26.48-21.84,26.18-36.12-.4-19.57-20.45-39.83-33.48-55.77-14.54-17.78-34.39-38.18-38.13-59.3-3.37-19,6.23-33.78,16.54-51.51,10.45-18,18.17-36.24,20.2-56.2,1.45-14.24,2.7-30.27-5.37-43.69-10.77-17.91-24.38-36-30.69-54.34-7.22-21,5.33-38.93,17.16-58.42,8.91-14.69,19-30.17,19.19-47.62.17-14-.08-28.53.27-42.84l1-40,.83-34,.66-27q.24-9.5.46-19,.14-5,.25-10l0-1.21c0-1.37-2.15,0-2.17,1.09-.05,1.71-.09,3.42-.13,5.13l-.36,14.7-.57,23.36-.75,30.77q-.47,18.61-.91,37.23c-.35,14.21-1.12,28.83-1,42.64.09,15.53.73,27.5-4.8,41.24C478.46,64,460.68,84.17,454.24,102.6c-6.94,19.87,5.64,41.05,17.44,60.18,7.57,12.27,19.46,26,19.89,40.89.54,18.67-1.71,37.39-8.21,54.41-6.7,17.56-19.2,34.6-27.7,52.5-9.07,19.13,3.8,40.38,14,55.1,14,20.27,34.35,39.91,46.78,60.39,10.38,17.11,12.23,29.87-1.31,45.08-9.1,10.24-23.13,20.28-29.69,32.52-5.62,10.5-7.34,19.84-7.85,32.2-.35,8.8-.22,18.07-.44,27.08l-.46,19c-.08,3.32-.17,6.64-.25,10l0,1.21c0,1.37,2.15,0,2.18-1.09Z"/><path class="cls-2" d="M485.48,591.42l.12-5.13.36-14.7.57-23.36c.26-10-.77-21.33,1.76-30.51,3.66-13.25,9.79-22.12,19.51-32.4,9.41-9.95,25.62-21.27,25.18-36.39-.6-20.33-19.55-39.76-32.07-55.41-14.15-17.67-33.49-38-36.82-59-3-19.07,6.12-33.52,16.28-51.22,10.35-18,17.59-36.26,19.38-56.4,1.33-15,2.88-32.24-5-46.6-9.82-17.87-22.46-34.66-30-52.84-8.1-19.65,5.93-38.6,16.09-55.52,9-14.92,18.55-30.48,18.85-48.17.24-14.37.36-29.38.72-44.07q.49-20,1-40,.42-17,.83-34l.66-27q.24-9.5.47-19l.24-9.95,0-1.22c0-1.37-2.15,0-2.17,1.09l-.13,5.13-.36,14.7-.57,23.36-.75,30.77q-.46,18.61-.91,37.23c-.35,14.22-.87,28.6-1.05,42.66-.19,15.45.16,29.73-5.46,43.36-7.61,18.42-22.18,36.72-30.78,55.78-8.41,18.64,8.14,41.62,17.5,56.64,8.14,13.06,18.94,26.6,19.4,42.83.56,19.29-1.24,38.68-7.75,55.86-6.66,17.59-19.36,34.36-27.45,52.28-8.62,19.11,3.47,40.08,13.53,54.88,13.73,20.2,33.87,39.81,46,60.21,10,16.82,11.8,30.07-1.33,45.07-9,10.27-21.66,20.11-29.31,32.62-6,9.87-7.18,21.32-7.52,32.29-.28,8.82-.29,18.05-.51,27.06q-.23,9.49-.46,19l-.24,10,0,1.21c0,1.37,2.14,0,2.17-1.09Z"/><path class="cls-2" d="M492.4,590.82c0-1.71.08-3.42.13-5.13l.36-14.69c.19-7.79.36-15.6.57-23.37.27-10.13-.65-21.37,1.4-30.6,2.93-13.17,8.82-22.26,18.15-32.75s23.74-21.44,23.36-36.86c-.51-20.38-17.24-38.81-29.35-54.75-13-17.14-31.35-37.34-33.83-58.29-2.32-19.66,5.51-33.28,15.29-51.07,10-18.12,16.22-36.16,17.73-56.54,1.17-15.66,2.94-34-4.13-48.89-8.32-17.58-21.62-34.31-28.11-51.52-7.06-18.71,5-36.89,14.73-53.74,9.25-16,16.68-30.9,17.69-48.67.81-14.19.61-29.89,1-44.83l1-40,.83-34,.66-27q.24-9.5.47-19l.24-9.95,0-1.22c0-1.37-2.14,0-2.17,1.09,0,1.71-.08,3.42-.13,5.13l-.36,14.7-.57,23.36L506.59-77q-.45,18.61-.91,37.23-.53,21.33-1,42.66c-.39,16,0,31-5.5,45-7,17.88-21.6,35.85-28.77,54.18s7.08,38.71,16.58,54.34c8.52,14,17.75,28.29,17.91,45,.17,18.8-.78,39.24-6.87,56.51-6.19,17.52-19.22,34.41-26.34,52.05-7.54,18.65,2.58,39.29,12.45,54.59,12.88,20,32.44,39.54,43.59,59.64,9,16.28,10.58,30.37-1.39,45.07-8.47,10.39-20.91,20.31-28.12,32.93-5.72,10-6.25,21.35-6.55,32.53-.25,9-.44,18-.66,27q-.24,9.5-.47,19l-.24,10,0,1.22c0,1.36,2.14,0,2.17-1.1Z"/><path class="cls-2" d="M499.32,590.22l.13-5.12.36-14.7.57-23.37c.25-10.23-.38-21.41,1-30.7,1.95-13.11,7.31-22.48,16-33.3,8.87-11,21.44-22.14,21.16-37.43-.35-19.85-14.62-37.74-25.87-53.9-12.07-17.33-27.48-36.73-29.6-57.32-2-19.29,4.93-33.36,13.9-51a140.68,140.68,0,0,0,15.53-56.53c1.11-17.07,2-35.08-3-50.61-5.43-16.79-20.71-34.54-25.12-50.67-5-18.35,3-34.35,13-52.79,8.78-16.23,14.85-30.89,15.74-49.13.72-14.66.74-30.09,1.11-45.13q.48-20,1-40l.84-34,.66-27q.22-9.49.46-19,.12-5,.25-9.95l0-1.22c0-1.37-2.15,0-2.18,1.09l-.12,5.13-.36,14.7-.57,23.36q-.39,15.39-.76,30.77-.45,18.62-.91,37.23-.52,21.33-1,42.66c-.39,16.06-.19,31.43-5,46.18-5.82,18-20,34-25.94,52.83-6,19.16,5.91,37.2,14.89,53,9.12,16,14.86,28.87,15.67,47.2.84,18.82-.44,39.31-5.82,56.54s-17.86,34.11-24.13,51.92c-6.52,18.52,1.6,38.78,10.58,54.18,11.38,19.49,30.14,38.52,39.53,58.67,7.67,16.48,8.92,30.66-1.4,45.06-7.49,10.46-19.68,20.71-26.1,33.46-5.1,10.13-5.07,21.82-5.33,32.85q-.32,13.5-.66,27-.24,9.5-.47,19l-.24,10,0,1.22c0,1.36,2.15,0,2.17-1.1Z"/><path class="cls-2" d="M506.25,589.63l.12-5.13.36-14.7.57-23.37c.25-10.25-.08-21.18.76-30.77,1.16-13.41,5.29-22.74,13.17-34s19.11-23.06,18.9-38c-.25-19-12.26-36.77-22.07-53-10.64-17.55-22.68-36.42-24.6-56.15-1.82-18.72,4.5-33.47,12.42-51,8.26-18.31,11.68-36.47,12.9-56.43,1.05-17.22,2.05-36.27-1.82-51.71-4.07-16.21-17.6-34.72-21.56-50.57-4.46-17.85,2.66-34.07,11.53-52.28,8-16.44,12.56-31,13.17-49.42.51-14.9.74-30.09,1.11-45.13l1-40q.4-17,.83-34l.66-27,.46-19c.09-3.32.17-6.63.25-10l0-1.22c0-1.36-2.15,0-2.18,1.09l-.12,5.13-.36,14.7L521.19-109l-.75,30.76Q520-59.6,519.52-41q-.51,21.33-1,42.66c-.39,16,0,32-4,46.87-4.75,17.66-19.56,34.79-22.87,51.92-3.63,18.82,3.81,34.08,13,52.27,8.36,16.52,12.2,30.32,12.83,48.87.63,18.75-.27,39.23-4.71,56.51s-17.37,35-21.33,51.86c-4.34,18.54.11,36.36,8.59,53.72,9.22,18.88,25.59,38.28,33.85,57.33,6.94,16,7.83,30.62-1.35,45.07-7,11-17.44,21.8-23.21,34.21-4.47,9.61-3.58,22.35-3.85,33.23l-.66,27q-.22,9.5-.46,19-.14,5-.25,10l0,1.22c0,1.36,2.15,0,2.18-1.09Z"/><path class="cls-2" d="M513.17,589l.12-5.13.36-14.7.57-23.37c.26-10.25.32-20.71.76-30.77.6-13.92,2.93-23.55,9.72-34.94s17.48-24.76,16.75-38.57c-.94-18.05-10-34.76-18.3-52.05S505.53,353.14,504,334.61c-1.55-18.34,3.9-33.55,11-51.11,7.25-18,9-37.13,10.05-56.26,1-17.27,1.73-36.31-.8-52.26-2.62-16.53-14.14-35.08-17.6-51.06-3.85-17.75,2.68-34.16,10.33-52.15,6.92-16.29,9.67-31.23,10.12-49.32q.54-22.56,1.1-45.13l1-40q.42-17,.83-34l.66-27q.24-9.49.47-19l.24-10,0-1.22c0-1.36-2.15,0-2.17,1.09,0,1.71-.09,3.42-.13,5.13l-.36,14.7-.57,23.37-.75,30.76q-.47,18.61-.91,37.23L525.4,1.07C525,16.94,526,34,522.58,48.24c-4,16.61-16.38,35.22-19.7,51.38-3.64,17.76,3.54,34.14,11.2,52.14,7.07,16.59,9.12,31.81,9.61,50.05.5,18.72-.35,39.07-3.71,56.4-3.31,17.07-14.28,35.53-18.12,51.87-4.12,17.55.05,35.79,6.85,53.33C515.87,381.84,529,401,536,419.16c5.55,14.51,7.94,30.64-1.32,45.08-7.48,11.65-15.67,22.5-19.87,35.07-3.28,9.85-2.11,22.61-2.38,33.62l-.66,27q-.23,9.51-.46,19-.12,5-.25,9.95l0,1.22c0,1.36,2.15,0,2.18-1.09Z"/><path class="cls-2" d="M520.09,588.43c0-1.71.08-3.42.13-5.13l.36-14.7.57-23.37.75-30.77c.33-13.71,1-24.54,6.43-35.79,5.58-11.55,15.16-25.54,14.58-39.14-.74-17.34-8.94-34.27-14.8-51.18-5.94-17.13-12-36.48-13.72-53.63-1.77-17.41,3.83-34,9.57-51.32s6.27-37.44,7.24-56A406.39,406.39,0,0,0,531,175c-1.41-17.54-10.3-35.48-13.3-51.86-3.22-17.6,2.51-34.21,9-52.09,5.87-16.26,6.89-31.58,7.32-49.15q.56-22.56,1.1-45.13l1-40q.42-17,.83-34l.66-27q.24-9.49.47-19l.24-9.95,0-1.22c0-1.36-2.14,0-2.17,1.09,0,1.71-.08,3.42-.13,5.13l-.36,14.7L535-110.18l-.75,30.77q-.45,18.61-.91,37.23-.52,21.32-1,42.65c-.39,15.75.45,32.81-1.76,47.18-2.53,16.49-13.51,35-16.45,51.14-3.21,17.62,3.6,34.64,9.52,52.36,5.4,16.14,5.91,33.24,6.26,50.87a388.23,388.23,0,0,1-3,56.2c-2.25,17.44-11.21,35.47-14.6,52-3.59,17.41.65,34.72,5.6,53.06s14.51,36.81,20.21,54.06c4.86,14.69,6.7,30.38-1.3,45.09-6.64,12.22-14.12,23.47-16.22,36-1.68,10-1,22.58-1.23,33.91l-.66,27q-.24,9.51-.47,19L518,588.3l0,1.22c0,1.36,2.14,0,2.17-1.09Z"/><path class="cls-2" d="M527,587.83c0-1.71.09-3.42.13-5.13l.36-14.7.57-23.37.75-30.77c.32-13.13,0-24.92,4-36.43,4.61-13.31,11.67-26.24,12-39.81.39-15.75-8.29-34.34-11.55-50.35-3.3-16.21-7.33-35.87-8.7-52.5-1.42-17.23,4.15-34.69,8-51.64,3.88-17.26,4.09-37.15,5-55.56.86-17.44.49-35.21.06-52.83-.45-18.34-6.62-35.67-9.13-52.45-2.61-17.43,2.37-34.31,7.54-52,4.66-16,4.51-32.08,4.92-49L542-23.88l1-40,.84-34,.66-27,.46-19c.08-3.32.16-6.63.25-9.95,0-.41,0-.81,0-1.22,0-1.36-2.14,0-2.17,1.09l-.12,5.13-.36,14.7L542-110.78Q541.57-95.4,541.2-80q-.45,18.62-.91,37.23-.52,21.32-1,42.65c-.39,15.69,0,32.24-1.15,47.05-1.3,16.82-10.43,34.9-13,51.05-2.77,17.41,3.42,35.08,7.59,52.51,3.84,16,3.41,34.49,3.46,51.7.06,18.42-1.25,37.34-2.72,55.85-1.43,18.11-8,35.48-11,52.22-3.06,17.28.62,34.8,4.4,52.82,3.72,17.75,9,35.53,13.69,52.48,4.14,14.82,5.43,30.08-1.27,45.09-5.83,13.07-11.12,23.36-12.18,37.07-.83,10.72-.55,22.68-.83,34l-.66,27q-.24,9.5-.47,19l-.24,10,0,1.22c0,1.36,2.15,0,2.17-1.09Z"/><path class="cls-2" d="M533.93,587.23c.05-1.71.09-3.42.13-5.13l.36-14.7L535,544l.75-30.77c.31-12.51-.28-25.74,2.13-36.91,2.8-13,9.11-27.2,9.43-40.48.37-15.42-6.87-34-8.2-49.48-1.38-16-3.8-35.09-4.85-51.65-1.07-17.13,4-35.23,6.35-52,2.46-17.14,2.43-36.93,3.24-55.16.79-17.58.37-35.63.37-53.18,0-18.14-3.58-35.78-5.57-52.92s2.56-34.66,6.12-51.94c3.21-15.57,2.63-32.44,3-48.92l1.11-45.13q.48-20,1-40,.4-17,.83-34l.66-27q.23-9.51.46-19,.13-5,.25-9.95l0-1.22c0-1.36-2.15,0-2.18,1.09l-.12,5.13-.36,14.7-.57,23.37-.75,30.77-.92,37.23q-.51,21.33-1,42.65c-.38,15.69-.55,31.6-1.15,47.05-.67,17.32-7.21,34.64-9.41,50.86-2.34,17.21,3.19,35.6,5.6,52.61,2.29,16.12,1.31,35.15,1.28,52.46,0,18.34-1.47,37.17-2.41,55.5-.92,17.95-5.33,35.51-7.85,52.48-2.55,17.17.71,35,3.19,52.57,2.42,17.12,4.38,34.26,8.13,51.14,3.34,15,4.15,29.84-1.24,45.1-4.79,13.57-7.82,23.77-8.32,38.07-.39,11.22-.55,22.68-.83,34l-.66,27q-.22,9.5-.46,19c-.09,3.32-.17,6.63-.25,10l0,1.22c0,1.36,2.15,0,2.17-1.09Z"/></g></svg>