<?xml version="1.0" encoding="utf-8"?>
<!-- Generator: Adobe Illustrator 21.1.0, SVG Export Plug-In . SVG Version: 6.00 Build 0)  -->
<svg version="1.1" id="Layer_1" xmlns="http://www.w3.org/2000/svg" xmlns:xlink="http://www.w3.org/1999/xlink" x="0px" y="0px"
	 viewBox="0 0 351 44.2" style="enable-background:new 0 0 351 44.2;" xml:space="preserve">
<style type="text/css">
	.st0{fill:none;}
	.st1{fill:#62BF00;}
	.st2{fill:#FF7B00;}
	.st3{fill:#2E8FFF;}
</style>
<symbol  id="Think_Create_Achieve" viewBox="-239.6 -29.1 479.2 58.3">
	<rect x="-239.6" y="-29.1" class="st0" width="479.2" height="58.3"/>
	<rect x="-141.6" y="0.2" class="st1" width="51.7" height="4.3"/>
	<rect x="-2.6" y="0.2" class="st2" width="51.7" height="4.3"/>
	<rect x="168.5" y="0.2" class="st3" width="51.7" height="4.3"/>
	<path class="st1" d="M-210.5-5.4V9.8h-4.3V-5.4h-5.9v-4.1h16.2v4.1L-210.5-5.4z"/>
	<path class="st1" d="M-197.9,9.8h-4.1V-9.9h4.1v7.1c1-0.8,2.2-1.3,3.5-1.3c3.5,0,5.1,2.4,5.1,5.4v8.5h-4.2V2
		c0.1-1.2-0.7-2.2-1.8-2.3c-0.1,0-0.2,0-0.4,0c-1.2,0-2.2,0.9-2.2,2.1c0,0,0,0.1,0,0.1V9.8z"/>
	<path class="st1" d="M-183.8-10.3c1.3,0,2.4,1.1,2.5,2.4c0,1.3-1.1,2.4-2.4,2.5c-1.3,0-2.4-1.1-2.5-2.4c0,0,0,0,0,0
		C-186.2-9.2-185.1-10.3-183.8-10.3z M-185.8,9.8V-3.7h4.1V9.8L-185.8,9.8z"/>
	<path class="st1" d="M-174,9.8h-4.1V-3.7h4v1.5c0.9-1.2,2.3-2,3.8-1.9c3.4,0,4.9,2.4,4.9,5.4v8.5h-4.1V2c0.1-1.2-0.7-2.2-1.9-2.3
		c-0.1,0-0.2,0-0.3,0c-1.2,0-2.2,0.9-2.2,2.2c0,0.1,0,0.1,0,0.2V9.8z"/>
	<path class="st1" d="M-153.6,2l5.4,7.8h-5.1l-3.2-4.8l-1.3,1.4v3.3h-4.1V-9.9h4.1V0.8l4.1-4.5h5.4L-153.6,2z"/>
	<path class="st2" d="M-62.9,9.8V-3l-5,12.8h-3.5l-5-12.6V9.8h-4.2V-9.5h5.6l5.3,13.1l5-13.1h5.9V9.8H-62.9z"/>
	<path class="st2" d="M-41.7,3c0.1,4-3,7.3-6.9,7.5c-4,0.1-7.3-3-7.5-6.9c0-0.2,0-0.4,0-0.5c0.1-4,3.5-7.1,7.5-6.9
		C-44.9-3.8-41.9-0.7-41.7,3z M-45.9,3c0.2-1.7-1.1-3.2-2.8-3.4s-3.2,1.1-3.4,2.8c0,0.2,0,0.4,0,0.6c-0.2,1.7,1.1,3.2,2.8,3.4
		s3.2-1.1,3.4-2.8C-45.8,3.4-45.8,3.2-45.9,3z"/>
	<path class="st2" d="M-31.3,9.8h-4.2L-41-3.7h4.5l3.1,8.4l2.9-8.4h4.4L-31.3,9.8z"/>
	<path class="st2" d="M-12.1,5.9c-0.6,2.3-2.8,4.3-6.2,4.3c-3.8,0.1-7-2.9-7.1-6.7c0-0.2,0-0.3,0-0.5c-0.1-3.8,2.8-6.9,6.6-7.1
		c0.1,0,0.1,0,0.2,0c4.2,0,6.8,2.6,6.8,7c0,0.4,0,0.9-0.1,1.3h-9.4c0.2,1.6,1.5,2.7,3.1,2.6c1.2,0.1,2.4-0.7,2.7-1.8L-12.1,5.9z
		 M-15.9,1.4C-16,0-17.1-1-18.5-0.9c0,0-0.1,0-0.1,0c-1.4-0.1-2.5,0.9-2.7,2.3L-15.9,1.4z"/>
	<path class="st3" d="M70.2,5.9h-7.5l-1.4,3.9h-4.5l7.3-19.3h5l7.2,19.3h-4.7L70.2,5.9z M64.2,1.9h4.7l-2.3-6.7L64.2,1.9z"/>
	<path class="st3" d="M81.1,3c-0.1,1.7,1.1,3.2,2.8,3.3c0.1,0,0.2,0,0.3,0c1.3,0.1,2.4-0.8,2.8-2l3.6,1.1c-0.8,2.9-3.5,4.8-6.5,4.7
		c-3.9,0.1-7.2-3-7.3-6.9c0-0.1,0-0.2,0-0.3c-0.1-3.9,2.9-7.1,6.8-7.2c0.1,0,0.2,0,0.3,0c3-0.2,5.8,1.8,6.5,4.7l-3.7,1.1
		c-0.3-1.2-1.5-2.1-2.7-2c-1.7,0-3.1,1.3-3.1,3C81.1,2.8,81.1,2.9,81.1,3z"/>
	<path class="st3" d="M97.4,9.8h-4.1V-9.9h4.1v7.1c1-0.8,2.2-1.3,3.5-1.3c3.5,0,5.1,2.4,5.1,5.4v8.5h-4.1V2c0.1-1.2-0.7-2.2-1.8-2.3
		c-0.1,0-0.2,0-0.4,0c-1.2,0-2.2,0.9-2.2,2.1c0,0,0,0.1,0,0.1V9.8z"/>
	<path class="st3" d="M111-10.3c1.3,0,2.4,1.1,2.5,2.4s-1.1,2.4-2.4,2.5c-1.3,0-2.4-1.1-2.5-2.4c0,0,0,0,0,0
		C108.6-9.2,109.6-10.3,111-10.3z M109,9.8V-3.7h4.1V9.8L109,9.8z"/>
	<path class="st3" d="M129,5.9c-0.6,2.3-2.8,4.3-6.2,4.3c-3.8,0.1-7-2.9-7.1-6.7c0-0.2,0-0.3,0-0.5c-0.1-3.8,2.8-6.9,6.6-7.1
		c0.1,0,0.1,0,0.2,0c4.2,0,6.8,2.6,6.8,7c0,0.4,0,0.9-0.1,1.3h-9.4c0.2,1.6,1.5,2.7,3.1,2.6c1.2,0.1,2.3-0.6,2.7-1.8L129,5.9z
		 M125.2,1.4C125.2,0,124-1,122.7-0.9c-0.1,0-0.1,0-0.2,0C121.2-1,120,0,119.8,1.4H125.2z"/>
	<path class="st3" d="M139.8,9.8h-4.2l-5.6-13.5h4.5l3.1,8.4l2.9-8.4h4.4L139.8,9.8z"/>
	<path class="st3" d="M159,5.9c-0.6,2.3-2.8,4.3-6.2,4.3c-3.8,0.1-7-2.9-7.1-6.7c0-0.2,0-0.3,0-0.5c-0.1-3.8,2.8-6.9,6.6-7.1
		c0,0,0.1,0,0.1,0c4.2,0,6.8,2.6,6.8,7c0,0.4,0,0.9-0.1,1.3h-9.4c0.2,1.6,1.5,2.7,3.1,2.6c1.2,0.1,2.3-0.6,2.7-1.8L159,5.9z
		 M155.2,1.4C155.2,0,154-1,152.7-0.9c-0.1,0-0.1,0-0.2,0C151.1-1,150,0,149.8,1.4H155.2z"/>
</symbol>
<title>Achieve</title>
<g id="Content">
	
		<use xlink:href="#Think_Create_Achieve"  width="479.2" height="58.3" x="-239.6" y="-29.1" transform="matrix(2.14 0 0 2.14 -120.3874 22.1389)" style="overflow:visible;"/>
</g>
</svg>
