<svg xmlns="http://www.w3.org/2000/svg" xmlns:xlink="http://www.w3.org/1999/xlink" viewBox="0 0 277.09 43.85"><defs><style>.cls-1{fill:none;}.cls-2{fill:#62bf00;}.cls-3{fill:#ff7b00;}.cls-4{fill:#2e8fff;}</style><symbol id="Think_Create_Achieve" data-name="Think–Create–Achieve" viewBox="0 0 479.18 58.27"><rect class="cls-1" width="479.18" height="58.27"/><rect class="cls-2" x="97.99" y="29.31" width="51.74" height="4.26"/><rect class="cls-3" x="236.99" y="29.31" width="51.74" height="4.26"/><rect class="cls-4" x="408.11" y="29.31" width="51.74" height="4.26"/><path class="cls-2" d="M29.11,23.73V38.94H24.81V23.73H18.86V19.62H35.08v4.12Z"/><path class="cls-2" d="M41.71,38.94H37.56V19.21h4.14v7.06A5.09,5.09,0,0,1,45.17,25c3.54,0,5.13,2.43,5.13,5.4v8.51H46.15v-7.8a2.1,2.1,0,0,0-2.21-2.34A2.18,2.18,0,0,0,41.71,31Z"/><path class="cls-2" d="M55.83,18.82a2.43,2.43,0,1,1-2.4,2.43A2.44,2.44,0,0,1,55.83,18.82Zm-2,20.12V25.39h4.14V38.94Z"/><path class="cls-2" d="M65.56,38.94H61.42V25.39h4v1.55A4.44,4.44,0,0,1,69.21,25c3.41,0,4.93,2.43,4.93,5.4v8.51H70v-7.8A2.1,2.1,0,0,0,67.8,28.8a2.2,2.2,0,0,0-2.24,2.37Z"/><path class="cls-2" d="M86,31.09l5.4,7.85H86.31l-3.19-4.77-1.34,1.44v3.33H77.64V19.21h4.14V29.95l4.12-4.55h5.37Z"/><path class="cls-3" d="M176.67,38.94V26.13l-5,12.81h-3.49l-5-12.65V38.94H159V19.62h5.62l5.32,13.06,5-13.06h5.92V38.94Z"/><path class="cls-3" d="M197.86,32.16a7.2,7.2,0,1,1-14.39,0,7.2,7.2,0,0,1,14.39,0Zm-4.14,0a3.07,3.07,0,1,0-6.11,0,3.07,3.07,0,1,0,6.11,0Z"/><path class="cls-3" d="M208.3,38.94h-4.17l-5.56-13.55h4.5l3.13,8.42,2.89-8.42h4.36Z"/><path class="cls-3" d="M227.47,35c-.65,2.34-2.81,4.31-6.24,4.31a6.9,6.9,0,0,1-7.06-7.22A6.83,6.83,0,0,1,220.93,25c4.2,0,6.79,2.59,6.79,7a8.66,8.66,0,0,1-.08,1.28H218.2a2.93,2.93,0,0,0,3.08,2.62A2.62,2.62,0,0,0,224,34.06Zm-3.76-4.5A2.43,2.43,0,0,0,221,28.26a2.58,2.58,0,0,0-2.7,2.29Z"/><path class="cls-4" d="M309.79,35h-7.47l-1.39,3.93H296.4l7.28-19.33h5l7.2,19.33h-4.69Zm-6.05-3.93h4.69l-2.32-6.68Z"/><path class="cls-4" d="M320.7,32.18a3.1,3.1,0,0,0,3.16,3.35,2.79,2.79,0,0,0,2.81-2l3.65,1.12a6.42,6.42,0,0,1-6.46,4.72,7.07,7.07,0,0,1-7.28-7.17,7,7,0,0,1,7.14-7.2,6.33,6.33,0,0,1,6.52,4.72l-3.71,1.12a2.66,2.66,0,0,0-2.73-2A3.07,3.07,0,0,0,320.7,32.18Z"/><path class="cls-4" d="M337,38.94h-4.14V19.21H337v7.06A5.09,5.09,0,0,1,340.46,25c3.54,0,5.13,2.43,5.13,5.4v8.51h-4.14v-7.8a2.1,2.1,0,0,0-2.21-2.34A2.18,2.18,0,0,0,337,31Z"/><path class="cls-4" d="M350.56,18.82a2.43,2.43,0,1,1-2.4,2.43A2.44,2.44,0,0,1,350.56,18.82Zm-2,20.12V25.39h4.14V38.94Z"/><path class="cls-4" d="M368.6,35c-.65,2.34-2.81,4.31-6.24,4.31a6.9,6.9,0,0,1-7.06-7.22A6.83,6.83,0,0,1,362.06,25c4.2,0,6.79,2.59,6.79,7a8.67,8.67,0,0,1-.08,1.28h-9.43a2.93,2.93,0,0,0,3.08,2.62,2.62,2.62,0,0,0,2.73-1.77Zm-3.76-4.5a2.43,2.43,0,0,0-2.73-2.29,2.58,2.58,0,0,0-2.7,2.29Z"/><path class="cls-4" d="M379.43,38.94h-4.17L369.7,25.39h4.5l3.13,8.42,2.89-8.42h4.36Z"/><path class="cls-4" d="M398.59,35c-.65,2.34-2.81,4.31-6.24,4.31a6.9,6.9,0,0,1-7.06-7.22A6.83,6.83,0,0,1,392,25c4.2,0,6.79,2.59,6.79,7a8.67,8.67,0,0,1-.08,1.28h-9.43a2.93,2.93,0,0,0,3.08,2.62,2.62,2.62,0,0,0,2.73-1.77Zm-3.76-4.5a2.43,2.43,0,0,0-2.73-2.29,2.58,2.58,0,0,0-2.7,2.29Z"/></symbol></defs><title>Move</title><g id="Content"><use width="479.18" height="58.27" transform="translate(-339.63 -40.21) scale(2.14)" xlink:href="#Think_Create_Achieve"/></g></svg>