<svg xmlns="http://www.w3.org/2000/svg" viewBox="0 0 510.88 177.94">
  <title>HS-wordmark</title>
  <g id="Layer_2" data-name="Layer 2">
    <g id="Content">
      <path d="M61.07,147.56H43.74V96.49H17.33v51.07H0V30.38H17.33V81.45H43.74V30.38H61.07Zm63.87-15v15h-50V30.38h48.85v15H92.26v36h28.88v15H92.26v36Zm8.8-13.35v-9.74H151.2l.19,8.59c0,12,4,18.32,12.21,18.32,7.76,0,11.39-5.45,11.39-14.19v-4.29c0-9.24-1.16-13.86-10.23-19.81l-14-8.91C139,81.54,134.89,72.79,134.89,60.74V54.8c0-17,11.39-27.23,28.72-27.23,18.48,0,29,8.09,29,28.72V65l-17.33-.38V57.94c0-10.89-3.63-16.5-11.72-16.5-7.1,0-10.89,5.12-10.89,12.21v5.61c0,7.59,2.81,12.54,9.74,16.84l14.36,9.24C190,93.75,193,102.83,193,115.54v6.27c0,18-10.07,28.55-29.54,28.55C144.3,150.36,133.74,139.31,133.74,119.17ZM263.49,45.56H240.71v102h-17v-102H200.77V30.38h62.72Zm61.56,87v15H275V30.38h50v15H292.37V80.07h28.88v15H292.37v37.41ZM446.4,104.74c-12,0-18.85-7.19-18.85-19.72v-7.2l13.36,0v6.57c0,9.15,4.06,9.15,5.59,9.15,1.26,0,5.11,0,5.11-6.75v-2.5c0-4.94-.45-7.11-5.27-10.26l-8.16-5.18c-7-4.52-9.95-9.85-9.95-17.84V47.5c0-10.57,7.17-17.41,18.27-17.41,12.25,0,18.47,6.15,18.47,18.27V55l-13.17-.06V49.33c0-7.17-2.83-8.09-5.3-8.09-4.35,0-4.82,3.91-4.82,5.59V50.1c0,3.92,1.39,6.31,5,8.51L455,64c8.41,5.36,10.13,11.43,10.13,18.9v3.66C465.15,98.12,458.32,104.74,446.4,104.74Zm51.2-.78h-13V42.29H471.25V30.38h39.63V42.29H497.6Zm-131.31-10H356.22l0,53.64H338.91V30.38h27.56c21.46,0,30.2,10.89,30.37,30V67c0,14.52-5.49,23.28-14.57,27.24l17.54,53.3H381.5Zm-.8-13.78c9.74,0,13.53-1.27,13.53-14.63V57.81c0-13.33-3.78-14.73-13.7-14.73h-9.08V80.14ZM510.88,0H0V15.19H510.88Zm0,162.75H0v15.19H510.88Z"/>
    </g>
  </g>
</svg>
