<?xml version="1.0" standalone="no"?>
<!DOCTYPE svg PUBLIC "-//W3C//DTD SVG 1.1//EN" "http://www.w3.org/Graphics/SVG/1.1/DTD/svg11.dtd" >
<svg xmlns="http://www.w3.org/2000/svg">
<metadata></metadata>
<defs>
<font id="future_aregular" horiz-adv-x="399" >
<font-face units-per-em="2048" ascent="1536" descent="-512" />
<missing-glyph horiz-adv-x="409" />
<glyph horiz-adv-x="2048" />
<glyph horiz-adv-x="2048" />
<glyph unicode="&#xd;" horiz-adv-x="2048" />
<glyph unicode=" "  horiz-adv-x="409" />
<glyph unicode="&#x09;" horiz-adv-x="409" />
<glyph unicode="&#xa0;" horiz-adv-x="409" />
<glyph unicode="!" horiz-adv-x="448" d="M31 160q0 79 53.5 133.5t128.5 54.5q79 0 133.5 -54t54.5 -134q0 -77 -54.5 -130t-133.5 -53q-75 0 -128.5 53.5t-53.5 129.5zM86 424v1026h276v-1026h-276z" />
<glyph unicode="&#x22;" horiz-adv-x="831" />
<glyph unicode="#" horiz-adv-x="1316" d="M51 336v229h232l26 324h-217v229h238l28 340h238l-29 -340h250l29 340h237l-28 -340h211v-229h-232l-26 -324h217v-229h-236l-28 -338h-238l29 338h-250l-29 -338h-237l28 338h-213zM520 565h250l27 324h-250z" />
<glyph unicode="$" horiz-adv-x="1062" d="M39 479h274q0 -246 217 -246q92 0 145.5 45.5t53.5 122.5q0 81 -74.5 132.5t-287.5 125.5q-72 25 -126 58.5t-97 82.5t-64.5 118t-20.5 157q5 132 97.5 234.5t244.5 134.5v135h250v-135q163 -32 258 -144.5t95 -298.5h-271q0 114 -56 167t-153 53q-86 0 -135 -42 t-49 -106q0 -25 6.5 -46t15 -36.5t30 -31.5t38 -26.5t54 -26t62.5 -25t77 -28.5q10 -4 15.5 -6t14.5 -5t17 -6q174 -63 263 -166.5t89 -268.5q0 -141 -104 -250.5t-267 -140.5v-137h-250v139q-175 30 -268.5 147t-93.5 320z" />
<glyph unicode="%" horiz-adv-x="1259" d="M6 1159q0 134 93.5 227t228.5 93t228 -93t93 -227q0 -132 -93 -224.5t-228 -92.5t-228.5 92.5t-93.5 224.5zM147 0l746 1454h223l-745 -1454h-224zM213 1159q0 -48 32.5 -82.5t82.5 -34.5t83 34.5t33 82.5q0 51 -32.5 85t-83.5 34t-83 -34t-32 -85zM610 295 q0 134 93.5 226.5t228.5 92.5t228 -92.5t93 -226.5q0 -132 -93 -225t-228 -93t-228.5 93t-93.5 225zM817 295q0 -50 32.5 -83.5t82.5 -33.5q51 0 84 33.5t33 83.5q0 51 -33 85t-84 34t-83 -34t-32 -85z" />
<glyph unicode="&#x26;" horiz-adv-x="1376" d="M20 403q0 257 259 404q-4 5 -11.5 13.5t-26.5 37.5t-33 59.5t-26 77t-12 92.5q0 166 119.5 279t298.5 113q110 0 206 -48t155 -135.5t59 -193.5q0 -53 -9 -96t-29 -78.5t-42.5 -62t-61 -53.5t-72.5 -46.5t-87 -46.5l157 -182l154 202h301l-287 -377l330 -362h-352 l-140 152q-5 -7 -15.5 -19t-47 -42t-77 -53t-105.5 -42t-133 -19q-213 0 -342.5 116t-129.5 310zM307 403q0 -89 52.5 -138.5t132.5 -49.5q60 0 113 29.5t77 58.5l23 29l-259 286q-6 -3 -15 -9t-33 -26t-42.5 -43t-33.5 -60.5t-15 -76.5zM446 1096q0 -29 9.5 -59.5t23 -53 t27.5 -41t24 -28.5l9 -9q8 2 21 6.5t46 21t58 36.5t46 54t21 73q0 65 -39 105t-104 40q-61 0 -101.5 -42t-40.5 -103z" />
<glyph unicode="'" horiz-adv-x="339" d="M61 965v489h310l-160 -489h-150z" />
<glyph unicode="(" horiz-adv-x="698" d="M102 666q0 506 254 944l240 -133q-205 -376 -205 -811q0 -433 205 -809q-240 -131 -240 -133q-254 438 -254 942z" />
<glyph unicode=")" horiz-adv-x="698" d="M102 -145q205 376 205 811q0 433 -205 809q240 131 240 133q254 -438 254 -942q0 -507 -254 -945z" />
<glyph unicode="*" horiz-adv-x="663" d="M0 1235l68 182l194 -100l-26 219h192l-27 -219l195 100l68 -182l-240 -53l174 -158l-152 -125l-114 182l-115 -182l-151 125l174 158z" />
<glyph unicode="+" horiz-adv-x="1024" d="M61 635v229h328v336h246v-336h328v-229h-328v-336h-246v336h-328z" />
<glyph unicode="," horiz-adv-x="409" d="M61 -156v490h310l-160 -490h-150z" />
<glyph unicode="-" horiz-adv-x="675" d="M31 354v246h614v-246h-614z" />
<glyph unicode="." horiz-adv-x="432" d="M31 160q0 79 53.5 133.5t128.5 54.5q79 0 133.5 -54t54.5 -134q0 -77 -54.5 -130t-133.5 -53q-75 0 -128.5 53.5t-53.5 129.5z" />
<glyph unicode="/" horiz-adv-x="1026" d="M33 0l760 1454h297l-746 -1454h-311z" />
<glyph unicode="0" horiz-adv-x="1173" d="M61 727q0 127 18.5 238t59 206.5t101 163t149 106t197.5 38.5q136 0 239 -58.5t164.5 -162.5t92 -237.5t30.5 -293.5q0 -127 -18.5 -238t-59.5 -206t-101.5 -162t-149 -105.5t-197.5 -38.5t-197.5 38.5t-149 105.5t-101 162.5t-59 206t-18.5 237.5zM352 727 q0 -106 11 -188t36 -150t72.5 -104.5t114.5 -36.5t114.5 36.5t73 104.5t36.5 150t11 188t-11 188.5t-36.5 151t-73 105t-114.5 36.5t-114.5 -36.5t-72.5 -105t-36 -151t-11 -188.5z" />
<glyph unicode="1" horiz-adv-x="573" d="M-2 1208v246h514v-1454h-276v1208h-238z" />
<glyph unicode="2" horiz-adv-x="1085" d="M47 0v137l571 686q70 79 98.5 128t28.5 100q0 81 -56.5 134.5t-149.5 53.5q-92 0 -152.5 -52.5t-60.5 -129.5v-31h-275v31q0 178 136 300t352 122t349.5 -123t133.5 -305q0 -68 -15.5 -125t-51 -112.5t-69.5 -96.5t-96.5 -113t-105.5 -127l-197 -231h535v-246h-975z" />
<glyph unicode="3" horiz-adv-x="1064" d="M41 420h274q0 -89 60.5 -147t154.5 -58q97 0 158.5 58t61.5 147q0 86 -59.5 145.5t-151.5 59.5h-103v239h103q91 0 141.5 52.5t50.5 134.5q0 80 -56.5 134t-144.5 54q-87 0 -142.5 -54t-55.5 -134h-275q0 182 131 305t342 123q213 0 345.5 -123t132.5 -305 q0 -63 -17.5 -116.5t-46 -90t-52.5 -58t-50 -38.5q28 -19 54.5 -43t58.5 -64.5t51.5 -98t19.5 -122.5q0 -187 -137.5 -315t-358.5 -128q-218 0 -353.5 128t-135.5 315z" />
<glyph unicode="4" horiz-adv-x="1169" d="M31 285v182l719 987h223v-924h166v-245h-166v-285h-277v285h-665zM340 530h356v502z" />
<glyph unicode="5" horiz-adv-x="1124" d="M51 475h281q0 -117 58.5 -188.5t168.5 -71.5q102 0 168 69.5t66 180.5q0 112 -66 183t-168 71q-123 0 -197 -78h-292l209 813h688v-246h-529l-76 -303q9 6 27 14.5t76.5 22.5t122.5 14q209 0 347 -140t138 -351q0 -213 -143 -350.5t-371 -137.5q-157 0 -274 68 t-175.5 179.5t-58.5 250.5z" />
<glyph unicode="6" horiz-adv-x="1183" d="M61 477q0 195 119 326l494 651h348l-371 -481q141 0 250.5 -70.5t166 -183t56.5 -242.5q0 -103 -38.5 -194.5t-106.5 -159t-168.5 -107t-218.5 -39.5t-218.5 39.5t-168.5 107t-106 159t-38 194.5zM342 477q0 -114 70 -188t180 -74t181 74t71 188q0 113 -71 187.5 t-181 74.5t-180 -74.5t-70 -187.5z" />
<glyph unicode="7" horiz-adv-x="1046" d="M10 1208v246h1006v-182l-651 -1272h-312l645 1208h-688z" />
<glyph unicode="8" horiz-adv-x="1067" d="M35 420q0 66 19 123.5t51 97.5t58.5 64.5t55.5 42.5q-25 16 -49 38.5t-51.5 59t-44.5 90t-17 115.5q0 183 131.5 305.5t343.5 122.5q213 0 345.5 -123t132.5 -305q0 -195 -172 -303q30 -17 59 -41.5t62 -64t53 -97.5t20 -125q0 -187 -139 -315t-361 -128t-359.5 127.5 t-137.5 315.5zM309 420q0 -90 62.5 -147.5t160.5 -57.5t161 58t63 147q0 88 -63 146.5t-161 58.5t-160.5 -58.5t-62.5 -146.5zM332 1051q0 -82 56 -134.5t144 -52.5q87 0 144 53.5t57 133.5t-57 134t-144 54q-88 0 -144 -53.5t-56 -134.5z" />
<glyph unicode="9" horiz-adv-x="1185" d="M61 979q0 103 38.5 194.5t107 159t169 107t218.5 39.5q236 0 383 -144t147 -356q0 -180 -106 -311l-508 -668h-346l368 481q-141 0 -250 70.5t-165 183.5t-56 244zM342 979q0 -113 71 -187.5t181 -74.5t180 74.5t70 187.5q0 114 -70 188t-180 74t-181 -74t-71 -188z" />
<glyph unicode=":" horiz-adv-x="432" d="M31 160q0 79 53.5 133.5t128.5 54.5q79 0 133.5 -54t54.5 -134q0 -77 -54.5 -130t-133.5 -53q-75 0 -128.5 53.5t-53.5 129.5zM31 788q0 79 53.5 134t128.5 55q79 0 133.5 -54.5t54.5 -134.5q0 -77 -54.5 -129.5t-133.5 -52.5q-75 0 -128.5 53t-53.5 129z" />
<glyph unicode=";" horiz-adv-x="514" d="M61 -156v490h310l-160 -490h-150zM72 788q0 79 53.5 134t128.5 55q79 0 133.5 -54.5t54.5 -134.5q0 -77 -54.5 -129.5t-133.5 -52.5q-75 0 -128.5 53t-53.5 129z" />
<glyph unicode="&#x3c;" horiz-adv-x="1191" d="M61 641v201l1069 508v-263l-733 -342l733 -342v-270z" />
<glyph unicode="=" horiz-adv-x="1024" d="M61 422v229h902v-229h-902zM61 842v229h902v-229h-902z" />
<glyph unicode="&#x3e;" horiz-adv-x="1191" d="M61 133v270l734 342l-734 342v263l1069 -508v-201z" />
<glyph unicode="?" horiz-adv-x="940" d="M0 1051q0 182 126 305t329 123q202 0 328 -123t126 -305q0 -179 -109 -294.5t-290 -129.5v-203h-236v440h189q72 0 121 54t49 133q0 80 -50.5 134t-127.5 54q-79 0 -130 -54t-51 -134h-274zM209 160q0 79 53.5 133.5t128.5 54.5q80 0 134.5 -54.5t54.5 -133.5 q0 -77 -55 -130t-134 -53q-75 0 -128.5 53.5t-53.5 129.5z" />
<glyph unicode="@" horiz-adv-x="2095" d="M51 481q0 171 52.5 325.5t149.5 276.5t227.5 212t294 138t341.5 48q267 0 478.5 -95t330.5 -268.5t119 -396.5q0 -353 -229 -545q-175 -151 -506 -158l-45 93q-133 -99 -291 -99q-136 0 -230.5 64t-134.5 167.5t-30 231.5q14 202 143.5 334.5t320.5 132.5q164 0 275 -100 l6 76h260l-45 -615q102 41 165.5 141t63.5 254q0 237 -177 373.5t-474 136.5q-227 0 -406.5 -91t-281.5 -257t-102 -379q0 -319 188.5 -513.5t515.5 -194.5h4q173 0 334 52.5t266 151.5l191 -202q-145 -136 -354.5 -206.5t-436.5 -70.5q-221 0 -406 74t-311 204.5t-196 312 t-70 392.5zM844 479q-8 -105 50 -174t157 -69q104 0 175 71.5t77 171.5q9 97 -52 168.5t-161 71.5q-102 0 -171.5 -71t-74.5 -169z" />
<glyph unicode="A" horiz-adv-x="1110" d="M-92 0l534 1454h226l534 -1454h-307l-111 311h-460l-109 -311h-307zM412 557h286l-143 404z" />
<glyph unicode="B" horiz-adv-x="1064" d="M61 0v1454h416q194 0 316 -119t122 -293q0 -150 -122 -237q29 -13 56.5 -29.5t62.5 -48t60.5 -69t43.5 -95t18 -123.5q0 -186 -129 -313t-334 -127h-510zM338 238h231q83 0 138 57t55 145t-56.5 147.5t-144.5 59.5h-223v-409zM338 866h141q73 0 119.5 49.5t46.5 126.5 q0 74 -46.5 124.5t-119.5 50.5h-141v-351z" />
<glyph unicode="C" horiz-adv-x="1255" d="M61 727q0 154 59 293t160 239.5t242 160t299 59.5q199 0 379 -99v-350q-63 86 -161 132t-218 46q-133 0 -241 -64.5t-168 -174.5t-60 -242t60 -241.5t168 -173.5t241 -64q120 0 218 46t161 132v-352q-177 -97 -379 -97q-158 0 -299 59t-242 159.5t-160 239t-59 292.5z " />
<glyph unicode="D" horiz-adv-x="1245" d="M61 0v1454h422q158 0 299 -55.5t242.5 -151.5t161 -231.5t59.5 -288.5t-59.5 -288.5t-161 -231.5t-242.5 -151.5t-299 -55.5h-422zM338 270h147q204 0 336.5 129t132.5 328t-132.5 328t-336.5 129h-147v-914z" />
<glyph unicode="E" horiz-adv-x="911" d="M61 0v1454h820v-246h-543v-358h543v-246h-543v-358h543v-246h-820z" />
<glyph unicode="F" horiz-adv-x="901" d="M61 0v1454h820v-246h-543v-358h543v-246h-543v-604h-277z" />
<glyph unicode="G" horiz-adv-x="1605" d="M61 727q0 154 59 293t160 239.5t242 160t299 59.5q274 0 476 -165.5t257 -422.5h-301q-45 143 -160.5 230t-271.5 87q-133 0 -241 -64.5t-168 -174.5t-60 -242t60 -241.5t168 -173.5t241 -64q65 0 123.5 13t100.5 33.5t77.5 45t57.5 49.5t38 45.5t22 33.5l7 13h-426v246 h750q0 -208 -97.5 -380t-269.5 -271t-383 -99q-158 0 -299 59t-242 159.5t-160 239t-59 292.5z" />
<glyph unicode="H" horiz-adv-x="1218" d="M61 0v1454h277v-584h543v584h276v-1454h-276v627h-543v-627h-277z" />
<glyph unicode="I" d="M61 0v1454h277v-1454h-277z" />
<glyph unicode="J" horiz-adv-x="628" d="M-20 25v264q2 -1 15.5 -9t19.5 -11l20 -10t24.5 -10.5t25 -7.5t30 -6t32.5 -2q67 0 105.5 38.5t38.5 115.5v1067h276v-1036q0 -206 -103 -323.5t-298 -117.5q-100 0 -186 48z" />
<glyph unicode="K" horiz-adv-x="1097" d="M61 0v1454h277l-6 -532v-48l485 580h334l-592 -702l610 -752h-362l-473 588l4 -588h-277z" />
<glyph unicode="L" horiz-adv-x="901" d="M61 0v1454h277v-1208h543v-246h-820z" />
<glyph unicode="M" horiz-adv-x="1669" d="M20 0l242 1454h258l320 -967l286 967h281l242 -1454h-279l-149 903l-273 -903h-231l-289 903l-149 -903h-259z" />
<glyph unicode="N" horiz-adv-x="1224" d="M61 0v1454h230l596 -911v911h276v-1454h-252l-573 885v-885h-277z" />
<glyph unicode="O" horiz-adv-x="1615" d="M59 727q0 154 59 293t160 239.5t242 160t299 59.5t299.5 -59.5t242.5 -160t160.5 -239.5t59.5 -293t-59.5 -292.5t-160.5 -239t-242.5 -159.5t-299.5 -59t-299 59t-242 159.5t-160 239t-59 292.5zM350 727q0 -132 60 -241.5t168 -173.5t241 -64q202 0 336.5 139 t134.5 340q0 132 -60.5 242t-169 174.5t-241.5 64.5t-241 -64.5t-168 -174.5t-60 -242z" />
<glyph unicode="P" horiz-adv-x="1015" d="M61 0v1454h422q118 0 218.5 -39.5t169 -107t107 -159t38.5 -194.5t-38.5 -194.5t-107 -159t-169 -106.5t-218.5 -39h-145v-455h-277zM338 692h145q110 0 181 74t71 188q0 113 -71 188t-181 75h-145v-525z" />
<glyph unicode="Q" horiz-adv-x="1617" d="M61 727q0 154 59 293t160 239.5t242 160t299 59.5t299.5 -59.5t242.5 -160t160.5 -239.5t59.5 -293q0 -258 -160 -461l246 -266h-350l-86 94q-188 -117 -412 -117q-158 0 -299 59t-242 159.5t-160 239t-59 292.5zM352 727q0 -132 60 -241.5t168 -173.5t241 -64 q121 0 221 53l-284 313h350l121 -133q63 111 63 246q0 132 -60.5 242t-169 174.5t-241.5 64.5t-241 -64.5t-168 -174.5t-60 -242z" />
<glyph unicode="R" horiz-adv-x="1097" d="M61 0v1454h422q118 0 218.5 -38t169 -103.5t107 -154.5t38.5 -189q0 -160 -101.5 -282t-273.5 -163l422 -524h-340l-385 502v-502h-277zM338 713h145q110 0 181 72.5t71 183.5q0 106 -71 177t-181 71h-145v-504z" />
<glyph unicode="S" horiz-adv-x="1062" d="M31 473h280q0 -256 219 -256q94 0 148.5 47.5t54.5 126.5q0 84 -75 136.5t-293 129.5q-152 54 -234 155q-78 96 -78 259v16q3 163 134.5 277.5t336.5 114.5q220 0 355 -120.5t135 -348.5h-277q0 118 -57 172.5t-156 54.5q-86 0 -137 -44t-51 -108q0 -45 15.5 -76.5 t55 -56.5t83.5 -43.5t125 -47.5q38 -13 59 -21q178 -66 268 -171.5t90 -275.5q0 -173 -140.5 -294.5t-348.5 -121.5q-247 0 -379.5 122.5t-132.5 373.5z" />
<glyph unicode="T" horiz-adv-x="1095" d="M0 1208v246h1096v-246h-410v-1208h-276v1208h-410z" />
<glyph unicode="U" horiz-adv-x="1218" d="M61 518v936h275v-893q0 -155 71 -236t201 -81q132 0 203.5 81t71.5 236v893h274v-940q0 -537 -547 -537q-269 0 -409 138t-140 403z" />
<glyph unicode="V" horiz-adv-x="1110" d="M-92 1454h307l340 -962l340 962h307l-534 -1454h-226z" />
<glyph unicode="W" horiz-adv-x="1785" d="M-92 1454h307l285 -979l276 979h234l276 -979l285 979h307l-473 -1454h-229l-283 987l-287 -987h-225z" />
<glyph unicode="X" horiz-adv-x="1087" d="M12 0l424 727l-424 727h338l256 -438l256 438h338l-426 -727l426 -727h-336l-258 440l-258 -440h-336z" />
<glyph unicode="Y" horiz-adv-x="1112" d="M-92 1454h317l328 -555l332 555h319l-520 -891v-563h-276v582z" />
<glyph unicode="Z" horiz-adv-x="1101" d="M-61 0l741 1208h-674v246h1143l-743 -1206h686v-248h-1153z" />
<glyph unicode="[" horiz-adv-x="583" d="M61 -326v1780h512v-229h-235v-1321h235v-230h-512z" />
<glyph unicode="\" horiz-adv-x="1024" d="M-66 1454h297l760 -1454h-311z" />
<glyph unicode="]" horiz-adv-x="585" d="M10 -96h236v1321h-236v229h512v-1780h-512v230z" />
<glyph unicode="^" horiz-adv-x="720" d="M0 1071l281 383h159l281 -383h-211l-152 213l-153 -213h-205z" />
<glyph unicode="_" horiz-adv-x="1372" d="M61 -59h1250v-246h-1250v246z" />
<glyph unicode="`" horiz-adv-x="460" d="M18 1323l230 131l198 -342l-114 -70z" />
<glyph unicode="a" horiz-adv-x="1138" d="M31 473q0 218 130 361t333 143q182 0 305 -109v84h278v-952h-278v82q-130 -105 -305 -105q-143 0 -250 68t-160 179t-53 249zM315 479q0 -114 69 -188t177 -74q113 0 182.5 76.5t69.5 183.5t-72.5 183.5t-179.5 76.5q-110 0 -178 -75t-68 -183z" />
<glyph unicode="b" horiz-adv-x="1124" d="M61 0v1536h277v-680q67 66 139 95.5t162 29.5q201 0 330 -144t129 -362q0 -102 -31.5 -192.5t-88.5 -158.5t-145 -107.5t-194 -39.5q-157 0 -301 113v-90h-277zM322 479q0 -107 69.5 -184.5t181.5 -77.5q105 0 174.5 77.5t69.5 186.5q0 103 -69 181.5t-175 78.5 q-107 0 -179 -77t-72 -185z" />
<glyph unicode="c" horiz-adv-x="831" d="M0 477q0 217 144 358.5t356 141.5q116 0 250 -55v-275q-104 90 -226 90q-107 0 -174 -72t-67 -188q0 -115 67 -188.5t174 -73.5q66 0 119 23.5t107 70.5v-280q-132 -52 -250 -52q-212 0 -356 141.5t-144 358.5z" />
<glyph unicode="d" horiz-adv-x="1138" d="M31 475q0 218 128.5 362t329.5 144q191 0 302 -100v655h276v-1536h-276v90q-144 -113 -302 -113q-141 0 -246.5 68.5t-158.5 180t-53 249.5zM311 481q0 -109 69.5 -186.5t174.5 -77.5q113 0 182.5 77.5t69.5 184.5t-72.5 184.5t-179.5 77.5q-106 0 -175 -78.5t-69 -181.5 z" />
<glyph unicode="e" horiz-adv-x="1067" d="M31 487q0 215 137.5 352.5t366.5 137.5q223 0 362 -138.5t139 -353.5q0 -51 -4 -67h-717q7 -95 67 -151t153 -56q78 0 131.5 36t74.5 93h277q-8 -63 -42.5 -125t-92 -116t-149 -88t-199.5 -34q-222 0 -363 138.5t-141 371.5zM319 600h426q-15 65 -72 113.5t-138 48.5 q-89 0 -147.5 -48.5t-68.5 -113.5z" />
<glyph unicode="f" horiz-adv-x="706" d="M51 709v243h101v215q0 79 22.5 148.5t66.5 124.5t116 87t163 32q75 0 146 -35v-254q-73 35 -125 35q-51 0 -82 -33t-31 -88v-232h238v-243h-238v-709h-276v709h-101z" />
<glyph unicode="g" horiz-adv-x="1136" d="M31 475q0 218 130 362t333 144q97 0 168.5 -23.5t136.5 -85.5v84h276v-903q0 -127 -28 -224.5t-75.5 -159t-115.5 -100t-140.5 -54t-158.5 -15.5q-204 0 -344 103.5t-158 277.5h299q4 -19 16 -41t35 -46t64 -40t92 -16q238 0 238 285v59q-130 -105 -305 -105 q-143 0 -250 68.5t-160 180t-53 249.5zM315 481q0 -109 69.5 -186.5t176.5 -77.5q113 0 182.5 77.5t69.5 184.5t-72.5 184.5t-179.5 77.5q-108 0 -177 -78.5t-69 -181.5z" />
<glyph unicode="h" horiz-adv-x="1019" d="M61 0v1536h277v-680h4q106 131 283 131q92 0 160.5 -28.5t107.5 -80t57.5 -114.5t18.5 -139v-625h-277v528q0 126 -41 174q-39 48 -121 48q-90 0 -139 -58q-53 -67 -53 -215v-477h-277z" />
<glyph unicode="i" horiz-adv-x="450" d="M61 1286q0 69 47.5 117.5t114.5 48.5q69 0 117.5 -48.5t48.5 -117.5q0 -67 -48.5 -114.5t-117.5 -47.5q-67 0 -114.5 47t-47.5 115zM86 0v952h276v-952h-276z" />
<glyph unicode="j" horiz-adv-x="448" d="M61 1286q0 69 47.5 117.5t114.5 48.5q69 0 117.5 -48.5t48.5 -117.5q0 -67 -48.5 -114.5t-117.5 -47.5q-67 0 -114.5 47t-47.5 115zM86 -498v1450h276v-1450h-276z" />
<glyph unicode="k" horiz-adv-x="1032" d="M61 0v1536h277v-924l336 340h352l-451 -448l478 -504h-369l-346 367v-367h-277z" />
<glyph unicode="l" d="M61 0v1536h277v-1536h-277z" />
<glyph unicode="m" horiz-adv-x="1622" d="M61 0v952h277v-110h2q101 135 278 135q218 0 304 -180q45 81 126 130.5t187 49.5q168 0 255 -98.5t87 -264.5v-614h-279v578q0 78 -40 119.5t-119 41.5q-86 0 -134.5 -53.5t-48.5 -138.5v-547h-278v578q0 77 -41 119t-117 42q-86 0 -134 -53t-48 -139v-547h-277z" />
<glyph unicode="n" horiz-adv-x="1019" d="M61 0v952h277v-110h2q110 135 283 135q91 0 160 -30t108.5 -81.5t58.5 -115t19 -136.5v-614h-279v578q0 77 -42.5 119t-121.5 42q-86 0 -137 -53.5t-51 -138.5v-547h-277z" />
<glyph unicode="o" horiz-adv-x="1124" d="M31 477q0 212 147 356t383 144q118 0 218.5 -39.5t169 -107t107 -159t38.5 -194.5t-38.5 -194.5t-107 -159t-169 -107t-218.5 -39.5q-236 0 -383 144t-147 356zM311 477q0 -114 70 -188t180 -74t181 74t71 188q0 113 -71 187.5t-181 74.5t-180 -74.5t-70 -187.5z" />
<glyph unicode="p" horiz-adv-x="1128" d="M61 -500v1452h277v-88q140 113 299 113q137 0 245 -67.5t166 -180t58 -248.5q0 -215 -137 -360.5t-332 -145.5q-177 0 -299 107v-582h-277zM322 479q0 -109 72 -186.5t179 -77.5q118 0 185 77.5t67 184.5q0 112 -67.5 186t-184.5 74q-112 0 -181.5 -75.5t-69.5 -182.5z " />
<glyph unicode="q" horiz-adv-x="1124" d="M27 479q0 138 53 249.5t158.5 180t246.5 68.5q174 0 301 -115v90h277v-1452h-277v600q-131 -125 -301 -125q-201 0 -329.5 143t-128.5 361zM307 475q0 -104 68.5 -182t175.5 -78t179.5 77.5t72.5 186.5q0 107 -69.5 181.5t-182.5 74.5q-106 0 -175 -75.5t-69 -184.5z" />
<glyph unicode="r" horiz-adv-x="714" d="M61 0v952h279v-118h2q54 74 114 108.5t142 34.5q43 0 96 -16v-297q-68 55 -157 55q-103 0 -150 -52t-47 -155v-512h-279z" />
<glyph unicode="s" horiz-adv-x="768" d="M20 295h236q7 -52 40.5 -78.5t86.5 -26.5q43 0 69.5 21.5t26.5 54.5q0 39 -39.5 68t-144.5 65q-258 89 -258 286v7q1 127 100.5 207t249.5 80q158 0 249 -79.5t97 -217.5h-227q-5 42 -34.5 66t-84.5 24q-37 0 -64.5 -21t-27.5 -51q0 -14 4.5 -26t16 -22.5t22.5 -18 t33.5 -17.5t39 -16t49.5 -18.5t54 -20.5q119 -47 176.5 -115t57.5 -170q0 -132 -103.5 -215.5t-257.5 -83.5q-156 0 -256 79t-111 239z" />
<glyph unicode="t" horiz-adv-x="634" d="M51 709v243h101v310h276v-310h166v-243h-166v-709h-276v709h-101z" />
<glyph unicode="u" horiz-adv-x="1011" d="M51 426v526h277v-528q0 -103 46 -155t132 -52t132 52t46 155v528h277v-528q0 -225 -115 -336t-336 -111q-224 0 -341.5 114.5t-117.5 334.5z" />
<glyph unicode="v" horiz-adv-x="950" d="M-66 952h297l246 -551l250 551h297l-444 -952h-209z" />
<glyph unicode="w" horiz-adv-x="1622" d="M-61 952h297l227 -551l237 551h222l237 -551l227 551h297l-415 -952h-209l-248 561l-248 -561h-209z" />
<glyph unicode="x" horiz-adv-x="1087" d="M-20 0l401 498l-369 454h328l205 -252l205 252h327l-368 -454l399 -498h-326l-237 293l-236 -293h-329z" />
<glyph unicode="y" horiz-adv-x="1007" d="M-41 952h311l271 -561l266 561h303l-711 -1452h-311l291 588z" />
<glyph unicode="z" horiz-adv-x="968" d="M-20 0l520 727h-443v225h901l-503 -727h473v-225h-948z" />
<glyph unicode="{" horiz-adv-x="704" d="M59 475v275q107 0 137.5 25t30.5 112v278q0 99 35 172t99.5 115t147 62t185.5 20v-270q-110 0 -153 -19.5t-43 -79.5v-352q0 -142 -121 -207q58 -33 89.5 -88.5t31.5 -128.5v-354q0 -60 43 -79t153 -19v-263q-138 0 -240 37t-164.5 122t-62.5 212v291q0 88 -30.5 113.5 t-137.5 25.5z" />
<glyph unicode="|" d="M61 -500v2036h277v-2036h-277z" />
<glyph unicode="}" horiz-adv-x="708" d="M10 -63q110 0 153.5 19t43.5 79v354q0 73 31.5 128.5t89.5 88.5q-121 65 -121 207v352q0 60 -43.5 79.5t-153.5 19.5v270q103 0 185.5 -20t147 -62t99.5 -115t35 -172v-278q0 -87 30.5 -112t137.5 -25v-275q-107 0 -137.5 -25.5t-30.5 -113.5v-291q0 -127 -62.5 -212 t-164.5 -122t-240 -37v263z" />
<glyph unicode="~" horiz-adv-x="1024" d="M100 1274q0 39 7 77t25 76.5t44.5 67t70 46.5t97.5 18q46 0 86.5 -17.5t63.5 -38t48 -38t44 -17.5q34 0 55 23.5t21 64.5h180q0 -50 -12 -96t-38.5 -90t-77.5 -70.5t-120 -26.5q-48 0 -88 17.5t-62 39t-45.5 39t-42.5 17.5q-34 0 -54.5 -25t-20.5 -67h-181z" />
<glyph unicode="&#xa1;" horiz-adv-x="432" d="M31 795q0 76 53.5 129t128.5 53q79 0 133.5 -52.5t54.5 -129.5q0 -80 -54.5 -134.5t-133.5 -54.5q-75 0 -128.5 55t-53.5 134zM86 -496v1026h276v-1026h-276z" />
<glyph unicode="&#xa2;" horiz-adv-x="831" d="M0 477q0 177 98 306t256 173v203h250v-192q55 -9 146 -45v-275q-104 90 -226 90q-107 0 -174 -72t-67 -188q0 -115 67 -188.5t174 -73.5q66 0 119 23.5t107 70.5v-280q-84 -33 -146 -43v-195h-250v207q-158 44 -256 173t-98 306z" />
<glyph unicode="&#xa3;" horiz-adv-x="1251" d="M41 602v215h131q-51 109 -51 234q0 182 135.5 305t351.5 123q215 0 349.5 -121.5t134.5 -300.5v-31h-279v31q0 77 -57.5 129.5t-147.5 52.5q-94 0 -152.5 -53.5t-58.5 -134.5q0 -89 95 -234h466v-215h-331q49 -96 49 -184q0 -78 -31 -150q85 -49 131 -49q82 0 122 58.5 t40 156.5h272q0 -113 -36 -202.5t-97 -144t-137 -82.5t-162 -28q-57 0 -111.5 20t-89 44.5t-77 44.5t-78.5 20q-100 0 -100 -106h-263q0 152 89 255t241 103h14q5 25 5 33q0 51 -24 98.5t-71 112.5h-272z" />
<glyph unicode="&#xa4;" horiz-adv-x="831" d="M20 430l101 100q-49 81 -49 179q0 104 57 186l-106 106l108 111l115 -115q74 41 176 41q91 0 170 -37l108 109l111 -109l-100 -100q61 -83 61 -192q0 -107 -55 -183l94 -94l-109 -110l-100 100q-81 -43 -180 -43q-107 0 -189 45l-102 -102zM258 709q0 -74 46.5 -124 t117.5 -50q72 0 119 50t47 124t-47 124t-119 50q-71 0 -117.5 -50t-46.5 -124z" />
<glyph unicode="&#xa7;" horiz-adv-x="1024" d="M20 -182h281q0 -256 219 -256q94 0 148.5 47.5t54.5 126.5q0 82 -71.5 134t-272.5 124q-348 74 -348 479h16q9 78 52 146.5t112 115.5q-164 118 -158 352q3 163 134.5 277.5t336.5 114.5q220 0 355 -120.5t135 -348.5h-277q0 118 -57 172.5t-156 54.5q-86 0 -137 -44 t-51 -108q0 -45 15.5 -76.5t55 -56.5t83.5 -43.5t125 -47.5q38 -13 59 -21q178 -66 268 -171.5t90 -275.5q0 -94 -44.5 -175.5t-123.5 -139.5q158 -124 158 -340q0 -173 -141 -294.5t-349 -121.5q-247 0 -379.5 122.5t-132.5 373.5zM326 430q0 -80 52 -121t189 -90 q67 7 109 43t53 92h-2v15q-3 74 -33 129q-36 37 -125 80q-32 4 -55 4q-86 0 -137 -44t-51 -108z" />
<glyph unicode="&#xa8;" horiz-adv-x="768" d="M31 1417q0 63 40.5 102.5t112.5 39.5q68 0 108 -39.5t40 -102.5q0 -61 -40.5 -103t-107.5 -42q-71 0 -112 42t-41 103zM436 1417q0 63 41.5 102.5t110.5 39.5t109 -39.5t40 -102.5q0 -61 -40.5 -103t-108.5 -42t-110 42t-42 103z" />
<glyph unicode="&#xa9;" horiz-adv-x="935" d="M31 1124q0 181 126 308t310 127q185 0 311.5 -127t126.5 -308t-126.5 -305.5t-311.5 -124.5q-184 0 -310 125t-126 305zM145 1124q0 -139 91 -234t231 -95t233 95t93 234t-93 235.5t-233 96.5q-139 0 -230.5 -96t-91.5 -236zM238 1124q0 102 71.5 174t175.5 72 q51 0 123 -31v-116q-46 59 -123 59q-68 0 -109.5 -45.5t-41.5 -112.5q0 -65 42 -109t109 -44q79 0 123 59v-115q-59 -32 -123 -32q-104 0 -175.5 70.5t-71.5 170.5z" />
<glyph unicode="&#xad;" horiz-adv-x="675" d="M31 354v246h614v-246h-614z" />
<glyph unicode="&#xae;" horiz-adv-x="935" d="M31 1124q0 181 126 308t310 127q185 0 311.5 -127t126.5 -308t-126.5 -305.5t-311.5 -124.5q-184 0 -310 125t-126 305zM145 1124q0 -139 91 -234t231 -95t233 95t93 234t-93 235.5t-233 96.5q-139 0 -230.5 -96t-91.5 -236zM315 893v467h168q68 0 109 -37.5t41 -101.5 q0 -52 -31.5 -89t-87.5 -47l148 -192h-109l-135 186h-15v-186h-88zM403 1151h74q29 0 47.5 20.5t18.5 51.5q0 28 -18.5 46.5t-47.5 18.5h-74v-137z" />
<glyph unicode="&#xaf;" horiz-adv-x="892" d="M61 1290v246h770v-244z" />
<glyph unicode="&#xb0;" horiz-adv-x="790" d="M31 1214q0 150 99.5 247.5t266.5 97.5q165 0 264 -97.5t99 -247.5q0 -145 -100 -246.5t-263 -101.5q-165 0 -265.5 101.5t-100.5 246.5zM256 1214q0 -62 38.5 -102.5t102.5 -40.5q61 0 100.5 40.5t39.5 102.5q0 63 -39.5 104.5t-100.5 41.5q-64 0 -102.5 -41t-38.5 -105z " />
<glyph unicode="&#xb1;" horiz-adv-x="1024" d="M61 369v229h902v-229h-902zM61 889v229h328v203h246v-203h328v-229h-328v-205h-246v205h-328z" />
<glyph unicode="&#xb4;" horiz-adv-x="466" d="M23 1120l198 342l230 -131l-314 -280z" />
<glyph unicode="&#xb7;" horiz-adv-x="432" d="M31 475q0 79 53.5 134t128.5 55q79 0 133.5 -54.5t54.5 -134.5q0 -77 -54.5 -129.5t-133.5 -52.5q-75 0 -128.5 53t-53.5 129z" />
<glyph unicode="&#xb8;" horiz-adv-x="1024" d="M328 -365q4 2 11 6t24.5 17t31 27.5t24.5 37t11 46.5q0 25 -17 49t-34 36l-17 11l52 139h184l-51 -139q8 -6 20.5 -16.5t33 -46t20.5 -72.5q0 -31 -12 -60t-31 -50.5t-41.5 -39.5t-45.5 -30t-42 -20.5t-31 -12.5l-12 -4z" />
<glyph unicode="&#xbc;" horiz-adv-x="1079" d="M31 0l827 1454h191l-828 -1454h-190zM80 1290v164h297v-727h-178v563h-119zM418 111v133l358 504h172v-482h82v-155h-82v-111h-178v111h-352zM604 266h166v242z" />
<glyph unicode="&#xbd;" horiz-adv-x="1136" d="M31 0l827 1454h191l-828 -1454h-190zM80 1290v164h297v-727h-178v563h-119zM612 0v117l217 250q97 105 97 157q0 23 -16.5 39.5t-45.5 16.5q-30 0 -47.5 -16.5t-17.5 -39.5v-30h-178v34q0 90 67.5 150.5t175.5 60.5q107 0 174.5 -61t67.5 -152q0 -29 -8 -57t-18 -49.5 t-32 -51t-37.5 -47.5t-47 -53t-48.5 -55l-43 -49h234v-164h-494z" />
<glyph unicode="&#xbe;" horiz-adv-x="1116" d="M31 969h178q0 -26 19 -44t48 -18t48.5 18t19.5 44q0 30 -18 50.5t-45 20.5h-82v152h82q26 0 40.5 20t14.5 52q0 22 -17 37.5t-43 15.5t-42.5 -15.5t-16.5 -37.5h-178q0 91 66 153t171 62t171.5 -62t66.5 -153q0 -58 -26 -95.5t-56 -54.5q92 -53 92 -145q0 -93 -69 -157 t-179 -64t-177.5 64t-67.5 157zM68 0l827 1454h190l-827 -1454h-190zM455 111v133l358 504h172v-482h82v-155h-82v-111h-178v111h-352zM641 266h166v242z" />
<glyph unicode="&#xbf;" horiz-adv-x="950" d="M31 406q0 179 109 294t290 129v203h236v-440h-189q-72 0 -121 -53.5t-49 -132.5q0 -80 50.5 -134.5t127.5 -54.5q79 0 130 54.5t51 134.5h274q0 -182 -126 -305.5t-329 -123.5q-202 0 -328 123.5t-126 305.5zM360 1296q0 77 55 130t134 53q75 0 128.5 -53.5t53.5 -129.5 q0 -79 -53.5 -133.5t-128.5 -54.5q-80 0 -134.5 54.5t-54.5 133.5z" />
<glyph unicode="&#xc0;" horiz-adv-x="1110" d="M-92 0l534 1454h226l534 -1454h-307l-111 311h-460l-109 -311h-307zM238 1796l229 131l199 -342l-115 -69zM412 557h286l-143 404z" />
<glyph unicode="&#xc1;" horiz-adv-x="1110" d="M-92 0l534 1454h226l534 -1454h-307l-111 311h-460l-109 -311h-307zM412 557h286l-143 404zM438 1585l199 342l229 -131l-313 -280z" />
<glyph unicode="&#xc2;" horiz-adv-x="1107" d="M-92 0l534 1454h226l534 -1454h-307l-111 311h-460l-109 -311h-307zM152 1477l280 383h242l280 -383h-252l-151 213l-154 -213h-245zM412 557h286l-143 404z" />
<glyph unicode="&#xc3;" horiz-adv-x="1110" d="M-92 0l534 1454h226l534 -1454h-307l-111 311h-460l-109 -311h-307zM182 1538q0 39 7 77t25 76.5t44.5 67t70 46.5t97.5 18q46 0 86.5 -17.5t63.5 -38t48 -38t44 -17.5q34 0 54.5 23.5t20.5 64.5h181q0 -50 -12 -96t-38.5 -89.5t-77.5 -70t-120 -26.5q-48 0 -88 17.5 t-62 38.5t-45.5 38.5t-42.5 17.5q-34 0 -55 -25t-21 -67h-180zM412 557h286l-143 404z" />
<glyph unicode="&#xc4;" horiz-adv-x="1110" d="M-92 0l534 1454h226l534 -1454h-307l-111 311h-460l-109 -311h-307zM207 1663q0 63 40.5 102t112.5 39q68 0 108 -39t40 -102q0 -61 -40.5 -103t-107.5 -42q-71 0 -112 42t-41 103zM412 557h286l-143 404zM612 1663q0 62 41 101.5t111 39.5q69 0 109 -39t40 -102 q0 -61 -40.5 -103t-108.5 -42t-110 42t-42 103z" />
<glyph unicode="&#xc5;" horiz-adv-x="1110" d="M-92 0l504 1372q-72 62 -72 158q0 88 59 145.5t158 57.5q98 0 156.5 -57.5t58.5 -145.5q0 -99 -74 -160l504 -1370h-307l-111 311h-460l-109 -311h-307zM412 557h286l-143 404zM487 1530q0 -31 19 -51.5t51 -20.5q29 0 48.5 20.5t19.5 51.5q0 30 -19.5 49.5t-48.5 19.5 q-32 0 -51 -19t-19 -50z" />
<glyph unicode="&#xc6;" horiz-adv-x="1478" d="M-92 0l534 1454h1006v-246h-543v-358h543v-246h-543v-358h543v-246h-819v311h-305l-109 -311h-307zM412 557h217v559h-19z" />
<glyph unicode="&#xc7;" horiz-adv-x="1234" d="M61 727q0 154 59 293t160 239.5t242 160t299 59.5q199 0 379 -99v-350q-63 86 -161 132t-218 46q-133 0 -241 -64.5t-168 -174.5t-60 -242t60 -241.5t168 -173.5t241 -64q120 0 218 46t161 132v-352q-136 -74 -289 -92l-43 -117q8 -6 20.5 -16.5t33 -46t20.5 -72.5 q0 -43 -22 -81.5t-54 -62t-63.5 -41t-53.5 -25.5l-22 -7l-78 122q4 2 11 6t25 17t31.5 27.5t24.5 37t11 46.5q0 25 -17 49t-34 36l-17 11l43 119q-188 21 -340.5 124.5t-239 266t-86.5 352.5z" />
<glyph unicode="&#xc8;" horiz-adv-x="911" d="M61 0v1454h820v-246h-543v-358h543v-246h-543v-358h543v-246h-820z" />
<glyph unicode="&#xc9;" horiz-adv-x="911" d="M61 0v1454h820v-246h-543v-358h543v-246h-543v-358h543v-246h-820z" />
<glyph unicode="&#xca;" horiz-adv-x="911" d="M61 0v1454h820v-246h-543v-358h543v-246h-543v-358h543v-246h-820zM70 1518l280 383h242l280 -383h-251l-152 213l-154 -213h-245z" />
<glyph unicode="&#xcb;" horiz-adv-x="911" d="M61 0v1454h820v-246h-543v-358h543v-246h-543v-358h543v-246h-820zM123 1663q0 63 40.5 102t112.5 39q68 0 108 -39t40 -102q0 -61 -40.5 -103t-107.5 -42q-71 0 -112 42t-41 103zM528 1663q0 62 41 101.5t111 39.5q69 0 109 -39t40 -102q0 -61 -40.5 -103t-108.5 -42 t-110 42t-42 103z" />
<glyph unicode="&#xcc;" d="M-119 1798l230 131l198 -342l-114 -69zM61 0v1454h277v-1454h-277z" />
<glyph unicode="&#xcd;" d="M61 0v1454h277v-1454h-277zM63 1585l199 342l230 -131l-314 -280z" />
<glyph unicode="&#xce;" d="M-201 1518l281 383h242l280 -383h-252l-151 213l-154 -213h-246zM61 0v1454h277v-1454h-277z" />
<glyph unicode="&#xcf;" d="M-147 1663q0 63 40.5 102t112.5 39q68 0 108 -39t40 -102q0 -61 -40.5 -103t-107.5 -42q-71 0 -112 42t-41 103zM61 0v1454h277v-1454h-277zM258 1663q0 62 41 101.5t111 39.5q69 0 109 -39t40 -102q0 -61 -40.5 -103t-108.5 -42t-110 42t-42 103z" />
<glyph unicode="&#xd1;" horiz-adv-x="1224" d="M61 0v1454h230l596 -911v911h276v-1454h-252l-573 885v-885h-277zM231 1538q0 39 7 77t25 76.5t44.5 67t70 46.5t97.5 18q46 0 86.5 -17.5t63.5 -38t48 -38t44 -17.5q34 0 55 23.5t21 64.5h180q0 -50 -12 -96t-38.5 -89.5t-77.5 -70t-120 -26.5q-48 0 -88 17.5t-62 38.5 t-45.5 38.5t-42.5 17.5q-34 0 -54.5 -25t-20.5 -67h-181z" />
<glyph unicode="&#xd2;" horiz-adv-x="1615" d="M59 727q0 154 59 293t160 239.5t242 160t299 59.5t299.5 -59.5t242.5 -160t160.5 -239.5t59.5 -293t-59.5 -292.5t-160.5 -239t-242.5 -159.5t-299.5 -59t-299 59t-242 159.5t-160 239t-59 292.5zM350 727q0 -132 60 -241.5t168 -173.5t241 -64q202 0 336.5 139 t134.5 340q0 132 -60.5 242t-169 174.5t-241.5 64.5t-241 -64.5t-168 -174.5t-60 -242zM504 1798l229 131l199 -342l-115 -69z" />
<glyph unicode="&#xd3;" horiz-adv-x="1615" d="M59 727q0 154 59 293t160 239.5t242 160t299 59.5t299.5 -59.5t242.5 -160t160.5 -239.5t59.5 -293t-59.5 -292.5t-160.5 -239t-242.5 -159.5t-299.5 -59t-299 59t-242 159.5t-160 239t-59 292.5zM350 727q0 -132 60 -241.5t168 -173.5t241 -64q202 0 336.5 139 t134.5 340q0 132 -60.5 242t-169 174.5t-241.5 64.5t-241 -64.5t-168 -174.5t-60 -242zM715 1587l198 342l230 -131l-314 -280z" />
<glyph unicode="&#xd4;" horiz-adv-x="1615" d="M61 727q0 154 59 293t160 239.5t242 160t299 59.5t299.5 -59.5t242.5 -160t160.5 -239.5t59.5 -293t-59.5 -292.5t-160.5 -239t-242.5 -159.5t-299.5 -59t-299 59t-242 159.5t-160 239t-59 292.5zM352 727q0 -132 60 -241.5t168 -173.5t241 -64q202 0 336.5 139 t134.5 340q0 132 -60.5 242t-169 174.5t-241.5 64.5t-241 -64.5t-168 -174.5t-60 -242zM420 1518l280 383h242l281 -383h-252l-154 213l-151 -213h-246z" />
<glyph unicode="&#xd5;" horiz-adv-x="1615" d="M61 727q0 154 59 293t160 239.5t242 160t299 59.5t299.5 -59.5t242.5 -160t160.5 -239.5t59.5 -293t-59.5 -292.5t-160.5 -239t-242.5 -159.5t-299.5 -59t-299 59t-242 159.5t-160 239t-59 292.5zM352 727q0 -132 60 -241.5t168 -173.5t241 -64q202 0 336.5 139 t134.5 340q0 132 -60.5 242t-169 174.5t-241.5 64.5t-241 -64.5t-168 -174.5t-60 -242zM451 1538q0 50 12 97t38.5 91t76 70.5t116.5 26.5q46 0 86.5 -17.5t63.5 -38t48 -38t44 -17.5q34 0 55 23.5t21 64.5h180q0 -50 -12 -96t-38.5 -89.5t-77.5 -70t-120 -26.5 q-48 0 -88 17.5t-61.5 38.5t-45 38.5t-42.5 17.5q-34 0 -55 -25t-21 -67h-180z" />
<glyph unicode="&#xd6;" horiz-adv-x="1560" d="M4 727q0 154 59 293t160 239.5t242 160t299 59.5t299.5 -59.5t242.5 -160t160.5 -239.5t59.5 -293t-59.5 -292.5t-160.5 -239t-242.5 -159.5t-299.5 -59t-299 59t-242 159.5t-160 239t-59 292.5zM295 727q0 -132 60 -241.5t168 -173.5t241 -64q202 0 336.5 139t134.5 340 q0 132 -60.5 242t-169 174.5t-241.5 64.5t-241 -64.5t-168 -174.5t-60 -242zM410 1663q0 63 40.5 102t112.5 39q68 0 108 -39t40 -102q0 -61 -40.5 -103t-107.5 -42q-71 0 -112 42t-41 103zM815 1663q0 62 41 101.5t111 39.5q69 0 109 -39t40 -102q0 -61 -40.5 -103 t-108.5 -42t-110 42t-42 103z" />
<glyph unicode="&#xd7;" horiz-adv-x="976" d="M61 1010l162 161l264 -264l267 267l161 -162l-266 -267l240 -239l-162 -162l-240 240l-237 -240l-162 164l238 237z" />
<glyph unicode="&#xd9;" horiz-adv-x="1220" d="M61 518v936h275v-893q0 -155 71 -236t201 -81q132 0 203.5 81t71.5 236v893h274v-940q0 -537 -547 -537q-269 0 -409 138t-140 403zM285 1794l229 131l199 -342l-115 -70z" />
<glyph unicode="&#xda;" horiz-adv-x="1218" d="M61 518v936h275v-893q0 -155 71 -236t201 -81q132 0 203.5 81t71.5 236v893h274v-940q0 -537 -547 -537q-269 0 -409 138t-140 403zM500 1581l198 342l230 -131l-314 -281z" />
<glyph unicode="&#xdb;" horiz-adv-x="1218" d="M61 518v936h275v-893q0 -155 71 -236t201 -81q132 0 203.5 81t71.5 236v893h274v-940q0 -537 -547 -537q-269 0 -409 138t-140 403zM209 1518l280 383h242l281 -383h-252l-154 213l-151 -213h-246z" />
<glyph unicode="&#xdc;" horiz-adv-x="1218" d="M61 518v936h275v-893q0 -155 71 -236t201 -81q132 0 203.5 81t71.5 236v893h274v-940q0 -537 -547 -537q-269 0 -409 138t-140 403zM258 1663q0 63 41 102t113 39q68 0 107.5 -39t39.5 -102q0 -61 -40 -103t-107 -42q-71 0 -112.5 42t-41.5 103zM664 1663q0 63 41 102 t110 39t109.5 -39t40.5 -102q0 -61 -41 -103t-109 -42t-109.5 42t-41.5 103z" />
<glyph unicode="&#xdd;" horiz-adv-x="1112" d="M-92 1454h317l328 -555l332 555h319l-520 -891v-563h-276v582zM451 1585l198 342l230 -131l-314 -280z" />
<glyph unicode="&#xdf;" horiz-adv-x="1126" d="M61 0v942q0 113 29.5 206t76.5 153t109 101.5t125 59t127 17.5q63 0 120.5 -11.5t110 -37.5t91 -65t61.5 -97.5t23 -130.5q0 -99 -49 -165t-121 -100q45 -14 87.5 -35.5t88 -58t79.5 -82t55.5 -112t21.5 -142.5q0 -122 -52 -220.5t-140 -159.5t-197 -93t-230 -32h-59v223 h59q65 0 124 17t107.5 50t77.5 88.5t29 126.5q0 136 -98 212.5t-240 76.5h-59v201h59q94 0 143.5 54.5t49.5 131.5q0 63 -40.5 98t-101.5 35q-86 0 -138 -73.5t-52 -235.5v-942h-277z" />
<glyph unicode="&#xe0;" horiz-adv-x="1138" d="M31 473q0 218 130 361t333 143q182 0 305 -109v84h278v-952h-278v82q-130 -105 -305 -105q-143 0 -250 68t-160 179t-53 249zM256 1303l229 131l199 -342l-115 -70zM315 479q0 -114 69 -188t177 -74q113 0 182.5 76.5t69.5 183.5t-72.5 183.5t-179.5 76.5 q-110 0 -178 -75t-68 -183z" />
<glyph unicode="&#xe1;" horiz-adv-x="1138" d="M31 473q0 218 130 361t333 143q182 0 305 -109v84h278v-952h-278v82q-130 -105 -305 -105q-143 0 -250 68t-160 179t-53 249zM315 479q0 -114 69 -188t177 -74q113 0 182.5 76.5t69.5 183.5t-72.5 183.5t-179.5 76.5q-110 0 -178 -75t-68 -183zM434 1090l199 342 l229 -132l-313 -280z" />
<glyph unicode="&#xe2;" horiz-adv-x="1138" d="M31 473q0 218 130 361t333 143q182 0 305 -109v84h278v-952h-278v82q-130 -105 -305 -105q-143 0 -250 68t-160 179t-53 249zM207 1071l280 383h242l281 -383h-252l-152 213l-153 -213h-246zM315 479q0 -114 69 -188t177 -74q113 0 182.5 76.5t69.5 183.5t-72.5 183.5 t-179.5 76.5q-110 0 -178 -75t-68 -183z" />
<glyph unicode="&#xe3;" horiz-adv-x="1138" d="M31 473q0 218 130 361t333 143q182 0 305 -109v84h278v-952h-278v82q-130 -105 -305 -105q-143 0 -250 68t-160 179t-53 249zM199 1042q0 50 12 97t38.5 91t76 70.5t116.5 26.5q46 0 86.5 -17t63.5 -38t48 -38t44 -17q34 0 55 23.5t21 64.5h180q0 -50 -12 -96t-38.5 -90 t-77.5 -70.5t-120 -26.5q-48 0 -88 17.5t-61.5 39t-45 39t-42.5 17.5q-34 0 -55 -25.5t-21 -67.5h-180zM315 479q0 -114 69 -188t177 -74q113 0 182.5 76.5t69.5 183.5t-72.5 183.5t-179.5 76.5q-110 0 -178 -75t-68 -183z" />
<glyph unicode="&#xe4;" horiz-adv-x="1138" d="M31 473q0 218 130 361t333 143q182 0 305 -109v84h278v-952h-278v82q-130 -105 -305 -105q-143 0 -250 68t-160 179t-53 249zM238 1167q0 63 40.5 102.5t112.5 39.5q68 0 108 -39.5t40 -102.5q0 -61 -40.5 -103t-107.5 -42q-71 0 -112 42t-41 103zM315 479 q0 -114 69 -188t177 -74q113 0 182.5 76.5t69.5 183.5t-72.5 183.5t-179.5 76.5q-110 0 -178 -75t-68 -183zM643 1167q0 63 41.5 102.5t110.5 39.5t109 -39.5t40 -102.5q0 -61 -40.5 -103t-108.5 -42t-110 42t-42 103z" />
<glyph unicode="&#xe5;" horiz-adv-x="1138" d="M31 473q0 218 130 361t333 143q182 0 305 -109v84h278v-952h-278v82q-130 -105 -305 -105q-143 0 -250 68t-160 179t-53 249zM315 479q0 -114 69 -188t177 -74q113 0 182.5 76.5t69.5 183.5t-72.5 183.5t-179.5 76.5q-110 0 -178 -75t-68 -183zM377 1229q0 88 59 145.5 t158 57.5q98 0 156.5 -57.5t58.5 -145.5q0 -86 -59 -146.5t-156 -60.5q-98 0 -157.5 60.5t-59.5 146.5zM524 1229q0 -31 19 -51.5t51 -20.5q29 0 48.5 20.5t19.5 51.5t-19 50t-49 19q-32 0 -51 -19t-19 -50z" />
<glyph unicode="&#xe6;" horiz-adv-x="2301" d="M973 82v786q98 109 319 109q223 0 362.5 -138.5t139.5 -353.5q0 -51 -4 -67h-717q7 -95 67 -151t152 -56q78 0 132 36t75 93h277q-8 -63 -42.5 -125t-92.5 -116t-149.5 -88t-199.5 -34q-206 0 -319 105zM1077 600h426q-15 65 -72.5 113.5t-138.5 48.5q-89 0 -147 -48.5 t-68 -113.5z" />
<glyph unicode="&#xe7;" horiz-adv-x="831" d="M0 477q0 217 144 358.5t356 141.5q116 0 250 -55v-275q-104 90 -226 90q-107 0 -174 -72t-67 -188q0 -115 67 -188.5t174 -73.5q66 0 119 23.5t107 70.5v-280q-100 -36 -160 -45l-43 -119q8 -6 20.5 -16.5t33 -46t20.5 -72.5q0 -31 -12 -60t-31 -50.5t-41.5 -39.5 t-45.5 -30t-42 -20.5t-31 -12.5l-12 -4l-78 122q4 2 11 6t24.5 17t31 27.5t24.5 37t11 46.5q0 25 -17 49t-34 36l-17 11l46 121q-178 31 -293 165.5t-115 325.5z" />
<glyph unicode="&#xe8;" horiz-adv-x="1067" d="M31 487q0 215 137.5 352.5t366.5 137.5q223 0 362 -138.5t139 -353.5q0 -51 -4 -67h-717q7 -95 67 -151t153 -56q78 0 131.5 36t74.5 93h277q-8 -63 -42.5 -125t-92 -116t-149 -88t-199.5 -34q-222 0 -363 138.5t-141 371.5zM231 1303l230 131l198 -342l-114 -70z M319 600h426q-15 65 -72 113.5t-138 48.5q-89 0 -147.5 -48.5t-68.5 -113.5z" />
<glyph unicode="&#xe9;" horiz-adv-x="1067" d="M31 487q0 215 137.5 352.5t366.5 137.5q223 0 362 -138.5t139 -353.5q0 -51 -4 -67h-717q7 -95 67 -151t153 -56q78 0 131.5 36t74.5 93h277q-8 -63 -42.5 -125t-92 -116t-149 -88t-199.5 -34q-222 0 -363 138.5t-141 371.5zM319 600h426q-15 65 -72 113.5t-138 48.5 q-89 0 -147.5 -48.5t-68.5 -113.5zM399 1090l199 342l229 -132l-313 -280z" />
<glyph unicode="&#xea;" horiz-adv-x="1067" d="M31 487q0 215 137.5 352.5t366.5 137.5q223 0 362 -138.5t139 -353.5q0 -51 -4 -67h-717q7 -95 67 -151t153 -56q78 0 131.5 36t74.5 93h277q-8 -63 -42.5 -125t-92 -116t-149 -88t-199.5 -34q-222 0 -363 138.5t-141 371.5zM139 1040l281 383h242l280 -383h-252 l-151 213l-154 -213h-246zM319 600h426q-15 65 -72 113.5t-138 48.5q-89 0 -147.5 -48.5t-68.5 -113.5z" />
<glyph unicode="&#xeb;" horiz-adv-x="1067" d="M31 487q0 215 137.5 352.5t366.5 137.5q222 0 361.5 -139t139.5 -353q0 -51 -4 -67h-719q9 -95 69.5 -151t152.5 -56q78 0 131.5 35t74.5 92h277q-8 -62 -42.5 -123.5t-92.5 -115.5t-149 -88t-199 -34q-222 0 -363 138.5t-141 371.5zM184 1167q0 63 41 102.5t113 39.5 q68 0 107.5 -39.5t39.5 -102.5q0 -61 -40 -103t-107 -42q-71 0 -112.5 42t-41.5 103zM319 600h426q-15 65 -72 113.5t-138 48.5q-89 0 -147.5 -48.5t-68.5 -113.5zM590 1167q0 63 41 102.5t110 39.5t109.5 -39.5t40.5 -102.5q0 -61 -41 -103t-109 -42t-109.5 42t-41.5 103z " />
<glyph unicode="&#xec;" d="M-96 1300l229 132l199 -342l-115 -70zM61 0v952h277v-952h-277z" />
<glyph unicode="&#xed;" d="M61 0v952h277v-952h-277zM98 1090l199 342l229 -132l-313 -280z" />
<glyph unicode="&#xee;" d="M-203 1022l281 383h241l281 -383h-252l-151 213l-154 -213h-246zM61 0v952h277v-952h-277z" />
<glyph unicode="&#xef;" d="M-133 1167q0 63 40.5 102.5t112.5 39.5q68 0 108 -39.5t40 -102.5q0 -61 -40.5 -103t-107.5 -42q-71 0 -112 42t-41 103zM61 0v952h277v-952h-277zM231 1167q0 63 41.5 102.5t110.5 39.5t109 -39.5t40 -102.5q0 -61 -40.5 -103t-108.5 -42t-110 42t-42 103z" />
<glyph unicode="&#xf1;" horiz-adv-x="1030" d="M61 0v952h277v-110h2q110 135 283 135q91 0 160 -30t108.5 -81.5t58.5 -115t19 -136.5v-614h-279v578q0 77 -42.5 119t-121.5 42q-86 0 -137 -53.5t-51 -138.5v-547h-277zM150 1069q0 50 12 97t38.5 91t76 70.5t116.5 26.5q46 0 86.5 -17.5t63.5 -38t48 -38t44 -17.5 q34 0 55 23.5t21 64.5h180q0 -50 -12 -96t-38.5 -89.5t-77.5 -70t-120 -26.5q-48 0 -88 17.5t-61.5 38.5t-45 38.5t-42.5 17.5q-34 0 -55 -25t-21 -67h-180z" />
<glyph unicode="&#xf2;" horiz-adv-x="1024" d="M31 477q0 212 147 356t383 144q118 0 218.5 -39.5t169 -107t107 -159t38.5 -194.5t-38.5 -194.5t-107 -159t-169 -107t-218.5 -39.5q-236 0 -383 144t-147 356zM252 1303l229 131l199 -342l-115 -70zM311 477q0 -114 70 -188t180 -74t181 74t71 188q0 113 -71 187.5 t-181 74.5t-180 -74.5t-70 -187.5z" />
<glyph unicode="&#xf3;" horiz-adv-x="1124" d="M31 477q0 212 147 356t383 144q118 0 218.5 -39.5t169 -107t107 -159t38.5 -194.5t-38.5 -194.5t-107 -159t-169 -107t-218.5 -39.5q-236 0 -383 144t-147 356zM311 477q0 -114 70 -188t180 -74t181 74t71 188q0 113 -71 187.5t-181 74.5t-180 -74.5t-70 -187.5z M461 1092l198 342l230 -131l-314 -281z" />
<glyph unicode="&#xf4;" horiz-adv-x="1124" d="M31 477q0 212 147 356t383 144q118 0 218.5 -39.5t169 -107t107 -159t38.5 -194.5t-38.5 -194.5t-107 -159t-169 -107t-218.5 -39.5q-236 0 -383 144t-147 356zM168 1022l281 383h241l281 -383h-252l-152 213l-153 -213h-246zM311 477q0 -114 70 -188t180 -74t181 74 t71 188q0 113 -71 187.5t-181 74.5t-180 -74.5t-70 -187.5z" />
<glyph unicode="&#xf5;" horiz-adv-x="1124" d="M31 477q0 212 147 356t383 144q118 0 218.5 -39.5t169 -107t107 -159t38.5 -194.5t-38.5 -194.5t-107 -159t-169 -107t-218.5 -39.5q-236 0 -383 144t-147 356zM197 1042q0 50 12 97t38.5 91t76 70.5t116.5 26.5q46 0 86.5 -17t63.5 -38t48 -38t44 -17q34 0 55 23.5 t21 64.5h180q0 -50 -12 -96t-38.5 -90t-77.5 -70.5t-120 -26.5q-48 0 -88 17.5t-61.5 39t-45 39t-42.5 17.5q-34 0 -55 -25.5t-21 -67.5h-180zM311 477q0 -114 70 -188t180 -74t181 74t71 188q0 113 -71 187.5t-181 74.5t-180 -74.5t-70 -187.5z" />
<glyph unicode="&#xf6;" horiz-adv-x="1124" d="M31 477q0 212 147 356t383 144q118 0 218.5 -39.5t169 -107t107 -159t38.5 -194.5t-38.5 -194.5t-107 -159t-169 -107t-218.5 -39.5q-236 0 -383 144t-147 356zM215 1167q0 63 41 102.5t113 39.5q68 0 107.5 -39.5t39.5 -102.5q0 -61 -40 -103t-107 -42q-71 0 -112.5 42 t-41.5 103zM311 477q0 -114 70 -188t180 -74t181 74t71 188q0 113 -71 187.5t-181 74.5t-180 -74.5t-70 -187.5zM621 1167q0 63 41 102.5t110 39.5t109.5 -39.5t40.5 -102.5q0 -61 -41 -103t-109 -42t-109.5 42t-41.5 103z" />
<glyph unicode="&#xf7;" horiz-adv-x="1024" d="M61 631v229h902v-229h-902zM336 1075q0 72 48 121t116 49q72 0 121 -49t49 -121q0 -69 -49 -116.5t-121 -47.5q-68 0 -116 47.5t-48 116.5zM338 410q0 72 48 121t116 49q72 0 121 -49t49 -121q0 -69 -49 -116.5t-121 -47.5q-68 0 -116 47.5t-48 116.5z" />
<glyph unicode="&#xf9;" horiz-adv-x="1011" d="M51 426v526h277v-528q0 -103 46 -155t132 -52t132 52t46 155v528h277v-528q0 -225 -115 -336t-336 -111q-224 0 -341.5 114.5t-117.5 334.5zM170 1303l229 131l199 -342l-115 -70z" />
<glyph unicode="&#xfa;" horiz-adv-x="1011" d="M51 426v526h277v-528q0 -103 46 -155t132 -52t132 52t46 155v528h277v-528q0 -225 -115 -336t-336 -111q-224 0 -341.5 114.5t-117.5 334.5zM381 1092l199 342l229 -131l-313 -281z" />
<glyph unicode="&#xfb;" horiz-adv-x="1011" d="M51 426v526h277v-528q0 -103 46 -155t132 -52t132 52t46 155v528h277v-528q0 -225 -115 -336t-336 -111q-224 0 -341.5 114.5t-117.5 334.5zM106 1022l281 383h242l280 -383h-252l-151 213l-154 -213h-246z" />
<glyph unicode="&#xfc;" horiz-adv-x="1024" d="M51 426v526h277v-528q0 -103 46 -155t132 -52t132 52t46 155v528h277v-528q0 -225 -115 -336t-336 -111q-224 0 -341.5 114.5t-117.5 334.5zM158 1167q0 63 40.5 102.5t112.5 39.5q68 0 108 -39.5t40 -102.5q0 -61 -40.5 -103t-107.5 -42q-71 0 -112 42t-41 103z M563 1167q0 63 41.5 102.5t110.5 39.5t109 -39.5t40 -102.5q0 -61 -40.5 -103t-108.5 -42t-110 42t-42 103z" />
<glyph unicode="&#xfd;" horiz-adv-x="1007" d="M-41 952h311l271 -561l266 561h303l-711 -1452h-311l291 588zM428 1092l199 342l229 -131l-313 -281z" />
<glyph unicode="&#xff;" horiz-adv-x="1007" d="M-41 952h311l271 -561l266 561h303l-711 -1452h-311l291 588zM180 1167q0 63 41 102.5t113 39.5q68 0 107.5 -39.5t39.5 -102.5q0 -61 -40 -103t-107 -42q-71 0 -112.5 42t-41.5 103zM586 1167q0 63 41 102.5t110 39.5t109.5 -39.5t40.5 -102.5q0 -61 -41 -103t-109 -42 t-109.5 42t-41.5 103z" />
<glyph unicode="&#x2c6;" horiz-adv-x="802" d="M0 1071l281 383h241l281 -383h-252l-152 213l-153 -213h-246z" />
<glyph unicode="&#x2dc;" horiz-adv-x="741" d="M-2 1274q0 39 7 77t25 76.5t44.5 67t70 46.5t97.5 18q46 0 86 -17.5t63 -38t48 -38t44 -17.5q34 0 55 23.5t21 64.5h180q0 -50 -12 -96t-38 -90t-77 -70.5t-120 -26.5q-48 0 -88 17.5t-62 39t-45.5 39t-42.5 17.5q-34 0 -55 -25t-21 -67h-180z" />
<glyph unicode="&#x2000;" horiz-adv-x="964" />
<glyph unicode="&#x2001;" horiz-adv-x="1929" />
<glyph unicode="&#x2002;" horiz-adv-x="964" />
<glyph unicode="&#x2003;" horiz-adv-x="1929" />
<glyph unicode="&#x2004;" horiz-adv-x="643" />
<glyph unicode="&#x2005;" horiz-adv-x="482" />
<glyph unicode="&#x2006;" horiz-adv-x="321" />
<glyph unicode="&#x2007;" horiz-adv-x="321" />
<glyph unicode="&#x2008;" horiz-adv-x="241" />
<glyph unicode="&#x2009;" horiz-adv-x="385" />
<glyph unicode="&#x200a;" horiz-adv-x="107" />
<glyph unicode="&#x2010;" horiz-adv-x="675" d="M31 354v246h614v-246h-614z" />
<glyph unicode="&#x2011;" horiz-adv-x="675" d="M31 354v246h614v-246h-614z" />
<glyph unicode="&#x2012;" horiz-adv-x="675" d="M31 354v246h614v-246h-614z" />
<glyph unicode="&#x2013;" horiz-adv-x="983" d="M31 618v246h921v-246h-921z" />
<glyph unicode="&#x2014;" horiz-adv-x="1536" d="M10 618v246h1516v-246h-1516z" />
<glyph unicode="&#x2018;" horiz-adv-x="339" d="M-31 965l160 489h150v-489h-310z" />
<glyph unicode="&#x2019;" horiz-adv-x="339" d="M61 965v489h310l-160 -489h-150z" />
<glyph unicode="&#x201a;" horiz-adv-x="1449" />
<glyph unicode="&#x201c;" horiz-adv-x="694" d="M16 1454h310v-489h-150zM354 1454h310v-489h-150z" />
<glyph unicode="&#x201d;" horiz-adv-x="694" d="M27 965v489h309l-160 -489h-149zM365 965v489h309l-160 -489h-149z" />
<glyph unicode="&#x2026;" horiz-adv-x="1431" d="M31 160q0 79 53.5 133.5t128.5 54.5q79 0 133.5 -54t54.5 -134q0 -77 -54.5 -130t-133.5 -53q-75 0 -128.5 53.5t-53.5 129.5zM530 160q0 79 53.5 133.5t129.5 54.5q79 0 133.5 -54t54.5 -134q0 -70 -45 -121q-56 -62 -143 -62q-75 0 -129 53.5t-54 129.5zM1030 160 q0 79 53.5 133.5t128.5 54.5q80 0 134.5 -54.5t54.5 -133.5q0 -77 -55 -130t-134 -53q-75 0 -128.5 53.5t-53.5 129.5z" />
<glyph unicode="&#x202f;" horiz-adv-x="385" />
<glyph unicode="&#x205f;" horiz-adv-x="482" />
<glyph unicode="&#x20ac;" horiz-adv-x="1433" d="M61 408v213h185q-6 53 -6 106q0 29 2 43h-181v213h220q75 220 259 358t418 138q190 0 359 -99v-309q-122 137 -359 137q-118 0 -213.5 -60.5t-150.5 -164.5h461v-213h-523q-2 -14 -2 -43q0 -42 11 -106h514v-213h-420q58 -75 141.5 -117.5t181.5 -42.5q237 0 359 137 v-311q-165 -97 -359 -97q-216 0 -390.5 118.5t-260.5 312.5h-246z" />
<glyph unicode="&#x2122;" horiz-adv-x="667" d="M0 1378v76h272v-76h-92v-286h-88v286h-92zM289 1092v362h121l59 -184l51 184h127v-362h-82v204l-69 -204h-58l-71 204v-204h-78z" />
<glyph unicode="&#xe000;" horiz-adv-x="952" d="M0 0v952h952v-952h-952z" />
<glyph unicode="&#xfb01;" horiz-adv-x="1122" d="M51 709v243h101v178q0 183 125.5 306t328.5 123q202 0 328.5 -123.5t126.5 -305.5h-277q0 80 -50.5 134.5t-127.5 54.5q-78 0 -128 -54t-50 -135v-178h238v-243h-238v-709h-276v709h-101zM784 0v952h277v-952h-277z" />
<glyph unicode="&#xfb02;" horiz-adv-x="1122" d="M51 709v243h101v178q0 183 125.5 306t328.5 123q201 0 328 -122.5t127 -299.5v-1137h-277v1130q0 80 -50.5 134.5t-127.5 54.5q-78 0 -128 -54t-50 -135v-178h238v-243h-238v-709h-276v709h-101z" />
<glyph unicode="&#xfb03;" horiz-adv-x="1755" d="M51 709v243h101v178q0 183 125.5 306t328.5 123q190 0 316 -113q129 113 317 113q202 0 328.5 -123.5t126.5 -305.5h-277q0 80 -50.5 134.5t-127.5 54.5q-78 0 -128 -54t-50 -135v-178h237v-243h-237v-709h-277v709h-356v-709h-276v709h-101zM428 952h356v178 q0 80 -50.5 134.5t-127.5 54.5q-78 0 -128 -54t-50 -135v-178zM1417 0v952h277v-952h-277z" />
<glyph unicode="&#xfb04;" horiz-adv-x="1755" d="M51 709v243h101v178q0 183 125.5 306t328.5 123q190 0 316 -113q129 113 317 113q201 0 328 -122.5t127 -299.5v-1137h-277v1130q0 80 -50.5 134.5t-127.5 54.5q-78 0 -128 -54t-50 -135v-178h237v-243h-237v-709h-277v709h-356v-709h-276v709h-101zM428 952h356v178 q0 80 -50.5 134.5t-127.5 54.5q-78 0 -128 -54t-50 -135v-178z" />
</font>
</defs>
</svg>
