<?xml version="1.0" encoding="UTF-8"?>
<svg width="325px" height="213px" viewBox="0 0 325 213" version="1.1" xmlns="http://www.w3.org/2000/svg" xmlns:xlink="http://www.w3.org/1999/xlink">
    <!-- Generator: Sketch 49.2 (51160) - http://www.bohemiancoding.com/sketch -->
    <title>amir</title>
    <desc>Created with Sketch.</desc>
    <defs>
        <polygon id="path-1" points="0 36.2884615 252.410133 36.2884615 252.410133 0.305961538 0 0.305961538"></polygon>
    </defs>
    <g id="Page-1" stroke="none" stroke-width="1" fill="none" fill-rule="evenodd">
        <g id="Work-Landing" transform="translate(-88.000000, -590.000000)">
            <g id="amir" transform="translate(88.000000, 590.000000)">
                <rect id="Rectangle-Copy-10" fill="#333333" x="0" y="0" width="325" height="213"></rect>
                <g id="Logo-/-ATIL-/-White" transform="translate(36.000000, 88.000000)" stroke-width="1">
                    <g id="Page-1">
                        <path d="M4.81503729,1.49807308 L0.000349447514,14.4480731 L3.60664779,14.4480731 L4.44252624,11.9783231 L9.19431354,11.9783231 L10.0392776,14.4480731 L13.7007887,14.4480731 L8.88610083,1.49807308 L4.81503729,1.49807308 Z M6.82296271,5.01307308 L8.12150967,8.84257308 L5.51463122,8.84257308 L6.82296271,5.01307308 Z" id="Fill-1" fill="#FEFEFE"></path>
                        <polygon id="Fill-2" fill="#FEFEFE" points="14.1728923 14.4480019 17.4073785 14.4480019 17.4073785 1.12800192 14.1728923 1.12800192"></polygon>
                        <polygon id="Fill-3" fill="#FEFEFE" points="18.6248536 14.4480019 21.8593398 14.4480019 21.8593398 1.12800192 18.6248536 1.12800192"></polygon>
                        <polygon id="Fill-4" fill="#FEFEFE" points="36.3326171 4.73550192 32.7165343 4.73550192 32.7165343 14.4480019 29.2639928 14.4480019 29.2639928 4.73550192 25.6479099 4.73550192 25.6479099 1.49800192 36.3326171 1.49800192"></polygon>
                        <g id="Group-61" transform="translate(0.000000, 0.405790)">
                            <path d="M41.5115691,4.62571154 C41.6876906,4.62571154 41.8491354,4.63851923 41.9973011,4.66271154 C42.1461657,4.68690385 42.2537956,4.70611538 42.3201906,4.71821154 L42.1384779,8.01121154 C41.951174,7.96140385 41.7324199,7.91444231 41.4843122,7.86748077 C41.2355055,7.82123077 40.9818066,7.79846154 40.7211188,7.79846154 C40.4974724,7.79846154 40.2961906,7.81980769 40.1172735,7.86321154 C39.9383564,7.90661538 39.7866961,7.98061538 39.6622928,8.08521154 C39.5385884,8.18980769 39.4435387,8.32713462 39.3764448,8.49648077 C39.3100497,8.66653846 39.2772017,8.87786538 39.2772017,9.13046154 L39.2772017,14.0422115 L36.0329309,14.0422115 L36.0329309,4.87546154 L39.122047,4.87546154 L39.122047,5.80046154 C39.3764448,5.39346154 39.700732,5.09603846 40.0949088,4.90748077 C40.4876878,4.71963462 40.9608398,4.62571154 41.5115691,4.62571154" id="Fill-5" fill="#FEFEFE"></path>
                            <path d="M47.3265854,7.68724808 C47.09595,7.68724808 46.8820881,7.73065192 46.6856986,7.81674808 C46.4893091,7.90355577 46.3194776,8.02522885 46.176903,8.18247885 C46.0343285,8.33972885 45.923903,8.52615192 45.8456268,8.74174808 C45.7666517,8.95805577 45.7275135,9.19499808 45.7275135,9.45399808 C45.7275135,9.71299808 45.7666517,9.95065192 45.8456268,10.1662481 C45.923903,10.3825558 46.0343285,10.5689788 46.176903,10.7262288 C46.3194776,10.8834788 46.4893091,11.0051519 46.6856986,11.0912481 C46.8820881,11.1780558 47.09595,11.2207481 47.3265854,11.2207481 C47.5565218,11.2207481 47.7703837,11.1780558 47.9667732,11.0912481 C48.1631627,11.0051519 48.3329942,10.8834788 48.4755688,10.7262288 C48.6181434,10.5689788 48.7285688,10.3825558 48.806845,10.1662481 C48.8858202,9.95065192 48.9249583,9.71299808 48.9249583,9.45399808 C48.9249583,9.19499808 48.8858202,8.95805577 48.806845,8.74174808 C48.7285688,8.52615192 48.6181434,8.33972885 48.4755688,8.18247885 C48.3329942,8.02522885 48.1631627,7.90355577 47.9667732,7.81674808 C47.7703837,7.73065192 47.5565218,7.68724808 47.3265854,7.68724808 Z M52.0511157,14.0419981 L48.9431296,14.0419981 L48.9431296,13.2372481 C48.6712594,13.5453442 48.3357898,13.7965173 47.9395163,13.9914788 C47.5432428,14.1857288 47.0596075,14.2824981 46.4907069,14.2824981 C45.8903561,14.2824981 45.3396268,14.1558442 44.8364224,13.9032481 C44.3339169,13.6506519 43.9013008,13.3041327 43.5371765,12.8622673 C43.17445,12.421825 42.8920964,11.9088058 42.6922124,11.3224981 C42.4930273,10.7369019 42.3923865,10.1107481 42.3923865,9.44474808 C42.3923865,8.78515192 42.4930273,8.16184423 42.6922124,7.57624808 C42.8920964,6.99065192 43.17445,6.47905577 43.5371765,6.04074808 C43.9013008,5.60315192 44.3339169,5.25734423 44.8364224,5.00474808 C45.3396268,4.75215192 45.8938506,4.62549808 46.4990936,4.62549808 C47.0686931,4.62549808 47.5502318,4.725825 47.9444086,4.92647885 C48.3378865,5.12642115 48.6712594,5.38399808 48.9431296,5.69849808 L48.9431296,4.87524808 L52.0511157,4.87524808 L52.0511157,14.0419981 Z" id="Fill-7" fill="#FEFEFE"></path>
                            <path d="M58.7839909,4.62571154 C59.2501539,4.62571154 59.6799743,4.70611538 60.0741511,4.86621154 C60.467629,5.02630769 60.807292,5.25755769 61.0917423,5.55996154 C61.3761925,5.86236538 61.5984412,6.22596154 61.759187,6.65146154 C61.919234,7.07696154 62.0003058,7.55155769 62.0003058,8.07596154 L62.0003058,14.0422115 L58.7658196,14.0422115 L58.7658196,9.11196154 C58.7658196,8.64946154 58.6651787,8.29938462 58.4659936,8.06244231 C58.2661097,7.82478846 57.9865517,7.70596154 57.6301152,7.70596154 C57.3086235,7.70596154 57.0409467,7.81980769 56.825687,8.04821154 C56.6111262,8.27661538 56.5027975,8.63736538 56.5027975,9.13046154 L56.5027975,14.0422115 L53.2683113,14.0422115 L53.2683113,4.87546154 L56.3490406,4.87546154 L56.3490406,5.81896154 C56.8571373,5.02346154 57.6692533,4.62571154 58.7839909,4.62571154" id="Fill-9" fill="#FEFEFE"></path>
                            <path d="M70.2126718,7.90924808 C69.958274,7.81105577 69.6947906,7.72140192 69.4222215,7.64099808 C69.1496525,7.56130577 68.8819757,7.49015192 68.6184923,7.42824808 C68.3550088,7.36705577 68.100611,7.31867115 67.8546,7.28522885 C67.6092878,7.251075 67.3835448,7.23399808 67.1780696,7.23399808 C66.862868,7.23399808 66.6538983,7.26530577 66.5511608,7.32649808 C66.4477243,7.38840192 66.396705,7.47165192 66.396705,7.57624808 C66.396705,7.66305577 66.4330475,7.72922885 66.5057326,7.77547885 C66.5784177,7.82101731 66.6783597,7.861575 66.8055586,7.89501731 C66.9327575,7.92917115 67.0837188,7.95692115 67.2598403,7.97897885 C67.435263,8.000325 67.6260613,8.02949808 67.8322354,8.06649808 L68.3773735,8.15899808 C69.3404508,8.31980577 70.0596138,8.63572885 70.5355613,9.10747885 C71.0108099,9.57922885 71.2484343,10.2004019 71.2484343,10.9709981 C71.2484343,11.5018058 71.1533845,11.9714212 70.9618873,12.3819788 C70.7717878,12.791825 70.4971221,13.1390558 70.1399867,13.4222481 C69.7828514,13.7061519 69.3453431,13.920325 68.8274619,14.0654788 C68.3088818,14.2099212 67.7204122,14.2824981 67.0599564,14.2824981 C66.6119646,14.2824981 66.1793486,14.262575 65.7656028,14.2227288 C65.3504591,14.1821712 64.9590779,14.1252481 64.5928569,14.0512481 C64.2266359,13.9772481 63.8890696,13.8861712 63.580158,13.7787288 C63.2712464,13.670575 63.0049674,13.5453442 62.7806221,13.4037481 L63.8163845,10.8322481 C64.8158044,11.3872481 65.9025862,11.6647481 67.0781276,11.6647481 C67.435263,11.6647481 67.6805751,11.6341519 67.8140641,11.5722481 C67.947553,11.5110558 68.0139481,11.4121519 68.0139481,11.2762481 C68.0139481,11.2022481 67.9894867,11.1417673 67.941263,11.0962288 C67.8930392,11.0499788 67.8140641,11.0079981 67.7050365,10.9709981 C67.5960088,10.9339981 67.4534343,10.9005558 67.2780116,10.8692481 C67.102589,10.8386519 66.8901249,10.8044981 66.6420171,10.7674981 L66.2876773,10.7119981 C65.1729398,10.5398058 64.3566304,10.2160558 63.8394481,9.74074808 C63.3215669,9.26615192 63.0622768,8.60299808 63.0622768,7.75199808 C63.0622768,7.24680577 63.1503376,6.79924808 63.3257602,6.41074808 C63.5011829,6.02224808 63.7590751,5.69565192 64.0980392,5.43024808 C64.4370033,5.16555577 64.852147,4.96490192 65.3427713,4.82899808 C65.8333956,4.69309423 66.3932105,4.62549808 67.0236138,4.62549808 C67.3933293,4.62549808 67.7274011,4.63617115 68.0272271,4.65822885 C68.3277519,4.679575 68.6254812,4.716575 68.9225116,4.76851731 C69.2188431,4.82117115 69.5312492,4.89374808 69.858332,4.98624808 C70.1854149,5.07874808 70.5607215,5.19615192 70.9842519,5.33774808 L70.2126718,7.90924808 Z" id="Fill-11" fill="#FEFEFE"></path>
                            <path d="M76.7907417,7.68724808 C76.5608052,7.68724808 76.3469434,7.73065192 76.1505539,7.81674808 C75.9534655,7.90355577 75.7843329,8.02522885 75.6410594,8.18247885 C75.4984848,8.33972885 75.3880594,8.52615192 75.3097831,8.74174808 C75.2315069,8.95805577 75.1916699,9.19499808 75.1916699,9.45399808 C75.1916699,9.71299808 75.2315069,9.95065192 75.3097831,10.1662481 C75.3880594,10.3825558 75.4984848,10.5689788 75.6410594,10.7262288 C75.7843329,10.8834788 75.9534655,11.0051519 76.1505539,11.0912481 C76.3469434,11.1780558 76.5608052,11.2207481 76.7907417,11.2207481 C77.0206782,11.2207481 77.2345401,11.1780558 77.4316285,11.0912481 C77.628018,11.0051519 77.7971506,10.8834788 77.940424,10.7262288 C78.0822997,10.5689788 78.1927251,10.3825558 78.2717003,10.1662481 C78.3499765,9.95065192 78.3898135,9.71299808 78.3898135,9.45399808 C78.3898135,9.19499808 78.3499765,8.95805577 78.2717003,8.74174808 C78.1927251,8.52615192 78.0822997,8.33972885 77.940424,8.18247885 C77.7971506,8.02522885 77.628018,7.90355577 77.4316285,7.81674808 C77.2345401,7.73065192 77.0206782,7.68724808 76.7907417,7.68724808 M77.6175345,4.62549808 C78.2234765,4.62549808 78.7777003,4.75215192 79.2809047,5.00474808 C79.7827113,5.25734423 80.2160262,5.60315192 80.5794517,6.04074808 C80.9428771,6.47905577 81.2245318,6.99065192 81.4244157,7.57624808 C81.6242997,8.16184423 81.7242417,8.78515192 81.7242417,9.44474808 C81.7242417,10.1107481 81.6242997,10.7369019 81.4244157,11.3224981 C81.2245318,11.9088058 80.9428771,12.421825 80.5794517,12.8622673 C80.2160262,13.3041327 79.7827113,13.6506519 79.2809047,13.9032481 C78.7777003,14.1558442 78.2262721,14.2824981 77.6266202,14.2824981 C77.0996533,14.2824981 76.6481671,14.2006712 76.2728605,14.0377288 C75.8975539,13.874075 75.576761,13.6570558 75.3097831,13.3852481 L75.3097831,17.7419981 L72.075297,17.7419981 L72.075297,4.87524808 L75.1741975,4.87524808 L75.1741975,5.69849808 C75.4460677,5.38399808 75.7794406,5.12642115 76.1729185,4.92647885 C76.5670953,4.725825 77.0479351,4.62549808 77.6175345,4.62549808" id="Fill-13" fill="#FEFEFE"></path>
                            <path d="M87.0298334,7.68724808 C86.7991981,7.68724808 86.5853362,7.73065192 86.3889467,7.81674808 C86.1925572,7.90355577 86.0227257,8.02522885 85.8801511,8.18247885 C85.7375765,8.33972885 85.6271511,8.52615192 85.5488749,8.74174808 C85.4698997,8.95805577 85.4307616,9.19499808 85.4307616,9.45399808 C85.4307616,9.71299808 85.4698997,9.95065192 85.5488749,10.1662481 C85.6271511,10.3825558 85.7375765,10.5689788 85.8801511,10.7262288 C86.0227257,10.8834788 86.1925572,11.0051519 86.3889467,11.0912481 C86.5853362,11.1780558 86.7991981,11.2207481 87.0298334,11.2207481 C87.2597699,11.2207481 87.4736318,11.1780558 87.6700213,11.0912481 C87.8664108,11.0051519 88.0362423,10.8834788 88.1795157,10.7262288 C88.3213914,10.5689788 88.4318169,10.3825558 88.5100931,10.1662481 C88.5890682,9.95065192 88.6282064,9.71299808 88.6282064,9.45399808 C88.6282064,9.19499808 88.5890682,8.95805577 88.5100931,8.74174808 C88.4318169,8.52615192 88.3213914,8.33972885 88.1795157,8.18247885 C88.0362423,8.02522885 87.8664108,7.90355577 87.6700213,7.81674808 C87.4736318,7.73065192 87.2597699,7.68724808 87.0298334,7.68724808 M87.0298334,4.62549808 C87.738513,4.62549808 88.3919798,4.74574808 88.9923307,4.98624808 C89.5919826,5.22674808 90.1091649,5.56330577 90.5452754,5.99449808 C90.9813859,6.42640192 91.3231456,6.936575 91.5677588,7.52501731 C91.813071,8.11488269 91.9360765,8.75740192 91.9360765,9.45399808 C91.9360765,10.1505942 91.813071,10.793825 91.5677588,11.3829788 C91.3231456,11.9714212 90.9813859,12.4823058 90.5452754,12.9134981 C90.1091649,13.3454019 89.5919826,13.6812481 88.9923307,13.9217481 C88.3919798,14.1622481 87.738513,14.2824981 87.0298334,14.2824981 C86.320455,14.2824981 85.6669881,14.1622481 85.0666373,13.9217481 C84.4676843,13.6812481 83.949803,13.3454019 83.5136925,12.9134981 C83.077582,12.4823058 82.7365213,11.9714212 82.4912091,11.3829788 C82.245897,10.793825 82.1228914,10.1505942 82.1228914,9.45399808 C82.1228914,8.75740192 82.245897,8.11488269 82.4912091,7.52501731 C82.7365213,6.936575 83.077582,6.42640192 83.5136925,5.99449808 C83.949803,5.56330577 84.4676843,5.22674808 85.0666373,4.98624808 C85.6669881,4.74574808 86.320455,4.62549808 87.0298334,4.62549808" id="Fill-15" fill="#FEFEFE"></path>
                            <path d="M98.2230566,4.62571154 C98.3991782,4.62571154 98.5606229,4.63851923 98.7087887,4.66271154 C98.8576533,4.68690385 98.9652831,4.70611538 99.0316782,4.71821154 L98.8499655,8.01121154 C98.6626616,7.96140385 98.4439075,7.91444231 98.1957997,7.86748077 C97.9469931,7.82123077 97.6932942,7.79846154 97.4326064,7.79846154 C97.2089599,7.79846154 97.0076782,7.81980769 96.828761,7.86321154 C96.6498439,7.90661538 96.4981837,7.98061538 96.3737804,8.08521154 C96.250076,8.18980769 96.1550262,8.32713462 96.0879323,8.49648077 C96.0215373,8.66653846 95.9886892,8.87786538 95.9886892,9.13046154 L95.9886892,14.0422115 L92.7444185,14.0422115 L92.7444185,4.87546154 L95.8335345,4.87546154 L95.8335345,5.80046154 C96.0879323,5.39346154 96.4122196,5.09603846 96.8063964,4.90748077 C97.1991754,4.71963462 97.6723273,4.62571154 98.2230566,4.62571154" id="Fill-17" fill="#FEFEFE"></path>
                            <path d="M107.117614,7.78003269 L104.191341,7.78003269 L104.191341,9.92603269 C104.191341,10.172225 104.222092,10.3792827 104.282197,10.5457827 C104.343001,10.7122827 104.426169,10.8446288 104.5331,10.9435327 C104.638633,11.041725 104.765832,11.1128788 104.914697,11.1562827 C105.062863,11.1996865 105.224307,11.2210327 105.400429,11.2210327 C105.527628,11.2210327 105.654827,11.2039558 105.782026,11.1698019 C105.909225,11.1363596 106.036423,11.0915327 106.163622,11.0360327 C106.290122,10.9805327 106.413128,10.9200519 106.531241,10.8553019 C106.649354,10.7905519 106.75978,10.7279365 106.863216,10.6660327 L107.944407,13.2190327 C107.720062,13.3791288 107.491523,13.5242827 107.258092,13.6537827 C107.024661,13.7832827 106.775156,13.8942827 106.508877,13.9867827 C106.241899,14.0792827 105.94976,14.1518596 105.631763,14.2038019 C105.313766,14.2564558 104.958028,14.2827827 104.564551,14.2827827 C103.922266,14.2827827 103.374332,14.186725 102.920051,13.9960327 C102.465769,13.8046288 102.093258,13.5399365 101.802517,13.2005327 C101.511777,12.8611288 101.297915,12.4555519 101.16233,11.9838019 C101.025346,11.5120519 100.957553,10.9961865 100.957553,10.4347827 L100.957553,7.78003269 L99.322139,7.78003269 L99.322139,4.87553269 L100.957553,4.87553269 L100.957553,2.24853269 L104.191341,2.24853269 L104.191341,4.87553269 L107.117614,4.87553269 L107.117614,7.78003269 Z" id="Fill-19" fill="#FEFEFE"></path>
                            <path d="M112.623439,7.68724808 C112.392804,7.68724808 112.178942,7.73065192 111.982552,7.81674808 C111.786163,7.90355577 111.616331,8.02522885 111.473757,8.18247885 C111.331182,8.33972885 111.220757,8.52615192 111.142481,8.74174808 C111.063506,8.95805577 111.024367,9.19499808 111.024367,9.45399808 C111.024367,9.71299808 111.063506,9.95065192 111.142481,10.1662481 C111.220757,10.3825558 111.331182,10.5689788 111.473757,10.7262288 C111.616331,10.8834788 111.786163,11.0051519 111.982552,11.0912481 C112.178942,11.1780558 112.392804,11.2207481 112.623439,11.2207481 C112.853376,11.2207481 113.067238,11.1780558 113.263627,11.0912481 C113.460017,11.0051519 113.629848,10.8834788 113.772423,10.7262288 C113.914997,10.5689788 114.025423,10.3825558 114.103699,10.1662481 C114.182674,9.95065192 114.221812,9.71299808 114.221812,9.45399808 C114.221812,9.19499808 114.182674,8.95805577 114.103699,8.74174808 C114.025423,8.52615192 113.914997,8.33972885 113.772423,8.18247885 C113.629848,8.02522885 113.460017,7.90355577 113.263627,7.81674808 C113.067238,7.73065192 112.853376,7.68724808 112.623439,7.68724808 Z M117.34797,14.0419981 L114.239983,14.0419981 L114.239983,13.2372481 C113.968113,13.5453442 113.632644,13.7965173 113.23637,13.9914788 C112.840097,14.1857288 112.356461,14.2824981 111.787561,14.2824981 C111.18721,14.2824981 110.636481,14.1558442 110.133276,13.9032481 C109.630771,13.6506519 109.198155,13.3041327 108.83403,12.8622673 C108.471304,12.421825 108.18895,11.9088058 107.989066,11.3224981 C107.789881,10.7369019 107.68924,10.1107481 107.68924,9.44474808 C107.68924,8.78515192 107.789881,8.16184423 107.989066,7.57624808 C108.18895,6.99065192 108.471304,6.47905577 108.83403,6.04074808 C109.198155,5.60315192 109.630771,5.25734423 110.133276,5.00474808 C110.636481,4.75215192 111.190704,4.62549808 111.795948,4.62549808 C112.365547,4.62549808 112.847086,4.725825 113.241262,4.92647885 C113.63474,5.12642115 113.968113,5.38399808 114.239983,5.69849808 L114.239983,4.87524808 L117.34797,4.87524808 L117.34797,14.0419981 Z" id="Fill-21" fill="#FEFEFE"></path>
                            <path d="M125.806207,7.78003269 L122.879933,7.78003269 L122.879933,9.92603269 C122.879933,10.172225 122.910685,10.3792827 122.97079,10.5457827 C123.031594,10.7122827 123.114762,10.8446288 123.221693,10.9435327 C123.327226,11.041725 123.454425,11.1128788 123.60329,11.1562827 C123.751456,11.1996865 123.9129,11.2210327 124.089022,11.2210327 C124.216221,11.2210327 124.34342,11.2039558 124.470619,11.1698019 C124.597817,11.1363596 124.725016,11.0915327 124.852215,11.0360327 C124.978715,10.9805327 125.101721,10.9200519 125.219834,10.8553019 C125.337947,10.7905519 125.448373,10.7279365 125.551809,10.6660327 L126.633,13.2190327 C126.408654,13.3791288 126.180116,13.5242827 125.946685,13.6537827 C125.713254,13.7832827 125.463748,13.8942827 125.197469,13.9867827 C124.930491,14.0792827 124.638353,14.1518596 124.320356,14.2038019 C124.002359,14.2564558 123.646621,14.2827827 123.253143,14.2827827 C122.610859,14.2827827 122.062925,14.186725 121.608643,13.9960327 C121.154362,13.8046288 120.781851,13.5399365 120.49111,13.2005327 C120.20037,12.8611288 119.986508,12.4555519 119.850922,11.9838019 C119.713939,11.5120519 119.646146,10.9961865 119.646146,10.4347827 L119.646146,7.78003269 L118.010732,7.78003269 L118.010732,4.87553269 L119.646146,4.87553269 L119.646146,2.24853269 L122.879933,2.24853269 L122.879933,4.87553269 L125.806207,4.87553269 L125.806207,7.78003269 Z" id="Fill-23" fill="#FEFEFE"></path>
                            <mask id="mask-2" fill="white">
                                <use xlink:href="#path-1"></use>
                            </mask>
                            <g id="Clip-26"></g>
                            <path d="M127.105942,14.0422115 L130.340428,14.0422115 L130.340428,4.87546154 L127.105942,4.87546154 L127.105942,14.0422115 Z M128.713401,0.305961538 C128.974787,0.305961538 129.218003,0.353634615 129.445144,0.448980769 C129.672983,0.545038462 129.869373,0.677384615 130.03571,0.846730769 C130.202047,1.01678846 130.33274,1.21673077 130.427091,1.44798077 C130.520044,1.67923077 130.567569,1.92755769 130.567569,2.19296154 C130.567569,2.45836538 130.520044,2.70598077 130.427091,2.93723077 C130.33274,3.16848077 130.202047,3.36913462 130.03571,3.53848077 C129.869373,3.70853846 129.672983,3.84088462 129.445144,3.93623077 C129.218003,4.03228846 128.974787,4.07996154 128.713401,4.07996154 C128.453412,4.07996154 128.210196,4.03228846 127.983055,3.93623077 C127.755215,3.84088462 127.558127,3.70853846 127.39179,3.53848077 C127.225453,3.36913462 127.095459,3.16848077 127.001108,2.93723077 C126.907456,2.70598077 126.86063,2.45836538 126.86063,2.19296154 C126.86063,1.92755769 126.907456,1.67923077 127.001108,1.44798077 C127.095459,1.21673077 127.225453,1.01678846 127.39179,0.846730769 C127.558127,0.677384615 127.755215,0.545038462 127.983055,0.448980769 C128.210196,0.353634615 128.453412,0.305961538 128.713401,0.305961538 Z" id="Fill-25" fill="#FEFEFE" mask="url(#mask-2)"></path>
                            <path d="M136.054873,7.68724808 C135.824238,7.68724808 135.610376,7.73065192 135.413987,7.81674808 C135.217597,7.90355577 135.047766,8.02522885 134.905191,8.18247885 C134.762617,8.33972885 134.652191,8.52615192 134.573915,8.74174808 C134.49494,8.95805577 134.455802,9.19499808 134.455802,9.45399808 C134.455802,9.71299808 134.49494,9.95065192 134.573915,10.1662481 C134.652191,10.3825558 134.762617,10.5689788 134.905191,10.7262288 C135.047766,10.8834788 135.217597,11.0051519 135.413987,11.0912481 C135.610376,11.1780558 135.824238,11.2207481 136.054873,11.2207481 C136.28481,11.2207481 136.498672,11.1780558 136.695061,11.0912481 C136.891451,11.0051519 137.061282,10.8834788 137.204556,10.7262288 C137.346431,10.5689788 137.456857,10.3825558 137.535133,10.1662481 C137.614108,9.95065192 137.653246,9.71299808 137.653246,9.45399808 C137.653246,9.19499808 137.614108,8.95805577 137.535133,8.74174808 C137.456857,8.52615192 137.346431,8.33972885 137.204556,8.18247885 C137.061282,8.02522885 136.891451,7.90355577 136.695061,7.81674808 C136.498672,7.73065192 136.28481,7.68724808 136.054873,7.68724808 M136.054873,4.62549808 C136.763553,4.62549808 137.41702,4.74574808 138.017371,4.98624808 C138.617023,5.22674808 139.134205,5.56330577 139.570315,5.99449808 C140.006426,6.42640192 140.348186,6.936575 140.592799,7.52501731 C140.838111,8.11488269 140.961117,8.75740192 140.961117,9.45399808 C140.961117,10.1505942 140.838111,10.793825 140.592799,11.3829788 C140.348186,11.9714212 140.006426,12.4823058 139.570315,12.9134981 C139.134205,13.3454019 138.617023,13.6812481 138.017371,13.9217481 C137.41702,14.1622481 136.763553,14.2824981 136.054873,14.2824981 C135.345495,14.2824981 134.692028,14.1622481 134.091677,13.9217481 C133.492724,13.6812481 132.974843,13.3454019 132.538733,12.9134981 C132.102622,12.4823058 131.761561,11.9714212 131.516249,11.3829788 C131.270937,10.793825 131.147931,10.1505942 131.147931,9.45399808 C131.147931,8.75740192 131.270937,8.11488269 131.516249,7.52501731 C131.761561,6.936575 132.102622,6.42640192 132.538733,5.99449808 C132.974843,5.56330577 133.492724,5.22674808 134.091677,4.98624808 C134.692028,4.74574808 135.345495,4.62549808 136.054873,4.62549808" id="Fill-27" fill="#FEFEFE" mask="url(#mask-2)"></path>
                            <path d="M147.284928,4.62571154 C147.751091,4.62571154 148.180912,4.70611538 148.575089,4.86621154 C148.968567,5.02630769 149.30823,5.25755769 149.59268,5.55996154 C149.87713,5.86236538 150.099379,6.22596154 150.260125,6.65146154 C150.420172,7.07696154 150.501243,7.55155769 150.501243,8.07596154 L150.501243,14.0422115 L147.266757,14.0422115 L147.266757,9.11196154 C147.266757,8.64946154 147.166116,8.29938462 146.966931,8.06244231 C146.767047,7.82478846 146.487489,7.70596154 146.131053,7.70596154 C145.809561,7.70596154 145.541884,7.81980769 145.326625,8.04821154 C145.112064,8.27661538 145.003735,8.63736538 145.003735,9.13046154 L145.003735,14.0422115 L141.769249,14.0422115 L141.769249,4.87546154 L144.849978,4.87546154 L144.849978,5.81896154 C145.358075,5.02346154 146.170191,4.62571154 147.284928,4.62571154" id="Fill-28" fill="#FEFEFE" mask="url(#mask-2)"></path>
                            <path d="M155.034486,14.0422115 L158.268972,14.0422115 L158.268972,4.87546154 L155.034486,4.87546154 L155.034486,14.0422115 Z M156.641945,0.305961538 C156.902633,0.305961538 157.146547,0.353634615 157.373688,0.448980769 C157.600829,0.545038462 157.797917,0.677384615 157.964254,0.846730769 C158.130591,1.01678846 158.261285,1.21673077 158.355635,1.44798077 C158.448588,1.67923077 158.496113,1.92755769 158.496113,2.19296154 C158.496113,2.45836538 158.448588,2.70598077 158.355635,2.93723077 C158.261285,3.16848077 158.130591,3.36913462 157.964254,3.53848077 C157.797917,3.70853846 157.600829,3.84088462 157.373688,3.93623077 C157.146547,4.03228846 156.902633,4.07996154 156.641945,4.07996154 C156.381956,4.07996154 156.13874,4.03228846 155.911599,3.93623077 C155.68376,3.84088462 155.486671,3.70853846 155.320334,3.53848077 C155.153997,3.36913462 155.024003,3.16848077 154.929652,2.93723077 C154.835301,2.70598077 154.789174,2.45836538 154.789174,2.19296154 C154.789174,1.92755769 154.835301,1.67923077 154.929652,1.44798077 C155.024003,1.21673077 155.153997,1.01678846 155.320334,0.846730769 C155.486671,0.677384615 155.68376,0.545038462 155.911599,0.448980769 C156.13874,0.353634615 156.381956,0.305961538 156.641945,0.305961538 Z" id="Fill-29" fill="#FEFEFE" mask="url(#mask-2)"></path>
                            <path d="M166.527116,7.90924808 C166.272718,7.81105577 166.009235,7.72140192 165.736666,7.64099808 C165.464097,7.56130577 165.19642,7.49015192 164.932936,7.42824808 C164.669453,7.36705577 164.415055,7.31867115 164.169044,7.28522885 C163.923732,7.251075 163.697989,7.23399808 163.492514,7.23399808 C163.177312,7.23399808 162.968343,7.26530577 162.865605,7.32649808 C162.762169,7.38840192 162.711149,7.47165192 162.711149,7.57624808 C162.711149,7.66305577 162.747492,7.72922885 162.820177,7.77547885 C162.892862,7.82101731 162.992804,7.861575 163.120003,7.89501731 C163.247202,7.92917115 163.398163,7.95692115 163.574285,7.97897885 C163.749707,8.000325 163.940506,8.02949808 164.14668,8.06649808 L164.691818,8.15899808 C165.654895,8.31980577 166.374058,8.63572885 166.850006,9.10747885 C167.325254,9.57922885 167.562878,10.2004019 167.562878,10.9709981 C167.562878,11.5018058 167.467829,11.9714212 167.276331,12.3819788 C167.086232,12.791825 166.811566,13.1390558 166.454431,13.4222481 C166.097296,13.7061519 165.659787,13.920325 165.141906,14.0654788 C164.623326,14.2099212 164.034856,14.2824981 163.374401,14.2824981 C162.926409,14.2824981 162.493793,14.262575 162.080047,14.2227288 C161.664903,14.1821712 161.273522,14.1252481 160.907301,14.0512481 C160.54108,13.9772481 160.203514,13.8861712 159.894602,13.7787288 C159.585691,13.670575 159.319412,13.5453442 159.095066,13.4037481 L160.130829,10.8322481 C161.130249,11.3872481 162.21703,11.6647481 163.392572,11.6647481 C163.749707,11.6647481 163.995019,11.6341519 164.128508,11.5722481 C164.261997,11.5110558 164.328392,11.4121519 164.328392,11.2762481 C164.328392,11.2022481 164.303931,11.1417673 164.255707,11.0962288 C164.207483,11.0499788 164.128508,11.0079981 164.019481,10.9709981 C163.910453,10.9339981 163.767878,10.9005558 163.592456,10.8692481 C163.417033,10.8386519 163.204569,10.8044981 162.956461,10.7674981 L162.602122,10.7119981 C161.487384,10.5398058 160.671075,10.2160558 160.153892,9.74074808 C159.636011,9.26615192 159.376721,8.60299808 159.376721,7.75199808 C159.376721,7.24680577 159.464782,6.79924808 159.640204,6.41074808 C159.815627,6.02224808 160.073519,5.69565192 160.412483,5.43024808 C160.751448,5.16555577 161.166591,4.96490192 161.657215,4.82899808 C162.14784,4.69309423 162.707655,4.62549808 163.338058,4.62549808 C163.707773,4.62549808 164.041845,4.63617115 164.341671,4.65822885 C164.642196,4.679575 164.939925,4.716575 165.236956,4.76851731 C165.533287,4.82117115 165.845693,4.89374808 166.172776,4.98624808 C166.499859,5.07874808 166.875166,5.19615192 167.298696,5.33774808 L166.527116,7.90924808 Z" id="Fill-30" fill="#FEFEFE" mask="url(#mask-2)"></path>
                            <polygon id="Fill-31" fill="#FEFEFE" mask="url(#mask-2)" points="181.44552 14.0421404 171.86926 14.0421404 171.86926 1.09214038 175.321801 1.09214038 175.321801 10.8046404 181.44552 10.8046404"></polygon>
                            <path d="M186.642852,7.68724808 C186.412217,7.68724808 186.198355,7.73065192 186.001966,7.81674808 C185.805576,7.90355577 185.635745,8.02522885 185.49317,8.18247885 C185.350596,8.33972885 185.24017,8.52615192 185.161894,8.74174808 C185.082919,8.95805577 185.043781,9.19499808 185.043781,9.45399808 C185.043781,9.71299808 185.082919,9.95065192 185.161894,10.1662481 C185.24017,10.3825558 185.350596,10.5689788 185.49317,10.7262288 C185.635745,10.8834788 185.805576,11.0051519 186.001966,11.0912481 C186.198355,11.1780558 186.412217,11.2207481 186.642852,11.2207481 C186.872789,11.2207481 187.086651,11.1780558 187.28304,11.0912481 C187.47943,11.0051519 187.649261,10.8834788 187.792535,10.7262288 C187.93441,10.5689788 188.044836,10.3825558 188.123112,10.1662481 C188.202087,9.95065192 188.241225,9.71299808 188.241225,9.45399808 C188.241225,9.19499808 188.202087,8.95805577 188.123112,8.74174808 C188.044836,8.52615192 187.93441,8.33972885 187.792535,8.18247885 C187.649261,8.02522885 187.47943,7.90355577 187.28304,7.81674808 C187.086651,7.73065192 186.872789,7.68724808 186.642852,7.68724808 M186.642852,4.62549808 C187.351532,4.62549808 188.004999,4.74574808 188.60535,4.98624808 C189.205002,5.22674808 189.722184,5.56330577 190.158294,5.99449808 C190.594405,6.42640192 190.936165,6.936575 191.180778,7.52501731 C191.42609,8.11488269 191.549096,8.75740192 191.549096,9.45399808 C191.549096,10.1505942 191.42609,10.793825 191.180778,11.3829788 C190.936165,11.9714212 190.594405,12.4823058 190.158294,12.9134981 C189.722184,13.3454019 189.205002,13.6812481 188.60535,13.9217481 C188.004999,14.1622481 187.351532,14.2824981 186.642852,14.2824981 C185.933474,14.2824981 185.280007,14.1622481 184.679656,13.9217481 C184.080703,13.6812481 183.562822,13.3454019 183.126712,12.9134981 C182.690601,12.4823058 182.34954,11.9714212 182.104228,11.3829788 C181.858916,10.793825 181.73591,10.1505942 181.73591,9.45399808 C181.73591,8.75740192 181.858916,8.11488269 182.104228,7.52501731 C182.34954,6.936575 182.690601,6.42640192 183.126712,5.99449808 C183.562822,5.56330577 184.080703,5.22674808 184.679656,4.98624808 C185.280007,4.74574808 185.933474,4.62549808 186.642852,4.62549808" id="Fill-32" fill="#FEFEFE" mask="url(#mask-2)"></path>
                            <path d="M196.854617,4.62571154 C197.756891,4.62571154 198.544546,4.82280769 199.216883,5.21771154 C199.88922,5.61261538 200.449733,6.15480769 200.897026,6.84571154 L198.244021,8.54771154 C198.050427,8.25171154 197.838662,8.03469231 197.608026,7.89523077 C197.37809,7.75648077 197.102026,7.68746154 196.781932,7.68746154 C196.581349,7.68746154 196.39125,7.72588462 196.208838,7.80273077 C196.027126,7.88028846 195.865681,7.99271154 195.723106,8.14071154 C195.581231,8.28871154 195.467311,8.47371154 195.382744,8.69571154 C195.297479,8.91771154 195.255546,9.17030769 195.255546,9.45421154 C195.255546,9.74380769 195.29678,9.99853846 195.377852,10.2169808 C195.459623,10.4361346 195.570048,10.6197115 195.709128,10.7677115 C195.848907,10.9157115 196.007557,11.0281346 196.186474,11.1049808 C196.365391,11.1825385 196.554093,11.2209615 196.753977,11.2209615 C197.36551,11.2209615 197.862424,10.9313654 198.244021,10.3514615 L200.906811,12.0812115 C200.46441,12.7593077 199.903896,13.2965192 199.225968,13.6907115 C198.547341,14.0849038 197.756891,14.2827115 196.854617,14.2827115 C196.133358,14.2827115 195.472902,14.1638846 194.873949,13.9262308 C194.274297,13.6892885 193.757115,13.3577115 193.324499,12.9322115 C192.891184,12.5067115 192.553617,11.9979615 192.3118,11.4059615 C192.069283,10.8139615 191.947675,10.1636154 191.947675,9.45421154 C191.947675,8.74551923 192.069283,8.09446154 192.3118,7.50246154 C192.553617,6.91046154 192.891184,6.40171154 193.324499,5.97621154 C193.757115,5.55071154 194.274297,5.21913462 194.873949,4.98148077 C195.472902,4.74453846 196.133358,4.62571154 196.854617,4.62571154" id="Fill-33" fill="#FEFEFE" mask="url(#mask-2)"></path>
                            <path d="M205.813333,7.68724808 C205.582698,7.68724808 205.368836,7.73065192 205.172447,7.81674808 C204.976057,7.90355577 204.806226,8.02522885 204.663651,8.18247885 C204.521077,8.33972885 204.410651,8.52615192 204.332375,8.74174808 C204.2534,8.95805577 204.214262,9.19499808 204.214262,9.45399808 C204.214262,9.71299808 204.2534,9.95065192 204.332375,10.1662481 C204.410651,10.3825558 204.521077,10.5689788 204.663651,10.7262288 C204.806226,10.8834788 204.976057,11.0051519 205.172447,11.0912481 C205.368836,11.1780558 205.582698,11.2207481 205.813333,11.2207481 C206.04327,11.2207481 206.257132,11.1780558 206.453521,11.0912481 C206.649911,11.0051519 206.819742,10.8834788 206.962317,10.7262288 C207.104891,10.5689788 207.215317,10.3825558 207.293593,10.1662481 C207.372568,9.95065192 207.411706,9.71299808 207.411706,9.45399808 C207.411706,9.19499808 207.372568,8.95805577 207.293593,8.74174808 C207.215317,8.52615192 207.104891,8.33972885 206.962317,8.18247885 C206.819742,8.02522885 206.649911,7.90355577 206.453521,7.81674808 C206.257132,7.73065192 206.04327,7.68724808 205.813333,7.68724808 Z M210.537864,14.0419981 L207.429878,14.0419981 L207.429878,13.2372481 C207.158007,13.5453442 206.822538,13.7965173 206.426264,13.9914788 C206.029991,14.1857288 205.546356,14.2824981 204.977455,14.2824981 C204.377104,14.2824981 203.826375,14.1558442 203.32317,13.9032481 C202.820665,13.6506519 202.388049,13.3041327 202.023925,12.8622673 C201.661198,12.421825 201.378844,11.9088058 201.17896,11.3224981 C200.979775,10.7369019 200.879135,10.1107481 200.879135,9.44474808 C200.879135,8.78515192 200.979775,8.16184423 201.17896,7.57624808 C201.378844,6.99065192 201.661198,6.47905577 202.023925,6.04074808 C202.388049,5.60315192 202.820665,5.25734423 203.32317,5.00474808 C203.826375,4.75215192 204.380599,4.62549808 204.985842,4.62549808 C205.555441,4.62549808 206.03698,4.725825 206.431157,4.92647885 C206.824635,5.12642115 207.158007,5.38399808 207.429878,5.69849808 L207.429878,4.87524808 L210.537864,4.87524808 L210.537864,14.0419981 Z" id="Fill-34" fill="#FEFEFE" mask="url(#mask-2)"></path>
                            <polygon id="Fill-35" fill="#FEFEFE" mask="url(#mask-2)" points="211.755409 14.0422115 214.989895 14.0422115 214.989895 0.722211538 211.755409 0.722211538"></polygon>
                            <path d="M3.93401022,27.4637481 L8.88568149,27.4637481 L6.41438867,21.2014981 L3.93401022,27.4637481 Z M12.610792,32.5419981 L10.8936069,32.5419981 L9.49441906,29.0084981 L3.32527265,29.0084981 L1.93517044,32.5419981 L0.272499171,32.5419981 L5.4415268,19.5919981 L7.43197983,19.5919981 L12.610792,32.5419981 Z" id="Fill-36" fill="#FEFEFE" mask="url(#mask-2)"></path>
                            <polygon id="Fill-37" fill="#FEFEFE" mask="url(#mask-2)" points="27.1111865 26.7886404 20.197018 26.7886404 20.197018 32.5421404 18.5979461 32.5421404 18.5979461 19.5921404 27.4753108 19.5921404 27.4753108 21.1368904 20.197018 21.1368904 20.197018 25.2531404 27.1111865 25.2531404"></polygon>
                            <path d="M29.6373425,32.5422115 L31.1183011,32.5422115 L31.1183011,23.7547115 L29.6373425,23.7547115 L29.6373425,32.5422115 Z M30.3641934,19.5829615 C30.5095635,19.5829615 30.6472459,19.6107115 30.7779392,19.6662115 C30.9072348,19.7217115 31.0211547,19.7985577 31.1183011,19.8974615 C31.2154475,19.9963654 31.2909282,20.1102115 31.345442,20.2397115 C31.3999558,20.3692115 31.4265138,20.5108077 31.4265138,20.6652115 C31.4265138,20.8132115 31.3999558,20.9519615 31.345442,21.0814615 C31.2909282,21.2109615 31.2154475,21.3233846 31.1183011,21.4194423 C31.0211547,21.5147885 30.9072348,21.5887885 30.7779392,21.6414423 C30.6472459,21.6933846 30.5095635,21.7197115 30.3641934,21.7197115 C30.2188232,21.7197115 30.0818398,21.6933846 29.9553398,21.6414423 C29.8281409,21.5887885 29.7170166,21.5147885 29.6233646,21.4194423 C29.5290138,21.3233846 29.4556298,21.2109615 29.401116,21.0814615 C29.3466022,20.9519615 29.3193453,20.8132115 29.3193453,20.6652115 C29.3193453,20.5108077 29.3466022,20.3692115 29.401116,20.2397115 C29.4556298,20.1102115 29.5290138,19.9963654 29.6233646,19.8974615 C29.7170166,19.7985577 29.8281409,19.7217115 29.9553398,19.6662115 C30.0818398,19.6107115 30.2188232,19.5829615 30.3641934,19.5829615 Z" id="Fill-38" fill="#FEFEFE" mask="url(#mask-2)"></path>
                            <path d="M37.5045243,24.9108192 C37.1229276,24.9108192 36.7776735,24.9741462 36.4687619,25.1008 C36.1598503,25.2267423 35.8914746,25.4024923 35.6643337,25.62805 C35.4371928,25.8528962 35.2491901,26.1211462 35.1017232,26.4328 C34.9528586,26.7437423 34.8515188,27.0881269 34.797005,27.4638192 L40.0757591,27.4638192 C40.0268365,27.0753192 39.9317867,26.7238192 39.789911,26.4093192 C39.6466376,26.0948192 39.4656238,25.8265692 39.244074,25.6045692 C39.0232232,25.3825692 38.7660298,25.2110885 38.4724939,25.0908385 C38.1782591,24.9705885 37.8553696,24.9108192 37.5045243,24.9108192 M37.5317812,23.5695692 C38.118853,23.5695692 38.6611956,23.6805692 39.1581099,23.9025692 C39.6543254,24.1245692 40.0820492,24.4362231 40.4391845,24.8368192 C40.7963199,25.2374154 41.0765768,25.7169923 41.2792564,26.2748385 C41.4819359,26.8333962 41.5867702,27.4481654 41.5930602,28.1205692 C41.5930602,28.2194731 41.5902646,28.3162423 41.5839746,28.4115885 C41.5776845,28.5076462 41.5713945,28.5987231 41.5658033,28.6848192 L34.7788337,28.6848192 C34.8333475,29.1416269 34.9472674,29.5386654 35.1191956,29.8780692 C35.2918227,30.2174731 35.509179,30.5006654 35.769168,30.7290692 C36.0298558,30.9574731 36.3261873,31.1268192 36.6595602,31.2378192 C36.9929331,31.3488192 37.3444773,31.4043192 37.7134939,31.4043192 C38.2215906,31.4043192 38.7003337,31.3118192 39.1490243,31.1268192 C39.597016,30.9418192 40.0058696,30.6863769 40.3748862,30.3590692 L41.1660354,31.3950692 C40.8990575,31.6483769 40.6236928,31.8611269 40.3392425,32.0333192 C40.0540934,32.2062231 39.763353,32.34355 39.4670215,32.4445885 C39.1699912,32.5463385 38.8673696,32.6189154 38.558458,32.6623192 C38.2488475,32.7057231 37.9371403,32.7270692 37.6226376,32.7270692 C36.980353,32.7270692 36.3911845,32.6174923 35.8558309,32.3983385 C35.3190796,32.1798962 34.8571099,31.8682423 34.4699221,31.4640885 C34.0827343,31.0606462 33.7808116,30.5782231 33.5655519,30.0168192 C33.3509912,29.4561269 33.2433613,28.8328192 33.2433613,28.1483192 C33.2433613,27.4759154 33.3509912,26.8583 33.5655519,26.2933385 C33.7808116,25.7290885 34.0792398,25.2473769 34.4608365,24.8460692 C34.8417343,24.4454731 35.2953171,24.1323962 35.8187895,23.9068385 C36.3429608,23.6819923 36.913958,23.5695692 37.5317812,23.5695692" id="Fill-39" fill="#FEFEFE" mask="url(#mask-2)"></path>
                            <polygon id="Fill-40" fill="#FEFEFE" mask="url(#mask-2)" points="43.7186796 32.5422115 45.1996381 32.5422115 45.1996381 19.2222115 43.7186796 19.2222115"></polygon>
                            <path d="M51.8134215,24.9942115 C51.3647309,24.9942115 50.9572751,25.0760385 50.5910541,25.2389808 C50.2248331,25.4026346 49.9110293,25.6281923 49.6503414,25.9142308 C49.3903525,26.2009808 49.1904685,26.5361154 49.0513884,26.9182115 C48.9123083,27.3003077 48.8424188,27.7108654 48.8424188,28.1484615 C48.8424188,28.5860577 48.9137061,28.9966154 49.0555818,29.3787115 C49.1981564,29.7608077 49.3994381,30.0952308 49.660126,30.3819808 C49.9201149,30.6694423 50.2332199,30.8957115 50.6001398,31.0622115 C50.9663608,31.2287115 51.371021,31.3119615 51.8134215,31.3119615 C52.249532,31.3119615 52.6486011,31.2322692 53.0127254,31.0714615 C53.3754519,30.9106538 53.687858,30.6886538 53.9485459,30.4054615 C54.2085348,30.1222692 54.4119133,29.7871346 54.5572834,29.4014808 C54.7026536,29.0165385 54.7746398,28.5981538 54.7746398,28.1484615 C54.7746398,27.6980577 54.7026536,27.2818077 54.5572834,26.8997115 C54.4119133,26.5176154 54.2085348,26.1846154 53.9485459,25.9007115 C53.687858,25.6168077 53.3754519,25.3948077 53.0127254,25.2347115 C52.6486011,25.0746154 52.249532,24.9942115 51.8134215,24.9942115 M51.6407945,23.5697115 C52.3194215,23.5697115 52.909289,23.6928077 53.4124934,23.9397115 C53.9149989,24.1866154 54.3385293,24.5196154 54.6837834,24.9387115 L54.6837834,19.2222115 L56.1738276,19.2222115 L56.1738276,32.5422115 L54.6837834,32.5422115 L54.6837834,31.3674615 C54.3385293,31.7808654 53.9149989,32.1103077 53.4124934,32.3572115 C52.909289,32.6034038 52.3194215,32.7272115 51.6407945,32.7272115 C51.0348525,32.7272115 50.4680486,32.6133654 49.9410818,32.3849615 C49.4141149,32.1565577 48.9570376,31.8392115 48.5691508,31.4322115 C48.181963,31.0252115 47.8772448,30.5427885 47.6563939,29.9842308 C47.4348442,29.4263846 47.3251177,28.8144615 47.3251177,28.1484615 C47.3251177,27.4824615 47.4348442,26.8705385 47.6563939,26.3126923 C47.8772448,25.7541346 48.181963,25.2717115 48.5691508,24.8647115 C48.9570376,24.4577115 49.4141149,24.1403654 49.9410818,23.9119615 C50.4680486,23.6835577 51.0348525,23.5697115 51.6407945,23.5697115" id="Fill-41" fill="#FEFEFE" mask="url(#mask-2)"></path>
                            <path d="M69.5574577,19.3977481 C70.5750489,19.3977481 71.5045793,19.5877288 72.3460489,19.9669788 C73.1882174,20.3462288 73.9003914,20.8720558 74.4818721,21.5437481 L73.3091262,22.6999981 C72.8674246,22.1570942 72.325082,21.7323058 71.6834964,21.4234981 C71.0412119,21.1154019 70.3325323,20.9609981 69.5574577,20.9609981 C68.8543693,20.9609981 68.204397,21.0848058 67.6082395,21.3309981 C67.0113831,21.5779019 66.4921041,21.9244212 66.0497036,22.3719788 C65.6080019,22.818825 65.2620489,23.3567481 65.0146401,23.9857481 C64.7665323,24.6147481 64.642129,25.3084981 64.642129,26.0669981 C64.642129,26.8254981 64.7665323,27.5192481 65.0146401,28.1482481 C65.2620489,28.7772481 65.6052064,29.3151712 66.0413169,29.7620173 C66.4774273,30.209575 66.9890185,30.5568058 67.5767892,30.8029981 C68.163861,31.0499019 68.7998555,31.1729981 69.4847727,31.1729981 C70.1326483,31.1729981 70.7169246,31.0804981 71.2376014,30.8954981 C71.7589771,30.7104981 72.2083666,30.4422481 72.5871677,30.0907481 C72.9659688,29.7392481 73.2692892,29.312325 73.4957312,28.8099788 C73.7228721,28.3069212 73.8668445,27.7384019 73.9276483,27.1029981 L70.1116815,27.1029981 L70.1116815,25.5859981 L75.6623058,25.5859981 C75.6685959,25.6535942 75.6734881,25.7219019 75.6762837,25.7894981 C75.6797782,25.8578058 75.681176,25.9254019 75.681176,25.9929981 C75.681176,26.9364981 75.5386014,27.8173827 75.2534522,28.6335173 C74.9690019,29.451075 74.5601483,30.163325 74.0275903,30.7709788 C73.4943334,31.3779212 72.844361,31.856075 72.0783721,32.2047288 C71.3123831,32.5526712 70.4471511,32.7269981 69.4847727,32.7269981 C68.9277533,32.7269981 68.3805185,32.660825 67.844466,32.5284788 C67.3084135,32.3961327 66.7982202,32.1997481 66.313187,31.9407481 C65.8288528,31.6817481 65.3822588,31.3622673 64.9734052,30.9837288 C64.5645517,30.6044788 64.2123086,30.1683058 63.9152782,29.6744981 C63.6182478,29.1814019 63.3869135,28.6328058 63.2205765,28.0279981 C63.0528417,27.4239019 62.9696732,26.7699981 62.9696732,26.0669981 C62.9696732,25.4194981 63.0458528,24.8047288 63.1968141,24.2219788 C63.3484743,23.6385173 63.5623362,23.1013058 63.8377008,22.6074981 C64.1130655,22.1144019 64.449234,21.6682673 64.8462064,21.2712288 C65.2431787,20.8734788 65.6848804,20.5354981 66.1727091,20.2579981 C66.659839,19.9804981 67.1889025,19.7677481 67.7585019,19.6197481 C68.3274025,19.4717481 68.9277533,19.3977481 69.5574577,19.3977481" id="Fill-42" fill="#FEFEFE" mask="url(#mask-2)"></path>
                            <path d="M85.7658119,28.8607115 C85.7658119,29.5267115 85.6588809,30.1016346 85.4436213,30.5854808 C85.2283616,31.0700385 84.9390191,31.4706346 84.5755936,31.7879808 C84.2121682,32.1060385 83.7928312,32.3415577 83.3175826,32.4959615 C82.8416351,32.6496538 82.3461185,32.7272115 81.8317318,32.7272115 C81.311055,32.7272115 80.8127428,32.6496538 80.3367953,32.4959615 C79.8622456,32.3415577 79.4422097,32.1060385 79.0794831,31.7879808 C78.7153588,31.4706346 78.4260163,31.0700385 78.2107566,30.5854808 C77.9961959,30.1016346 77.888566,29.5267115 77.888566,28.8607115 L77.888566,23.7547115 L79.3786102,23.7547115 L79.3786102,28.7219615 C79.3786102,29.1716538 79.4408119,29.5587308 79.5652152,29.8831923 C79.6896185,30.2062308 79.8608478,30.4751923 80.0782041,30.6872308 C80.2969583,30.8999808 80.5555494,31.0572308 80.8553754,31.1589808 C81.1552014,31.2614423 81.4801876,31.3119615 81.8317318,31.3119615 C82.183276,31.3119615 82.5075633,31.2614423 82.8045936,31.1589808 C83.1009251,31.0572308 83.3588174,30.8999808 83.5761738,30.6872308 C83.7949279,30.4751923 83.9654583,30.2062308 84.0898616,29.8831923 C84.213566,29.5587308 84.2757677,29.1716538 84.2757677,28.7219615 L84.2757677,23.7547115 L85.7658119,23.7547115 L85.7658119,28.8607115 Z" id="Fill-43" fill="#FEFEFE" mask="url(#mask-2)"></path>
                            <path d="M88.4549503,32.5422115 L89.9359088,32.5422115 L89.9359088,23.7547115 L88.4549503,23.7547115 L88.4549503,32.5422115 Z M89.1818011,19.5829615 C89.3271713,19.5829615 89.4648536,19.6107115 89.595547,19.6662115 C89.7248425,19.7217115 89.8387624,19.7985577 89.9359088,19.8974615 C90.0330552,19.9963654 90.1085359,20.1102115 90.1630497,20.2397115 C90.2175635,20.3692115 90.2448204,20.5108077 90.2448204,20.6652115 C90.2448204,20.8132115 90.2175635,20.9519615 90.1630497,21.0814615 C90.1085359,21.2109615 90.0330552,21.3233846 89.9359088,21.4194423 C89.8387624,21.5147885 89.7248425,21.5887885 89.595547,21.6414423 C89.4648536,21.6933846 89.3271713,21.7197115 89.1818011,21.7197115 C89.0364309,21.7197115 88.9001464,21.6933846 88.7729475,21.6414423 C88.6457486,21.5887885 88.5346243,21.5147885 88.4409724,21.4194423 C88.3473204,21.3233846 88.2732376,21.2109615 88.2187238,21.0814615 C88.1642099,20.9519615 88.136953,20.8132115 88.136953,20.6652115 C88.136953,20.5108077 88.1642099,20.3692115 88.2187238,20.2397115 C88.2732376,20.1102115 88.3473204,19.9963654 88.4409724,19.8974615 C88.5346243,19.7985577 88.6457486,19.7217115 88.7729475,19.6662115 C88.9001464,19.6107115 89.0364309,19.5829615 89.1818011,19.5829615 Z" id="Fill-44" fill="#FEFEFE" mask="url(#mask-2)"></path>
                            <path d="M96.5502514,24.9942115 C96.1015608,24.9942115 95.694105,25.0760385 95.327884,25.2389808 C94.961663,25.4026346 94.6478591,25.6281923 94.3871713,25.9142308 C94.1271823,26.2009808 93.9272983,26.5361154 93.7882182,26.9182115 C93.6491381,27.3003077 93.5792486,27.7108654 93.5792486,28.1484615 C93.5792486,28.5860577 93.6505359,28.9966154 93.7924116,29.3787115 C93.9349862,29.7608077 94.136268,30.0952308 94.3969558,30.3819808 C94.6569448,30.6694423 94.9700497,30.8957115 95.3369696,31.0622115 C95.7031906,31.2287115 96.1078508,31.3119615 96.5502514,31.3119615 C96.9863619,31.3119615 97.3854309,31.2322692 97.7495552,31.0714615 C98.1122818,30.9106538 98.4246878,30.6886538 98.6853757,30.4054615 C98.9453646,30.1222692 99.1487431,29.7871346 99.2941133,29.4014808 C99.4394834,29.0165385 99.5114696,28.5981538 99.5114696,28.1484615 C99.5114696,27.6980577 99.4394834,27.2818077 99.2941133,26.8997115 C99.1487431,26.5176154 98.9453646,26.1846154 98.6853757,25.9007115 C98.4246878,25.6168077 98.1122818,25.3948077 97.7495552,25.2347115 C97.3854309,25.0746154 96.9863619,24.9942115 96.5502514,24.9942115 M96.3776243,23.5697115 C97.0562514,23.5697115 97.6461188,23.6928077 98.1493232,23.9397115 C98.6518287,24.1866154 99.0753591,24.5196154 99.4206133,24.9387115 L99.4206133,19.2222115 L100.910657,19.2222115 L100.910657,32.5422115 L99.4206133,32.5422115 L99.4206133,31.3674615 C99.0753591,31.7808654 98.6518287,32.1103077 98.1493232,32.3572115 C97.6461188,32.6034038 97.0562514,32.7272115 96.3776243,32.7272115 C95.7716823,32.7272115 95.2048785,32.6133654 94.6779116,32.3849615 C94.1509448,32.1565577 93.6938674,31.8392115 93.3059807,31.4322115 C92.9187928,31.0252115 92.6140746,30.5427885 92.3932238,29.9842308 C92.171674,29.4263846 92.0619475,28.8144615 92.0619475,28.1484615 C92.0619475,27.4824615 92.171674,26.8705385 92.3932238,26.3126923 C92.6140746,25.7541346 92.9187928,25.2717115 93.3059807,24.8647115 C93.6938674,24.4577115 94.1509448,24.1403654 94.6779116,23.9119615 C95.2048785,23.6835577 95.7716823,23.5697115 96.3776243,23.5697115" id="Fill-45" fill="#FEFEFE" mask="url(#mask-2)"></path>
                            <path d="M107.297789,24.9108192 C106.916193,24.9108192 106.570938,24.9741462 106.262027,25.1008 C105.953115,25.2267423 105.68474,25.4024923 105.457599,25.62805 C105.230458,25.8528962 105.042455,26.1211462 104.894988,26.4328 C104.746123,26.7437423 104.644784,27.0881269 104.59027,27.4638192 L109.869024,27.4638192 C109.820101,27.0753192 109.725052,26.7238192 109.583176,26.4093192 C109.439902,26.0948192 109.258889,25.8265692 109.037339,25.6045692 C108.816488,25.3825692 108.559295,25.2110885 108.265759,25.0908385 C107.971524,24.9705885 107.648635,24.9108192 107.297789,24.9108192 M107.325046,23.5695692 C107.912118,23.5695692 108.45446,23.6805692 108.951375,23.9025692 C109.44759,24.1245692 109.875314,24.4362231 110.232449,24.8368192 C110.589585,25.2374154 110.869842,25.7169923 111.072521,26.2748385 C111.275201,26.8333962 111.380035,27.4481654 111.386325,28.1205692 C111.386325,28.2194731 111.38353,28.3162423 111.37724,28.4115885 C111.370949,28.5076462 111.364659,28.5987231 111.359068,28.6848192 L104.572099,28.6848192 C104.626612,29.1416269 104.740532,29.5386654 104.91246,29.8780692 C105.085088,30.2174731 105.302444,30.5006654 105.562433,30.7290692 C105.823121,30.9574731 106.119452,31.1268192 106.452825,31.2378192 C106.786198,31.3488192 107.137742,31.4043192 107.506759,31.4043192 C108.014856,31.4043192 108.493599,31.3118192 108.942289,31.1268192 C109.390281,30.9418192 109.799135,30.6863769 110.168151,30.3590692 L110.9593,31.3950692 C110.692322,31.6483769 110.416958,31.8611269 110.132507,32.0333192 C109.847358,32.2062231 109.556618,32.34355 109.260286,32.4445885 C108.963256,32.5463385 108.660635,32.6189154 108.351723,32.6623192 C108.042112,32.7057231 107.730405,32.7270692 107.415902,32.7270692 C106.773618,32.7270692 106.184449,32.6174923 105.649096,32.3983385 C105.112344,32.1798962 104.650375,31.8682423 104.263187,31.4640885 C103.875999,31.0606462 103.574077,30.5782231 103.358817,30.0168192 C103.144256,29.4561269 103.036626,28.8328192 103.036626,28.1483192 C103.036626,27.4759154 103.144256,26.8583 103.358817,26.2933385 C103.574077,25.7290885 103.872505,25.2473769 104.254101,24.8460692 C104.634999,24.4454731 105.088582,24.1323962 105.612054,23.9068385 C106.136226,23.6819923 106.707223,23.5695692 107.325046,23.5695692" id="Fill-46" fill="#FEFEFE" mask="url(#mask-2)"></path>
                            <path d="M123.497267,25.1328192 L120.18101,25.1328192 L120.18101,32.5420692 L118.690966,32.5420692 L118.690966,25.1328192 L116.773897,25.1328192 L116.773897,23.7545692 L118.690966,23.7545692 L118.690966,22.2560692 C118.690966,21.7935692 118.74548,21.3666462 118.854508,20.9753 C118.963535,20.5832423 119.133367,20.2438385 119.363303,19.9578 C119.59324,19.67105 119.89027,19.4454923 120.253696,19.2818385 C120.617121,19.1188962 121.053231,19.0370692 121.562027,19.0370692 C122.052651,19.0370692 122.492955,19.0989731 122.884336,19.2220692 C123.275019,19.3458769 123.624466,19.5024154 123.933378,19.6938192 L123.397325,20.9610692 C123.16669,20.8194731 122.900411,20.6992231 122.59779,20.6003192 C122.294469,20.5021269 121.982762,20.4523192 121.661969,20.4523192 C121.147582,20.4523192 120.772276,20.6095692 120.53535,20.9240692 C120.299124,21.2385692 120.18101,21.6825692 120.18101,22.2560692 L120.18101,23.7545692 L123.497267,23.7545692 L123.497267,25.1328192 Z" id="Fill-47" fill="#FEFEFE" mask="url(#mask-2)"></path>
                            <path d="M128.876173,24.9942115 C128.440063,24.9942115 128.037499,25.0724808 127.667784,25.2304423 C127.298068,25.3869808 126.977275,25.6047115 126.705405,25.8822115 C126.432137,26.1597115 126.218275,26.4912885 126.064519,26.8769423 C125.910063,27.2618846 125.833184,27.6859615 125.833184,28.1484615 C125.833184,28.6109615 125.910063,29.0350385 126.064519,29.4199808 C126.218275,29.8056346 126.432137,30.1386346 126.705405,30.4196923 C126.977275,30.7000385 127.298068,30.9184808 127.667784,31.0757308 C128.037499,31.2336923 128.440063,31.3119615 128.876173,31.3119615 C129.305994,31.3119615 129.707159,31.2336923 130.080369,31.0757308 C130.45288,30.9184808 130.775071,30.7000385 131.04764,30.4196923 C131.320209,30.1386346 131.534071,29.8056346 131.687828,29.4199808 C131.842983,29.0350385 131.919861,28.6109615 131.919861,28.1484615 C131.919861,27.6859615 131.842983,27.2618846 131.687828,26.8769423 C131.534071,26.4912885 131.320209,26.1597115 131.04764,25.8822115 C130.775071,25.6047115 130.45288,25.3869808 130.080369,25.2304423 C129.707159,25.0724808 129.305994,24.9942115 128.876173,24.9942115 M128.876173,23.5697115 C129.531038,23.5697115 130.136281,23.6856923 130.693999,23.9162308 C131.25032,24.1481923 131.733955,24.4683846 132.142809,24.8782308 C132.551662,25.2887885 132.871057,25.7726346 133.100994,26.3304808 C133.33093,26.8890385 133.446248,27.4945577 133.446248,28.1484615 C133.446248,28.8023654 133.33093,29.4078846 133.100994,29.9657308 C132.871057,30.5242885 132.551662,31.0081346 132.142809,31.4179808 C131.733955,31.8285385 131.25032,32.1487308 130.693999,32.3799808 C130.136281,32.6119423 129.531038,32.7272115 128.876173,32.7272115 C128.222007,32.7272115 127.616065,32.6119423 127.059046,32.3799808 C126.502027,32.1487308 126.020488,31.8285385 125.61443,31.4179808 C125.208372,31.0081346 124.891074,30.5242885 124.660438,29.9657308 C124.430502,29.4078846 124.315883,28.8023654 124.315883,28.1484615 C124.315883,27.4945577 124.430502,26.8890385 124.660438,26.3304808 C124.891074,25.7726346 125.208372,25.2887885 125.61443,24.8782308 C126.020488,24.4683846 126.502027,24.1481923 127.059046,23.9162308 C127.616065,23.6856923 128.222007,23.5697115 128.876173,23.5697115" id="Fill-48" fill="#FEFEFE" mask="url(#mask-2)"></path>
                            <path d="M139.560251,23.5697115 C139.869163,23.5697115 140.152215,23.5910577 140.410108,23.6344615 C140.667301,23.6771538 140.911215,23.7511538 141.141152,23.8564615 L140.777727,25.3457115 C140.571552,25.2347115 140.335326,25.1500385 140.069047,25.0909808 C139.802768,25.0326346 139.545575,25.0034615 139.296768,25.0034615 C138.969685,25.0034615 138.668461,25.0653654 138.392398,25.1884615 C138.117033,25.3115577 137.879409,25.4887308 137.679525,25.7199808 C137.478942,25.9512308 137.325185,26.2287308 137.216157,26.5524808 C137.10713,26.8762308 137.052616,27.2419615 137.052616,27.6489615 L137.052616,32.5422115 L135.571657,32.5422115 L135.571657,23.7547115 L137.034445,23.7547115 L137.034445,24.9109615 C137.337066,24.4790577 137.705384,24.1474808 138.138699,23.9162308 C138.571315,23.6856923 139.045865,23.5697115 139.560251,23.5697115" id="Fill-49" fill="#FEFEFE" mask="url(#mask-2)"></path>
                            <path d="M153.224907,19.3977481 C153.781927,19.3977481 154.319377,19.4596519 154.837957,19.5827481 C155.355139,19.7065558 155.838076,19.8837288 156.286766,20.1149788 C156.734059,20.3462288 157.141515,20.6279981 157.508435,20.9609981 C157.874656,21.2939981 158.18217,21.6668442 158.430277,22.0802481 L157.095388,22.9959981 C156.67675,22.3669981 156.135106,21.8710558 155.469059,21.5067481 C154.802313,21.1431519 154.054496,20.9609981 153.224907,20.9609981 C152.521819,20.9609981 151.871846,21.0848058 151.275689,21.3309981 C150.678833,21.5779019 150.159554,21.9244212 149.717153,22.3719788 C149.275451,22.818825 148.929498,23.3567481 148.68209,23.9857481 C148.433982,24.6147481 148.309578,25.3084981 148.309578,26.0669981 C148.309578,26.8254981 148.433982,27.5192481 148.68209,28.1482481 C148.929498,28.7772481 149.275451,29.3151712 149.717153,29.7620173 C150.159554,30.209575 150.678833,30.5568058 151.275689,30.8029981 C151.871846,31.0499019 152.521819,31.1729981 153.224907,31.1729981 C154.042614,31.1729981 154.78554,30.9944019 155.455081,30.6364981 C156.123924,30.2785942 156.668363,29.7826519 157.085603,29.1472481 L158.393935,30.1184981 C158.128355,30.5254981 157.811056,30.8890942 157.444835,31.2099981 C157.078614,31.5309019 156.674653,31.8048442 156.232252,32.0332481 C155.789852,32.2616519 155.315302,32.4359788 154.8107,32.5562288 C154.304001,32.6764788 153.775636,32.7362481 153.224907,32.7362481 C152.267421,32.7362481 151.387512,32.5711712 150.58588,32.2417288 C149.78215,31.911575 149.087449,31.4504981 148.499678,30.8584981 C147.911907,30.2664981 147.455529,29.562075 147.127747,28.7452288 C146.801363,27.9276712 146.637123,27.0354019 146.637123,26.0669981 C146.637123,25.0993058 146.801363,24.206325 147.127747,23.3894788 C147.455529,22.5719212 147.911907,21.8674981 148.499678,21.2754981 C149.087449,20.6834981 149.78215,20.2224212 150.58588,19.8929788 C151.387512,19.562825 152.267421,19.3977481 153.224907,19.3977481" id="Fill-50" fill="#FEFEFE" mask="url(#mask-2)"></path>
                            <path d="M160.657097,32.5422115 L162.138055,32.5422115 L162.138055,23.7547115 L160.657097,23.7547115 L160.657097,32.5422115 Z M161.383948,19.5829615 C161.529318,19.5829615 161.667,19.6107115 161.796994,19.6662115 C161.926989,19.7217115 162.040909,19.7985577 162.138055,19.8974615 C162.234503,19.9963654 162.310682,20.1102115 162.365196,20.2397115 C162.41971,20.3692115 162.446268,20.5108077 162.446268,20.6652115 C162.446268,20.8132115 162.41971,20.9519615 162.365196,21.0814615 C162.310682,21.2109615 162.234503,21.3233846 162.138055,21.4194423 C162.040909,21.5147885 161.926989,21.5887885 161.796994,21.6414423 C161.667,21.6933846 161.529318,21.7197115 161.383948,21.7197115 C161.238577,21.7197115 161.101594,21.6933846 160.975094,21.6414423 C160.847895,21.5887885 160.736771,21.5147885 160.643119,21.4194423 C160.548768,21.3233846 160.475384,21.2109615 160.42087,21.0814615 C160.366356,20.9519615 160.338401,20.8132115 160.338401,20.6652115 C160.338401,20.5108077 160.366356,20.3692115 160.42087,20.2397115 C160.475384,20.1102115 160.548768,19.9963654 160.643119,19.8974615 C160.736771,19.7985577 160.847895,19.7217115 160.975094,19.6662115 C161.101594,19.6107115 161.238577,19.5829615 161.383948,19.5829615 Z" id="Fill-51" fill="#FEFEFE" mask="url(#mask-2)"></path>
                            <path d="M170.777097,25.1328192 L167.151928,25.1328192 L167.151928,29.4155692 C167.151928,29.7485692 167.193163,30.0338962 167.274235,30.27155 C167.356006,30.5084923 167.470624,30.7048769 167.615994,30.8585692 C167.761365,31.0129731 167.931895,31.1268192 168.128983,31.2008192 C168.325373,31.2748192 168.54203,31.3118192 168.778956,31.3118192 C169.099749,31.3118192 169.411456,31.2563192 169.714077,31.1453192 C170.016699,31.0343192 170.292762,30.8927231 170.54087,30.7198192 L171.240464,31.8575692 C170.90779,32.1044731 170.526193,32.3108192 170.095674,32.4773192 C169.665854,32.6438192 169.184315,32.7270692 168.651058,32.7270692 C168.184895,32.7270692 167.766257,32.6608962 167.39724,32.52855 C167.028224,32.3962038 166.71442,32.1934154 166.456528,31.9223192 C166.199334,31.6512231 166.002945,31.3103962 165.86666,30.8998385 C165.729677,30.4899923 165.662583,30.0047231 165.662583,29.4433192 L165.662583,25.1328192 L163.8175,25.1328192 L163.8175,23.7545692 L165.662583,23.7545692 L165.662583,20.9980692 L167.151928,20.9980692 L167.151928,23.7545692 L170.777097,23.7545692 L170.777097,25.1328192 Z" id="Fill-52" fill="#FEFEFE" mask="url(#mask-2)"></path>
                            <polygon id="Fill-53" fill="#FEFEFE" mask="url(#mask-2)" points="173.976079 36.2884615 172.331579 36.2884615 175.520637 30.6644615 171.586557 23.7547115 173.249228 23.7547115 176.356515 29.1567115 179.309347 23.7547115 180.94546 23.7547115"></polygon>
                            <polygon id="Fill-54" fill="#FEFEFE" mask="url(#mask-2)" points="195.491003 32.5421404 186.605252 32.5421404 186.605252 19.5921404 188.204324 19.5921404 188.204324 30.9973904 195.491003 30.9973904"></polygon>
                            <path d="M200.650806,24.9108192 C200.269209,24.9108192 199.923955,24.9741462 199.615043,25.1008 C199.306131,25.2267423 199.037756,25.4024923 198.810615,25.62805 C198.583474,25.8528962 198.395471,26.1211462 198.248004,26.4328 C198.09914,26.7437423 197.9978,27.0881269 197.943286,27.4638192 L203.22204,27.4638192 C203.173118,27.0753192 203.078068,26.7238192 202.936192,26.4093192 C202.792919,26.0948192 202.611905,25.8265692 202.390355,25.6045692 C202.169504,25.3825692 201.912311,25.2110885 201.618775,25.0908385 C201.32454,24.9705885 201.001651,24.9108192 200.650806,24.9108192 M200.678062,23.5695692 C201.265134,23.5695692 201.807477,23.6805692 202.304391,23.9025692 C202.800607,24.1245692 203.22833,24.4362231 203.585466,24.8368192 C203.942601,25.2374154 204.222858,25.7169923 204.425538,26.2748385 C204.628217,26.8333962 204.733051,27.4481654 204.739341,28.1205692 C204.739341,28.2194731 204.736546,28.3162423 204.730256,28.4115885 C204.723966,28.5076462 204.717676,28.5987231 204.712085,28.6848192 L197.925115,28.6848192 C197.979629,29.1416269 198.093549,29.5386654 198.265477,29.8780692 C198.438104,30.2174731 198.65546,30.5006654 198.915449,30.7290692 C199.176137,30.9574731 199.472469,31.1268192 199.805841,31.2378192 C200.139214,31.3488192 200.490759,31.4043192 200.859775,31.4043192 C201.367872,31.4043192 201.846615,31.3118192 202.295306,31.1268192 C202.743297,30.9418192 203.152151,30.6863769 203.521167,30.3590692 L204.312317,31.3950692 C204.045339,31.6483769 203.769974,31.8611269 203.485524,32.0333192 C203.200375,32.2062231 202.909634,32.34355 202.613303,32.4445885 C202.316272,32.5463385 202.013651,32.6189154 201.704739,32.6623192 C201.395129,32.7057231 201.083422,32.7270692 200.768919,32.7270692 C200.126634,32.7270692 199.537466,32.6174923 199.002112,32.3983385 C198.465361,32.1798962 198.003391,31.8682423 197.616203,31.4640885 C197.229015,31.0606462 196.927093,30.5782231 196.711833,30.0168192 C196.497272,29.4561269 196.389643,28.8328192 196.389643,28.1483192 C196.389643,27.4759154 196.497272,26.8583 196.711833,26.2933385 C196.927093,25.7290885 197.225521,25.2473769 197.607118,24.8460692 C197.988015,24.4454731 198.441598,24.1323962 198.965071,23.9068385 C199.489242,23.6819923 200.060239,23.5695692 200.678062,23.5695692" id="Fill-55" fill="#FEFEFE" mask="url(#mask-2)"></path>
                            <path d="M210.699448,24.9942115 C210.250758,24.9942115 209.843302,25.0760385 209.477081,25.2389808 C209.11086,25.4026346 208.797056,25.6281923 208.536368,25.9142308 C208.276379,26.2009808 208.076495,26.5361154 207.937415,26.9182115 C207.798335,27.3003077 207.728446,27.7108654 207.728446,28.1484615 C207.728446,28.5860577 207.799733,28.9966154 207.941609,29.3787115 C208.084183,29.7608077 208.285465,30.0952308 208.546153,30.3819808 C208.806142,30.6694423 209.119247,30.8957115 209.486167,31.0622115 C209.852388,31.2287115 210.257048,31.3119615 210.699448,31.3119615 C211.135559,31.3119615 211.534628,31.2322692 211.898752,31.0714615 C212.261479,30.9106538 212.573885,30.6886538 212.834573,30.4054615 C213.094562,30.1222692 213.29794,29.7871346 213.44331,29.4014808 C213.58868,29.0165385 213.660667,28.5981538 213.660667,28.1484615 C213.660667,27.6980577 213.58868,27.2818077 213.44331,26.8997115 C213.29794,26.5176154 213.094562,26.1846154 212.834573,25.9007115 C212.573885,25.6168077 212.261479,25.3948077 211.898752,25.2347115 C211.534628,25.0746154 211.135559,24.9942115 210.699448,24.9942115 Z M215.059854,32.5422115 L213.56981,32.5422115 L213.56981,31.3674615 C213.224556,31.7808654 212.801026,32.1103077 212.29852,32.3572115 C211.795316,32.6034038 211.205448,32.7272115 210.526821,32.7272115 C209.920879,32.7272115 209.354075,32.6133654 208.827109,32.3849615 C208.300142,32.1565577 207.843064,31.8392115 207.455178,31.4322115 C207.06799,31.0252115 206.763272,30.5427885 206.542421,29.9842308 C206.320871,29.4263846 206.211144,28.8144615 206.211144,28.1484615 C206.211144,27.4824615 206.320871,26.8705385 206.542421,26.3126923 C206.763272,25.7541346 207.06799,25.2717115 207.455178,24.8647115 C207.843064,24.4577115 208.300142,24.1403654 208.827109,23.9119615 C209.354075,23.6835577 209.920879,23.5697115 210.526821,23.5697115 C211.205448,23.5697115 211.795316,23.6928077 212.29852,23.9397115 C212.801026,24.1866154 213.224556,24.5196154 213.56981,24.9387115 L213.56981,23.7547115 L215.059854,23.7547115 L215.059854,32.5422115 Z" id="Fill-56" fill="#FEFEFE" mask="url(#mask-2)"></path>
                            <path d="M221.674966,24.9942115 C221.226275,24.9942115 220.818819,25.0760385 220.452598,25.2389808 C220.086377,25.4026346 219.772573,25.6281923 219.511886,25.9142308 C219.251897,26.2009808 219.052013,26.5361154 218.912933,26.9182115 C218.773852,27.3003077 218.703963,27.7108654 218.703963,28.1484615 C218.703963,28.5860577 218.77525,28.9966154 218.917126,29.3787115 C219.059701,29.7608077 219.260982,30.0952308 219.52167,30.3819808 C219.781659,30.6694423 220.094764,30.8957115 220.461684,31.0622115 C220.827905,31.2287115 221.232565,31.3119615 221.674966,31.3119615 C222.111076,31.3119615 222.510145,31.2322692 222.87427,31.0714615 C223.236996,30.9106538 223.549402,30.6886538 223.81009,30.4054615 C224.070079,30.1222692 224.273457,29.7871346 224.418828,29.4014808 C224.564198,29.0165385 224.636184,28.5981538 224.636184,28.1484615 C224.636184,27.6980577 224.564198,27.2818077 224.418828,26.8997115 C224.273457,26.5176154 224.070079,26.1846154 223.81009,25.9007115 C223.549402,25.6168077 223.236996,25.3948077 222.87427,25.2347115 C222.510145,25.0746154 222.111076,24.9942115 221.674966,24.9942115 M221.502339,23.5697115 C222.180966,23.5697115 222.770833,23.6928077 223.274038,23.9397115 C223.776543,24.1866154 224.200073,24.5196154 224.545328,24.9387115 L224.545328,19.2222115 L226.035372,19.2222115 L226.035372,32.5422115 L224.545328,32.5422115 L224.545328,31.3674615 C224.200073,31.7808654 223.776543,32.1103077 223.274038,32.3572115 C222.770833,32.6034038 222.180966,32.7272115 221.502339,32.7272115 C220.896397,32.7272115 220.329593,32.6133654 219.802626,32.3849615 C219.275659,32.1565577 218.818582,31.8392115 218.430695,31.4322115 C218.043507,31.0252115 217.738789,30.5427885 217.517938,29.9842308 C217.296388,29.4263846 217.186662,28.8144615 217.186662,28.1484615 C217.186662,27.4824615 217.296388,26.8705385 217.517938,26.3126923 C217.738789,25.7541346 218.043507,25.2717115 218.430695,24.8647115 C218.818582,24.4577115 219.275659,24.1403654 219.802626,23.9119615 C220.329593,23.6835577 220.896397,23.5697115 221.502339,23.5697115" id="Fill-57" fill="#FEFEFE" mask="url(#mask-2)"></path>
                            <path d="M232.422504,24.9108192 C232.040907,24.9108192 231.695653,24.9741462 231.386741,25.1008 C231.07783,25.2267423 230.809454,25.4024923 230.582313,25.62805 C230.355172,25.8528962 230.167169,26.1211462 230.019702,26.4328 C229.870838,26.7437423 229.769498,27.0881269 229.714984,27.4638192 L234.993738,27.4638192 C234.944816,27.0753192 234.849766,26.7238192 234.70789,26.4093192 C234.564617,26.0948192 234.383603,25.8265692 234.162053,25.6045692 C233.941202,25.3825692 233.684009,25.2110885 233.390473,25.0908385 C233.096238,24.9705885 232.773349,24.9108192 232.422504,24.9108192 M232.44976,23.5695692 C233.036832,23.5695692 233.579175,23.6805692 234.076089,23.9025692 C234.572305,24.1245692 235.000028,24.4362231 235.357164,24.8368192 C235.714299,25.2374154 235.994556,25.7169923 236.197236,26.2748385 C236.399915,26.8333962 236.504749,27.4481654 236.51104,28.1205692 C236.51104,28.2194731 236.508244,28.3162423 236.501954,28.4115885 C236.495664,28.5076462 236.489374,28.5987231 236.483783,28.6848192 L229.696813,28.6848192 C229.751327,29.1416269 229.865247,29.5386654 230.037175,29.8780692 C230.209802,30.2174731 230.427158,30.5006654 230.687147,30.7290692 C230.947835,30.9574731 231.244167,31.1268192 231.57754,31.2378192 C231.910912,31.3488192 232.262457,31.4043192 232.631473,31.4043192 C233.13957,31.4043192 233.618313,31.3118192 234.067004,31.1268192 C234.514995,30.9418192 234.923849,30.6863769 235.292865,30.3590692 L236.084015,31.3950692 C235.817037,31.6483769 235.541672,31.8611269 235.257222,32.0333192 C234.972073,32.2062231 234.681332,32.34355 234.385001,32.4445885 C234.08797,32.5463385 233.785349,32.6189154 233.476437,32.6623192 C233.166827,32.7057231 232.85512,32.7270692 232.540617,32.7270692 C231.898332,32.7270692 231.309164,32.6174923 230.77381,32.3983385 C230.237059,32.1798962 229.775089,31.8682423 229.387901,31.4640885 C229.000714,31.0606462 228.698791,30.5782231 228.483531,30.0168192 C228.26897,29.4561269 228.161341,28.8328192 228.161341,28.1483192 C228.161341,27.4759154 228.26897,26.8583 228.483531,26.2933385 C228.698791,25.7290885 228.997219,25.2473769 229.378816,24.8460692 C229.759714,24.4454731 230.213296,24.1323962 230.736769,23.9068385 C231.26094,23.6819923 231.831937,23.5695692 232.44976,23.5695692" id="Fill-58" fill="#FEFEFE" mask="url(#mask-2)"></path>
                            <path d="M242.625462,23.5697115 C242.934374,23.5697115 243.217427,23.5910577 243.475319,23.6344615 C243.732512,23.6771538 243.976427,23.7511538 244.206363,23.8564615 L243.842938,25.3457115 C243.636764,25.2347115 243.400537,25.1500385 243.134258,25.0909808 C242.867979,25.0326346 242.610786,25.0034615 242.361979,25.0034615 C242.034896,25.0034615 241.733672,25.0653654 241.457609,25.1884615 C241.182244,25.3115577 240.94462,25.4887308 240.744736,25.7199808 C240.544153,25.9512308 240.390396,26.2287308 240.281369,26.5524808 C240.172341,26.8762308 240.117827,27.2419615 240.117827,27.6489615 L240.117827,32.5422115 L238.636869,32.5422115 L238.636869,23.7547115 L240.099656,23.7547115 L240.099656,24.9109615 C240.402277,24.4790577 240.770595,24.1474808 241.20391,23.9162308 C241.636526,23.6856923 242.111076,23.5697115 242.625462,23.5697115" id="Fill-59" fill="#FEFEFE" mask="url(#mask-2)"></path>
                            <path d="M251.547277,25.7063904 C251.407498,25.6138904 251.238365,25.5185442 251.037782,25.4196404 C250.837898,25.3207365 250.617048,25.2332173 250.374531,25.1563712 C250.132713,25.0788135 249.874821,25.0154865 249.602951,24.9663904 C249.330382,24.9172942 249.051523,24.8923904 248.766373,24.8923904 C248.173012,24.8923904 247.700559,25.0097942 247.349713,25.2438904 C246.998169,25.4779865 246.822048,25.7953327 246.822048,26.1966404 C246.822048,26.5481404 246.968815,26.8114096 247.26305,26.9871596 C247.556586,27.1629096 247.967536,27.2852942 248.494503,27.3528904 L249.493923,27.4823904 C249.953796,27.5442942 250.364746,27.6410635 250.724677,27.7734096 C251.085307,27.9064673 251.389327,28.0743904 251.638133,28.2778904 C251.886241,28.4813904 252.077039,28.7233135 252.209829,29.0036596 C252.344017,29.2847173 252.409713,29.6063327 252.409713,29.9706404 C252.409713,30.3904481 252.320255,30.7689865 252.142735,31.1083904 C251.963818,31.4477942 251.708722,31.7373904 251.378843,31.9778904 C251.048965,32.2183904 250.647799,32.4033904 250.175346,32.5328904 C249.702194,32.6623904 249.17313,32.7271404 248.58536,32.7271404 C248.318382,32.7271404 248.032534,32.7086404 247.726418,32.6716404 C247.421001,32.6346404 247.109992,32.5727365 246.794791,32.4866404 C246.480288,32.4005442 246.165086,32.2845635 245.850583,32.1401212 C245.534683,31.9949673 245.235556,31.8142365 244.951106,31.5986404 L245.641614,30.4701404 C245.804456,30.5996404 245.981976,30.7198904 246.173473,30.8308904 C246.363572,30.9418904 246.578832,31.0407942 246.817854,31.1268904 C247.056876,31.2129865 247.322456,31.2805827 247.613197,31.3303904 C247.903937,31.3801981 248.23102,31.4043904 248.593746,31.4043904 C249.308716,31.4043904 249.86923,31.2905442 250.275288,31.0621404 C250.680647,30.8344481 250.884025,30.5007365 250.884025,30.0631404 C250.884025,29.4099481 250.30534,29.0086404 249.14797,28.8606404 L248.149249,28.7403904 C247.173592,28.6172942 246.451633,28.3440635 245.981976,27.9214096 C245.512318,27.4994673 245.27749,26.9515827 245.27749,26.2798904 C245.27749,25.8607942 245.35926,25.4829673 245.523501,25.1464096 C245.686343,24.8105635 245.919774,24.5266596 246.223094,24.2961212 C246.525017,24.0641596 246.890539,23.8869865 247.317564,23.7638904 C247.745288,23.6407942 248.221235,23.5788904 248.748901,23.5788904 C249.433119,23.5788904 250.074006,23.6635635 250.670164,23.8336212 C251.26702,24.0029673 251.773719,24.2356404 252.192357,24.5316404 L251.547277,25.7063904 Z" id="Fill-60" fill="#FEFEFE" mask="url(#mask-2)"></path>
                        </g>
                    </g>
                </g>
            </g>
        </g>
    </g>
</svg>