<?xml version="1.0" encoding="UTF-8"?>
<svg width="325px" height="213px" viewBox="0 0 325 213" version="1.1" xmlns="http://www.w3.org/2000/svg" xmlns:xlink="http://www.w3.org/1999/xlink">
    <!-- Generator: Sketch 49.2 (51160) - http://www.bohemiancoding.com/sketch -->
    <title>Group</title>
    <desc>Created with Sketch.</desc>
    <defs></defs>
    <g id="Page-1" stroke="none" stroke-width="1" fill="none" fill-rule="evenodd">
        <g id="Work-Landing" transform="translate(-437.000000, -590.000000)">
            <g id="Group" transform="translate(437.000000, 590.000000)">
                <rect id="Rectangle-Copy-16" fill="#333333" x="0" y="0" width="325" height="213"></rect>
                <g id="Logo-/-Hester-Street-/-White" transform="translate(78.000000, 77.000000)" fill="#FFFFFF">
                    <path d="M0,59.9780899 L172.958358,59.9780899 L172.958358,54.8585393 L0,54.8585393 L0,59.9780899 Z M0,5.11955056 L172.958358,5.11955056 L172.958358,0 L0,0 L0,5.11955056 Z M123.736303,27.0124719 C127.032783,27.0124719 128.318264,26.5853933 128.318264,22.0813483 L128.318264,19.4875281 C128.318264,14.9946067 127.038877,14.5230337 123.680442,14.5230337 L120.607068,14.5230337 L120.607068,27.0124719 L123.736303,27.0124719 Z M124.006468,31.6570787 L120.597928,31.6570787 L120.607068,49.7386517 L114.740303,49.7386517 L114.740303,10.2391011 L124.07147,10.2391011 C131.335438,10.2391011 134.29709,13.9108989 134.352951,20.3646067 L134.352951,22.5896629 C134.352951,27.4853933 132.493624,30.4365169 129.419912,31.7720225 L135.358789,49.7386517 L129.15618,49.7386517 L124.006468,31.6570787 Z M168.462728,35.0426966 L164.071033,35.0426966 L164.071033,14.2547191 L159.542902,14.2547191 L159.542902,10.2391011 L172.958358,10.2391011 L172.958358,14.2547191 L168.462728,14.2547191 L168.462728,35.0426966 Z M151.128534,35.3059551 C147.072683,35.3059551 144.746493,32.8837079 144.746493,28.6597753 L144.746493,26.2321348 L149.268869,26.2183146 L149.268869,28.4332584 C149.268869,31.5175281 150.643728,31.5175281 151.161035,31.5175281 C151.588965,31.5175281 152.890358,31.5175281 152.890358,29.2435955 L152.890358,28.4005618 C152.890358,26.7337079 152.736656,26.0035955 151.105174,24.9404494 L148.342252,23.1926966 C145.980515,21.6694382 144.974677,19.8714607 144.974677,17.1782022 L144.974677,16.0108989 C144.974677,12.4466292 147.40311,10.1433708 151.161035,10.1433708 C155.30965,10.1433708 157.412734,12.2153933 157.412734,16.3024719 L157.412734,18.5403371 L152.955699,18.5197753 L152.955699,16.6270787 C152.955699,14.2098876 151.996581,13.9001124 151.161035,13.9001124 C149.688335,13.9001124 149.529215,15.2170787 149.529215,15.7833708 L149.529215,16.8866292 C149.529215,18.2076404 149.999464,19.0122472 151.205724,19.7558427 L154.047867,21.5767416 C156.894411,23.3841573 157.478074,25.4302247 157.478074,27.9465169 L157.478074,29.1788764 C157.478074,33.072809 155.163734,35.3059551 151.128534,35.3059551 Z M110.046282,44.6683146 L110.046282,49.7386517 L93.1156419,49.7386517 L93.1156419,10.2391011 L110.046282,10.2391011 L110.046282,15.3097753 L98.9827456,15.3097753 L98.9827456,26.9882022 L108.761477,26.9882022 L108.761477,32.0585393 L98.9827456,32.0585393 L98.9827456,44.6683146 L110.046282,44.6683146 Z M89.2046908,15.3573034 L81.4934951,15.3573034 L81.4934951,49.7386517 L75.7381135,49.7386517 L75.7381135,15.3573034 L67.9713953,15.3573034 L67.9713953,10.2391011 L89.2046908,10.2391011 L89.2046908,15.3573034 Z M45.27691,40.17 L45.27691,36.8875281 L51.1900568,36.8834831 L51.2560744,39.7803371 C51.2560744,43.8414607 52.5967397,45.955618 55.3908082,45.955618 C58.016955,45.955618 59.2462368,44.1198876 59.2462368,41.1714607 L59.2462368,39.7247191 C59.2462368,36.6094382 58.8548708,35.0521348 55.7821742,33.0488764 L51.0322916,30.0448315 C47.0651409,27.4853933 45.6682759,24.5366292 45.6682759,20.4755056 L45.6682759,18.4725843 C45.6682759,12.7425843 49.5237045,9.29325843 55.3908082,9.29325843 C61.6489393,9.29325843 65.2250626,12.0195506 65.2250626,18.9734831 L65.2250626,21.9219101 L59.3579589,21.7941573 L59.3579589,19.5296629 C59.3579589,15.8582022 58.1290157,13.9668539 55.3908082,13.9668539 C52.9884442,13.9668539 51.7029628,15.6913483 51.7029628,18.0835955 L51.7029628,19.9749438 C51.7029628,22.5340449 52.6526008,24.2029213 54.9997808,25.6496629 L59.861047,28.7649438 C64.3309472,31.6021348 65.3367847,34.6621348 65.3367847,38.9457303 L65.3367847,41.0598876 C65.3367847,47.1239326 61.9282446,50.6844944 55.3349472,50.6844944 C48.8533718,50.6844944 45.27691,46.9570787 45.27691,40.17 Z M42.2986693,44.6683146 L42.2986693,49.7386517 L25.3683679,49.7386517 L25.3683679,10.2391011 L41.9079804,10.2391011 L41.9079804,15.3097753 L31.2354716,15.3097753 L31.2354716,27.4537079 L41.013865,27.4537079 L41.013865,32.5240449 L31.2354716,32.5240449 L31.2354716,44.6683146 L42.2986693,44.6683146 Z M20.6743464,49.7386517 L14.8072427,49.7386517 L14.8072427,32.5240449 L5.86676517,32.5240449 L5.86676517,49.7386517 L0,49.7386517 L0,10.2391011 L5.86676517,10.2391011 L5.86676517,27.4537079 L14.8072427,27.4537079 L14.8072427,10.2391011 L20.6743464,10.2391011 L20.6743464,49.7386517 Z" id="Page-1"></path>
                </g>
            </g>
        </g>
    </g>
</svg>