<?xml version="1.0" encoding="utf-8"?>
<!-- Generator: Adobe Illustrator 19.2.1, SVG Export Plug-In . SVG Version: 6.00 Build 0)  -->
<!DOCTYPE svg PUBLIC "-//W3C//DTD SVG 1.1//EN" "http://www.w3.org/Graphics/SVG/1.1/DTD/svg11.dtd">
<svg version="1.1" id="Layer_1" xmlns="http://www.w3.org/2000/svg" xmlns:xlink="http://www.w3.org/1999/xlink" x="0px" y="0px"
	 viewBox="0 0 318.6 661.7" enable-background="new 0 0 318.6 661.7" xml:space="preserve">
<g>
	<g>
		<path fill="#1A1A1A" d="M270.2,3.4H51.8C25.2,3.4,3.4,25.2,3.4,51.8v561.4c0,26.7,21.8,48.5,48.5,48.5h218.3
			c26.7,0,48.5-21.8,48.5-48.5V51.8C318.6,25.2,296.8,3.4,270.2,3.4z M295.9,571.9H26.1V93.1h269.7V571.9z"/>
		<g>
			<path fill="#4D4D4D" d="M161,641.7c-15.7,0-28.4-12.8-28.4-28.4c0-15.7,12.8-28.4,28.4-28.4s28.4,12.8,28.4,28.4
				C189.4,628.9,176.7,641.7,161,641.7z M161,588.6c-13.6,0-24.7,11.1-24.7,24.7c0,13.6,11.1,24.7,24.7,24.7
				c13.6,0,24.7-11.1,24.7-24.7C185.7,599.6,174.6,588.6,161,588.6z"/>
		</g>
		<g>
			<circle fill="#4D4D4D" cx="161" cy="33.6" r="5.9"/>
		</g>
		<g>
			<path fill="#4D4D4D" d="M187.1,62.8h-52.3c-2.1,0-3.8-1.7-3.8-3.8s1.7-3.8,3.8-3.8h52.3c2.1,0,3.8,1.7,3.8,3.8
				S189.2,62.8,187.1,62.8z"/>
		</g>
		<g>
			<rect x="214.9" fill="#4D4D4D" width="51.4" height="3.4"/>
		</g>
		<g>
			<rect y="153.4" fill="#4D4D4D" width="3.4" height="23.2"/>
		</g>
		<g>
			<rect y="91.3" fill="#4D4D4D" width="3.4" height="32"/>
		</g>
		<g>
			<rect y="206.1" fill="#4D4D4D" width="3.4" height="23.2"/>
		</g>
	</g>
</g>
</svg>
