<svg id="Layer_1" data-name="Layer 1" xmlns="http://www.w3.org/2000/svg" viewBox="0 0 62.5 64.59"><defs><style>.cls-1{fill:#fff;}</style></defs><title>bus</title><path class="cls-1" d="M54.17,31.25a6.27,6.27,0,0,1-6.25,6.25H14.58a6.27,6.27,0,0,1-6.25-6.25V20.83a6.14,6.14,0,0,1,6.25-6.25H47.91a6.14,6.14,0,0,1,6.25,6.25ZM50,52.08a4.17,4.17,0,1,1,4.17-4.17A4.18,4.18,0,0,1,50,52.08Zm-37.5,0a4.17,4.17,0,1,1,4.17-4.17A4.18,4.18,0,0,1,12.5,52.08ZM16.67,6.25H45.84a2,2,0,0,1,2.08,2.08,2,2,0,0,1-2.08,2.08H16.67a2,2,0,0,1-2.08-2.08,2,2,0,0,1,2.08-2.09Zm41.66,8.33V8.33C58.33,4.16,54,0,31.25,0S4.17,4.17,4.17,8.33v6.25A4.18,4.18,0,0,0,0,18.75v4.17a4.18,4.18,0,0,0,4.17,4.17V50a6.22,6.22,0,0,0,3.13,5.42v4a5.21,5.21,0,0,0,10.41,0V56.25H44.79v3.13a5.21,5.21,0,0,0,10.41,0v-4A6.22,6.22,0,0,0,58.33,50V27.08a4.18,4.18,0,0,0,4.17-4.17V18.75a4.18,4.18,0,0,0-4.17-4.16Z"/></svg>