<svg id="Layer_1" data-name="Layer 1" xmlns="http://www.w3.org/2000/svg" viewBox="0 0 93.82 80.42"><defs><style>.cls-1{fill:#fff;}</style></defs><title>horn</title><path class="cls-1" d="M3.09,44v3.4A16,16,0,0,0,18,63.32V87.2a3,3,0,0,0,3,3H31.62a3,3,0,0,0,3-3V63.37h1.74V28H19.09a16,16,0,0,0-16,16Z" transform="translate(-3.09 -9.78)"/><path class="cls-1" d="M95.56,10.3a3,3,0,0,0-2.82-.3L43.37,31V60.3l49.37,21h0a3,3,0,0,0,4.17-2.76V12.8a3,3,0,0,0-1.35-2.5Z" transform="translate(-3.09 -9.78)"/></svg>