<?xml version="1.0" encoding="utf-8"?>
<!-- Generator: Adobe Illustrator 19.1.0, SVG Export Plug-In . SVG Version: 6.00 Build 0)  -->
<!DOCTYPE svg PUBLIC "-//W3C//DTD SVG 1.1//EN" "http://www.w3.org/Graphics/SVG/1.1/DTD/svg11.dtd">
<svg version="1.1" id="Layer_1" xmlns="http://www.w3.org/2000/svg" xmlns:xlink="http://www.w3.org/1999/xlink" x="0px" y="0px"
	 viewBox="0 0 191.2 104.1" enable-background="new 0 0 191.2 104.1" xml:space="preserve">
<path d="M42.2,78.6c0.9-0.3,1.2-0.9,1-1.5c-0.2-0.7-0.8-1-1.6-0.8l-1.8,0.5l0.7,2.3L42.2,78.6z M42.6,80.1l-1.8,0.5l0.8,2.8l1.8-0.5
	c1.1-0.3,1.4-0.9,1.1-1.8C44.3,80.1,43.7,79.8,42.6,80.1 M134.5,48.2l0.3,1l-4.5,1.3l0.7,2.3l3.3-0.9l0.4,1.5l-3.3,0.9l0.8,2.7
	l4.6-1.3l0.4,1.5l-6.4,1.9l-2.6-9l-5.1,1.5c0.7,0.3,1.4,1,2.1,2.2l-1.6,0.7c-0.9-1.5-1.7-1.6-2.6-1.4c-1.2,0.4-1.6,1.7-1,3.9
	c0.6,2.2,1.6,3.2,3,2.8c0.8-0.2,1.6-0.9,1.4-2.5l1.7-0.3c0.3,2.3-1,3.8-2.7,4.3c-2.4,0.7-4.3-0.7-5.2-3.8c-0.6-2.1-0.4-3.7,0.5-4.8
	l-5.2,1.5l2.6,9l-1.8,0.5l-5.9-5.6l0,0l2,6.8l-1.7,0.5l-2.6-9l-5.9,1.7l5.2,8.3l-1.8,0.5l-1.1-1.9l-3,0.9l0,2.2l-1.8,0.5l0-9.8
	L90.6,61c1.5,0.3,2.7,1.4,3.4,3.7c1,3.4-0.4,5.3-2.9,6l-3.2,0.9l-2.6-9.1l-9.1,2.6l-0.9,6l1.1,3.8l-1.8,0.5l-1.1-3.8l-4-4.6
	l-3.1,0.9l0.3,1.1l-4.5,1.3l0.7,2.3l3.3-0.9l0.4,1.5l-3.3,0.9l0.8,2.7l4.6-1.3l0.4,1.5l-6.4,1.9l-2.6-9.1L55.8,71l2.6,9.1l-1.8,0.5
	l-5.9-5.6l0,0l2,6.8L51,82.2l-2.6-9.1l-5.2,1.5c0.8,0.2,1.4,0.6,1.7,1.6c0.3,1,0.1,1.9-0.8,2.6c1.4,0.1,2,0.6,2.4,2
	c0.4,1.5-0.3,2.8-2.7,3.5l-3.5,1l-2.6-9.1l-4.2,1.2l2.6,9.1l-1.8,0.5L31.6,78L26,79.6c0.8,0.2,1.5,0.8,2,1.5L26.4,82
	c-0.7-0.8-1.4-1.1-2.3-0.8c-1.3,0.4-1.6,1.9-1,4c0.6,2,1.7,3.1,3,2.7c1.2-0.3,1.7-1.4,1.4-2.5L25.7,86l-0.4-1.5l3.6-1l1.4,4.8
	l-1.3,0.4l-0.3-1c-0.5,1.1-1.2,1.5-2.2,1.8c-2.6,0.7-4.4-1-5.2-3.6c-0.5-1.8-0.6-3.8,0.6-5.1L0,87.2l4.9,17l152.1-44l-4.9-17
	L134.5,48.2z M55.8,77.5l-1.7-6l-3.5,1L55.8,77.5L55.8,77.5z M74.3,65.7l-2.9,0.8l2.4,2.9L74.3,65.7z M113.6,60.8L113.6,60.8l-1.7-6
	l-3.5,1L113.6,60.8z M99.5,64.3l2.2-0.6l-2.3-3.8l0,0L99.5,64.3z M89.3,69.5l1.2-0.3c2.1-0.6,2.1-2.3,1.6-4
	c-0.5-1.7-1.4-3.1-3.5-2.5L87.4,63L89.3,69.5z M191.2,10L187,0L61.8,52.5l4.2,10L191.2,10z"/>
</svg>
