<?xml version="1.0" encoding="utf-8"?>
<!-- Generator: Adobe Illustrator 19.1.0, SVG Export Plug-In . SVG Version: 6.00 Build 0)  -->
<!DOCTYPE svg PUBLIC "-//W3C//DTD SVG 1.1//EN" "http://www.w3.org/Graphics/SVG/1.1/DTD/svg11.dtd">
<svg version="1.1" id="Layer_1" xmlns="http://www.w3.org/2000/svg" xmlns:xlink="http://www.w3.org/1999/xlink" x="0px" y="0px"
	 viewBox="0 0 249.2 52.7" enable-background="new 0 0 249.2 52.7" xml:space="preserve">
<g>
	<polygon points="43.7,19.6 46.8,19.6 46.8,3.1 53.2,3.1 53.2,0.4 36.9,0.4 36.9,3.1 43.7,3.1 	"/>
	<polygon points="2.9,7 16.4,19.9 16.7,19.9 16.7,0.4 13.8,0.4 13.8,13 0.2,0.1 0,0.1 0,19.6 2.9,19.6 	"/>
	<polygon points="104.6,19.9 104.6,0.4 101.7,0.4 101.7,13 88.2,0.1 88,0.1 88,19.6 90.8,19.6 90.8,7 104.4,19.9 	"/>
	<path d="M25.1,15.8h8.5l1.8,3.9H39L29.5,0h-0.2l-9.5,19.6h3.4L25.1,15.8z M29.4,6.6l3,6.5h-6L29.4,6.6z"/>
	<rect x="56.8" y="0.4" width="3.1" height="19.2"/>
	<path d="M74.1,19.9c5.6,0,10.1-4.2,10.1-9.9c0-5.7-4.5-9.9-10.1-9.9C68.5,0.1,64,4.3,64,10C64,15.7,68.5,19.9,74.1,19.9z M74.1,2.9
		c4.1,0,6.9,3.1,6.9,7.1c0,4.1-2.9,7.1-6.9,7.1c-4.1,0-6.9-3.1-6.9-7.1C67.2,5.9,70,2.9,74.1,2.9z"/>
	<polygon points="141.8,16.9 133.1,16.9 133.1,0.4 130,0.4 130,19.6 141.8,19.6 	"/>
	<path d="M113.1,15.8h8.5l1.8,3.9h3.6L117.5,0h-0.2l-9.5,19.6h3.4L113.1,15.8z M117.4,6.6l3,6.5h-6L117.4,6.6z"/>
	<path d="M5.9,47.1c3.5,0,6.3-2.6,6.3-6.2c0-3.4-2.6-5.8-5.9-5.8c-3.5,0-6.3,2.6-6.3,6.2C0,44.6,2.6,47.1,5.9,47.1z M6.2,37.4
		c2,0,3.2,1.4,3.2,3.4c0,2.3-1.3,3.9-3.4,3.9c-1.9,0-3.2-1.4-3.2-3.4C2.8,39.1,4.2,37.4,6.2,37.4z"/>
	<path d="M21.6,26.7c-2.3,0-3.6,1.3-4,3.9l-0.8,4.8h-1.9l-0.4,2.3h1.9l-2.1,11.7c-0.2,1.1-0.6,1.2-1.2,1.2h-1l-0.4,2.1h1.5
		c2.1,0,3.2-0.4,3.7-3.2L19,37.6h3l0.4-2.3h-3l0.8-4.6c0.2-1.2,0.7-1.6,1.5-1.6c0.6,0,1,0.3,1.3,0.7l1.8-1.6
		C24,27.2,23,26.7,21.6,26.7z"/>
	<polygon points="58.6,39.9 67.6,39.9 67.6,37.2 58.6,37.2 58.6,30.2 68,30.2 68,27.5 55.5,27.5 55.5,46.7 68.4,46.7 68.4,44 
		58.6,44 	"/>
	<polygon points="80.7,40.4 75.1,27.5 71.9,27.5 80.6,47 80.8,47 89.3,27.5 86.2,27.5 	"/>
	<rect x="93" y="27.5" width="3.1" height="19.2"/>
	<polygon points="104.8,39.9 113.7,39.9 113.7,37.2 104.8,37.2 104.8,30.2 114.2,30.2 114.2,27.5 101.7,27.5 101.7,46.7 114.6,46.7 
		114.6,44 104.8,44 	"/>
	<polygon points="136.8,39.8 131.2,27 131.1,27 125.6,39.8 121.4,27.4 118.2,27.4 125.1,47.1 125.3,47.1 131.2,33.6 136.9,47.1 
		137.1,47.1 143.9,27.4 140.8,27.4 	"/>
	<path d="M46.9,34.1c0,2.6-2.2,4-4.7,4c-0.5,0-0.5,0-0.7,0c0,0.4,0,0.9,0,0.9l5.2,7.6h3.6l-4.9-7.1c2.1-0.5,4.8-2.3,4.8-5.7
		c0-3.7-3.1-6.4-7.7-6.4h-6v19.2h3.1V30.2h2.9C45.3,30.2,46.9,31.8,46.9,34.1z"/>
	<path d="M181.7,0.1c-5.6,0-10.1,4.2-10.1,9.9c0,5.7,4.5,9.9,10.1,9.9c5.6,0,10.1-4.2,10.1-9.9C191.8,4.3,187.3,0.1,181.7,0.1z
		 M181.7,17.1c-4.1,0-6.9-3.1-6.9-7.1c0-4.1,2.9-7.1,6.9-7.1c4.1,0,6.9,3.1,6.9,7.1C188.6,14.1,185.8,17.1,181.7,17.1z"/>
	<path d="M238.9,0.4h-5.5v19.2h5.5c6.4,0,10.3-3.9,10.3-9.6C249.2,4.3,245.3,0.4,238.9,0.4z M238.7,17h-2.3V3.1h2.3
		c5.1,0,7.3,2.9,7.3,6.9C246,14.1,243.8,17,238.7,17z"/>
	<path d="M202.2,0.2l-9.5,19.6h3.4l1.8-3.9V16h8.5l1.8,3.9h3.6l-9.5-19.6H202.2z M199.2,13.3l3-6.5l3,6.5H199.2z"/>
	<path d="M228.8,6.8c0-3.7-3.1-6.4-7.7-6.4h-6v19.2h3.1V3.1h2.9c2.9,0,4.5,1.6,4.5,4c0,2.6-2.2,4-4.7,4c-0.5,0-0.5,0-0.7,0
		c0,0.4,0,0.9,0,0.9l5.2,7.6h3.6l-4.9-7.1C226.1,12,228.8,10.2,228.8,6.8z"/>
	<path d="M164.8,9.6c1.9-0.6,3-2.1,3-4.1c0-2.8-2-5.1-5.9-5.1h-7.4v19.5h7.9c4.2,0,6.3-2.4,6.3-5.5C168.7,11.6,167.2,10.1,164.8,9.6
		z M157.6,3h4.1c2.2,0,3.1,1.1,3.1,2.7c0,1.6-0.9,2.8-3,2.8h-4.1V3z M162.2,17.2h-4.6V11h4.4c2.3,0,3.6,1.2,3.6,3.1
		C165.6,16,164.5,17.2,162.2,17.2z"/>
</g>
</svg>
