<?xml version="1.0" encoding="utf-8"?>
<!-- Generator: Adobe Illustrator 19.1.0, SVG Export Plug-In . SVG Version: 6.00 Build 0)  -->
<!DOCTYPE svg PUBLIC "-//W3C//DTD SVG 1.1//EN" "http://www.w3.org/Graphics/SVG/1.1/DTD/svg11.dtd">
<svg version="1.1" id="Layer_1" xmlns="http://www.w3.org/2000/svg" xmlns:xlink="http://www.w3.org/1999/xlink" x="0px" y="0px"
	 viewBox="0 0 81.1 93.8" enable-background="new 0 0 81.1 93.8" xml:space="preserve">
<g>
	<rect x="0" y="0" fill="#FFFFFF" width="81.1" height="84"/>
	<rect x="0" y="84" fill="#FF322E" width="81.1" height="9.8"/>
	<path d="M54.7,30.4h3.9c4.6,0,7.2,2.2,7.2,6.1c0,3.9-2.6,6.1-7.2,6.1H58v8.2h1.1c10.6,0,16.8-5.3,16.8-14.4
		c0-9.2-6.2-14.4-16.8-14.4H44.9V63h9.8V30.4z M18.7,22.1L5,63h9.9l12.8-39.8L21,24.4L33.4,63h10.1L30,22.1H18.7z M20.4,56.8h16.7
		l-2.6-8.2H22.8L20.4,56.8z"/>
</g>
</svg>
