<?xml version="1.0" encoding="utf-8"?>
<!-- Generator: Adobe Illustrator 19.1.0, SVG Export Plug-In . SVG Version: 6.00 Build 0)  -->
<!DOCTYPE svg PUBLIC "-//W3C//DTD SVG 1.1//EN" "http://www.w3.org/Graphics/SVG/1.1/DTD/svg11.dtd">
<svg version="1.1" id="Layer_1" xmlns="http://www.w3.org/2000/svg" xmlns:xlink="http://www.w3.org/1999/xlink" x="0px" y="0px"
	 viewBox="0 0 112.3 103.6" enable-background="new 0 0 112.3 103.6" xml:space="preserve">
<g>
	<rect x="8" y="0" fill="#272525" width="95.5" height="95.5"/>
	<g>
		<defs>
			<rect id="SVGID_1_" x="8" y="33.5" width="95.6" height="61.8"/>
		</defs>
		<clipPath id="SVGID_2_">
			<use xlink:href="#SVGID_1_"  overflow="visible"/>
		</clipPath>
		<g clip-path="url(#SVGID_2_)">
			<path fill="#FFFFFF" d="M29,69c0,4.9-1.9,7.8-6.5,9.8v0.3c5.6,2.2,8.1,5.8,8.1,11.4c0,8.8-5.2,13-15.6,13H0V57.8h13.4
				C23.8,57.8,29,61.7,29,69z M4.2,61.5v16.2h10.3c6.6,0,10.1-3,10.1-8.1c0-5.6-3.7-8.1-11.4-8.1H4.2z M4.2,81.3v18.6h11
				c7.1,0,11-3.4,11-9.3c0-6.3-4.1-9.3-12.3-9.3H4.2z"/>
			<path fill="#FFFFFF" d="M47,57.8h5.7L67,103.6h-4.4l-4.6-15H41.3l-4.6,15h-4.1L47,57.8z M57,84.9l-7.2-24.2l-7.3,24.2H57z"/>
			<path fill="#FFFFFF" d="M72,57.8h7.5l12.6,39.1l12.6-39.1h7.5v45.8h-3.9V62.1h-1L94,103.6h-3.6L76.9,62.1h-1v41.5H72V57.8z"/>
		</g>
	</g>
</g>
</svg>
