<?xml version="1.0" encoding="utf-8"?>
<!-- Generator: Adobe Illustrator 19.1.0, SVG Export Plug-In . SVG Version: 6.00 Build 0)  -->
<!DOCTYPE svg PUBLIC "-//W3C//DTD SVG 1.1//EN" "http://www.w3.org/Graphics/SVG/1.1/DTD/svg11.dtd">
<svg version="1.1" id="Layer_1" xmlns="http://www.w3.org/2000/svg" xmlns:xlink="http://www.w3.org/1999/xlink" x="0px" y="0px"
	 viewBox="0 0 156.5 75.5" enable-background="new 0 0 156.5 75.5" xml:space="preserve">
<g>
	<g>
		<path d="M134.6,16.6c-0.6,1.2-1.4,1.8-2.3,1.8c-0.9,0-1.3-0.7-1.2-1.8c0.1-2.2,1.5-6.1,3.6-6.1c0.8,0,1.3,0.5,1.2,1.7
			C135.7,13.4,135.3,15.3,134.6,16.6 M134.5,9.8c-3.3,0-5.7,2.8-5.8,6c0,1.8,0.9,3.3,3.4,3.3c3.9,0,5.9-3.4,6-5.9
			C138.1,11.2,136.8,9.8,134.5,9.8"/>
		<path d="M156.5,14.6c0-0.8-0.4-1.3-1-1.3c-0.5,0-0.9,0.4-0.9,0.9c0,0.6,0.6,0.8,0.6,1.6c0,0.3-0.1,0.7-0.4,1
			c-0.4,0.4-0.9,0.6-2.6,0.6h-4c-0.5,0-0.6-0.2-0.4-0.7c0.6-1.7,1.4-3.7,1.6-4.5c0.2-1.1-0.3-2.1-1.7-2.1c-2.2,0-3.6,1.9-5.6,5.6
			h-0.1c0,0,1.4-3.3,1.4-4.4c0-0.8-0.5-1.2-1.3-1.2c-1.3,0-2.6,1.3-3.1,2.1l0.4,0.4c0.3-0.3,0.6-0.7,0.9-0.9c0.5-0.4,1-0.3,0.9,0.5
			c-0.2,1.1-1.7,5-2.5,7h2.3c2.4-4.7,4.1-7.8,5.5-7.8c0.4,0,0.6,0.2,0.6,0.7c0,0.8-1.2,3.7-1.7,5.4c-0.3,1-0.2,1.7,0.7,1.7h4.4
			c1.8,0,3.3-0.9,3.9-1.3C155.7,16.8,156.5,15.6,156.5,14.6"/>
	</g>
	<polygon points="13.5,31.4 13.5,28.7 2.6,28.7 2.6,46.9 5.7,46.9 5.7,38.9 12.8,38.9 12.8,36.2 5.7,36.2 5.7,31.4 	"/>
	<g>
		<path d="M103.2,31.1c-1.9-1.8-4.1-2.9-7.2-2.9c-5.4,0-9.7,3.9-9.7,9.6c0,5.8,3.9,9.4,9.4,9.4h0c5.1,0,8.9-3.2,9-8.5l0-0.6h-8.9
			v2.6h5.5c-0.6,2.5-2.9,3.7-5.4,3.7c-3.8,0-6.3-2.6-6.3-6.7c0-3.9,2.5-6.8,6.3-6.8c2.6,0,4.3,1.2,5.3,2.2L103.2,31.1z"/>
		<path d="M5.7,64.8v-5.6h2.5c3.3,0,3.7,1.5,3.7,2.7c0,1.1-0.5,3-3.7,3H5.7z M10.1,67.1c0,0,0,0,0.1,0c2.7-0.3,4.7-2.4,4.7-5.4
			c0-3.2-2.4-5.3-6.1-5.3H2.6v18.3h3.1v-7.6h0.7l6.2,7.6h3.9L10.1,67.1z"/>
	</g>
	<polygon points="25,66.7 32,66.7 32,64 25,64 25,59.2 32.8,59.2 32.8,56.5 21.8,56.5 21.8,74.8 33.4,74.8 33.4,72.1 25,72.1 	"/>
	<polygon points="42.5,56.5 39.3,56.5 39.3,74.8 50.5,74.8 50.5,72.1 42.5,72.1 	"/>
	<polygon points="70.8,59.2 76.4,59.2 76.4,74.8 79.5,74.8 79.5,59.2 85.1,59.2 85.1,56.5 70.8,56.5 	"/>
	<rect x="89.9" y="56.5" width="3.2" height="18.3"/>
	<g>
		<path d="M134.3,68.1c-0.5-0.5-12.3-12.3-12.3-12.3v19h3.1V63.2c0.5,0.5,12.3,12.3,12.3,12.3v-19h-3.1V68.1z"/>
		<path d="M149.3,64.2c-2.3-1.1-3.3-2-3.3-3.3c0-2,2-2.2,2.7-2.2c1.3,0,2.5,0.4,3.6,1.4l1.6-2.2c-1.7-1.4-3.3-1.8-5.1-1.8
			c-3.3,0-5.7,2-5.7,4.9c0,2.8,1.8,4.2,4.9,5.8c2.1,1.1,3.2,2.1,3.2,3.3c0,1.4-1.3,2.3-2.9,2.3c-1.7,0-3.1-0.6-4.5-1.9l-1.7,2.2
			c2,1.8,4.1,2.4,6,2.4c4.1,0,6.2-2.3,6.2-5.2C154.2,67,152,65.5,149.3,64.2"/>
		<path d="M15.2,14.1c-1.5,1.7-3.4,2.5-5.5,2.5c-3.7,0-6.5-2.5-6.5-6.8c0-3.9,2.6-6.6,6.1-6.6c2,0,3.6,0.6,5.1,2.1l2-2.1
			c-1.8-1.9-4.2-2.8-7.1-2.8C4.1,0.5,0,4.5,0,9.9c0,5.7,3.9,9.5,9.4,9.5c3.2,0,5.8-1.1,7.6-3.2L15.2,14.1z"/>
		<path d="M98.5,14.1c-1.5,1.7-3.2,2.5-5.6,2.5c-3.9,0-6.5-2.5-6.5-6.8c0-3.9,2.6-6.6,6.1-6.6c2,0,3.6,0.6,5.1,2.1l2-2
			c-1.8-1.9-4.1-2.8-7.1-2.8c-5.5,0-9.4,4.1-9.4,9.5c0,5.7,3.8,9.5,9.4,9.5c3.4,0,5.9-1,7.7-3.1L98.5,14.1z"/>
		<path d="M49.9,19.2c4.3,0,6.8-2.3,7.5-5.5c0.1-0.6,0.2-1.5,0.2-2.3V0.7h-3.1v10.7c0,3.4-1.7,5.1-4.6,5.1c-3,0-4.8-1.8-4.8-5.1V0.7
			H42v10.7c0,0.8,0.1,1.7,0.2,2.3C42.9,16.9,45.4,19.2,49.9,19.2"/>
		<path d="M66.3,7.3c0.5,0.5,12.4,12.5,12.4,12.5v-19h-3v11.8C75.1,11.9,63.3,0,63.3,0v19h3V7.3z"/>
	</g>
	<rect x="104.1" y="0.7" width="3.2" height="18.3"/>
	<polygon points="124.8,16.3 116.8,16.3 116.8,0.7 113.6,0.7 113.6,19 124.8,19 	"/>
	<g>
		<path d="M28.5,3c-3.5,0-6.4,2.8-6.4,6.9c0,4.1,2.7,6.9,6.4,6.9s6.4-2.8,6.4-6.9C34.9,5.8,32,3,28.5,3 M18.9,9.9L18.9,9.9
			c0-5.5,4.1-9.6,9.6-9.6c5.5,0,9.6,4.1,9.6,9.6c0,5.5-3.9,9.6-9.6,9.6C22.9,19.5,18.9,15.4,18.9,9.9"/>
		<path d="M26.4,30.9c-3.5,0-6.4,2.8-6.4,6.9c0,4.1,2.7,6.9,6.4,6.9c3.7,0,6.4-2.8,6.4-6.9C32.8,33.7,29.9,30.9,26.4,30.9
			 M16.8,37.8L16.8,37.8c0-5.5,4.1-9.6,9.6-9.6c5.5,0,9.6,4.1,9.6,9.6c0,5.5-3.9,9.6-9.6,9.6C20.8,47.4,16.8,43.3,16.8,37.8"/>
	</g>
	<polygon points="63.1,38.8 70.1,38.8 70.1,36.1 63.1,36.1 63.1,31.3 70.9,31.3 70.9,28.6 59.9,28.6 59.9,46.9 71.5,46.9 71.5,44.2 
		63.1,44.2 	"/>
	<rect x="77.6" y="28.6" width="3.2" height="18.3"/>
	<g>
		<path d="M44.3,36.9v-5.6h2.5c3.3,0,3.7,1.5,3.7,2.7c0,1.1-0.5,3-3.7,3H44.3z M48.7,39.3c0,0,0,0,0.1,0c2.7-0.3,4.7-2.4,4.7-5.4
			c0-3.2-2.4-5.3-6.1-5.3h-6.3v18.3h3.1v-7.6H45l6.2,7.6h3.9L48.7,39.3z"/>
	</g>
	<path d="M63.9,67.8l-2.4-5.7l-2.4,5.7H63.9z M65,70.5h-7l-1.8,4.2H53l8.6-19.5l8.5,19.5h-3.4L65,70.5z"/>
	<g>
		<path d="M107.6,58.8c-3.5,0-6.4,2.8-6.4,6.9c0,4.1,2.7,6.9,6.4,6.9c3.7,0,6.4-2.8,6.4-6.9C114,61.6,111.1,58.8,107.6,58.8
			 M98,65.7L98,65.7c0-5.5,4.1-9.6,9.6-9.6c5.5,0,9.6,4.1,9.6,9.6c0,5.5-3.9,9.6-9.6,9.6C102,75.3,98,71.2,98,65.7"/>
		<path d="M112.6,35.2c0.5,0.5,12.4,12.5,12.4,12.5v-19h-3v11.8c-0.5-0.5-12.4-12.5-12.4-12.5v19h3V35.2z"/>
	</g>
</g>
</svg>
