<?xml version="1.0" encoding="utf-8"?>
<!-- Generator: Adobe Illustrator 19.1.0, SVG Export Plug-In . SVG Version: 6.00 Build 0)  -->
<!DOCTYPE svg PUBLIC "-//W3C//DTD SVG 1.1//EN" "http://www.w3.org/Graphics/SVG/1.1/DTD/svg11.dtd">
<svg version="1.1" id="Layer_1" xmlns="http://www.w3.org/2000/svg" xmlns:xlink="http://www.w3.org/1999/xlink" x="0px" y="0px"
	 viewBox="0 0 271.1 35.7" enable-background="new 0 0 271.1 35.7" xml:space="preserve">
<path d="M20.3,3.7c0-2.9-2.7-3.8-5-3.6v0.5c1.4,0,2.4,0.5,2.4,1.4c0,0.6-0.5,1.4-1.8,1.4c-1.1,0-3.2-0.6-4.9-1.2
	C9.2,1.5,7.4,0.9,6,0.9C3.1,0.9,0.9,3,0.9,5.7c0,2.1,1.6,2.9,2.3,3.2l0.2-0.4C3,8.2,2.6,7.9,2.6,7.1c0-0.6,0.6-1.6,2-1.6
	C5.9,5.4,7.7,6,10,6.7c2,0.6,4.2,1.1,5.4,1.2v4.6l-2.2,1.9v0.2l2.2,2v6.3c-1.2,0.7-2.5,0.8-3.6,0.8c-2.1,0-4.2-0.6-5.8-2.4l6-2.9
	V8.3l-7.4,3.3c0.8-2,2.3-3.3,3.9-4.2L8.4,7C4,8.2,0,12.2,0,17.2c0,6,4.8,10.4,10.3,10.4c6,0,9.8-4.7,9.7-9.6l-0.4,0
	c-0.9,1.9-2.1,3.7-3.8,4.6v-6.1l2.4-1.9l0-0.2l-2.3-1.9V7.9C18.1,7.9,20.3,6.4,20.3,3.7L20.3,3.7z M7.5,20l-1.8,0.9
	c-1-1.3-1.7-3.1-1.7-5.6c0-1,0.1-2.3,0.4-3.2l3.1-1.4L7.5,20L7.5,20z M23.2,23.2l-2,1.5l0.2,0.3l0.9-0.7l3.3,3l4.4-2.9l-0.2-0.3
	l-1.2,0.7l-1.4-1.4V13.3l1.2-0.9l2.5,2v8.9c0,5.6-1.2,6.5-3.8,7.4v0.4c4.2,0.2,7.9-1.2,7.9-8.4v-9.6l1.3-1.1l-0.2-0.3l-1.2,0.9
	l-3.6-3.1l-4.2,3.2V0.6H27l-5.2,3.5v0.3c0.5,0.3,1.4,0.5,1.4,2.3V23.2L23.2,23.2z M50.1,21.7l-3.6,2.8l-3.8-2.9v-1.8l7-4.7v-0.2
	l-3.5-5.3l-7.6,4.1v9.7l-1.5,1.2l0.2,0.3l1.4-1.1l5,3.6l6.7-5.3L50.1,21.7L50.1,21.7z M42.7,19.2V12l0.2-0.2l3.2,5.1L42.7,19.2
	L42.7,19.2z M78.3,2.3c0-0.5-0.1-0.8-0.3-1.4h-0.4c-0.5,1.2-1,1.9-2.5,1.9c-1.3,0-2.2-0.8-2.8-1.3c0,0-4.2,4.9-4.2,4.9l0.4,0.3
	l1.2-1.4c0.9,0.7,1.6,1.4,3.6,1.4V19L64.8,4.1C64.1,3,63,1.3,60.9,1.3c-2.3,0-4.5,2-4.2,5.4h0.4c0.1-0.9,0.6-1.9,1.6-1.9
	c0.8,0,1.5,0.8,1.9,1.5V11c-2.7,0-4.4,1.2-4.4,3.4c0,1.1,0.6,3,2.4,3.4l0-0.3c-0.2-0.2-0.5-0.5-0.5-1c0-0.8,0.6-1.3,1.7-1.3
	c0.2,0,0.7,0,0.8,0.1v6.2c-3.1,0-5.5,1.8-5.5,4.7c0,2.8,2.4,4.1,4.9,4l0-0.3c-1.6-0.2-2.4-0.9-2.4-1.9c0-1.3,0.9-1.9,2.1-1.9
	c1.2,0,2.2,0.7,3,1.6l4.2-4.7l-0.4-0.3l-1.1,1.2c-1.6-1.4-2.5-2-4.4-2.2V6.7L73,27.4h0.8V6.7C76.1,6.6,78.3,4.9,78.3,2.3L78.3,2.3z
	 M88.9,21.7l-3.6,2.8l-3.8-2.9v-1.8l7-4.7v-0.2l-3.5-5.3l-7.6,4.1v9.7l-1.5,1.2l0.2,0.3l1.4-1.1l5,3.6l6.7-5.3L88.9,21.7L88.9,21.7z
	 M81.6,19.2V12l0.2-0.2l3.2,5.1L81.6,19.2L81.6,19.2z M113,11.2L112,12l-2.8-2.4l-3.3,2.9l1.3,1.3v11.1l-3.6-2.3v-9.1l1.2-0.8
	l-3.4-3.2l-3.2,2.9l1.3,1.3v10.6l-0.5,0.3l-3.1-2.2v-8.9c0-2-1-2.6-2.3-3.4c-1.1-0.7-1.6-1.2-1.6-2.2c0-0.8,0.8-1.3,1.3-1.6
	c0,0,0-0.4,0-0.4c-1.1,0-4.2,1.2-4.3,4c0,1.5,0.7,2.1,1.4,2.8c0.7,0.7,1.4,1.4,1.4,2.6v8.5l-1.6,1.2l0.2,0.3l1.4-1.1l3.9,3.1
	l3.7-2.5l4.1,2.5l7.8-4.6v-9.9l1.9-1.4L113,11.2L113,11.2z M140.4,3.1l-1.5,1.3l-3.3-2.9l-4.8,3.6V1.7h-0.5l0.1,23.9
	c-0.5-0.1-1.7-0.4-2.8-0.5l-0.1-20c0-1.5-1.1-3.5-3.7-3.5c-2.7,0-4.5,2.1-4.5,4.1h0.4c0.1-0.9,0.6-1.6,1.5-1.6
	c0.9,0,1.7,0.6,1.7,2.5v5.8c-2.7,0.1-4.2,1.6-4.2,3.5c0,1.2,0.5,2.9,2.4,3l0.1-0.4c-0.6-0.3-0.8-0.7-0.8-1c0-0.8,0.8-1.2,1.9-1.2
	h0.5v9.1c-2.1,0.7-3.1,2.3-3.1,4.1c0,2.5,2,4.3,4.8,4.3c2,0,3.8-0.4,5.6-0.8c1.5-0.3,3.3-0.7,4.2-0.7c1.1,0,1.6,0.5,1.6,1.3
	c0,1-0.5,1.4-1.1,1.6l0.1,0.4c2.4-0.5,3.8-1.9,3.8-4.1c0-2.2-2.1-3.6-4.5-3.6c-1.2,0-3.6,0.4-5.5,0.8c-2,0.5-4.1,0.7-4.7,0.7
	c-1,0-2.3-0.5-2.3-1.9c0-1.2,1-2.2,3.5-2.2c1.4,0,2.9,0.2,4.6,0.6c1.8,0.4,3.4,0.9,4.9,0.9c2.1,0,4.1-0.8,4.1-3.9V4.8l1.7-1.5
	L140.4,3.1L140.4,3.1z M134.3,12.1c-0.4,0.4-1,0.8-1.8,0.8c-0.8,0-1.4-0.5-1.8-0.8V5.6l1.5-1l2,1.9V12.1L134.3,12.1z M134.3,16.5
	c-0.4-0.3-1-0.7-1.8-0.7c-0.8,0-1.5,0.5-1.8,0.7v-3.9c0.3,0.3,1,0.8,1.8,0.8c0.8,0,1.4-0.4,1.8-0.8V16.5L134.3,16.5z M134.3,23.4
	c0,1.2-0.8,2.3-2.4,2.3c-0.2,0-0.9,0-1.2-0.1v-8.6c0.4-0.3,1-0.8,1.8-0.8c0.7,0,1.3,0.4,1.8,0.8V23.4L134.3,23.4z M154.5,13
	l-4.8-3.4l-7.2,4.1v9.6l-1.5,1.2l0.2,0.3l1.2-0.9l4.7,3.5l7.3-4.5V13L154.5,13z M146.7,22.2V11.7l3.7,2.7v10.5L146.7,22.2
	L146.7,22.2z M168.5,9.9c0,0-0.3,0-0.3,0c-0.4,0.3-0.9,0.6-1.3,0.6c-0.6,0-1.3-0.3-1.6-0.8H165l-2.5,2.7L160,9.7l-4.3,3l0.2,0.3
	l1.2-0.8l1.5,1.6v9.3l-2,1.5l0.2,0.3l0.9-0.7l3.5,3l4.6-3.1l-0.2-0.3l-1.3,0.8l-1.7-1.5V12.8c0.7,0.8,1.6,1.5,2.6,1.5
	C167.2,14.4,168.3,12.2,168.5,9.9L168.5,9.9z M186.3,24.1l-5,3.3l-6.8-10.3l4.8-7.5l0.3,0c0.6,0.6,1.5,1.2,2.5,1.2
	c1,0,1.7-0.6,2.1-1.2c0,0,0.3,0,0.3,0c-0.2,3-2.2,4.7-3.7,4.7c-1.5,0-2.3-0.7-3.1-1.2l-0.5,0.7l7.4,10.9l1.5-0.9L186.3,24.1
	L186.3,24.1z M170,23.2l-2,1.5l0.2,0.3l0.9-0.7l3.3,3l4.4-2.9l-0.2-0.3l-1.1,0.7l-1.4-1.4V0.6h-0.3l-5.3,3.5v0.3
	c0.5,0.3,1.5,0.5,1.5,2.2V23.2L170,23.2z M210.7,3.7c0-2.9-2.7-3.8-5-3.6v0.5c1.4,0,2.4,0.5,2.4,1.4c0,0.6-0.5,1.4-1.8,1.4
	c-1.1,0-3.2-0.6-4.9-1.2c-1.9-0.6-3.6-1.2-5.1-1.2c-2.9,0-5.1,2.1-5.1,4.8c0,2.1,1.6,2.9,2.3,3.2l0.2-0.4c-0.4-0.3-0.8-0.6-0.8-1.4
	c0-0.6,0.6-1.6,2-1.6c1.3,0,3.1,0.6,5.4,1.3c2,0.6,4.2,1.1,5.4,1.2v4.6l-2.2,1.9v0.2l2.2,2v6.3c-1.2,0.7-2.5,0.8-3.6,0.8
	c-2.1,0-4.2-0.6-5.8-2.4l6-2.9V8.3l-7.4,3.3c0.8-2,2.3-3.3,3.9-4.2L198.7,7c-4.4,1.2-8.4,5.2-8.4,10.2c0,6,4.8,10.4,10.3,10.4
	c6,0,9.8-4.7,9.7-9.6l-0.4,0c-0.9,1.9-2.1,3.7-3.8,4.6v-6.1l2.4-1.9l0-0.2l-2.3-1.9V7.9C208.4,7.9,210.7,6.4,210.7,3.7L210.7,3.7z
	 M197.9,20l-1.8,0.9c-1-1.3-1.7-3.1-1.7-5.6c0-1,0.1-2.3,0.4-3.2l3.1-1.4L197.9,20L197.9,20z M215.8,2.3l-0.2,0l-2.9,2.5V5l2.5,2.8
	h0.2l2.9-2.5l0-0.2L215.8,2.3L215.8,2.3z M220.2,24.1l-1.1,0.7l-1.4-1.4V13.2l1.4-1.1l-0.3-0.3l-1.1,0.8l-2.6-3.1l-4.2,2.9l0.2,0.4
	l1.1-0.7l1.3,1.6v9.5l-1.9,1.4l0.2,0.3l1-0.7l3.2,2.9l4.4-2.9L220.2,24.1L220.2,24.1z M244.8,23.9l-1.1,0.7l-1.6-1.4v-10l1.5-1.1
	l-0.2-0.3l-1.3,1l-3.4-3.1l-4.3,3.1l-3.3-3.1l-4.3,3.1l-2.6-3.1l-4.2,2.9l0.2,0.4l1.1-0.7l1.4,1.6v9.5l-1.2,1.2l3.4,2.8l3.3-2.9
	l-1.3-1.3v-10l1.3-0.8l2.3,2.1v8.9l-1.1,1.2l3.4,2.8l3.2-2.9l-1.3-1.3v-10l1.1-0.7l2.4,2.1v8.8l-1,1l3.4,3.1l4.5-3.1L244.8,23.9
	L244.8,23.9z M257.6,21.7l-3.6,2.8l-3.8-2.9v-1.8l7-4.7v-0.2l-3.5-5.3l-7.6,4.1v10l5.1,3.7l6.7-5.3L257.6,21.7L257.6,21.7z
	 M250.2,19.2V12l0.2-0.2l3.2,5.1L250.2,19.2L250.2,19.2z M271.1,17.9l-2.8-2.1c1.9-1.6,2.6-3.9,2.6-5.4c0-0.2,0-0.6-0.1-0.9h-0.4
	c-0.3,0.8-0.8,1.4-2,1.4c-1.1,0-1.9-0.6-2.6-1.4l-6.6,3.6v5.4l2.5,1.9c-2.5,2.2-2.9,3.8-2.9,4.9c0,1.5,0.7,2.5,1.9,3l0.2-0.3
	c-0.3-0.3-0.6-0.5-0.6-1.1c0-0.5,0.6-1.2,1.7-1.2c1.4,0,2.3,1,2.8,1.5c0,0,6.4-3.8,6.4-3.8V17.9L271.1,17.9z M269.5,13.4
	c-1,1.8-3.3,3.5-4.5,4.5l-1.6-1.3v-5.2c0.6,1.4,2.2,2.6,3.9,2.6C268.2,14,268.7,13.8,269.5,13.4L269.5,13.4z M266.9,25.2
	c-0.7-1.6-2.5-2.8-4.2-2.8c-0.4,0-1.6,0-2.8,0.7c0.7-1.1,2.6-3.2,5.2-4.7l1.8,1.4V25.2L266.9,25.2z"/>
</svg>
