<?xml version="1.0" encoding="utf-8"?>
<!-- Generator: Adobe Illustrator 19.1.0, SVG Export Plug-In . SVG Version: 6.00 Build 0)  -->
<!DOCTYPE svg PUBLIC "-//W3C//DTD SVG 1.1//EN" "http://www.w3.org/Graphics/SVG/1.1/DTD/svg11.dtd">
<svg version="1.1" id="Layer_1" xmlns="http://www.w3.org/2000/svg" xmlns:xlink="http://www.w3.org/1999/xlink" x="0px" y="0px"
	 viewBox="0 0 189.4 71.9" enable-background="new 0 0 189.4 71.9" xml:space="preserve">
<g>
	<path fill-rule="evenodd" clip-rule="evenodd" d="M88.4,17.8c0.5,0.1,2.2,0,2.8-0.4c0.5-0.4,0.3-2.3,0.3-2.3l-2.9-1.4
		c0,0-1,1-1.1,1.8C87.4,16.5,87.9,17.8,88.4,17.8"/>
	<path fill-rule="evenodd" clip-rule="evenodd" d="M42.4,54.9c3.5-1.3,12.1-3.4,16.3-4.2c17.2-3.6,47.5-1.1,72.2-0.1
		c10.2,0.4,20.2,0.4,31.4-0.5c8.5-0.6,19.1-3.1,19.1-3.1l-1.1-0.8c0,0-11.2,2.7-21.9,3c-10.7,0.3-11,0.7-31.9-0.5
		c-24.2-1.3-53.5-4.6-72.4-0.6c-3.9,0.8-6.3,1.4-9,2.3L42.4,54.9z"/>
	<path fill-rule="evenodd" clip-rule="evenodd" d="M50.9,38.3c1.9-1.5,3.8-3.1,5.2-4.7c-0.5,2.8-0.5,5.2,0.3,5.9
		c1.6,1.6,4.3,2.5,5.4,1.8c1.4-0.8,5.4-4.5,5.6-4.5c0.3,0,0.2,1.1,0.9,2.5c0.9,1.8,2.7,2.3,3.7,1.6c1-0.7,8.1-9.3,8.5-9.3
		c0.2,0-0.3,1.2-0.4,1.5c-0.3,0.7-1.4,4.4-0.8,5.9c0.6,1.6,3.3,2.7,4.4,1.8c1.1-0.9,8.4-7.9,8.6-7.9c0.2,0-0.5,3.6,0,4.8
		c0.5,1.3,3.3,4.1,5.8,2.8c2.5-1.3,8.7-7.8,8.9-7.7c0.3,0.1-0.5,4.2,0.4,5.6c1.1,1.6,2.5,2.3,4.3,2.1c1.8-0.2,6-3.7,6.4-3.3
		c1.3,1.7,2.7,3.3,4.2,2.9c1.5-0.3,3.8-2.9,4.9-4.4c1.1-1.5,1.8-1.8,2.2-1.7c0.4,0.1,0.9,2.1,1.5,3.2c0.6,1.1,1.6,2.4,3.7,2.2
		c0.9-0.1,8.9-12.9,9.4-12.6c0.6,0.4,2.3,1.3,1.9,2.4c-0.3,1.1-3.1,6.9-2.5,7.9c0.6,1,2.8,2.6,4.2,2.6c1.4-0.1,3.6-2.9,4.5-2.6
		c0.9,0.3,3,3.7,4.9,2.6c3.4-2,5.6-5.7,5.9-5.7c0.6,0,0.1,2.3,2,3.6c7.5,5.2,24.3-6,24.3-6l-1-0.6c0,0-5,3.2-10.4,5.2
		c-3.7,1.3-7.5,2.3-10.4,0.3c-1.9-1.3-0.7-5.2-0.7-5.2s5.1-12.5,6.6-16.3c0.9-2.3,2.7-6.4,3.2-9c0,0-2.7-2.6-3.7-1.8
		c-0.9,0.7-3.3,6.7-4.3,9.3c-1.1,2.8-3.1,8.5-3.1,8.5c0-0.1-0.8-0.7-0.8-0.7s-6.2,2.1-9.4,6.7c-2.9,4.1-3,6-3.3,6.5
		c-0.3,0.5-3.9,3.4-5.4,1.8c-0.7-0.8,2.4-4,3.1-4.9c0.7-0.9,2.7-2.8,0.7-5c-1.7-1.8-3-1.4-3.7-2.3c-0.7-0.9-0.5-1.3-0.8-1.7
		c-0.4-0.5-2.5-0.9-2.5-0.9s-0.5,1-0.8,1.5c-0.3,0.5-7.8,12.9-8.4,12.1c-0.6-0.8-1-3.6-0.2-6.4c0.7-2.3,1.8-4.7,1.8-4.7l-2.4-2
		l-1,0.7c0,0-0.2-0.3-1.1-0.9c-0.9-0.6-5.4,1.1-9.3,5.5c-3.9,4.4-3.7,6-4.2,6.5c-0.6,0.7-4.6,3.8-5.1,3.2c-0.5-0.7-0.7-2.8,0.2-5.6
		c0.9-2.8,9.5-18.2,9.5-18.2s9.7-1,14-1.4c4.5-0.4,8.6-0.8,8.6-0.8c-1.4,1.4-3.7,2.8-3.7,2.8c5.1-1.1,8.1-4.8,5.2-4.9
		c-3.6,0.2-6.7,0.6-10,0.9c-3.2,0.3-13.1,1.3-13.1,1.3l3.3-6.4l-4.5-1.4c-2.6,4.2-4.6,8-5,8.3c-0.4,0.3-8.7,0.8-8.7,0.8
		s3.4-6.5,4.2-8l-4.3-1.3l-6,9.6c-0.4,0.5-1.8,0.6-3.1,0.8c-1.2,0.1-3.5,0.4-3.5,0.4L94,16.5l6.6-0.6c0,0-5.8,10.4-6.7,11.9
		C93,29.4,84.1,38.7,83.6,38c-0.5-0.7,1.1-5.5,2.1-7.9c1-2.6,2.8-6.1,3.3-7.2L85,21.2c-0.4,0.7-1,2.1-2,3.5
		c-1,1.4-10.6,13.4-11.3,13c-0.7-0.3,1.2-5.4,1.8-7c0.9-2.3,3-6.8,3.4-7.6l-4-1.9c-0.7,1.4-1.8,4.1-3.2,6.6c-2.9,5-4.2,6.6-5.5,8
		c-1.1,1.2-2.5,2.3-3.7,1.7c-1-0.6,0.1-4.6,1.7-7.8c1.3-2.8,3.3-6.7,3.3-6.7l-4.3-2c0,0-3,5.6-4.2,8.6c-0.8,1.1-2.6,3-6.6,6.2
		c-3.2,2.6-5.6,4.5-5.5,3.8c0.1-0.7,2.8-5.8,4.7-8.7c1.8-3,4.1-6.5,4.1-6.5l3-2.2l-1.4-0.9L42.4,27c0,0,1.6,1.6,1.5,2.1
		c-0.1,0.5-2.3,5.1-6.3,7.6c-3.9,2.4-8.2,4.5-12.3,3c-2.1-0.8-4-3.4-4.2-7.3c3.6-1.5,7.8-3.5,12.5-6.2c7.9-4.5,11.9-7.3,16.9-12.3h0
		c0.1-0.1,2.7-2.6,4-5.6c1.5-3.4,0.9-5.7-1.3-7.2C48.2-2,36.3,2.2,30.5,6.4c-6.8,5-10.2,9.6-10.2,9.6C15.9,18.1-4,26.1,0.7,33.6
		c1.2,1.9,4.9,3.3,12.4,1.4c1.1,9.9,11,13,18.1,10.4c7-2.6,9-6.4,9-6.4s-3.1,6.3-3.7,7.1c-0.6,0.8-9.9,5.4-16.5,11.7
		c-4,3.8-4.2,5.7-3.1,10.4c0.9,4,4.5,4.2,6.8,3.2c2.8-1.2,5.9-3.8,8.6-7.9C35.1,59.3,42.2,45.9,43,45C43.8,44.1,47.3,41.1,50.9,38.3
		 M158.7,30.4c1.7-2.4,5.1-5.9,5.8-5.5c0.5,0.3-2.1,5.3-2.7,6.2c-1.6,2.7-4,6.2-5.3,5.2C155.5,35.6,157.8,31.7,158.7,30.4 M125,29.9
		c1.7-2.5,4.7-5.1,5-4.7c0.4,0.4-1.2,4.6-3.3,7.7c-2.1,3.1-3.8,4.1-4.7,3.1C121.4,35.3,123.4,32.3,125,29.9 M98.6,31.2
		c0.4-1.5,8.4-15.9,8.4-15.9l8.6-0.7c0,0-6.7,12.9-7.5,14.1c-0.8,1.2-9.9,9.8-10.4,9.1C97.2,36.9,97.9,34,98.6,31.2 M37.6,6.3
		c5.7-3.5,12.3-5.8,14.8-3.7c1.5,1.2,1.8,3.6-1.1,7.9c-0.6,0.9-1.9,2.2-1.9,2.2h0c-3.3,3.4-6.3,5.9-11.2,8.9
		c-6.8,4.3-12.5,7.3-17.2,9.3c0.1-1.6,0.4-3.3,1.1-5.2c2.1-5.9,5-9.9,5.8-11c3.4-1.1,10.2-2.3,10.2-2.3L36.4,12c0,0-4.3,0.6-7.4,1.3
		l0.1-0.1C29.1,13.2,31.7,9.9,37.6,6.3 M2.6,32.9c-4.7-6.5,16.3-15.1,16.3-15.1s-3.9,4.4-5.3,10.6c-0.4,1.9-0.6,3.7-0.5,5.4
		C6.9,35.3,3.7,34.5,2.6,32.9 M28.3,61.5c-2.8,4.2-7.8,6-8.9,4.4c-0.7-1,1.2-4.4,4.1-7.3c3.6-3.6,11-9.5,11.4-8.8
		C35.3,50.4,31.1,57.3,28.3,61.5"/>
	<path d="M42.7,69.7c-2.1,0-3.4-1.4-3.4-3.2c0-1.9,1.4-3.3,3.4-3.3c0.7,0,1.4,0.2,2,0.5l-0.4,1.2c-0.5-0.3-1-0.4-1.5-0.4
		c-1.2,0-1.9,0.7-1.9,1.9c0,1.2,0.7,1.9,1.9,1.9c0.5,0,1.1-0.2,1.6-0.5l0.4,1.2C44.2,69.4,43.4,69.7,42.7,69.7"/>
	<polygon points="50.8,69.5 50.8,67 48.3,67 48.3,69.5 46.9,69.5 46.9,63.3 48.3,63.3 48.3,65.7 50.8,65.7 50.8,63.3 52.2,63.3 
		52.2,69.5 	"/>
	<path d="M57.8,69.7c-1.9,0-3.2-1.4-3.2-3.2c0-1.9,1.3-3.3,3.3-3.3c1.9,0,3.2,1.4,3.2,3.3C61,68.3,59.7,69.7,57.8,69.7 M57.8,64.5
		c-1,0-1.7,0.8-1.7,1.9c0,1.1,0.7,1.9,1.7,1.9c1,0,1.7-0.8,1.7-1.9C59.5,65.3,58.8,64.5,57.8,64.5"/>
	<path d="M66.6,69.7c-2.1,0-3.4-1.4-3.4-3.2c0-1.9,1.4-3.3,3.4-3.3c0.7,0,1.4,0.2,2,0.5l-0.4,1.2c-0.5-0.3-1-0.4-1.5-0.4
		c-1.2,0-1.9,0.7-1.9,1.9c0,1.2,0.7,1.9,1.9,1.9c0.5,0,1.1-0.2,1.6-0.5l0.4,1.2C68.1,69.4,67.3,69.7,66.6,69.7"/>
	<path d="M73.5,69.7c-1.9,0-3.2-1.4-3.2-3.2c0-1.9,1.3-3.3,3.3-3.3c1.9,0,3.2,1.4,3.2,3.3C76.8,68.3,75.5,69.7,73.5,69.7 M73.6,64.5
		c-1,0-1.7,0.8-1.7,1.9c0,1.1,0.7,1.9,1.7,1.9c1,0,1.7-0.8,1.7-1.9C75.2,65.3,74.6,64.5,73.6,64.5"/>
	<polygon points="79.1,69.5 79.1,63.3 80.6,63.3 80.6,68.2 83.1,68.2 83.1,69.5 	"/>
	<path d="M89,69.5l-0.5-1.1h-2.2l-0.5,1.1h-1.5l3-6.3h0.2l3,6.3H89z M87.4,65.8l-0.6,1.5h1.2L87.4,65.8z"/>
	<polygon points="94.7,64.6 94.7,69.5 93.2,69.5 93.2,64.6 91.3,64.6 91.3,63.3 96.6,63.3 96.6,64.6 	"/>
	<polygon points="98.7,69.5 98.7,63.3 102.7,63.3 102.7,64.6 100.1,64.6 100.1,65.7 102.4,65.7 102.4,67 100.1,67 100.1,68.2 
		102.7,68.2 102.7,69.5 	"/>
	<path d="M111.3,69.7c-2.1,0-3.4-1.4-3.4-3.2c0-1.9,1.4-3.3,3.4-3.3c0.7,0,1.4,0.2,2,0.5l-0.4,1.2c-0.5-0.3-1-0.4-1.5-0.4
		c-1.2,0-1.9,0.7-1.9,1.9c0,1.2,0.7,1.9,1.9,1.9c0.5,0,1.1-0.2,1.6-0.5l0.4,1.2C112.8,69.4,112.1,69.7,111.3,69.7"/>
	<path d="M118.2,69.7c-1.9,0-3.2-1.4-3.2-3.2c0-1.9,1.3-3.3,3.3-3.3c1.9,0,3.2,1.4,3.2,3.3C121.5,68.3,120.2,69.7,118.2,69.7
		 M118.3,64.5c-1,0-1.7,0.8-1.7,1.9c0,1.1,0.7,1.9,1.7,1.9c1,0,1.7-0.8,1.7-1.9C119.9,65.3,119.3,64.5,118.3,64.5"/>
	<polygon points="129,69.5 128.9,66.5 127.2,68.7 127,68.7 125.2,66.5 125.2,69.5 123.8,69.5 124.1,63.2 124.3,63.2 127.1,66.8 
		129.9,63.2 130.1,63.2 130.4,69.5 	"/>
	<path d="M134.9,67.7c-0.2,0-0.3,0-0.5,0v1.9h-1.5v-6.2c0.6-0.1,1.2-0.1,1.8-0.1c1.8,0,2.8,1,2.8,2.2
		C137.4,66.8,136.5,67.7,134.9,67.7 M134.9,64.6c-0.2,0-0.3,0-0.5,0v1.8c0.2,0,0.3,0,0.4,0c0.8,0,1.2-0.3,1.2-0.9
		C135.9,65,135.6,64.6,134.9,64.6"/>
	<path d="M143,69.5l-0.5-1.1h-2.2l-0.5,1.1h-1.5l3-6.3h0.2l3,6.3H143z M141.4,65.8l-0.6,1.5h1.2L141.4,65.8z"/>
	<polygon points="151.6,69.7 147.8,66.3 147.8,69.5 146.3,69.5 146.3,63.2 146.5,63.1 150.2,66.5 150.2,63.3 151.7,63.3 151.7,69.6 
			"/>
	<polygon points="157.4,67.1 157.4,69.5 155.9,69.5 155.9,67.1 153.7,63.3 155.4,63.3 156.6,65.7 157.9,63.3 159.6,63.3 	"/>
</g>
</svg>
