<svg id="Layer_1" data-name="Layer 1" xmlns="http://www.w3.org/2000/svg" viewBox="0 0 1136.17 238.15"><title>WSlogo</title><path d="M124.72,36C69.45,36,30.66,54.67,30.66,54.67V164.72a91,91,0,0,0,7.72,37c2.14-1.26,36.33-20.91,84.29-20.91,51.75,0,81.33,20.11,86.85,24.24l-0.18.38c-7-2.14-45.48-12.74-96.28-3.34-37.91,7-57.72,22.27-59.63,23.79,27.78,33.73,71.12,48.23,71.3,48.29s94.06-31.46,94.06-109.43V54.67S180,36,124.72,36Zm74,119.38c-44.84-6.91-76.32,23.15-114.36,3.73,11.76,1.57,26-5.8,41.14-12.6a256,256,0,0,0-33.06-7.27c-24.67-4-57.32-5.22-57.32-5.22S68.7,119.53,115,121.2a123.89,123.89,0,0,1,26.41,3.9,91.94,91.94,0,0,0,8.87-19.32c10.66-34.3-4.38-56.3-4.38-56.3S192.49,52,199.11,85c4.64,23.17-27.57,52.06-27.57,52.06h0C180.85,139.11,190,144.54,198.77,155.38Z" transform="translate(-30.66 -36)"/><path d="M391.71,85.2l-0.13.62c-5.76,27.72-13.37,57.31-24,93.13-0.64,2.19-1.34,5-2,7.69-0.33,1.34-.68,2.71-1,4l-3.33-15.39-22.33-90H326.44l4.92,14.64h0l-17.84,75.42-3.31,15.32-0.09-.35c-0.91-3.5-2-7.85-2.95-11-9.9-32.6-18.13-64-24.46-93.45l-0.13-.61h-12.7l0.22,1a1214.91,1214.91,0,0,0,33.71,118.41L304,205.1H317.1l19.55-81.93,20,81.93h13.28l0.18-.53c13.05-38.4,24.08-77.65,33.73-118.42l0.23-1H391.71Z" transform="translate(-30.66 -36)"/><path d="M443.1,206.39c-23,0-37.3-17.06-37.3-44.52,0-13.71,3.54-25.28,10.22-33.45,6.84-8.35,16.67-12.77,28.44-12.77,22.9,0,37.13,17.13,37.13,44.69,0,13.65-3.51,25.17-10.14,33.3C464.66,202,454.85,206.39,443.1,206.39Zm0.34-80.88c-15.87,0-25.34,12.89-25.34,34.49,0,23.21,9.42,36.53,25.85,36.53,16,0,25.51-12.9,25.51-34.49C469.46,138.82,460,125.51,443.44,125.51Z" transform="translate(-30.66 -36)"/><path d="M510.17,205.1H498.89V117.34h9.35L509.33,133c7.86-11.48,13.5-17.3,21.23-17.3a34.19,34.19,0,0,1,10.64,1.73l0.7,0.21L539.48,128l-0.82-.29a27.26,27.26,0,0,0-7.93-1.48c-5.33,0-9.89,5.54-20.56,20.16V205.1Z" transform="translate(-30.66 -36)"/><path d="M574.12,205.55c-10.78,0-16.48-5.84-16.48-16.88V76.35h11.28v110.1c0,6.47,1.81,9.23,6.05,9.23h7.43v9.05l-0.64.12A48,48,0,0,1,574.12,205.55Z" transform="translate(-30.66 -36)"/><path d="M625.15,206.39C606,206.39,595,190.84,595,163.73c0-22.84,10.29-47.24,39.18-47.24a88.37,88.37,0,0,1,18.17,1.85v-42h11.28V205.1H654.3l-0.93-13.43C644.47,202.24,636.42,206.39,625.15,206.39Zm8-80.71c-11.87,0-26,6.57-26,37.89,0,28.83,12.24,33.14,19.53,33.14,8.95,0,15.69-4.53,25.68-17.3V129.31A49.67,49.67,0,0,0,633.18,125.68Z" transform="translate(-30.66 -36)"/><path d="M708.61,206.39A77.3,77.3,0,0,1,686.54,203l-0.67-.21,2.18-11,0.83,0.28A68.43,68.43,0,0,0,711,195.68c14,0,22.78-8.34,22.78-21.78s-9-18.73-22.65-27C695.85,138,687,129.71,687,113.71c0-18.21,13.69-30.45,34.06-30.45a65.07,65.07,0,0,1,17.82,2.58l0.66,0.22-2.2,10.32-0.81-.24a61,61,0,0,0-16.68-2.51c-9.48,0-20.56,5-20.56,19.23,0,12.61,8.35,18.27,22,26.47,15.8,9.32,25,17.83,25,33.73C746.26,193.62,731.83,206.39,708.61,206.39Z" transform="translate(-30.66 -36)"/><path d="M790.44,205.71c-14.11,0-20.4-6.78-20.4-22v-57h-13v-9.35h12.87l2.22-25.1h9.17v25.1H801.8v9.35H781.31v56c0,12.52,4.53,13.13,12.54,13.13h7.94v8.52l-0.61.13A51.45,51.45,0,0,1,790.44,205.71Z" transform="translate(-30.66 -36)"/><path d="M832.74,205.09H821.46l0-87.75h9.35L831.92,133c7.86-11.48,13.5-17.3,21.23-17.3a34.19,34.19,0,0,1,10.64,1.73l0.7,0.21L862.07,128l-0.82-.29a27.25,27.25,0,0,0-7.93-1.48c-5.33,0-9.89,5.54-20.56,20.16Z" transform="translate(-30.66 -36)"/><path d="M900.52,205.09H889.24V126.7H875.41v-9.35h25.11v87.75ZM893.94,98.72a8.66,8.66,0,0,1,0-17.32A8.33,8.33,0,0,1,902.39,90,8.42,8.42,0,0,1,893.94,98.72Z" transform="translate(-30.66 -36)"/><path d="M950.22,206.39c-19.15,0-30.13-15.55-30.13-42.66,0-22.84,10.29-47.24,39.18-47.24a88.38,88.38,0,0,1,18.17,1.85v-42h11.28V205.1h-9.35l-0.93-13.43C969.53,202.23,961.49,206.39,950.22,206.39Zm8-80.71c-11.87,0-26,6.57-26,37.89,0,28.83,12.24,33.14,19.53,33.14,8.95,0,15.69-4.53,25.68-17.3V129.31A49.68,49.68,0,0,0,958.24,125.68Z" transform="translate(-30.66 -36)"/><path d="M1043.37,206.39c-12.27,0-21.56-3.89-27.6-11.57-5.87-7.47-8.85-18.78-8.85-33.63,0-28.52,13.56-45.54,36.28-45.54,19.51,0,31.16,14.24,31.16,38.08,0,0.7,0,1.82-.07,3,0,1.43-.1,3.05-0.1,4.25v0.78h-55.13c0.16,24.34,8,34.74,26.19,34.74,10.06,0,16.9-1.9,24.17-4.2l0.82-.26,2,9.66-0.66.22A90.91,90.91,0,0,1,1043.37,206.39Zm-24.28-54.12h43.33c0.24-9.35-2-16.78-6.6-21.53a17.93,17.93,0,0,0-13.47-5.41C1027.15,125.34,1019.7,139.15,1019.08,152.28Z" transform="translate(-30.66 -36)"/><path d="M1112,206.39a64,64,0,0,1-20.57-3.44l-0.63-.22,2-10.55,0.86,0.32a58.62,58.62,0,0,0,19.7,3.85c10.46,0,16.46-5,16.46-13.81,0-7.76-5.11-11.65-17.33-18-12.23-6-20.39-12.51-20.39-24.77,0-14.69,10.82-24.18,27.57-24.18a51.35,51.35,0,0,1,16.65,2.93l0.62,0.22-1.82,9.84-0.85-.29a50.18,50.18,0,0,0-15.45-2.84c-10.19,0-14.76,6.59-14.76,13.13,0,7.28,3.47,11,16.13,17.28,14,7,21.59,13.1,21.59,25.62C1141.79,196.64,1130.1,206.39,1112,206.39Z" transform="translate(-30.66 -36)"/><path d="M1147.48,100.53v12h-2v-12h-3.6V98.68h9.24v1.85h-3.6Zm17.16,12c0-4,0-8.15-.14-11.47L1161,112.52h-2.42L1155.11,101c-0.09,3.36-.24,7.49-0.24,11.52h-2c0-4.6.19-9.1,0.52-13.84h3.27l3.32,11.42,3.27-11.42h3.27c0.24,4.69.38,9.24,0.33,13.84h-2.18Z" transform="translate(-30.66 -36)"/></svg>