<?xml version="1.0" encoding="utf-8"?>
<!-- Generator: Adobe Illustrator 19.1.0, SVG Export Plug-In . SVG Version: 6.00 Build 0)  -->
<!DOCTYPE svg PUBLIC "-//W3C//DTD SVG 1.1//EN" "http://www.w3.org/Graphics/SVG/1.1/DTD/svg11.dtd">
<svg version="1.1" id="Layer_1" xmlns="http://www.w3.org/2000/svg" xmlns:xlink="http://www.w3.org/1999/xlink" x="0px" y="0px"
	 viewBox="0 0 176.2 69.1" enable-background="new 0 0 176.2 69.1" xml:space="preserve">
<path d="M130.4,30.1c4.2,0,6.9-1.8,7.9-3c0.2-0.2,0.4-0.2,0.5,0.2c0.6,2.2,2.5,2.7,3.7,2.7c0.9,0,1.6-0.2,1.6-0.6
	c0-0.1-0.1-0.2-0.2-0.2c-0.2-0.1-0.3-0.1-0.4-0.2c-0.5-0.4-0.6-1.6-0.6-2.8c0-0.7,0-1.5,0-2.3v-2.9c0-1.6,0.2-2.9,2-2.9
	c0.3,0,0.4,0,0.4-0.4c0-0.4-0.3-0.4-0.7-0.4c-0.3,0-2.6,0.1-4.2,0.1c-1.7,0-3.9-0.1-4.2-0.1c-0.4,0-0.9,0-0.9,0.3
	c0,0.3,0.1,0.4,0.3,0.4c1.8,0,2.6,1.1,2.6,2.4v2.2c0,3.3-2.2,6-6.9,6c-5.7,0-11.7-3.9-11.7-13.1c0-10.5,4.4-14.2,10.9-14.2
	c3.4,0,6.6,1.6,8,3.3c1.2,1.5,2,2.8,2.5,3.7c0.2,0.4,0.8,0.1,0.8-0.2c0-0.7-0.6-2.7-0.6-4.4c0-0.6,0.2-2.2,0.2-2.8
	c0-0.4-0.2-0.5-0.3-0.5c-0.4,0-1.2,1.1-2.2,1.1c-0.2,0-1.1-0.1-1.3-0.1C134.6,0.3,132,0,130.4,0c-7.7,0-15.5,5.8-15.5,15.6
	C114.8,21.4,118.6,30.1,130.4,30.1z M2.4,1.1c2.3,0.1,2.8,2.3,2.8,4.7c0,2,0,4.4,0,7.4v7c0,1.8-0.1,2.1-0.1,4.2
	c0,3.1-0.2,4.6-2.1,4.6c-0.7,0-0.9,0.1-0.9,0.5c0,0.1,0.3,0.3,0.3,0.3c0.3,0,3.3-0.1,4.9-0.1c1.3,0,4.2,0.1,4.5,0.1
	c0.5,0,0.8-0.1,0.8-0.3c0-0.3-0.2-0.5-0.6-0.5c-1.8,0-2.6-1.2-2.6-3c0-2.2-0.1-4-0.1-5.9v-5h1.5c3.4,0,4.4,0.4,5.2,3.3
	c0.1,0.3,0.1,0.5,0.6,0.5c0.3,0,0.3-0.1,0.3-0.4c0-1.1-0.1-3-0.1-5.6l0.2-2.5c0-0.3-0.1-0.3-0.4-0.3c-0.3,0-0.3,0.2-0.4,0.6
	c-0.3,1.6-1.4,3-3.1,3H9.3V4.5c0-2.5,0.1-2.9,1.4-2.9c1.7,0,4.9,0,6,0c2.6,0,2,0.1,4.1,3c1.2,1.6,2.8,2.5,3.2,2.5
	c0.2,0,0.4-0.1,0.4-0.4c0-0.4-0.9-1.9-1.1-2.7c-0.5-1.8-0.6-2.5-0.6-3.4c0-0.4-0.8-0.4-1.7-0.4c-3.2,0-8.3,0.1-13.3,0.1
	c-2.7,0-4.9-0.2-5.2-0.2c-0.3,0-0.4,0-0.4,0.2C1.9,0.8,1.9,1,2.4,1.1z M79.8,29.9c0.3,0,1.6-0.1,5.5-0.1l15.3,0.1
	c0.2,0,0.4-0.1,0.4-0.3c0.2-0.9,0.2-1.7,0.6-3.1c0.4-1.5,0.9-2.4,0.9-3.1c0-0.1,0-0.3-0.3-0.3c-0.4,0-1.4,1.1-2.1,2.3
	c-1.7,2.7-2.1,3-3.7,3h-7.5c-1.6,0-1.6-0.4-1.6-2.1V14.7h3.9c3.1,0,3.6,1.3,4.2,3.9c0.1,0.3,0,0.6,0.5,0.6c0.3,0,0.3-0.3,0.3-0.6
	c0-1.1-0.1-3.4-0.1-4.8c0-1.4,0.3-3.7,0.3-3.7c0-0.3-0.1-0.4-0.4-0.4c-0.3,0-0.3,0.4-0.4,0.8c-0.4,2.2-1.2,2.6-3,2.6h-5.2V4.9
	c0-2.4,0.3-3.1,1.3-3c1.6,0,6.9,0,8,0c0.8,0,1.2,1.5,2.2,3.1c0.7,1.2,1.6,1.9,2.3,1.9c0.4,0,0.5-0.3,0.4-0.5c-0.4-0.8-0.6-1-1-3
	c-0.2-0.8-0.2-2.1-0.2-2.8c0-0.4-0.6-0.3-1.6-0.3c-3.1,0-8.2,0.2-13.2,0.2c-2.7,0-4.7-0.2-5.1-0.2c-0.3,0-0.5,0.1-0.5,0.3
	c0,0.3,0.3,0.4,0.6,0.5c2,0.4,2.6,1,2.8,3.2c0.2,2.2,0.1,4.6,0.1,5.8c0,1.2,0,10.1,0,10.1c0,1.8,0,3.3-0.1,5.5
	c-0.1,2.9-0.6,3.5-2.6,3.5c-0.6,0-1,0.2-1,0.4C79.5,29.8,79.6,29.9,79.8,29.9z M39.6,30.1c9.7,0,14.7-8.5,14.7-15.7
	C54.3,6.1,47.2,0,39.4,0c-7.8,0-15.8,5.2-15.8,15.2C23.5,22.6,29.6,30.1,39.6,30.1z M38.2,1.6c7,0,11.7,6.9,11.7,16.1
	c0,3.7-1.5,10.7-9,10.7c-7.6,0-12.5-7.6-12.5-16.6C28.3,4.4,33.9,1.6,38.2,1.6z M54.1,1c1.4,0.2,2.7,0.5,2.9,4c0.2,2,0,2.9,0,4.7
	l0,10.5c0,1.8,0,2-0.1,4.2c-0.1,2.9,0.1,4.5-2,4.7c-0.7,0.1-1.1,0-1.1,0.5c0,0.3,0.2,0.4,0.5,0.4c0.3,0,3-0.1,4.8-0.1
	c1.6,0,4.4,0.1,4.7,0.1c0.3,0,0.6,0,0.6-0.4c0-0.4-0.4-0.4-0.9-0.5c-1.6,0-2.3-1.4-2.3-2.8c-0.1-2.1-0.1-4.2-0.1-6.1v-4.7
	c1.1,0,3.2-0.1,3.9,0c0.5,0,0.8,0.1,0.9,0.8c2,9.2,7,14.4,14.1,17.3c0.5,0.2,0.6,0,0.6-0.1c0-0.2-0.1-0.4-1-1.2
	c-5.7-5-8.2-11.1-9.5-16.8c0-0.2,0.3-0.3,0.5-0.3c2.7-0.8,5.9-3.4,5.9-7.1c0-6.2-6.3-7.7-10.5-7.7c-2.5,0-5.9,0.2-7,0.2
	c-2.7,0-4.8-0.2-5.1-0.2c-0.3,0-0.4,0.1-0.4,0.4C53.6,0.9,53.7,1,54.1,1z M61.2,5.1c0-2.8,0.7-3.6,3.3-3.6c4.4,0,7.9,1.6,7.9,5.9
	c0,2.9-1.5,6.4-6.7,6.4h-4.5V5.1z M50.3,36.2c0-0.4-0.7-0.4-1.7-0.4c-3.2,0-8.3,0.1-13.3,0.1c-2.7,0-4.9-0.2-5.2-0.2
	c-0.3,0-0.4,0-0.4,0.2c0,0.4,0,0.6,0.5,0.6c2.3,0.2,2.8,2.3,2.8,4.7c0,2,0,4.4,0,7.4v7c0,0.1,0,0.2,0,0.3c0,1.6-0.1,2.8-0.1,4.8
	c-0.1,2.1-0.5,3.9-3.1,3.9c-2.2,0-3.2-1.4-3.9-3.4c-2.7-7.1-8.3-23.3-9.1-25.6c-0.2-0.5-0.1-0.5-0.5-0.5c-0.5,0-0.3,0-0.4,0.4
	c-4.2,10.4-6.9,16.8-10.3,24c-1,2.2-2.5,4.4-4.2,4.7C0.1,64.6,0,64.7,0,65.1c0,0.4,0.1,0.4,0.3,0.4c0.3,0,0.7-0.1,3.3-0.1
	c3.6,0,5.3,0.1,5.6,0.1c0.4,0,0.5-0.1,0.5-0.4c0-0.3-0.2-0.4-0.5-0.5c-1.5-0.1-2.7-1.4-2.7-2.3c0-1.6,0.6-3,2.5-6.8
	c0.4-0.9,0.9-0.9,1.3-0.9h8.4c0.8,2,2.6,6.8,2.6,8.3c0,0.7-0.5,1.3-1.3,1.5c-0.8,0.2-0.9,0.4-0.9,0.7c0,0.3,0.1,0.4,0.3,0.4
	c0.3,0,2.3-0.1,5-0.1c2.5,0,4.5,0.1,5.1,0.1h0.1c0.3,0,3.3-0.1,4.7-0.1c0.2,0,0.4,0,0.6,0c1.3,0,4.2,0.1,4.5,0.1
	c0.5,0,0.8-0.1,0.8-0.3c0-0.3-0.2-0.5-0.6-0.5c-1.8,0-2.6-1.2-2.6-3c0-2.1-0.1-4-0.1-5.9v-5h1.5c3.4,0,4.4,0.4,5.2,3.3
	c0.1,0.3,0.1,0.5,0.6,0.5c0.3,0,0.3-0.1,0.3-0.4c0-1.1-0.1-3-0.1-5.6l0.2-2.5c0-0.3-0.2-0.3-0.4-0.3c-0.3,0-0.3,0.2-0.4,0.6
	c-0.3,1.6-1.4,3-3.1,3H37V40c0-2.5,0.1-2.9,1.4-2.9c1.7,0,4.9,0,6,0c2.6,0,2,0.1,4.1,3c1.2,1.6,2.8,2.5,3.2,2.5
	c0.2,0,0.4-0.1,0.4-0.4c0-0.4-0.9-1.9-1.1-2.7C50.5,37.8,50.3,37,50.3,36.2z M18,53.5c-1,0-6.7,0-7.6,0c-0.3,0-0.3-0.3-0.3-0.5
	c1-2.4,4-10.2,4.3-10.8c0,0,0.2,0,0.4,0.6c0.5,1.5,3.6,10.7,3.6,10.7H18z M146.4,47.4c-2.5-1.6-5.3-3.7-5.3-6.7c0-2.2,2-4,4.7-4
	c3.7,0,6.2,2.5,7.2,6c0.1,0.3,0.3,0.7,0.7,0.7c0.2,0,0.4-0.2,0.4-0.4c0-0.8-0.1-1.3-0.1-3.6c0-0.9,0.2-2.2,0.2-3.2
	c0-0.3,0-0.7-0.3-0.7c-0.6,0-0.7,1.2-2,1.2c-1.8,0-3.3-1.2-6.4-1.2c-4.1,0-8.4,2.6-8.4,7.1c0,3.9,2.9,6.3,6.4,8.4
	c6.4,4,8.3,5.3,8.3,9c0,3.7-2.7,4.6-5.5,4.6c-4.1,0-8-2.7-8.9-7.5c-0.1-0.4-0.1-0.6-0.5-0.6c-0.5,0-0.6,0.2-0.6,0.5
	c0,0.1,0.3,1.6,0.2,4.4c-0.1,1.7-0.5,2.9-1.1,4c-0.2,0.4,0.1,0.5,0.4,0.5c0.7,0.1,0.7-1.6,3.1-1.6c0.7,0,1.7,0.2,3.4,0.9
	c1.6,0.7,3.7,0.9,4.6,0.9c5.3,0,8.9-2.7,8.9-7.5C156,53.9,152.5,51.3,146.4,47.4z M136.1,67.7c-5.7-5-8.2-11.2-9.5-16.8
	c0-0.2,0.2-0.3,0.5-0.3c2.7-0.8,5.9-3.4,5.9-7.1c0-6.1-6.3-7.7-10.5-7.7c-2.5,0-5.9,0.2-7,0.2c-2.7,0-4.8-0.2-5.1-0.2
	c-0.3,0-0.4,0.1-0.4,0.4c0,0.3,0.1,0.4,0.5,0.4c1.4,0.2,2.7,0.5,2.9,4c0.2,2,0,2.9,0,4.7l0,10.5c0,1.8,0,2-0.1,4.2
	c-0.1,2.9,0.1,4.5-2,4.7c-0.7,0.1-1.1,0-1.1,0.5c0,0.3,0.2,0.4,0.5,0.4c0.3,0,3-0.1,4.8-0.1c1.6,0,4.4,0.1,4.7,0.1
	c0.3,0,0.6,0,0.6-0.4c0-0.4-0.4-0.4-0.9-0.5c-1.6,0-2.3-1.4-2.3-2.8c-0.1-2.1-0.1-4.2-0.1-6.1V51c1.1,0,3.2-0.1,3.9,0
	c0.5,0,0.8,0.1,0.9,0.8c2,9.2,7,14.4,14.1,17.3c0.5,0.2,0.6,0,0.6-0.1C137.1,68.7,136.9,68.5,136.1,67.7z M122,49.4h-4.5v-8.7
	c0-2.8,0.7-3.6,3.3-3.6c4.4,0,7.9,1.6,7.9,5.9C128.6,45.9,127.1,49.4,122,49.4z M175.7,0.2c-0.3,0-4,0.1-5.1,0.1
	c-1.3,0-3.7-0.1-4.4-0.1c-0.1,0-0.6-0.1-0.6,0.3c0,0.3,0.3,0.4,0.8,0.4c0.9,0,2.1,0.8,2.5,1.2c0.9,0.9,1.4,1.6,1.4,6.1
	c0,4.1-0.2,9.6-0.4,13.5c0,0.1-0.1,0.3,0,0.4c-4.8-5.6-8.8-10.8-12.5-15.5c-1-1.2-3.8-5.2-4.2-6.1c-0.1-0.2-0.1-0.5-0.6-0.5
	c-0.8,0-2.2,0.1-2.9,0.1c-0.8,0-4.1-0.1-4.4-0.1c-0.4,0-0.6,0.2-0.6,0.4c0,0.3,0.5,0.5,1,0.5c0.7,0,1.7,0.7,2.6,1.6
	c0.6,0.6,1.3,1.4,1.4,2.7c0,0.2,0.1,1.1,0.1,1.8c0,12.5-0.4,16.2-0.4,17c0,4.4-1.5,4.5-2.9,4.8c-0.6,0.1-1.3,0.2-1.3,0.5
	c0,0.2,0.3,0.3,0.5,0.3c0.3,0,3.2-0.1,5.2-0.1c1.3,0,3.9,0.1,4.3,0.1c0.4,0,0.4-0.1,0.4-0.3c0-0.3-0.1-0.4-0.4-0.4
	c-2.7-0.7-3.7-1.1-3.7-4.5c0-0.9,0-2.5,0-8.8c0-3.7,0.1-7.8,0.1-8.7c0,0,0.1,0.1,0.2,0.2c3.9,4.6,12.9,16,18.6,23.2
	c0.3,0.3,1,0.1,1-0.5c0-4.1,0.8-23.6,0.8-25.1c0-3.2,2-3.9,3.5-3.9c0.2,0,0.5-0.1,0.5-0.4C176.2,0.4,176,0.2,175.7,0.2z M114.8,29.5
	c0-0.4-0.3-0.4-1.1-0.4c-2.4-0.2-2.6-1.5-2.6-3.4c0-2.2-0.1-3.9-0.1-5.7V13c0-1.9,0.1-6.5,0.1-8.5c0-2.9,1-3.3,2.8-3.5
	c0.3,0,0.5-0.1,0.5-0.5c0-0.3-0.1-0.3-0.4-0.3c-0.3,0-2.5,0.1-5.3,0.1c-2.7,0-4.4-0.1-4.7-0.1c-0.2,0-0.4,0.2-0.4,0.3
	c0,0.4,0.1,0.5,0.5,0.5c1,0,2.8,0.6,2.8,3.1c0,2,0,2.2,0,5.2l-0.1,10.5c0,1.8,0,2.8-0.1,5c0,1.2,0.3,3.7-2.4,4.1
	c-0.8,0.1-1.2,0.1-1.2,0.5c0,0.4,0.1,0.4,0.4,0.4c0.3,0,3.8-0.1,5.1-0.1c2,0,5.3,0.1,5.6,0.1C114.6,29.9,114.8,29.8,114.8,29.5z
	 M106.7,64.6c-2.4-0.2-2.6-1.5-2.6-3.3c0-2.2-0.1-3.9-0.1-5.7v-6.9c0-1.9,0.1-6.5,0.1-8.5c0-2.9,1-3.3,2.8-3.5
	c0.3,0,0.5-0.1,0.5-0.5c0-0.3-0.1-0.3-0.4-0.3c-0.3,0-2.5,0.1-5.3,0.1c-2.7,0-4.4-0.1-4.7-0.1c-0.2,0-0.4,0.2-0.4,0.3
	c0,0.4,0.1,0.5,0.5,0.5c1,0,2.8,0.6,2.8,3.1c0,2,0,2.2,0,5.2l-0.1,10.5c0,1.8-0.1,3.2-0.2,5.4c-0.1,2.1-0.5,3.9-3.1,3.9
	c-2.2,0-3.2-1.4-3.9-3.4c-2.7-7.1-8.3-23.3-9.1-25.6c-0.2-0.5-0.1-0.5-0.5-0.5c-0.5,0-0.3,0-0.4,0.4c-4.2,10.4-6.9,16.8-10.3,24
	c-1,2.2-2.5,4.4-4.2,4.7c-1.1,0.2-1.2,0.3-1.2,0.6c0,0.4,0.1,0.4,0.3,0.4c0.3,0,0.7-0.1,3.3-0.1c3.6,0,5.3,0.1,5.6,0.1
	c0.4,0,0.5-0.1,0.5-0.4c0-0.3-0.2-0.4-0.5-0.5c-1.5-0.1-2.7-1.4-2.7-2.3c0-1.6,0.6-3,2.5-6.8c0.4-0.9,0.9-0.9,1.3-0.9h8.4
	c0.8,2,2.6,6.8,2.6,8.3c0,0.7-0.5,1.3-1.3,1.5c-0.8,0.2-0.9,0.4-0.9,0.7c0,0.3,0.1,0.4,0.3,0.4c0.3,0,2.3-0.1,5-0.1
	c2.5,0,4.5,0.1,5.1,0.1h0.1c0.3,0,3.8-0.1,5.1-0.1c2,0,5.3,0.1,5.6,0.1c0.3,0,0.6-0.1,0.6-0.4C107.8,64.6,107.5,64.7,106.7,64.6z
	 M85,53.5c-1,0-6.7,0-7.6,0c-0.3,0-0.3-0.3-0.3-0.5c1-2.4,4-10.2,4.3-10.8c0,0,0.2,0,0.4,0.6c0.5,1.5,3.6,10.7,3.6,10.7H85z
	 M67.1,54.1c0-1.1-0.1-3-0.1-5.6l0.2-2.5c0-0.3-0.1-0.3-0.4-0.3c-0.3,0-0.3,0.2-0.4,0.6c-0.3,1.6-1.4,3-3.1,3h-3.9V40
	c0-2.5,0.1-2.9,1.4-2.9c1.7,0,4.9,0,6,0c2.6,0,2,0.1,4.1,3c1.2,1.6,2.8,2.5,3.2,2.5c0.2,0,0.4-0.1,0.4-0.4c0-0.4-0.9-1.9-1.1-2.7
	c-0.5-1.8-0.6-2.5-0.6-3.4c0-0.4-0.7-0.4-1.7-0.4c-3.2,0-8.3,0.1-13.3,0.1c-2.7,0-4.9-0.2-5.2-0.2c-0.3,0-0.4,0-0.4,0.2
	c0,0.4,0,0.6,0.5,0.6c2.3,0.2,2.8,2.3,2.8,4.7c0,2,0,4.4,0,7.4v7c0,1.8-0.1,2.1-0.1,4.2c0,3.1-0.2,4.6-2.1,4.6
	c-0.7,0-0.9,0.1-0.9,0.5c0,0.1,0.3,0.3,0.3,0.3c0.3,0,3.3-0.1,4.9-0.1c1.3,0,4.2,0.1,4.5,0.1c0.5,0,0.8-0.1,0.8-0.3
	c0-0.3-0.2-0.5-0.6-0.5c-1.8,0-2.6-1.2-2.6-3c0-2.1-0.1-4-0.1-5.9v-5H61c3.4,0,4.4,0.4,5.2,3.3c0.1,0.3,0.1,0.5,0.6,0.5
	C67.1,54.5,67.1,54.4,67.1,54.1z"/>
</svg>
