<?xml version="1.0" encoding="utf-8"?>
<!-- Generator: Adobe Illustrator 19.1.0, SVG Export Plug-In . SVG Version: 6.00 Build 0)  -->
<!DOCTYPE svg PUBLIC "-//W3C//DTD SVG 1.1//EN" "http://www.w3.org/Graphics/SVG/1.1/DTD/svg11.dtd">
<svg version="1.1" id="Layer_1" xmlns="http://www.w3.org/2000/svg" xmlns:xlink="http://www.w3.org/1999/xlink" x="0px" y="0px"
	 viewBox="0 0 176.1 47.2" enable-background="new 0 0 176.1 47.2" xml:space="preserve">
<g>
	<g>
		<path d="M103.6,14.6c-0.7-0.9-1.6-1.6-2.6-2.2c-1.1-0.6-2.4-0.9-4-0.9c-1.6,0-3,0.4-4.2,1.1c-1.2,0.7-2,1.6-2.5,2.5h-0.1V0h-7.7
			v35.8h7.7V23.1c0-1.4,0.4-2.6,1.1-3.6c0.7-1,1.8-1.4,3.1-1.4c0.7,0,1.3,0.1,1.7,0.4c0.4,0.3,0.8,0.6,1.1,1.1
			c0.3,0.5,0.4,1,0.5,1.6c0.1,0.6,0.1,1.2,0.1,1.9v12.8h7.8V21.2c0-1.2-0.1-2.3-0.4-3.5C104.7,16.5,104.2,15.5,103.6,14.6z"/>
		<path d="M165,17.5c0.6-0.3,1.3-0.4,2-0.4c0.9,0,1.8,0.2,2.7,0.6c0.8,0.4,1.6,0.9,2.2,1.5l4.2-4.4c-1.2-1.1-2.6-1.9-4.3-2.5
			c-1.7-0.6-3.4-0.8-5.2-0.8c-1.1,0-2.3,0.2-3.4,0.5c-1.1,0.3-2.2,0.8-3.1,1.4c-0.9,0.6-1.7,1.4-2.3,2.4c-0.6,1-0.9,2.2-0.9,3.6
			c0,1.1,0.2,2.1,0.6,2.8c0.4,0.8,0.9,1.5,1.6,2c0.6,0.5,1.4,1,2.2,1.3c0.8,0.3,1.6,0.6,2.5,0.8c1.6,0.4,2.8,0.7,3.5,1.1
			c0.8,0.3,1.1,0.9,1.1,1.6c0,0.8-0.3,1.3-0.9,1.6c-0.6,0.3-1.2,0.5-1.9,0.5c-1.1,0-2.2-0.3-3.2-0.8c-1-0.5-1.9-1.1-2.5-1.9
			l-4.3,4.6c1.2,1.2,2.8,2.1,4.6,2.7c1.8,0.6,3.7,0.9,5.6,0.9c1.2,0,2.4-0.1,3.6-0.4c1.2-0.3,2.3-0.7,3.2-1.4c1-0.6,1.7-1.5,2.3-2.5
			c0.6-1,0.9-2.3,0.9-3.8c0-1.1-0.2-2.1-0.7-2.9c-0.4-0.8-1-1.5-1.7-2.1c-0.7-0.6-1.5-1-2.4-1.4c-0.9-0.3-1.8-0.6-2.7-0.8
			c-1.5-0.3-2.6-0.7-3.3-0.9c-0.7-0.3-1-0.8-1-1.4C164.1,18.3,164.4,17.8,165,17.5z"/>
		<path d="M127.6,14.9c-1-1.1-2.3-1.9-3.7-2.5c-1.4-0.6-3-0.9-4.8-0.9c-1.8,0-3.5,0.3-5,0.9c-1.5,0.6-2.9,1.4-4,2.5
			c-1.1,1.1-2,2.4-2.7,4c-0.7,1.6-1,3.3-1,5.2c0,2,0.3,3.8,1,5.3c0.7,1.5,1.6,2.8,2.8,3.9c1.2,1.1,2.6,1.9,4.1,2.4
			c1.6,0.6,3.2,0.8,5,0.8c2.4,0,4.5-0.4,6.3-1.3c1.8-0.9,3.3-2.1,4.4-3.7l-5.4-3.4c-0.5,0.7-1.2,1.3-2.1,1.8
			c-0.8,0.5-1.9,0.7-3.1,0.7c-0.7,0-1.4-0.1-2-0.3c-0.6-0.2-1.2-0.5-1.7-0.9c-0.5-0.4-0.9-0.9-1.3-1.4c-0.3-0.5-0.5-1.1-0.6-1.8h17
			c0-0.3,0-0.6,0-0.9v-0.9c0-2-0.3-3.8-0.9-5.4C129.4,17.3,128.6,16,127.6,14.9z M113.8,21.3c0-0.6,0.2-1.2,0.5-1.7
			c0.3-0.6,0.7-1,1.1-1.4c0.5-0.4,1-0.7,1.7-1c0.6-0.2,1.3-0.4,2.1-0.4c1.5,0,2.7,0.4,3.5,1.3c0.8,0.9,1.2,1.9,1.2,3.2H113.8z"/>
		<path d="M78.1,15.3c-1-1.1-2.1-2-3.5-2.7c-1.4-0.7-2.9-1-4.6-1c-1.7,0-3.2,0.4-4.5,1.1c-1.3,0.7-2.3,1.5-3,2.5h-0.1v-2.9H55v35
			h7.7v-14h0.1c0.7,1,1.7,1.8,3,2.4c1.3,0.6,2.7,0.9,4.1,0.9c1.8,0,3.3-0.3,4.7-1c1.4-0.7,2.6-1.6,3.5-2.8c1-1.2,1.7-2.5,2.2-4
			c0.5-1.5,0.8-3.1,0.8-4.7c0-1.6-0.3-3.2-0.8-4.7C79.8,17.7,79.1,16.4,78.1,15.3z M73.3,26.2c-0.2,0.7-0.6,1.4-1,2
			c-0.5,0.6-1,1-1.7,1.4C69.8,29.9,69,30,68.1,30c-0.9,0-1.7-0.2-2.4-0.5c-0.7-0.3-1.3-0.8-1.8-1.4c-0.5-0.6-0.9-1.2-1.1-1.9
			c-0.3-0.7-0.4-1.5-0.4-2.2c0-0.8,0.1-1.5,0.4-2.2c0.3-0.7,0.6-1.4,1.1-1.9c0.5-0.6,1.1-1,1.8-1.4c0.7-0.3,1.5-0.5,2.4-0.5
			c0.9,0,1.7,0.2,2.4,0.5c0.7,0.3,1.3,0.8,1.7,1.4c0.5,0.6,0.8,1.2,1,1.9c0.2,0.7,0.4,1.5,0.4,2.2S73.5,25.4,73.3,26.2z"/>
		<path d="M147.1,25c0,1.4-0.4,2.5-1.1,3.6c-0.7,1-1.7,1.5-3.1,1.5c-0.7,0-1.3-0.1-1.7-0.4c-0.4-0.3-0.8-0.6-1.1-1.1
			c-0.3-0.5-0.4-1-0.5-1.6c-0.1-0.6-0.1-1.2-0.1-1.9V12.2h-7.8v14.6c0,1.2,0.1,2.4,0.4,3.5c0.3,1.2,0.8,2.2,1.5,3.1
			c0.7,0.9,1.6,1.6,2.6,2.2c1.1,0.6,2.4,0.9,4,0.9c0.8,0,1.6-0.1,2.3-0.3c0.7-0.2,1.4-0.5,2-0.9c0.6-0.3,1.1-0.8,1.6-1.2
			c0.5-0.5,0.8-1,1.1-1.5h0.1v3.3h7.5V12.2h-7.7V25z"/>
		<path d="M18,0.4C8.1,0.4,0,8.5,0,18.5s8.1,18.1,18,18.1c9.9,0,18-8.1,18-18.1S28,0.4,18,0.4z M18,28.9c-5.7,0-10.4-4.7-10.4-10.4
			S12.3,8.1,18,8.1c5.7,0,10.4,4.7,10.4,10.4S23.7,28.9,18,28.9z"/>
		<path d="M52.1,11.6c-1.4,0-2.7,0.4-3.8,1.1c-1.1,0.8-2,1.7-2.5,3h-0.1v-3.4h-7.5v23.6h7.7V23.7c0-0.5,0.1-1,0.3-1.7
			c0.2-0.6,0.5-1.2,0.9-1.7c0.4-0.5,1-1,1.7-1.4c0.7-0.4,1.6-0.6,2.6-0.6c0.3,0,0.6,0,1,0c0.3,0,0.7,0.1,1,0.2l0.3-6.9
			c-0.2-0.1-0.4-0.1-0.7-0.1C52.7,11.6,52.4,11.6,52.1,11.6z"/>
	</g>
</g>
</svg>
