<svg id="Layer_1" data-name="Layer 1" xmlns="http://www.w3.org/2000/svg" viewBox="0 0 200.41 23.59"><defs><style>.cls-1{fill:#5e29ac;}</style></defs><title>TC-logo-text</title><path class="cls-1" d="M18.32,6H11.8V23.18H6.54V6H0V1.12H18.32Zm4.3,1.83A4.26,4.26,0,0,0,20.89,9.5V7.72H16.17V23.18H21.1V14.83a2.71,2.71,0,0,1,.75-2.12A3,3,0,0,1,23.92,12a7.36,7.36,0,0,1,1.32.12,8,8,0,0,1,1.16.29l.46-4.92q-.28-.08-.73-.16a5.85,5.85,0,0,0-1-.08A5.44,5.44,0,0,0,22.63,7.83ZM43.9,7.72V23.18H39.12V21.51A5.6,5.6,0,0,1,37.33,23a5.52,5.52,0,0,1-2.65.58A6.54,6.54,0,0,1,31.82,23a7,7,0,0,1-2.28-1.73A8.14,8.14,0,0,1,28,18.63a9.27,9.27,0,0,1-.54-3.21A9.16,9.16,0,0,1,28,12.24a8.18,8.18,0,0,1,1.5-2.58,7,7,0,0,1,2.28-1.73,6.57,6.57,0,0,1,2.88-.63,5.28,5.28,0,0,1,4.43,2.1V7.72Zm-4.73,7.72A4,4,0,0,0,38.92,14a3.37,3.37,0,0,0-.69-1.12,3.17,3.17,0,0,0-1-.74,3.27,3.27,0,0,0-1.33-.27,3.3,3.3,0,0,0-1.35.27,3,3,0,0,0-1,.75A3.41,3.41,0,0,0,32.8,14a4.27,4.27,0,0,0,0,2.8A3.4,3.4,0,0,0,33.47,18a3,3,0,0,0,1,.75,3.29,3.29,0,0,0,1.35.27,3.25,3.25,0,0,0,1.33-.27,3.17,3.17,0,0,0,1-.74,3.37,3.37,0,0,0,.69-1.12A4,4,0,0,0,39.17,15.44ZM52.54,7.86a4.56,4.56,0,0,0-1.89,1.8V7.72H45.93V23.18h4.93V14.86a3.88,3.88,0,0,1,.2-1.31,2.53,2.53,0,0,1,.54-.91,2.18,2.18,0,0,1,.8-.54,2.68,2.68,0,0,1,1-.17,2.27,2.27,0,0,1,1.8.73,3.11,3.11,0,0,1,.65,2.12v8.4h4.93V13a6.42,6.42,0,0,0-.43-2.4,5.36,5.36,0,0,0-1.16-1.8,5,5,0,0,0-1.74-1.13,5.88,5.88,0,0,0-2.16-.39A6.06,6.06,0,0,0,52.54,7.86Zm23.76.77q-.95-.36-1.76-.61T73,7.61a14.21,14.21,0,0,0-1.57-.23q-.8-.07-1.74-.07a10.52,10.52,0,0,0-2.82.35,6.07,6.07,0,0,0-2.1,1,4.35,4.35,0,0,0-1.31,1.62A5.11,5.11,0,0,0,63,12.48a4.17,4.17,0,0,0,1.32,3.28,7.85,7.85,0,0,0,4.13,1.59l.9.13a9.53,9.53,0,0,1,1.87.43q.57.23.57.67a.81.81,0,0,1-.5.76,4,4,0,0,1-1.65.25,10.75,10.75,0,0,1-3-.38,10.42,10.42,0,0,1-2.5-1.07l-1.72,3.81a7.73,7.73,0,0,0,1.49.73,12.62,12.62,0,0,0,1.75.5,16.75,16.75,0,0,0,1.91.29q1,.09,2,.09a11.28,11.28,0,0,0,3-.37,6.61,6.61,0,0,0,2.25-1.07,4.64,4.64,0,0,0,1.4-1.7,5.2,5.2,0,0,0,.48-2.28A4,4,0,0,0,75.45,15a7.06,7.06,0,0,0-3.77-1.55l-1.13-.17-1-.17a4.73,4.73,0,0,1-.79-.2,1.5,1.5,0,0,1-.5-.28.53.53,0,0,1-.17-.41.78.78,0,0,1,.41-.69,2.72,2.72,0,0,1,1.39-.26,8.2,8.2,0,0,1,1.24.1q.66.1,1.32.26t1.31.38q.65.22,1.21.46ZM79.82.23a2.85,2.85,0,0,0-.93.63,3,3,0,0,0-.62.94A2.94,2.94,0,0,0,78,3a2.9,2.9,0,0,0,1.78,2.7,3.06,3.06,0,0,0,2.32,0A2.89,2.89,0,0,0,83.08,5,2.93,2.93,0,0,0,83.93,3,3,3,0,0,0,83.7,1.8a3,3,0,0,0-.62-.94,2.83,2.83,0,0,0-.94-.63,3.07,3.07,0,0,0-2.32,0Zm3.66,7.49H78.54V23.18h4.93Zm15.17,0H93.37V3.21H88.44V7.72H85.55v4.36h2.88v5.15a9.06,9.06,0,0,0,.35,2.62,5.21,5.21,0,0,0,1.1,2,4.87,4.87,0,0,0,1.87,1.28,7.3,7.3,0,0,0,2.69.45,10.7,10.7,0,0,0,1.7-.13,8.85,8.85,0,0,0,1.43-.35,7.73,7.73,0,0,0,1.23-.54q.57-.32,1.12-.69L98.24,18a11.79,11.79,0,0,1-1.28.65,3.44,3.44,0,0,1-1.39.31,3,3,0,0,1-.87-.12,1.71,1.71,0,0,1-.69-.4,1.89,1.89,0,0,1-.46-.74,3.31,3.31,0,0,1-.17-1.12V12.08h5.28Zm8.72-6.16a10.93,10.93,0,0,0-3.67,2.36,10.67,10.67,0,0,0-2.4,3.62,12.08,12.08,0,0,0-.86,4.61,12.08,12.08,0,0,0,.86,4.61,10.67,10.67,0,0,0,2.4,3.62,10.92,10.92,0,0,0,3.67,2.36,12.55,12.55,0,0,0,4.69.85,12.81,12.81,0,0,0,3-.34,11.23,11.23,0,0,0,2.63-1,10.88,10.88,0,0,0,2.21-1.54,10.64,10.64,0,0,0,1.76-2l-4.32-3.06A6.54,6.54,0,0,1,115,17.8a6.19,6.19,0,0,1-3,.74,6.4,6.4,0,0,1-2.33-.43,5.67,5.67,0,0,1-1.94-1.24,5.83,5.83,0,0,1-1.32-2,7.15,7.15,0,0,1-.49-2.73,7.09,7.09,0,0,1,.46-2.59,6.11,6.11,0,0,1,1.27-2,5.63,5.63,0,0,1,1.92-1.32A6.2,6.2,0,0,1,112,5.75a6.12,6.12,0,0,1,3,.75,6,6,0,0,1,2.2,2.17L121.85,6a10,10,0,0,0-1.73-2.24,10.18,10.18,0,0,0-2.29-1.67,11.8,11.8,0,0,0-2.73-1,13.18,13.18,0,0,0-7.73.49Zm31.38,13.88c0,.25,0,.53,0,.83a5.47,5.47,0,0,1-.07.7H128.17a3.07,3.07,0,0,0,1.17,1.87,3.64,3.64,0,0,0,2.14.6,4.76,4.76,0,0,0,1.75-.35,5.38,5.38,0,0,0,1.62-1L138,21a8.33,8.33,0,0,1-2.93,1.88,10.72,10.72,0,0,1-3.88.66A9.08,9.08,0,0,1,127.9,23a7.46,7.46,0,0,1-2.57-1.64,7.3,7.3,0,0,1-1.66-2.54,8.82,8.82,0,0,1-.59-3.29,9.33,9.33,0,0,1,.57-3.34,7.56,7.56,0,0,1,1.62-2.6,7.37,7.37,0,0,1,2.5-1.69A8.31,8.31,0,0,1,131,7.29a8.14,8.14,0,0,1,3.14.59,7,7,0,0,1,2.44,1.67,7.67,7.67,0,0,1,1.58,2.58A9.25,9.25,0,0,1,138.74,15.44Zm-4.93-1.59a3.33,3.33,0,0,0-1-1.76,2.66,2.66,0,0,0-1.79-.6,2.73,2.73,0,0,0-1.85.61,3.29,3.29,0,0,0-1,1.76Zm13.41-6a4.56,4.56,0,0,0-1.89,1.8V7.72H140.6V23.18h4.93V14.86a3.9,3.9,0,0,1,.2-1.31,2.53,2.53,0,0,1,.54-.91,2.19,2.19,0,0,1,.79-.54,2.68,2.68,0,0,1,1-.17,2.27,2.27,0,0,1,1.8.73,3.11,3.11,0,0,1,.65,2.12v8.4h4.93V13a6.4,6.4,0,0,0-.43-2.4,5.35,5.35,0,0,0-1.16-1.8,5,5,0,0,0-1.74-1.13,5.89,5.89,0,0,0-2.16-.39A6.07,6.07,0,0,0,147.22,7.86Zm23.11-.14h-5.28V3.21h-4.93V7.72h-2.88v4.36h2.88v5.15a9.07,9.07,0,0,0,.35,2.62,5.22,5.22,0,0,0,1.1,2,4.88,4.88,0,0,0,1.87,1.28,7.31,7.31,0,0,0,2.7.45,10.68,10.68,0,0,0,1.7-.13,8.87,8.87,0,0,0,1.43-.35,7.74,7.74,0,0,0,1.23-.54q.57-.32,1.12-.69L169.92,18a11.78,11.78,0,0,1-1.28.65,3.44,3.44,0,0,1-1.39.31,3,3,0,0,1-.87-.12,1.71,1.71,0,0,1-.69-.4,1.89,1.89,0,0,1-.46-.74,3.31,3.31,0,0,1-.17-1.12V12.08h5.28Zm17.54,7.72c0,.25,0,.53,0,.83a5.47,5.47,0,0,1-.07.7H177.3a3.07,3.07,0,0,0,1.17,1.87,3.64,3.64,0,0,0,2.14.6,4.76,4.76,0,0,0,1.75-.35,5.38,5.38,0,0,0,1.62-1l3.18,3a8.33,8.33,0,0,1-2.93,1.88,10.72,10.72,0,0,1-3.88.66A9.08,9.08,0,0,1,177,23a7.46,7.46,0,0,1-2.57-1.64,7.3,7.3,0,0,1-1.66-2.54,8.82,8.82,0,0,1-.59-3.29,9.33,9.33,0,0,1,.57-3.34,7.56,7.56,0,0,1,1.62-2.6,7.37,7.37,0,0,1,2.5-1.69,8.31,8.31,0,0,1,3.22-.61,8.14,8.14,0,0,1,3.14.59,7,7,0,0,1,2.44,1.67,7.67,7.67,0,0,1,1.58,2.58A9.25,9.25,0,0,1,187.87,15.44Zm-4.93-1.59a3.33,3.33,0,0,0-1-1.76,2.66,2.66,0,0,0-1.79-.6,2.73,2.73,0,0,0-1.85.61,3.29,3.29,0,0,0-1,1.76Zm13.25-6a4.26,4.26,0,0,0-1.73,1.67V7.72h-4.73V23.18h4.93V14.83a2.71,2.71,0,0,1,.75-2.12,3,3,0,0,1,2.07-.67,7.36,7.36,0,0,1,1.32.12,8,8,0,0,1,1.16.29l.46-4.92q-.28-.08-.73-.16a5.85,5.85,0,0,0-1-.08A5.45,5.45,0,0,0,196.19,7.83Z"/></svg>